<?xml version="1.0" standalone="no"?>
<!DOCTYPE svg PUBLIC "-//W3C//DTD SVG 1.1//EN" "http://www.w3.org/Graphics/SVG/1.1/DTD/svg11.dtd" >
<svg xmlns="http://www.w3.org/2000/svg" xmlns:xlink="http://www.w3.org/1999/xlink" version="1.1">
<metadata>
Created by FontForge 20170910 at Wed May 25 17:39:18 2016
 By Jimmy Wärting
Copyright (c) 2006, 2016 Lukasz Dziedzic published by FSI FontShop International GmbH.
</metadata>
<defs>
<font id="ClanProForUBER-News" horiz-adv-x="353" >
  <font-face 
    font-family="ClanProForUBER-News"
    font-weight="400"
    font-stretch="normal"
    units-per-em="1000"
    panose-1="2 11 4 4 2 1 1 2 1 2"
    ascent="787"
    descent="-213"
    x-height="596"
    cap-height="750"
    bbox="-397 -269 1197 987"
    underline-thickness="61"
    underline-position="-100"
    unicode-range="U+000D-FEFF"
  />
<missing-glyph horiz-adv-x="621" 
d="M537 0h-454v750h454v-750zM144 689v-628h332v628h-332z" />
    <glyph glyph-name="uniFB01" unicode="fi" horiz-adv-x="672" 
d="M13 524v72h106v79q0 83 42 129t131 46q37 0 77 -9v-71q-34 9 -64 9q-48 0 -70 -25t-22 -81v-77h148v-72h-148v-524h-94v524h-106zM530 723q-32 0 -47.5 12t-15.5 41q0 26 16 40.5t47 14.5q63 0 63 -55q0 -53 -63 -53zM577 598v-598h-94v593z" />
    <glyph glyph-name="uniFB02" unicode="fl" horiz-adv-x="708" 
d="M13 524v72h106v74q0 85 44 132.5t133 47.5q45 0 80 -10v-72q-40 11 -73 11q-47 0 -68.5 -27.5t-21.5 -87.5v-68h150v-72h-150v-524h-94v524h-106zM483 117v722l95 5v-712q0 -33 12.5 -47t42.5 -14q23 0 65 5v-74q-49 -9 -93 -9q-66 0 -94 29t-28 95z" />
    <glyph glyph-name=".notdef" horiz-adv-x="621" 
d="M537 0h-454v750h454v-750zM144 689v-628h332v628h-332z" />
    <glyph glyph-name="glyph1" horiz-adv-x="0" 
 />
    <glyph glyph-name="glyph1" horiz-adv-x="0" 
 />
    <glyph glyph-name="uni000D" unicode="&#xd;" horiz-adv-x="252" 
 />
    <glyph glyph-name="space" unicode=" " horiz-adv-x="252" 
 />
    <glyph glyph-name="exclam" unicode="!" horiz-adv-x="302" 
d="M202 750l-16 -509h-73l-14 509h103zM85 48q0 61 63 61q64 0 64 -61q0 -59 -64 -59q-63 0 -63 59z" />
    <glyph glyph-name="quotedbl" unicode="&#x22;" horiz-adv-x="456" 
d="M84 470l-14 300h95l-19 -300h-62zM305 470l-14 300h95l-19 -300h-62z" />
    <glyph glyph-name="numbersign" unicode="#" horiz-adv-x="649" 
d="M66 462v74h151l32 214h74l-31 -214h115l30 214h74l-32 -214h107v-74h-116l-25 -169h141v-75h-151l-33 -218h-73l32 218h-114l-33 -218h-75l33 218h-106v75h116l25 169h-141zM396 462h-114l-25 -169h115z" />
    <glyph glyph-name="dollar" unicode="$" horiz-adv-x="650" 
d="M67 53l23 83q51 -30 98.5 -44.5t99.5 -16.5v274q-112 29 -164 74.5t-52 132.5q0 83 55.5 135.5t160.5 62.5v134h80v-133q107 -5 186 -44l-20 -79q-84 36 -166 40v-249q76 -21 122 -46t69.5 -64.5t23.5 -101.5q0 -92 -54.5 -147.5t-160.5 -68.5v-133h-80v130
q-115 4 -221 61zM166 558q0 -46 30.5 -72.5t91.5 -43.5v227q-122 -13 -122 -111zM490 206q0 52 -32 81t-90 44v-251q62 8 92 39t30 87z" />
    <glyph glyph-name="percent" unicode="%" horiz-adv-x="867" 
d="M146 0l504 750h70l-504 -750h-70zM177 319q-80 0 -116.5 48t-36.5 154q0 108 36.5 155.5t117.5 47.5q80 0 116 -47.5t36 -155.5q0 -106 -36.5 -154t-116.5 -48zM178 666q-31 0 -49 -12.5t-27 -44t-9 -88.5t9 -88.5t27 -43.5t49 -12q43 0 63 30.5t20 113.5t-20 114t-63 31
zM690 -7q-80 0 -116.5 48t-36.5 154q0 108 36.5 155.5t117.5 47.5q80 0 116 -47.5t36 -155.5q0 -106 -36.5 -154t-116.5 -48zM691 340q-31 0 -49 -12.5t-27 -44t-9 -88.5t9 -88.5t27 -43.5t49 -12q43 0 63 30.5t20 113.5t-20 114t-63 31z" />
    <glyph glyph-name="ampersand" unicode="&#x26;" horiz-adv-x="776" 
d="M47 196q0 79 42 131.5t139 91.5q-43 48 -62.5 88.5t-19.5 82.5q0 83 51 128.5t144 45.5q85 0 136.5 -42.5t51.5 -114.5q0 -68 -37 -116t-113 -84l-25 -11q42 -45 95.5 -96.5t93.5 -86.5q23 39 39 95t18 105l88 -1q-4 -58 -26 -131t-54 -121q91 -70 151 -108l-50 -69
q-83 53 -154 112q-49 -57 -112.5 -83.5t-148.5 -26.5q-116 0 -181.5 56t-65.5 155zM443 600q0 45 -26.5 68.5t-76.5 23.5q-54 0 -81.5 -25t-27.5 -73q0 -36 16.5 -68t56.5 -74q77 31 108 65t31 83zM492 148q-150 136 -216 212q-76 -30 -107.5 -67t-31.5 -93
q0 -63 42.5 -98.5t121.5 -35.5q63 0 109.5 20t81.5 62z" />
    <glyph glyph-name="quotesingle" unicode="'" horiz-adv-x="235" 
d="M84 470l-14 300h95l-19 -300h-62z" />
    <glyph glyph-name="parenleft" unicode="(" horiz-adv-x="355" 
d="M175 333q0 -235 174 -459l-76 -5q-85 88 -136.5 209.5t-51.5 254.5q0 253 188 463l77 -5q-175 -221 -175 -458z" />
    <glyph glyph-name="parenright" unicode=")" horiz-adv-x="355" 
d="M181 325q0 236 -175 459l76 5q85 -88 137 -209.5t52 -254.5q0 -254 -189 -463l-77 5q176 223 176 458z" />
    <glyph glyph-name="asterisk" unicode="*" horiz-adv-x="500" 
d="M203 557l-171 45l25 70l164 -59l-4 177h69l-7 -177l164 59l24 -70l-170 -45l115 -140l-55 -45l-106 151l-107 -150l-57 42z" />
    <glyph glyph-name="plus" unicode="+" horiz-adv-x="669" 
d="M294 113v183h-182v87h182v186h83v-186h186v-87h-186v-183h-83z" />
    <glyph glyph-name="comma" unicode="," horiz-adv-x="294" 
d="M196 48q0 -96 -58 -199h-71q17 38 28.5 85.5t11.5 90.5q0 44 -10 88h93q6 -32 6 -65z" />
    <glyph glyph-name="hyphen" unicode="-" horiz-adv-x="405" 
d="M70 306v70h265v-70h-265z" />
    <glyph glyph-name="period" unicode="." horiz-adv-x="289" 
d="M81 48q0 61 64 61q63 0 63 -61q0 -59 -63 -59q-64 0 -64 59z" />
    <glyph glyph-name="slash" unicode="/" horiz-adv-x="441" 
d="M12 -126l342 920h82l-345 -920h-79z" />
    <glyph glyph-name="zero" unicode="0" horiz-adv-x="650" 
d="M325 -11q-96 0 -154.5 38.5t-86 123t-27.5 223.5q0 143 27.5 227t86 121t155.5 37q95 0 153 -37.5t85.5 -121t27.5 -226.5q0 -139 -27.5 -223t-86 -123t-153.5 -39zM326 671q-62 0 -99 -25t-55 -89t-18 -182q0 -120 18 -184.5t55 -89t99 -24.5q61 0 97.5 25t54 89.5
t17.5 184.5q0 118 -17.5 182t-54 88.5t-97.5 24.5z" />
    <glyph glyph-name="one" unicode="1" horiz-adv-x="650" 
d="M288 554l2 77l-2 1l-59 -38l-125 -73v96l226 135h60v-667h169v-85h-445v85h174v469z" />
    <glyph glyph-name="two" unicode="2" horiz-adv-x="650" 
d="M458 544q0 136 -154 136q-54 0 -106.5 -20t-94.5 -54l-33 80q50 37 112 58.5t129 21.5q116 0 180 -56t64 -159q0 -74 -39 -139.5t-117 -137.5t-228 -189v-7h400v-86h-511v106q187 157 261 223.5t105.5 116t31.5 106.5z" />
    <glyph glyph-name="three" unicode="3" horiz-adv-x="650" 
d="M61 52l29 81q45 -29 93 -43.5t105 -14.5q86 0 132 41t46 111q0 75 -70 104q-42 18 -128 18h-79v82h78q38 0 70 7t52 18q30 17 44.5 43.5t14.5 63.5q0 54 -37.5 82t-107.5 28q-61 0 -109 -17.5t-93 -51.5l-34 77q42 34 107 56t136 22q110 0 170.5 -49.5t60.5 -141.5
q0 -72 -36 -112.5t-97 -60.5v-2q67 -10 110.5 -51.5t43.5 -115.5q0 -113 -72 -173.5t-201 -60.5q-134 0 -228 60z" />
    <glyph glyph-name="four" unicode="4" horiz-adv-x="650" 
d="M386 0v164h-346l-9 63l326 523h121v-501h122v-85h-122v-164h-92zM394 663l-41 -71l-171 -275l-43 -65l1 -3h249l3 324l4 89z" />
    <glyph glyph-name="five" unicode="5" horiz-adv-x="650" 
d="M88 51l20 82q46 -29 91 -43t99 -14q89 0 131.5 42.5t42.5 128.5q0 74 -40.5 108t-126.5 34q-47 0 -93.5 -10.5t-80.5 -27.5l-38 38l30 361h409l4 -90h-335l-13 -155l-6 -58l2 -2q68 28 147 28q238 0 238 -217q0 -130 -65 -197.5t-196 -67.5q-125 0 -220 60z" />
    <glyph glyph-name="six" unicode="6" horiz-adv-x="650" 
d="M335 -9q-134 0 -200 83.5t-66 277.5q0 204 79.5 305.5t233.5 101.5q88 0 165 -30l-9 -86q-36 14 -70 20t-75 6q-110 0 -166 -62t-63 -195l2 -2q36 33 85 51t103 18q234 0 234 -221q0 -132 -64.5 -199.5t-188.5 -67.5zM336 401q-46 0 -93 -20.5t-74 -53.5
q1 -93 18.5 -147.5t53 -79t93.5 -24.5q157 0 157 183q0 71 -37.5 106.5t-117.5 35.5z" />
    <glyph glyph-name="seven" unicode="7" horiz-adv-x="650" 
d="M148 0l331 655h-425l4 95h519v-84l-317 -666h-112z" />
    <glyph glyph-name="eight" unicode="8" horiz-adv-x="650" 
d="M63 207q0 130 140 189v3q-54 24 -83 62.5t-29 103.5q0 90 59.5 141.5t175.5 51.5q234 0 234 -191q0 -57 -30.5 -102t-88.5 -70v-2q69 -23 108 -66.5t39 -119.5q0 -108 -66 -162t-196 -54q-135 0 -199 54t-64 162zM472 560q0 59 -35.5 88.5t-110.5 29.5q-73 0 -108.5 -30
t-35.5 -87q0 -50 28.5 -76.5t84.5 -43.5l65 -20q58 27 85 60t27 79zM492 203q0 57 -35.5 87.5t-101.5 49.5l-71 21q-59 -28 -93 -65t-34 -89q0 -70 40.5 -103t131.5 -33q77 0 120 32.5t43 99.5z" />
    <glyph glyph-name="nine" unicode="9" horiz-adv-x="650" 
d="M281 -9q-52 0 -92.5 8t-81.5 27l14 82q37 -16 73 -23.5t78 -7.5q107 0 158 66.5t56 216.5l-2 1q-68 -61 -183 -61q-121 0 -180.5 59.5t-59.5 164.5q0 112 62.5 173.5t187.5 61.5q129 0 199 -87.5t70 -259.5q0 -222 -73.5 -321.5t-225.5 -99.5zM310 674q-76 0 -115.5 -37
t-39.5 -109q0 -148 163 -148q51 0 94 17t71 51q-3 226 -173 226z" />
    <glyph glyph-name="colon" unicode=":" horiz-adv-x="290" 
d="M81 543q0 61 64 61q63 0 63 -61q0 -60 -63 -60q-64 0 -64 60zM81 48q0 61 64 61q63 0 63 -61q0 -59 -63 -59q-64 0 -64 59z" />
    <glyph glyph-name="semicolon" unicode=";" horiz-adv-x="294" 
d="M83 543q0 61 64 61q63 0 63 -61q0 -60 -63 -60q-64 0 -64 60zM196 48q0 -96 -58 -199h-71q17 38 28.5 85.5t11.5 90.5q0 44 -10 88h93q6 -32 6 -65z" />
    <glyph glyph-name="less" unicode="&#x3c;" horiz-adv-x="669" 
d="M245 335l73 -33l227 -111v-93l-416 215v47l416 221v-95l-227 -114l-73 -34v-3z" />
    <glyph glyph-name="equal" unicode="=" horiz-adv-x="669" 
d="M559 464v-76h-444v76h444zM559 282v-76h-444v76h444z" />
    <glyph glyph-name="greater" unicode="&#x3e;" horiz-adv-x="669" 
d="M429 334v3l-74 34l-226 115v95l416 -221v-47l-416 -215v93l226 110z" />
    <glyph glyph-name="question" unicode="?" horiz-adv-x="514" 
d="M287 346l-4 -116h-74l-7 160q92 30 132 67.5t40 97.5q0 59 -33.5 89t-95.5 30q-99 0 -176 -70l-37 76q39 38 97 60t127 22q104 0 160 -51.5t56 -141.5q0 -83 -47 -136.5t-138 -86.5zM184 48q0 61 63 61t63 -61q0 -59 -63 -59t-63 59z" />
    <glyph glyph-name="at" unicode="@" horiz-adv-x="862" 
d="M51 341q0 122 47 224t138.5 162.5t219.5 60.5q108 0 188.5 -47.5t123.5 -134t43 -200.5q0 -144 -53 -216t-139 -72q-43 0 -73 19t-42 55h-2q-21 -34 -57.5 -54t-78.5 -20q-60 0 -95.5 43t-35.5 127q0 73 28 138t77 104t107 39q62 0 91 -43h2l13 36l54 -3l-45 -261
q-3 -19 -3 -37q0 -36 17 -57t52 -21q57 0 91.5 56.5t34.5 165.5q0 94 -34.5 168t-102 116t-162.5 42q-111 0 -189 -52.5t-117 -141t-39 -196.5q0 -113 37.5 -201t115 -138.5t192.5 -50.5q104 0 175 29t116 70l23 -52q-124 -104 -313 -104q-128 0 -219.5 55t-138.5 156
t-47 236zM489 306l27 158q-18 37 -65 37q-37 0 -68.5 -30t-50 -79t-18.5 -103q0 -49 19.5 -74t53.5 -25q37 0 65 32.5t37 83.5z" />
    <glyph glyph-name="A" unicode="A" horiz-adv-x="716" 
d="M130 0h-109l274 750h126l275 -750h-115l-61 181h-328zM493 267l-115 336l-19 64h-3l-20 -64l-117 -336h274z" />
    <glyph glyph-name="B" unicode="B" horiz-adv-x="709" 
d="M394 0h-287v750h276q111 0 166.5 -47t55.5 -140q0 -67 -28.5 -107.5t-78.5 -56.5v-3q137 -32 137 -183q0 -213 -241 -213zM379 662h-173v-235h181q121 0 121 118q0 63 -31 90t-98 27zM392 349h-186v-263h189q70 0 104 31t34 104q0 66 -34 97t-107 31z" />
    <glyph glyph-name="C" unicode="C" horiz-adv-x="617" 
d="M403 669q-81 0 -130 -27t-72 -90t-23 -171q0 -115 23.5 -181t73 -94t131.5 -28t157 36l13 -84q-37 -19 -86 -31.5t-97 -12.5q-166 0 -244 95.5t-78 300.5q0 195 79.5 288t247.5 93q45 0 94 -10t81 -25l-12 -90q-31 14 -72.5 22.5t-85.5 8.5z" />
    <glyph glyph-name="D" unicode="D" horiz-adv-x="758" 
d="M352 0h-245v750h243q171 0 254 -88.5t83 -283.5q0 -191 -86.5 -284.5t-248.5 -93.5zM349 656h-140v-563h140q115 0 173.5 66t58.5 219q0 105 -25.5 166t-76 86.5t-130.5 25.5z" />
    <glyph glyph-name="E" unicode="E" horiz-adv-x="642" 
d="M107 0v750h463v-92h-361v-226h310v-84h-310v-257h378v-91h-480z" />
    <glyph glyph-name="F" unicode="F" horiz-adv-x="606" 
d="M512 422l-1 -89h-302v-333h-102v750h461l2 -94h-361v-234h303z" />
    <glyph glyph-name="G" unicode="G" horiz-adv-x="716" 
d="M71 372q0 205 83 298t262 93q57 0 111 -10t96 -27l-11 -93q-104 38 -199 38q-84 0 -135 -27t-75.5 -91.5t-24.5 -178.5q0 -112 22.5 -176.5t72 -92.5t133.5 -28q70 0 133 21v214h-141v82h234v-360q-41 -21 -103.5 -34.5t-126.5 -13.5q-118 0 -190.5 40.5t-106.5 125.5
t-34 220z" />
    <glyph glyph-name="H" unicode="H" horiz-adv-x="774" 
d="M209 342v-342h-102v750h102v-315h355v315h102v-750h-102v342h-355z" />
    <glyph glyph-name="I" unicode="I" horiz-adv-x="318" 
d="M211 0h-104v750h104v-750z" />
    <glyph glyph-name="J" unicode="J" horiz-adv-x="553" 
d="M194 -14q-51 0 -93 10t-72 27l9 95q24 -17 64 -28.5t81 -11.5q83 0 122.5 42.5t39.5 133.5v496h103v-498q0 -130 -66.5 -198t-187.5 -68z" />
    <glyph glyph-name="K" unicode="K" horiz-adv-x="711" 
d="M209 346v-346h-102v750h102v-318h110l231 318h121l-260 -355l275 -395h-126l-243 346h-108z" />
    <glyph glyph-name="L" unicode="L" horiz-adv-x="584" 
d="M107 0v750h103v-656h349l-3 -94h-449z" />
    <glyph glyph-name="M" unicode="M" horiz-adv-x="936" 
d="M467 143h3l28 75l216 532h115v-750h-93v500l2 81l-3 1l-29 -76l-204 -506h-72l-202 503l-29 76l-2 -1l1 -81v-497h-91v750h116l215 -532z" />
    <glyph glyph-name="N" unicode="N" horiz-adv-x="779" 
d="M200 589l-2 -1l1 -81v-507h-92v750h93l336 -504l45 -67l2 1l-2 80v490h90v-750h-73l-354 521z" />
    <glyph glyph-name="O" unicode="O" horiz-adv-x="761" 
d="M382 -14q-112 0 -180 40t-99.5 125.5t-31.5 223.5q0 139 31 223.5t99 124t181 39.5q112 0 179.5 -39.5t98.5 -124t31 -223.5q0 -140 -31 -225t-98.5 -124.5t-179.5 -39.5zM381 669q-76 0 -119.5 -26t-63.5 -89t-20 -179q0 -115 20 -178.5t64 -90t120 -26.5t119.5 26.5
t63.5 90t20 178.5q0 116 -20 179.5t-63.5 89t-120.5 25.5z" />
    <glyph glyph-name="P" unicode="P" horiz-adv-x="668" 
d="M357 283h-148v-283h-102v750h250q137 0 199 -56t62 -179q0 -117 -62.5 -174.5t-198.5 -57.5zM357 663h-148v-296h148q82 0 119 32.5t37 116.5q0 80 -36.5 113.5t-119.5 33.5z" />
    <glyph glyph-name="Q" unicode="Q" horiz-adv-x="761" 
d="M448 -10l102 -203h-101l-90 200q-103 4 -166 45.5t-92.5 125.5t-29.5 217q0 139 31 223.5t99 124t181 39.5q112 0 179.5 -39.5t98.5 -124t31 -223.5q0 -125 -24.5 -206t-78 -124.5t-140.5 -54.5zM585 375q0 116 -20 179.5t-63.5 89t-120.5 25.5q-76 0 -119.5 -26
t-63.5 -89t-20 -179q0 -115 20 -178.5t64 -90t120 -26.5t119.5 26.5t63.5 90t20 178.5z" />
    <glyph glyph-name="R" unicode="R" horiz-adv-x="689" 
d="M454 336l197 -336h-121l-170 317h-151v-317h-102v750h254q123 0 182 -52.5t59 -161.5q0 -86 -38 -136.5t-110 -63.5zM362 663h-153v-266h148q74 0 107 31t33 105q0 70 -32 100t-103 30z" />
    <glyph glyph-name="S" unicode="S" horiz-adv-x="599" 
d="M283 -14q-123 0 -219 57l15 91q94 -57 204 -57q78 0 118 34t40 96q0 36 -21 60.5t-52.5 39.5t-86.5 35q-69 25 -111 46.5t-71.5 61.5t-29.5 103q0 93 62.5 151.5t184.5 58.5q55 0 106 -10.5t92 -30.5l-15 -87q-91 36 -178 36q-80 0 -116.5 -31.5t-36.5 -81.5
q0 -34 20.5 -57t51 -37.5t83.5 -32.5q70 -25 112.5 -46.5t73 -63.5t30.5 -108q0 -107 -66.5 -167t-189.5 -60z" />
    <glyph glyph-name="T" unicode="T" horiz-adv-x="597" 
d="M246 0v656h-221v94h547v-94h-222v-656h-104z" />
    <glyph glyph-name="U" unicode="U" horiz-adv-x="774" 
d="M387 -14q-285 0 -285 284v480h101v-480q0 -98 45 -143.5t139 -45.5t139 45.5t45 143.5v480h102v-480q0 -284 -286 -284z" />
    <glyph glyph-name="V" unicode="V" horiz-adv-x="690" 
d="M287 0l-267 750h113l189 -574l24 -77h3l23 77l192 574h106l-267 -750h-116z" />
    <glyph glyph-name="W" unicode="W" horiz-adv-x="1013" 
d="M720 99h3l15 79l123 572h102l-181 -750h-125l-133 570l-16 80h-3l-17 -80l-133 -570h-124l-181 750h105l124 -574l16 -79h3l16 78l138 575h113l137 -572z" />
    <glyph glyph-name="X" unicode="X" horiz-adv-x="697" 
d="M46 750h123l144 -239l35 -62h3l33 63l143 238h118l-224 -360l239 -390h-118l-161 270l-32 60h-3l-32 -62l-156 -268h-120l234 389z" />
    <glyph glyph-name="Y" unicode="Y" horiz-adv-x="657" 
d="M331 349h3l33 73l163 328h112l-260 -495v-255h-104v255l-263 495h116l165 -329z" />
    <glyph glyph-name="Z" unicode="Z" horiz-adv-x="632" 
d="M404 590l45 64l-1 2h-378v94h502v-77l-341 -513l-46 -64l1 -3h387v-93h-516v68z" />
    <glyph glyph-name="bracketleft" unicode="[" horiz-adv-x="326" 
d="M323 724h-143v-784h143v-68h-229v922h229v-70z" />
    <glyph glyph-name="backslash" unicode="\" horiz-adv-x="384" 
d="M311 -126l-303 920h78l302 -920h-77z" />
    <glyph glyph-name="bracketright" unicode="]" horiz-adv-x="326" 
d="M3 -60h144v784h-144v70h229v-922h-229v68z" />
    <glyph glyph-name="asciicircum" unicode="^" horiz-adv-x="674" 
d="M78 463l226 341h67l224 -341h-77l-181 268l-179 -268h-80z" />
    <glyph glyph-name="underscore" unicode="_" horiz-adv-x="429" 
d="M27 -106v61h378v-61h-378z" />
    <glyph glyph-name="grave" unicode="`" horiz-adv-x="399" 
d="M147 913l126 -195h-88l-141 195h103z" />
    <glyph glyph-name="a" unicode="a" horiz-adv-x="618" 
d="M252 -10q-90 0 -140 47t-50 144q0 86 55.5 133.5t165.5 47.5q79 0 143 -23v59q0 71 -33 99.5t-112 28.5q-50 0 -91.5 -10t-83.5 -31l-9 82q88 40 200 40q82 0 130.5 -23t70 -71.5t21.5 -128.5v-384h-71l-9 75l-3 1q-25 -40 -73.5 -63t-110.5 -23zM299 294
q-77 0 -112.5 -28.5t-35.5 -83.5q0 -61 32.5 -87.5t94.5 -26.5q39 0 73.5 14t54.5 37.5t20 48.5v104q-14 8 -47.5 15t-79.5 7z" />
    <glyph glyph-name="b" unicode="b" horiz-adv-x="651" 
d="M351 -12q-55 0 -100.5 19.5t-74.5 55.5h-3l-14 -63h-63v840l94 6v-227l-2 -80l3 -2q31 34 75 51.5t96 17.5q109 0 167.5 -72t58.5 -235t-60 -237t-177 -74zM336 522q-47 0 -85 -19t-61 -52v-312q20 -32 57.5 -52.5t89.5 -20.5q76 0 115.5 50t39.5 181q0 88 -18 137.5
t-51.5 68.5t-86.5 19z" />
    <glyph glyph-name="c" unicode="c" horiz-adv-x="520" 
d="M338 520q-96 0 -136.5 -50.5t-40.5 -167.5q0 -124 43.5 -178t131.5 -54q35 0 68 9t59 25l8 -76q-28 -19 -68 -30t-86 -11q-128 0 -191 76.5t-63 238.5q0 153 62 228t194 75q39 0 77.5 -8t69.5 -22l-7 -83q-58 28 -121 28z" />
    <glyph glyph-name="d" unicode="d" horiz-adv-x="658" 
d="M469 65q-57 -77 -176 -77q-120 0 -175 75t-55 236q0 153 56 230t174 77q51 0 95 -17.5t74 -52.5l2 2l-2 80v222l94 6v-846h-73l-11 64zM319 520q-58 0 -92.5 -22.5t-50 -71.5t-15.5 -131q0 -85 14.5 -134.5t48.5 -72t94 -22.5q57 0 92.5 21.5t51.5 51.5v313
q-20 31 -57.5 49.5t-85.5 18.5z" />
    <glyph glyph-name="e" unicode="e" horiz-adv-x="611" 
d="M63 307q0 146 67 222.5t192 76.5q113 0 170.5 -67t57.5 -207q0 -41 -2 -57h-387q1 -106 44.5 -154t135.5 -48q94 0 179 39l9 -81q-39 -19 -89.5 -30.5t-105.5 -11.5q-142 0 -206.5 78t-64.5 240zM320 529q-76 0 -116 -43.5t-44 -132.5h298q0 94 -34.5 135t-103.5 41z" />
    <glyph glyph-name="f" unicode="f" horiz-adv-x="382" 
d="M13 524v72h106v69q0 87 47.5 136t142.5 49q51 0 88 -11v-72q-42 12 -81 12q-54 0 -78.5 -29.5t-24.5 -89.5v-64h163v-72h-163v-524h-94v524h-106z" />
    <glyph glyph-name="g" unicode="g" horiz-adv-x="633" 
d="M52 -40q0 81 78 124q-64 26 -64 92q0 67 72 99q-66 45 -66 145q0 92 58 140t173 48q99 0 159 -34l152 10v-75h-108q21 -39 21 -90q0 -90 -56.5 -138t-169.5 -48q-58 0 -103 13q-22 -8 -33.5 -20.5t-11.5 -32.5q0 -44 63 -50l167 -16q65 -6 106 -19.5t64.5 -43t23.5 -82.5
t-32 -94t-95 -64.5t-152 -23.5q-123 0 -184.5 42t-61.5 118zM436 420q0 62 -30 89t-104 27q-72 0 -104 -28t-32 -88q0 -63 33 -89t103 -26q72 0 103 28.5t31 86.5zM486 -27q0 40 -27.5 54.5t-92.5 21.5l-170 17q-57 -31 -57 -89q0 -50 39.5 -75.5t127.5 -25.5
q93 0 136.5 26.5t43.5 70.5z" />
    <glyph glyph-name="h" unicode="h" horiz-adv-x="653" 
d="M331 521q-46 0 -84 -19.5t-57 -49.5v-452h-94v840l94 6v-226l-2 -80l3 -2q31 33 74.5 50.5t93.5 17.5q97 0 148.5 -54.5t51.5 -156.5v-395h-94v395q0 62 -33.5 94t-100.5 32z" />
    <glyph glyph-name="i" unicode="i" horiz-adv-x="286" 
d="M143 723q-32 0 -47.5 12t-15.5 41q0 26 16 40.5t47 14.5q63 0 63 -55q0 -53 -63 -53zM190 598v-598h-94v593z" />
    <glyph glyph-name="j" unicode="j" horiz-adv-x="286" 
d="M143 723q-32 0 -47.5 12t-15.5 41q0 26 16 40.5t47 14.5q63 0 63 -55q0 -53 -63 -53zM20 -206q-52 0 -85 14l6 80q29 -11 64 -11q41 0 66 26t25 79v611l94 5v-619q0 -90 -46 -137.5t-124 -47.5z" />
    <glyph glyph-name="k" unicode="k" horiz-adv-x="596" 
d="M460 596h108l-207 -271l215 -325h-109l-187 282h-90v-282h-94v840l94 6v-486h90z" />
    <glyph glyph-name="l" unicode="l" horiz-adv-x="321" 
d="M96 117v723l95 5v-713q0 -33 12.5 -47t42.5 -14q23 0 65 5v-74q-49 -9 -93 -9q-66 0 -94 29t-28 95z" />
    <glyph glyph-name="m" unicode="m" horiz-adv-x="957" 
d="M167 596l11 -64h3q26 35 67 54t92 19q58 0 98 -24t60 -68h3q22 44 66 68t105 24q88 0 139.5 -51.5t51.5 -156.5v-397h-94v396q0 62 -32.5 93t-91.5 31q-51 0 -84.5 -29.5t-33.5 -83.5v-407h-94v407q0 58 -32 85.5t-86 27.5q-37 0 -72 -18.5t-53 -48.5v-453h-94v596h71z
" />
    <glyph glyph-name="n" unicode="n" horiz-adv-x="653" 
d="M167 596l10 -70h2q65 80 178 80q97 0 150 -50.5t53 -150.5v-405h-94v394q0 128 -128 128q-48 0 -87 -20t-61 -53v-449h-94v596h71z" />
    <glyph glyph-name="o" unicode="o" horiz-adv-x="642" 
d="M323 -14q-136 0 -198 72.5t-62 237.5q0 164 62.5 237t197.5 73q91 0 147 -31.5t82.5 -99.5t26.5 -179t-26.5 -179t-82.5 -99.5t-147 -31.5zM323 66q59 0 93.5 22t50.5 72t16 136t-16 136t-50.5 72t-93.5 22q-60 0 -95 -22t-51 -72t-16 -136t16.5 -136t51.5 -72t94 -22z
" />
    <glyph glyph-name="p" unicode="p" horiz-adv-x="651" 
d="M354 -11q-107 0 -162 66l-2 -1l1 -81v-173h-95v796h70l14 -61h2q32 34 78 52.5t100 18.5q115 0 171.5 -70t56.5 -237q0 -310 -234 -310zM337 521q-47 0 -84.5 -18.5t-61.5 -52.5v-307q20 -33 56 -53.5t85 -20.5q77 0 118 50t41 180q0 85 -17.5 133.5t-50.5 68.5t-86 20z
" />
    <glyph glyph-name="q" unicode="q" horiz-adv-x="649" 
d="M461 54l-2 1q-29 -31 -70 -47.5t-92 -16.5q-234 0 -234 307q0 158 59.5 233t177.5 75q57 0 103 -20t75 -58h3l12 68h60v-796l-94 -1v174zM318 519q-58 0 -92 -20.5t-49.5 -68.5t-15.5 -133q0 -84 17 -133t51 -70t90 -21q39 0 70 11.5t49 30t21 37.5v296
q-15 30 -53.5 50.5t-87.5 20.5z" />
    <glyph glyph-name="r" unicode="r" horiz-adv-x="449" 
d="M173 596l7 -129h2q54 137 184 137q39 0 66 -8l-6 -94q-29 9 -68 9q-48 0 -86.5 -25.5t-60 -73t-21.5 -110.5v-302h-94v596h77z" />
    <glyph glyph-name="s" unicode="s" horiz-adv-x="515" 
d="M243 -12q-111 0 -191 39l8 86q37 -21 83.5 -33.5t96.5 -12.5q69 0 100.5 25t31.5 68q0 38 -30.5 58.5t-94.5 38.5q-64 19 -102.5 38t-60.5 53t-22 89q0 78 55 123.5t160 45.5q98 0 170 -32l-8 -84q-75 34 -165 34q-58 0 -88.5 -22.5t-30.5 -64.5q0 -30 14.5 -48t40 -29
t70.5 -23q64 -17 101.5 -34.5t58.5 -48.5t21 -81q0 -85 -54 -135t-164 -50z" />
    <glyph glyph-name="t" unicode="t" horiz-adv-x="428" 
d="M120 154v370h-101v72h101l15 183h80v-183h176v-72h-176v-352q0 -57 19.5 -80t65.5 -23q26 0 51.5 5t40.5 12v-75q-47 -21 -115 -21q-84 0 -120.5 39.5t-36.5 124.5z" />
    <glyph glyph-name="u" unicode="u" horiz-adv-x="653" 
d="M486 0l-10 74h-2q-64 -84 -181 -84q-96 0 -147.5 50.5t-51.5 155.5v400h93v-394q0 -66 31.5 -97.5t97.5 -31.5q49 0 87 21.5t60 56.5v445h94v-596h-71z" />
    <glyph glyph-name="v" unicode="v" horiz-adv-x="587" 
d="M237 0l-229 596h104l155 -433l26 -78h3l25 78l154 433h104l-229 -596h-113z" />
    <glyph glyph-name="w" unicode="w" horiz-adv-x="865" 
d="M624 73h3l16 81l102 442h92l-151 -596h-119l-110 418l-18 86h-3l-20 -86l-114 -418h-116l-158 596h96l104 -440l17 -81h3l18 81l120 440h100l120 -443z" />
    <glyph glyph-name="x" unicode="x" horiz-adv-x="581" 
d="M35 596h111l113 -187l33 -61h2l33 62l111 186h108l-187 -292l192 -304h-111l-120 199l-32 59h-2l-31 -60l-118 -198h-107l195 302z" />
    <glyph glyph-name="y" unicode="y" horiz-adv-x="599" 
d="M243 -33l15 40l-244 589h109l155 -415l25 -76h3l25 78l155 413h101l-249 -631q-34 -87 -80 -131t-130 -44q-51 0 -90 15v83q38 -18 85 -18q44 0 72.5 24.5t47.5 72.5z" />
    <glyph glyph-name="z" unicode="z" horiz-adv-x="528" 
d="M163 80h316l-3 -80h-424v66l266 384l47 63l-1 2h-301l4 81h406v-67l-264 -383l-47 -63z" />
    <glyph glyph-name="braceleft" unicode="{" horiz-adv-x="370" 
d="M190 337v-3q30 -13 46.5 -39.5t16.5 -62.5q0 -41 -8 -105q-1 -9 -4 -38.5t-3 -60.5q0 -83 99 -83h30v-73h-26q-101 0 -145.5 36.5t-44.5 107.5q0 41 10 111q1 9 5 42t4 65t-20.5 53.5t-55.5 26.5v43q35 5 55.5 26.5t20.5 53.5t-4 65t-5 41q-10 70 -10 112q0 71 44.5 107
t145.5 36h26v-73h-30q-52 0 -75.5 -21t-23.5 -61q0 -31 3 -61.5t4 -38.5q8 -64 8 -103q0 -37 -16.5 -64t-46.5 -39z" />
    <glyph glyph-name="bar" unicode="|" horiz-adv-x="281" 
d="M178 -178h-74v990h74v-990z" />
    <glyph glyph-name="braceright" unicode="}" horiz-adv-x="370" 
d="M181 334v3q-31 12 -47.5 39t-16.5 64q0 39 8 103q1 8 4 38.5t3 61.5q0 82 -99 82h-30v73h26q101 0 145 -36t44 -107q0 -35 -4 -70t-5 -42q-9 -61 -9 -106q0 -32 20.5 -53.5t55.5 -26.5v-43q-35 -5 -55.5 -26.5t-20.5 -53.5q0 -44 9 -107q1 -7 5 -42t4 -69
q0 -71 -44 -107.5t-145 -36.5h-26v73h30q99 0 99 83q0 31 -3 60.5t-4 38.5q-8 64 -8 105q0 36 16.5 62.5t47.5 39.5z" />
    <glyph glyph-name="asciitilde" unicode="~" horiz-adv-x="669" 
d="M235 771q26 0 51.5 -10t58.5 -28q32 -17 52.5 -25t39.5 -8q30 0 46.5 14.5t26.5 44.5h57q-16 -145 -129 -145q-26 0 -50 9t-59 28q-32 17 -52 25t-39 8q-56 0 -74 -59h-58q17 146 129 146z" />
    <glyph glyph-name="uni00A0" unicode="&#xa0;" horiz-adv-x="252" 
 />
    <glyph glyph-name="exclamdown" unicode="&#xa1;" horiz-adv-x="302" 
d="M216 551q0 -61 -63 -61q-64 0 -64 61q0 59 64 59q63 0 63 -59zM99 -151l16 509h72l15 -509h-103z" />
    <glyph glyph-name="cent" unicode="&#xa2;" horiz-adv-x="650" 
d="M412 -10v-139h-83v140q-105 12 -157 88t-52 224q0 138 51 212.5t158 87.5v147h83v-146q63 -6 110 -28l-6 -83q-59 28 -121 28q-96 0 -137 -50.5t-41 -167.5q0 -124 44 -178t132 -54q71 0 127 34l7 -76q-47 -32 -115 -39z" />
    <glyph glyph-name="sterling" unicode="&#xa3;" horiz-adv-x="650" 
d="M125 547q0 95 63.5 154.5t202.5 59.5q104 0 187 -38l-13 -87q-32 16 -75.5 25.5t-87.5 9.5q-91 0 -134 -36.5t-43 -97.5q0 -29 5 -56t16 -68h263v-77h-244q9 -49 9 -90q0 -56 -20 -97t-55 -65l1 -2q76 15 204 15q98 0 213 -12l-6 -91q-142 15 -251 15q-144 0 -287 -17
l-5 88q56 15 84 56t28 105q0 55 -9 95h-110v77h89q-13 44 -19 72.5t-6 61.5z" />
    <glyph glyph-name="currency" unicode="&#xa4;" horiz-adv-x="650" 
d="M176 459l-66 67l50 54l67 -69q44 29 97 29t96 -30l71 70l49 -53l-68 -69q29 -43 29 -98q0 -52 -27 -93l65 -66l-49 -54l-65 65q-45 -31 -101 -31q-58 0 -101 31l-64 -65l-49 53l64 65q-28 42 -28 95t30 99zM324 251q47 0 80 32t33 79q0 46 -33 78t-80 32q-48 0 -81.5 -32
t-33.5 -78q0 -47 33.5 -79t81.5 -32z" />
    <glyph glyph-name="yen" unicode="&#xa5;" horiz-adv-x="650" 
d="M81 129v69h194v108h-194v69h168l-212 375h114l143 -285l32 -76h3l30 74l144 287h110l-207 -375h167v-69h-191v-108h192v-69h-192v-129h-107v129h-194z" />
    <glyph glyph-name="brokenbar" unicode="&#xa6;" horiz-adv-x="281" 
d="M178 374h-74v438h74v-438zM178 -170h-74v443h74v-443z" />
    <glyph glyph-name="section" unicode="&#xa7;" horiz-adv-x="562" 
d="M162 498q-84 55 -84 127q0 77 57 119.5t164 42.5q51 0 103 -12t87 -34l-10 -73q-82 44 -176 44q-62 0 -95 -22t-33 -61q0 -34 32.5 -57.5t102.5 -56.5q67 -32 109 -58t72 -67t30 -98q0 -46 -25 -85.5t-75 -62.5q40 -27 62 -57.5t22 -68.5q0 -77 -56.5 -119.5
t-162.5 -42.5q-51 0 -103 12t-87 34l9 73q80 -43 176 -43q63 0 95 21.5t32 60.5q0 34 -32.5 58t-102.5 57q-67 32 -108.5 57.5t-71.5 66.5t-30 98q0 45 24.5 84.5t74.5 62.5zM270 437l-34 18q-82 -29 -82 -95q0 -33 21.5 -60t53.5 -47.5t83 -46.5l35 -19q41 14 62 39t21 57
q0 33 -21 59.5t-52.5 46.5t-86.5 48z" />
    <glyph glyph-name="dieresis" unicode="&#xa8;" horiz-adv-x="402" 
d="M35 776q0 57 54 57q29 0 42.5 -14t13.5 -43t-13.5 -42.5t-42.5 -13.5q-28 0 -41 13t-13 43zM257 776q0 57 56 57q54 0 54 -57q0 -29 -13 -42.5t-41 -13.5q-29 0 -42.5 13t-13.5 43z" />
    <glyph glyph-name="copyright" unicode="&#xa9;" horiz-adv-x="905" 
d="M453 771q106 0 196.5 -52.5t143.5 -142.5t53 -196q0 -107 -53 -197.5t-143.5 -143.5t-196.5 -53q-107 0 -197 53t-143 143.5t-53 197.5q0 106 53 196t143 142.5t197 52.5zM453 38q93 0 172 46t125 124.5t46 171.5q0 91 -46 168.5t-125 123t-172 45.5q-94 0 -172.5 -45.5
t-124 -123t-45.5 -168.5t45.5 -169.5t124 -125.5t172.5 -47zM484 549q-87 0 -136 -47t-49 -122q0 -78 50.5 -126t136.5 -48q36 0 70 10.5t61 26.5l10 -66q-30 -25 -74.5 -42t-91.5 -17q-74 0 -132.5 34t-91.5 93.5t-33 133.5q0 69 31 127t89 93t137 35q46 0 86 -13.5
t67 -34.5l-8 -69q-24 14 -57.5 23t-64.5 9z" />
    <glyph glyph-name="ordfeminine" unicode="&#xaa;" horiz-adv-x="420" 
d="M176 370q-60 0 -94 35t-34 106q0 62 38.5 98t109.5 36q52 0 88 -16v39q0 44 -21.5 62.5t-70.5 18.5q-58 0 -112 -24l-7 68q64 28 135 28q84 0 119.5 -38.5t35.5 -127.5v-279h-63l-7 48l-3 1q-40 -55 -114 -55zM212 585q-88 0 -88 -73q0 -74 74 -74q34 0 59.5 20t25.5 45
v69q-9 5 -28 9t-43 4z" />
    <glyph glyph-name="guillemotleft" unicode="&#xab;" horiz-adv-x="663" 
d="M339 129l-290 193v9l290 192v-77l-194 -120l194 -121v-76zM596 129l-290 193v9l290 192v-77l-193 -120l193 -121v-76z" />
    <glyph glyph-name="logicalnot" unicode="&#xac;" horiz-adv-x="669" 
d="M544 383v-240h-78v155h-348v85h426z" />
    <glyph glyph-name="uni00AD" unicode="&#xad;" horiz-adv-x="405" 
d="M70 306v70h265v-70h-265z" />
    <glyph glyph-name="registered" unicode="&#xae;" horiz-adv-x="448" 
d="M225 837q48 0 89 -24.5t65 -66t24 -90.5t-24 -90t-65 -65.5t-89 -24.5q-49 0 -90 24.5t-65 65.5t-24 90t24 90.5t65 66t90 24.5zM225 507q40 0 74.5 20t54.5 54.5t20 74.5q0 41 -20 75t-54.5 54t-74.5 20t-74.5 -20t-55 -54t-20.5 -75q0 -40 20.5 -74.5t55 -54.5
t74.5 -20zM275 643l45 -83h-46l-39 78h-44v-78h-43v201h88q78 0 78 -63q0 -19 -10 -34t-29 -21zM237 725h-46v-57h50q16 0 24.5 8t8.5 20q0 29 -37 29z" />
    <glyph glyph-name="degree" unicode="&#xb0;" horiz-adv-x="352" 
d="M176 777q43 0 79.5 -22t58 -59t21.5 -81q0 -43 -21.5 -80t-58 -59t-79.5 -22t-79.5 22t-57.5 59t-21 80q0 44 21 81t57 59t80 22zM176 512q44 0 75 30t31 73q0 45 -30.5 75.5t-75.5 30.5q-46 0 -75.5 -31t-29.5 -75q0 -42 30.5 -72.5t74.5 -30.5z" />
    <glyph glyph-name="plusminus" unicode="&#xb1;" horiz-adv-x="669" 
d="M293 179v164h-178v82h178v176h84v-176h182v-82h-182v-164h-84zM557 138v-73h-442v73h442z" />
    <glyph glyph-name="uni00B2" unicode="&#xb2;" 
d="M127 561v-3h183v-60h-275v47l48 43q81 71 116.5 112t35.5 79q0 27 -18.5 42.5t-59.5 15.5q-51 0 -107 -37l-18 55q62 43 138 43q67 0 103 -30.5t36 -82.5q0 -56 -44 -105.5t-138 -118.5z" />
    <glyph glyph-name="uni00B3" unicode="&#xb3;" 
d="M156 493q-71 0 -129 33l17 54q48 -30 112 -30q44 0 66 18.5t22 50.5q0 33 -26.5 47t-95.5 14v50q63 0 89 14.5t26 44.5q0 25 -20.5 38t-58.5 13q-33 0 -59.5 -9t-52.5 -27l-17 51q25 19 59.5 31t72.5 12q67 0 104.5 -27.5t37.5 -76.5q0 -64 -68 -86v-2q38 -9 57.5 -31
t19.5 -59q0 -58 -38.5 -90.5t-117.5 -32.5z" />
    <glyph glyph-name="acute" unicode="&#xb4;" horiz-adv-x="399" 
d="M361 913l-142 -195h-88l126 195h104z" />
    <glyph glyph-name="uni03BC" unicode="&#x3bc;" horiz-adv-x="621" 
d="M167 73l-2 -1q6 -143 11 -218l-93 -8v750h94v-394q0 -60 38.5 -93.5t102.5 -33.5q59 0 96.5 29t37.5 82v410h94v-594l-67 -6l-13 58l-3 1q-20 -31 -58 -48.5t-85 -17.5q-50 0 -90.5 20.5t-62.5 63.5z" />
    <glyph glyph-name="paragraph" unicode="&#xb6;" horiz-adv-x="663" 
d="M45 626q0 55 39 89.5t110 34.5h420l-4 -79h-77v-822h-84v822h-176v-822h-84v643q-65 2 -104.5 36.5t-39.5 97.5z" />
    <glyph glyph-name="periodcentered" unicode="&#xb7;" horiz-adv-x="283" 
d="M142 284q-33 0 -47.5 14t-14.5 46q0 61 62 61t62 -61q0 -60 -62 -60z" />
    <glyph glyph-name="cedilla" unicode="&#xb8;" horiz-adv-x="399" 
d="M215 -206h-90l65 215h63z" />
    <glyph glyph-name="uni00B9" unicode="&#xb9;" horiz-adv-x="272" 
d="M121 729l3 80l-3 1l-85 -56l-8 63l119 77h45v-396h-71v231z" />
    <glyph glyph-name="ordmasculine" unicode="&#xba;" horiz-adv-x="456" 
d="M229 369q-95 0 -138.5 52.5t-43.5 173.5t43.5 173.5t138.5 52.5t137.5 -52.5t42.5 -173.5q0 -122 -42.5 -174t-137.5 -52zM229 439q36 0 57 14t31 48t10 94t-10 93.5t-31 47.5t-57 14q-37 0 -58 -14t-30.5 -47t-9.5 -94t9.5 -94.5t30.5 -47.5t58 -14z" />
    <glyph glyph-name="guillemotright" unicode="&#xbb;" horiz-adv-x="662" 
d="M57 523l290 -193v-8l-290 -193v77l194 120l-194 121v76zM314 523l290 -193v-8l-290 -193v77l194 120l-194 121v76z" />
    <glyph glyph-name="onequarter" unicode="&#xbc;" horiz-adv-x="785" 
d="M65 0l504 750h70l-504 -750h-70zM121 555l3 80l-3 1l-85 -56l-8 63l119 77h45v-396h-71v231zM449 82l-6 41l190 272h85v-256h46v-57h-46v-81h-65v81h-204zM656 253l3 81l-2 1l-36 -57l-61 -86l-38 -50l1 -3h131z" />
    <glyph glyph-name="onehalf" unicode="&#xbd;" horiz-adv-x="785" 
d="M65 0l504 750h70l-504 -750h-70zM121 555l3 80l-3 1l-85 -56l-8 63l119 77h45v-396h-71v231zM559 62v-3h183v-60h-275v47l48 43q81 71 116.5 112t35.5 79q0 27 -18.5 42.5t-59.5 15.5q-51 0 -107 -37l-18 55q62 43 138 43q67 0 103 -30.5t36 -82.5q0 -56 -44 -105.5
t-138 -118.5z" />
    <glyph glyph-name="threequarters" unicode="&#xbe;" horiz-adv-x="867" 
d="M146 0l504 750h70l-504 -750h-70zM156 319q-71 0 -129 33l17 54q48 -30 112 -30q44 0 66 18.5t22 50.5q0 33 -26.5 47t-95.5 14v50q63 0 89 14.5t26 44.5q0 25 -20.5 38t-58.5 13q-33 0 -59.5 -9t-52.5 -27l-17 51q25 19 59.5 31t72.5 12q67 0 104.5 -27.5t37.5 -76.5
q0 -64 -68 -86v-2q38 -9 57.5 -31t19.5 -59q0 -58 -38.5 -90.5t-117.5 -32.5zM530 82l-6 41l190 272h85v-256h46v-57h-46v-81h-65v81h-204zM737 253l3 81l-2 1l-36 -57l-61 -86l-38 -50l1 -3h131z" />
    <glyph glyph-name="questiondown" unicode="&#xbf;" horiz-adv-x="514" 
d="M330 543q0 -61 -63 -61t-63 61q0 59 63 59t63 -59zM227 245l4 116h74l7 -160q-92 -30 -132 -67.5t-40 -97.5q0 -59 33.5 -89t94.5 -30q100 0 177 70l37 -76q-39 -38 -97.5 -60t-127.5 -22q-104 0 -159.5 51.5t-55.5 141.5q0 83 47 136.5t138 86.5z" />
    <glyph glyph-name="Agrave" unicode="&#xc0;" horiz-adv-x="716" 
d="M130 0h-109l274 750h126l275 -750h-115l-61 181h-328zM493 267l-115 336l-19 64h-3l-20 -64l-117 -336h274zM301 987l120 -147h-86l-147 147h113z" />
    <glyph glyph-name="Aacute" unicode="&#xc1;" horiz-adv-x="716" 
d="M130 0h-109l274 750h126l275 -750h-115l-61 181h-328zM493 267l-115 336l-19 64h-3l-20 -64l-117 -336h274zM523 987l-146 -147h-86l120 147h112z" />
    <glyph glyph-name="Acircumflex" unicode="&#xc2;" horiz-adv-x="716" 
d="M130 0h-109l274 750h126l275 -750h-115l-61 181h-328zM493 267l-115 336l-19 64h-3l-20 -64l-117 -336h274zM412 987l138 -147h-94l-99 103l-98 -103h-94l136 147h111z" />
    <glyph glyph-name="Atilde" unicode="&#xc3;" horiz-adv-x="716" 
d="M130 0h-109l274 750h126l275 -750h-115l-61 181h-328zM493 267l-115 336l-19 64h-3l-20 -64l-117 -336h274zM274 985q31 0 54 -13.5t46 -37.5q18 -19 32 -28t31 -9q51 0 60 85h55q-4 -73 -34.5 -111t-81.5 -38q-30 0 -53 13t-46 37q-18 19 -32.5 28t-30.5 9
q-26 0 -41 -21.5t-19 -63.5h-56q4 71 34 110.5t82 39.5z" />
    <glyph glyph-name="Adieresis" unicode="&#xc4;" horiz-adv-x="716" 
d="M130 0h-109l274 750h126l275 -750h-115l-61 181h-328zM493 267l-115 336l-19 64h-3l-20 -64l-117 -336h274zM193 890q0 57 54 57q29 0 42.5 -14t13.5 -43t-13.5 -42.5t-42.5 -13.5q-28 0 -41 13t-13 43zM415 890q0 57 56 57q54 0 54 -57q0 -29 -13 -42.5t-41 -13.5
q-29 0 -42.5 13t-13.5 43z" />
    <glyph glyph-name="Aring" unicode="&#xc5;" horiz-adv-x="716" 
d="M361 987q71 0 109.5 -30t38.5 -77q0 -50 -38 -77.5t-110 -27.5q-74 0 -112.5 26.5t-38.5 78.5q0 49 38 78t113 29zM361 825q43 0 65.5 15t22.5 40q0 26 -22 41.5t-66 15.5q-47 0 -69 -15.5t-22 -41.5q0 -55 91 -55zM130 0h-109l274 750h126l275 -750h-115l-61 181h-328z
M493 267l-115 336l-19 64h-3l-20 -64l-117 -336h274z" />
    <glyph glyph-name="AE" unicode="&#xc6;" horiz-adv-x="1018" 
d="M897 432v-84h-290l28 -257h330l-2 -91h-424l-18 181h-304l-95 -181h-122l417 750h535l3 -92h-379l24 -226h297zM514 267l-32 332l-6 80l-3 1l-35 -73l-178 -340h254z" />
    <glyph glyph-name="Ccedilla" unicode="&#xc7;" horiz-adv-x="617" 
d="M393 -14h-6l-34 -192h-90l60 197q-130 19 -191 114t-61 277q0 195 79.5 288t247.5 93q45 0 94 -10t81 -25l-12 -90q-31 14 -72.5 22.5t-85.5 8.5q-81 0 -130 -27t-72 -90t-23 -171q0 -115 23.5 -181t73 -94t131.5 -28t157 36l13 -84q-37 -19 -86 -31.5t-97 -12.5z" />
    <glyph glyph-name="Egrave" unicode="&#xc8;" horiz-adv-x="642" 
d="M107 0v750h463v-92h-361v-226h310v-84h-310v-257h378v-91h-480zM291 987l120 -147h-86l-147 147h113z" />
    <glyph glyph-name="Eacute" unicode="&#xc9;" horiz-adv-x="642" 
d="M107 0v750h463v-92h-361v-226h310v-84h-310v-257h378v-91h-480zM513 987l-146 -147h-86l120 147h112z" />
    <glyph glyph-name="Ecircumflex" unicode="&#xca;" horiz-adv-x="642" 
d="M107 0v750h463v-92h-361v-226h310v-84h-310v-257h378v-91h-480zM402 987l138 -147h-94l-99 103l-98 -103h-94l136 147h111z" />
    <glyph glyph-name="Edieresis" unicode="&#xcb;" horiz-adv-x="642" 
d="M107 0v750h463v-92h-361v-226h310v-84h-310v-257h378v-91h-480zM182 890q0 57 54 57q29 0 42.5 -14t13.5 -43t-13.5 -42.5t-42.5 -13.5q-28 0 -41 13t-13 43zM404 890q0 57 56 57q54 0 54 -57q0 -29 -13 -42.5t-41 -13.5q-29 0 -42.5 13t-13.5 43z" />
    <glyph glyph-name="Igrave" unicode="&#xcc;" horiz-adv-x="318" 
d="M211 0h-104v750h104v-750zM102 987l120 -147h-86l-147 147h113z" />
    <glyph glyph-name="Iacute" unicode="&#xcd;" horiz-adv-x="318" 
d="M211 0h-104v750h104v-750zM324 987l-146 -147h-86l120 147h112z" />
    <glyph glyph-name="Icircumflex" unicode="&#xce;" horiz-adv-x="318" 
d="M211 0h-104v750h104v-750zM213 987l138 -147h-94l-99 103l-98 -103h-94l136 147h111z" />
    <glyph glyph-name="Idieresis" unicode="&#xcf;" horiz-adv-x="318" 
d="M211 0h-104v750h104v-750zM-7 890q0 57 54 57q29 0 42.5 -14t13.5 -43t-13.5 -42.5t-42.5 -13.5q-28 0 -41 13t-13 43zM215 890q0 57 56 57q54 0 54 -57q0 -29 -13 -42.5t-41 -13.5q-29 0 -42.5 13t-13.5 43z" />
    <glyph glyph-name="Eth" unicode="&#xd0;" horiz-adv-x="763" 
d="M687 378q0 -191 -86.5 -284.5t-248.5 -93.5h-245v343h-88v80h88v327h243q171 0 254 -88.5t83 -283.5zM581 378q0 105 -25.5 166t-76 86.5t-130.5 25.5h-140v-233h140v-80h-140v-250h140q115 0 173.5 66t58.5 219z" />
    <glyph glyph-name="Ntilde" unicode="&#xd1;" horiz-adv-x="779" 
d="M200 589l-2 -1l1 -81v-507h-92v750h93l336 -504l45 -67l2 1l-2 80v490h90v-750h-73l-354 521zM305 985q31 0 54 -13.5t46 -37.5q18 -19 32 -28t31 -9q51 0 60 85h55q-4 -73 -34.5 -111t-81.5 -38q-30 0 -53 13t-46 37q-18 19 -32.5 28t-30.5 9q-26 0 -41 -21.5t-19 -63.5
h-56q4 71 34 110.5t82 39.5z" />
    <glyph glyph-name="Ograve" unicode="&#xd2;" horiz-adv-x="761" 
d="M382 -14q-112 0 -180 40t-99.5 125.5t-31.5 223.5q0 139 31 223.5t99 124t181 39.5q112 0 179.5 -39.5t98.5 -124t31 -223.5q0 -140 -31 -225t-98.5 -124.5t-179.5 -39.5zM381 669q-76 0 -119.5 -26t-63.5 -89t-20 -179q0 -115 20 -178.5t64 -90t120 -26.5t119.5 26.5
t63.5 90t20 178.5q0 116 -20 179.5t-63.5 89t-120.5 25.5zM325 987l120 -147h-86l-147 147h113z" />
    <glyph glyph-name="Oacute" unicode="&#xd3;" horiz-adv-x="761" 
d="M382 -14q-112 0 -180 40t-99.5 125.5t-31.5 223.5q0 139 31 223.5t99 124t181 39.5q112 0 179.5 -39.5t98.5 -124t31 -223.5q0 -140 -31 -225t-98.5 -124.5t-179.5 -39.5zM381 669q-76 0 -119.5 -26t-63.5 -89t-20 -179q0 -115 20 -178.5t64 -90t120 -26.5t119.5 26.5
t63.5 90t20 178.5q0 116 -20 179.5t-63.5 89t-120.5 25.5zM547 987l-146 -147h-86l120 147h112z" />
    <glyph glyph-name="Ocircumflex" unicode="&#xd4;" horiz-adv-x="761" 
d="M382 -14q-112 0 -180 40t-99.5 125.5t-31.5 223.5q0 139 31 223.5t99 124t181 39.5q112 0 179.5 -39.5t98.5 -124t31 -223.5q0 -140 -31 -225t-98.5 -124.5t-179.5 -39.5zM381 669q-76 0 -119.5 -26t-63.5 -89t-20 -179q0 -115 20 -178.5t64 -90t120 -26.5t119.5 26.5
t63.5 90t20 178.5q0 116 -20 179.5t-63.5 89t-120.5 25.5zM436 987l138 -147h-94l-99 103l-98 -103h-94l136 147h111z" />
    <glyph glyph-name="Otilde" unicode="&#xd5;" horiz-adv-x="761" 
d="M382 -14q-112 0 -180 40t-99.5 125.5t-31.5 223.5q0 139 31 223.5t99 124t181 39.5q112 0 179.5 -39.5t98.5 -124t31 -223.5q0 -140 -31 -225t-98.5 -124.5t-179.5 -39.5zM381 669q-76 0 -119.5 -26t-63.5 -89t-20 -179q0 -115 20 -178.5t64 -90t120 -26.5t119.5 26.5
t63.5 90t20 178.5q0 116 -20 179.5t-63.5 89t-120.5 25.5zM297 985q31 0 54 -13.5t46 -37.5q18 -19 32 -28t31 -9q51 0 60 85h55q-4 -73 -34.5 -111t-81.5 -38q-30 0 -53 13t-46 37q-18 19 -32.5 28t-30.5 9q-26 0 -41 -21.5t-19 -63.5h-56q4 71 34 110.5t82 39.5z" />
    <glyph glyph-name="Odieresis" unicode="&#xd6;" horiz-adv-x="761" 
d="M382 -14q-112 0 -180 40t-99.5 125.5t-31.5 223.5q0 139 31 223.5t99 124t181 39.5q112 0 179.5 -39.5t98.5 -124t31 -223.5q0 -140 -31 -225t-98.5 -124.5t-179.5 -39.5zM381 669q-76 0 -119.5 -26t-63.5 -89t-20 -179q0 -115 20 -178.5t64 -90t120 -26.5t119.5 26.5
t63.5 90t20 178.5q0 116 -20 179.5t-63.5 89t-120.5 25.5zM216 890q0 57 54 57q29 0 42.5 -14t13.5 -43t-13.5 -42.5t-42.5 -13.5q-28 0 -41 13t-13 43zM438 890q0 57 56 57q54 0 54 -57q0 -29 -13 -42.5t-41 -13.5q-29 0 -42.5 13t-13.5 43z" />
    <glyph glyph-name="multiply" unicode="&#xd7;" horiz-adv-x="669" 
d="M173 129l-55 59l148 146l-149 147l55 59l149 -146l147 146l55 -60l-148 -146l147 -146l-54 -59l-148 146z" />
    <glyph glyph-name="Oslash" unicode="&#xd8;" horiz-adv-x="766" 
d="M691 375q0 -140 -31 -225t-98.5 -124.5t-179.5 -39.5q-149 0 -222 73l-89 -111l-56 43l102 127q-46 88 -46 257q0 139 31 223.5t99 124t181 39.5q136 0 208 -60l80 100l55 -41l-90 -112q56 -89 56 -274zM193 212l333 412q-24 24 -59.5 34.5t-85.5 10.5q-76 0 -119.5 -26
t-63.5 -89t-20 -179q0 -100 15 -163zM563 560l-338 -420q24 -32 62 -46t95 -14q76 0 119.5 26.5t63.5 90t20 178.5q0 120 -22 185z" />
    <glyph glyph-name="Ugrave" unicode="&#xd9;" horiz-adv-x="774" 
d="M387 -14q-285 0 -285 284v480h101v-480q0 -98 45 -143.5t139 -45.5t139 45.5t45 143.5v480h102v-480q0 -284 -286 -284zM332 987l120 -147h-86l-147 147h113z" />
    <glyph glyph-name="Uacute" unicode="&#xda;" horiz-adv-x="774" 
d="M387 -14q-285 0 -285 284v480h101v-480q0 -98 45 -143.5t139 -45.5t139 45.5t45 143.5v480h102v-480q0 -284 -286 -284zM554 987l-146 -147h-86l120 147h112z" />
    <glyph glyph-name="Ucircumflex" unicode="&#xdb;" horiz-adv-x="774" 
d="M387 -14q-285 0 -285 284v480h101v-480q0 -98 45 -143.5t139 -45.5t139 45.5t45 143.5v480h102v-480q0 -284 -286 -284zM443 987l138 -147h-94l-99 103l-98 -103h-94l136 147h111z" />
    <glyph glyph-name="Udieresis" unicode="&#xdc;" horiz-adv-x="774" 
d="M387 -14q-285 0 -285 284v480h101v-480q0 -98 45 -143.5t139 -45.5t139 45.5t45 143.5v480h102v-480q0 -284 -286 -284zM223 890q0 57 54 57q29 0 42.5 -14t13.5 -43t-13.5 -42.5t-42.5 -13.5q-28 0 -41 13t-13 43zM445 890q0 57 56 57q54 0 54 -57q0 -29 -13 -42.5
t-41 -13.5q-29 0 -42.5 13t-13.5 43z" />
    <glyph glyph-name="Yacute" unicode="&#xdd;" horiz-adv-x="657" 
d="M331 349h3l33 73l163 328h112l-260 -495v-255h-104v255l-263 495h116l165 -329zM500 987l-146 -147h-86l120 147h112z" />
    <glyph glyph-name="Thorn" unicode="&#xde;" horiz-adv-x="669" 
d="M341 151h-129v-151h-102v750h102v-131h129q149 0 214.5 -56t65.5 -180q0 -118 -65.5 -175t-214.5 -57zM340 531h-128v-295h129q63 0 101 13.5t56.5 45.5t18.5 89q0 82 -40.5 114.5t-136.5 32.5z" />
    <glyph glyph-name="germandbls" unicode="&#xdf;" horiz-adv-x="676" 
d="M242 24l7 84q23 -16 57.5 -25.5t74.5 -9.5q64 0 104 30.5t40 85.5q0 39 -21.5 64.5t-52.5 40.5t-84 34q-14 4 -21 7q-28 11 -44 30t-16 43q0 22 14.5 40.5t35.5 26.5q54 21 87 46.5t33 68.5q0 41 -30 68.5t-86 27.5q-140 0 -140 -176v-510h-94v513q0 119 61 184.5
t176 65.5q95 0 151 -45.5t56 -121.5q0 -62 -34.5 -98.5t-95.5 -60.5q-15 -7 -21 -12t-6 -11q0 -13 28 -21q59 -20 97 -39.5t69 -61t31 -108.5q0 -88 -60.5 -140.5t-160.5 -52.5q-47 0 -89 9t-66 24z" />
    <glyph glyph-name="agrave" unicode="&#xe0;" horiz-adv-x="618" 
d="M252 -10q-90 0 -140 47t-50 144q0 86 55.5 133.5t165.5 47.5q79 0 143 -23v59q0 71 -33 99.5t-112 28.5q-50 0 -91.5 -10t-83.5 -31l-9 82q88 40 200 40q82 0 130.5 -23t70 -71.5t21.5 -128.5v-384h-71l-9 75l-3 1q-25 -40 -73.5 -63t-110.5 -23zM299 294
q-77 0 -112.5 -28.5t-35.5 -83.5q0 -61 32.5 -87.5t94.5 -26.5q39 0 73.5 14t54.5 37.5t20 48.5v104q-14 8 -47.5 15t-79.5 7zM247 913l126 -195h-88l-141 195h103z" />
    <glyph glyph-name="aacute" unicode="&#xe1;" horiz-adv-x="618" 
d="M252 -10q-90 0 -140 47t-50 144q0 86 55.5 133.5t165.5 47.5q79 0 143 -23v59q0 71 -33 99.5t-112 28.5q-50 0 -91.5 -10t-83.5 -31l-9 82q88 40 200 40q82 0 130.5 -23t70 -71.5t21.5 -128.5v-384h-71l-9 75l-3 1q-25 -40 -73.5 -63t-110.5 -23zM299 294
q-77 0 -112.5 -28.5t-35.5 -83.5q0 -61 32.5 -87.5t94.5 -26.5q39 0 73.5 14t54.5 37.5t20 48.5v104q-14 8 -47.5 15t-79.5 7zM469 913l-142 -195h-88l126 195h104z" />
    <glyph glyph-name="acircumflex" unicode="&#xe2;" horiz-adv-x="618" 
d="M252 -10q-90 0 -140 47t-50 144q0 86 55.5 133.5t165.5 47.5q79 0 143 -23v59q0 71 -33 99.5t-112 28.5q-50 0 -91.5 -10t-83.5 -31l-9 82q88 40 200 40q82 0 130.5 -23t70 -71.5t21.5 -128.5v-384h-71l-9 75l-3 1q-25 -40 -73.5 -63t-110.5 -23zM299 294
q-77 0 -112.5 -28.5t-35.5 -83.5q0 -61 32.5 -87.5t94.5 -26.5q39 0 73.5 14t54.5 37.5t20 48.5v104q-14 8 -47.5 15t-79.5 7zM352 913l142 -195h-86l-105 147l-105 -147h-84l139 195h99z" />
    <glyph glyph-name="atilde" unicode="&#xe3;" horiz-adv-x="618" 
d="M252 -10q-90 0 -140 47t-50 144q0 86 55.5 133.5t165.5 47.5q79 0 143 -23v59q0 71 -33 99.5t-112 28.5q-50 0 -91.5 -10t-83.5 -31l-9 82q88 40 200 40q82 0 130.5 -23t70 -71.5t21.5 -128.5v-384h-71l-9 75l-3 1q-25 -40 -73.5 -63t-110.5 -23zM299 294
q-77 0 -112.5 -28.5t-35.5 -83.5q0 -61 32.5 -87.5t94.5 -26.5q39 0 73.5 14t54.5 37.5t20 48.5v104q-14 8 -47.5 15t-79.5 7zM222 869q31 0 54 -13.5t46 -37.5q18 -19 32 -28t31 -9q51 0 60 85h55q-4 -73 -34.5 -111t-81.5 -38q-30 0 -53 13t-46 37q-18 19 -32.5 28
t-30.5 9q-26 0 -41 -21.5t-19 -63.5h-56q4 71 34 110.5t82 39.5z" />
    <glyph glyph-name="adieresis" unicode="&#xe4;" horiz-adv-x="618" 
d="M252 -10q-90 0 -140 47t-50 144q0 86 55.5 133.5t165.5 47.5q79 0 143 -23v59q0 71 -33 99.5t-112 28.5q-50 0 -91.5 -10t-83.5 -31l-9 82q88 40 200 40q82 0 130.5 -23t70 -71.5t21.5 -128.5v-384h-71l-9 75l-3 1q-25 -40 -73.5 -63t-110.5 -23zM299 294
q-77 0 -112.5 -28.5t-35.5 -83.5q0 -61 32.5 -87.5t94.5 -26.5q39 0 73.5 14t54.5 37.5t20 48.5v104q-14 8 -47.5 15t-79.5 7zM138 776q0 57 54 57q29 0 42.5 -14t13.5 -43t-13.5 -42.5t-42.5 -13.5q-28 0 -41 13t-13 43zM360 776q0 57 56 57q54 0 54 -57q0 -29 -13 -42.5
t-41 -13.5q-29 0 -42.5 13t-13.5 43z" />
    <glyph glyph-name="aring" unicode="&#xe5;" horiz-adv-x="618" 
d="M252 -10q-90 0 -140 47t-50 144q0 86 55.5 133.5t165.5 47.5q79 0 143 -23v59q0 71 -33 99.5t-112 28.5q-50 0 -91.5 -10t-83.5 -31l-9 82q88 40 200 40q82 0 130.5 -23t70 -71.5t21.5 -128.5v-384h-71l-9 75l-3 1q-25 -40 -73.5 -63t-110.5 -23zM299 294
q-77 0 -112.5 -28.5t-35.5 -83.5q0 -61 32.5 -87.5t94.5 -26.5q39 0 73.5 14t54.5 37.5t20 48.5v104q-14 8 -47.5 15t-79.5 7zM305 948q70 0 107.5 -33t37.5 -86q0 -55 -36.5 -86t-108.5 -31q-73 0 -110 30t-37 87q0 55 36.5 87t110.5 32zM305 762q43 0 64 18t21 49
q0 32 -20.5 50t-64.5 18q-88 0 -88 -68q0 -67 88 -67z" />
    <glyph glyph-name="ae" unicode="&#xe6;" horiz-adv-x="986" 
d="M480 110h-4q-19 -52 -68.5 -86t-131.5 -34q-206 0 -206 191q0 86 56 133.5t166 47.5q79 0 143 -23v59q0 71 -33 99.5t-112 28.5q-50 0 -91.5 -10t-83.5 -31l-9 82q88 40 200 40q77 0 122.5 -22.5t65.5 -72.5h5q61 94 191 94q113 0 170.5 -67t57.5 -207q0 -34 -3 -54h-387
q1 -107 45 -156t135 -49q94 0 179 40l8 -81q-39 -20 -89 -31.5t-105 -11.5q-85 0 -139 29.5t-82 91.5zM688 529q-152 0 -161 -176h301q-1 94 -35.5 135t-104.5 41zM435 209v63q-14 8 -47.5 15t-79.5 7q-77 0 -113 -28.5t-36 -83.5q0 -61 33 -87.5t95 -26.5q70 0 109 39.5
t39 101.5z" />
    <glyph glyph-name="ccedilla" unicode="&#xe7;" horiz-adv-x="520" 
d="M318 -13l-34 -193h-90l60 198q-96 17 -143.5 93t-47.5 217q0 153 62 228t194 75q39 0 77.5 -8t69.5 -22l-7 -83q-58 28 -121 28q-96 0 -136.5 -50.5t-40.5 -167.5q0 -124 43.5 -178t131.5 -54q35 0 68 9t59 25l8 -76q-28 -19 -68 -30t-85 -11z" />
    <glyph glyph-name="egrave" unicode="&#xe8;" horiz-adv-x="611" 
d="M63 307q0 146 67 222.5t192 76.5q113 0 170.5 -67t57.5 -207q0 -41 -2 -57h-387q1 -106 44.5 -154t135.5 -48q94 0 179 39l9 -81q-39 -19 -89.5 -30.5t-105.5 -11.5q-142 0 -206.5 78t-64.5 240zM320 529q-76 0 -116 -43.5t-44 -132.5h298q0 94 -34.5 135t-103.5 41z
M253 913l126 -195h-88l-141 195h103z" />
    <glyph glyph-name="eacute" unicode="&#xe9;" horiz-adv-x="611" 
d="M63 307q0 146 67 222.5t192 76.5q113 0 170.5 -67t57.5 -207q0 -41 -2 -57h-387q1 -106 44.5 -154t135.5 -48q94 0 179 39l9 -81q-39 -19 -89.5 -30.5t-105.5 -11.5q-142 0 -206.5 78t-64.5 240zM320 529q-76 0 -116 -43.5t-44 -132.5h298q0 94 -34.5 135t-103.5 41z
M475 913l-142 -195h-88l126 195h104z" />
    <glyph glyph-name="ecircumflex" unicode="&#xea;" horiz-adv-x="611" 
d="M63 307q0 146 67 222.5t192 76.5q113 0 170.5 -67t57.5 -207q0 -41 -2 -57h-387q1 -106 44.5 -154t135.5 -48q94 0 179 39l9 -81q-39 -19 -89.5 -30.5t-105.5 -11.5q-142 0 -206.5 78t-64.5 240zM320 529q-76 0 -116 -43.5t-44 -132.5h298q0 94 -34.5 135t-103.5 41z
M358 913l142 -195h-86l-105 147l-105 -147h-84l139 195h99z" />
    <glyph glyph-name="edieresis" unicode="&#xeb;" horiz-adv-x="611" 
d="M63 307q0 146 67 222.5t192 76.5q113 0 170.5 -67t57.5 -207q0 -41 -2 -57h-387q1 -106 44.5 -154t135.5 -48q94 0 179 39l9 -81q-39 -19 -89.5 -30.5t-105.5 -11.5q-142 0 -206.5 78t-64.5 240zM320 529q-76 0 -116 -43.5t-44 -132.5h298q0 94 -34.5 135t-103.5 41z
M144 776q0 57 54 57q29 0 42.5 -14t13.5 -43t-13.5 -42.5t-42.5 -13.5q-28 0 -41 13t-13 43zM366 776q0 57 56 57q54 0 54 -57q0 -29 -13 -42.5t-41 -13.5q-29 0 -42.5 13t-13.5 43z" />
    <glyph glyph-name="igrave" unicode="&#xec;" horiz-adv-x="286" 
d="M190 598v-598h-94v593zM86 913l126 -195h-88l-141 195h103z" />
    <glyph glyph-name="iacute" unicode="&#xed;" horiz-adv-x="286" 
d="M190 598v-598h-94v593zM308 913l-142 -195h-88l126 195h104z" />
    <glyph glyph-name="icircumflex" unicode="&#xee;" horiz-adv-x="286" 
d="M190 598v-598h-94v593zM191 913l142 -195h-86l-105 147l-105 -147h-84l139 195h99z" />
    <glyph glyph-name="idieresis" unicode="&#xef;" horiz-adv-x="286" 
d="M190 598v-598h-94v593zM-23 776q0 57 54 57q29 0 42.5 -14t13.5 -43t-13.5 -42.5t-42.5 -13.5q-28 0 -41 13t-13 43zM199 776q0 57 56 57q54 0 54 -57q0 -29 -13 -42.5t-41 -13.5q-29 0 -42.5 13t-13.5 43z" />
    <glyph glyph-name="eth" unicode="&#xf0;" horiz-adv-x="659" 
d="M71 273q0 139 61 209t175 70q97 0 155 -56l2 2q-17 51 -57 99t-86 76l-98 -71l-48 43l90 68q-37 25 -111 61l67 56q78 -39 117 -65l92 67l47 -47l-85 -60q96 -65 146 -167.5t50 -255.5q0 -156 -66.5 -234.5t-193.5 -78.5q-125 0 -191 68t-66 216zM491 281q0 99 -40 144.5
t-122 45.5q-59 0 -94 -19.5t-51 -63.5t-16 -118q0 -107 40.5 -154t120.5 -47q82 0 122 52.5t40 159.5z" />
    <glyph glyph-name="ntilde" unicode="&#xf1;" horiz-adv-x="653" 
d="M167 596l10 -70h2q65 80 178 80q97 0 150 -50.5t53 -150.5v-405h-94v394q0 128 -128 128q-48 0 -87 -20t-61 -53v-449h-94v596h71zM238 869q31 0 54 -13.5t46 -37.5q18 -19 32 -28t31 -9q51 0 60 85h55q-4 -73 -34.5 -111t-81.5 -38q-30 0 -53 13t-46 37q-18 19 -32.5 28
t-30.5 9q-26 0 -41 -21.5t-19 -63.5h-56q4 71 34 110.5t82 39.5z" />
    <glyph glyph-name="ograve" unicode="&#xf2;" horiz-adv-x="642" 
d="M323 -14q-136 0 -198 72.5t-62 237.5q0 164 62.5 237t197.5 73q91 0 147 -31.5t82.5 -99.5t26.5 -179t-26.5 -179t-82.5 -99.5t-147 -31.5zM323 66q59 0 93.5 22t50.5 72t16 136t-16 136t-50.5 72t-93.5 22q-60 0 -95 -22t-51 -72t-16 -136t16.5 -136t51.5 -72t94 -22z
M271 913l126 -195h-88l-141 195h103z" />
    <glyph glyph-name="oacute" unicode="&#xf3;" horiz-adv-x="642" 
d="M323 -14q-136 0 -198 72.5t-62 237.5q0 164 62.5 237t197.5 73q91 0 147 -31.5t82.5 -99.5t26.5 -179t-26.5 -179t-82.5 -99.5t-147 -31.5zM323 66q59 0 93.5 22t50.5 72t16 136t-16 136t-50.5 72t-93.5 22q-60 0 -95 -22t-51 -72t-16 -136t16.5 -136t51.5 -72t94 -22z
M493 913l-142 -195h-88l126 195h104z" />
    <glyph glyph-name="ocircumflex" unicode="&#xf4;" horiz-adv-x="642" 
d="M323 -14q-136 0 -198 72.5t-62 237.5q0 164 62.5 237t197.5 73q91 0 147 -31.5t82.5 -99.5t26.5 -179t-26.5 -179t-82.5 -99.5t-147 -31.5zM323 66q59 0 93.5 22t50.5 72t16 136t-16 136t-50.5 72t-93.5 22q-60 0 -95 -22t-51 -72t-16 -136t16.5 -136t51.5 -72t94 -22z
M376 913l142 -195h-86l-105 147l-105 -147h-84l139 195h99z" />
    <glyph glyph-name="otilde" unicode="&#xf5;" horiz-adv-x="642" 
d="M323 -14q-136 0 -198 72.5t-62 237.5q0 164 62.5 237t197.5 73q91 0 147 -31.5t82.5 -99.5t26.5 -179t-26.5 -179t-82.5 -99.5t-147 -31.5zM323 66q59 0 93.5 22t50.5 72t16 136t-16 136t-50.5 72t-93.5 22q-60 0 -95 -22t-51 -72t-16 -136t16.5 -136t51.5 -72t94 -22z
M246 869q31 0 54 -13.5t46 -37.5q18 -19 32 -28t31 -9q51 0 60 85h55q-4 -73 -34.5 -111t-81.5 -38q-30 0 -53 13t-46 37q-18 19 -32.5 28t-30.5 9q-26 0 -41 -21.5t-19 -63.5h-56q4 71 34 110.5t82 39.5z" />
    <glyph glyph-name="odieresis" unicode="&#xf6;" horiz-adv-x="642" 
d="M323 -14q-136 0 -198 72.5t-62 237.5q0 164 62.5 237t197.5 73q91 0 147 -31.5t82.5 -99.5t26.5 -179t-26.5 -179t-82.5 -99.5t-147 -31.5zM323 66q59 0 93.5 22t50.5 72t16 136t-16 136t-50.5 72t-93.5 22q-60 0 -95 -22t-51 -72t-16 -136t16.5 -136t51.5 -72t94 -22z
M162 776q0 57 54 57q29 0 42.5 -14t13.5 -43t-13.5 -42.5t-42.5 -13.5q-28 0 -41 13t-13 43zM384 776q0 57 56 57q54 0 54 -57q0 -29 -13 -42.5t-41 -13.5q-29 0 -42.5 13t-13.5 43z" />
    <glyph glyph-name="divide" unicode="&#xf7;" horiz-adv-x="669" 
d="M319 450q-32 0 -48 12t-16 42q0 26 16.5 39.5t47.5 13.5q64 0 64 -53q0 -54 -64 -54zM554 383v-89h-468v89h468zM319 121q-32 0 -48 12t-16 41q0 53 64 53t64 -53t-64 -53z" />
    <glyph glyph-name="oslash" unicode="&#xf8;" horiz-adv-x="642" 
d="M579 296q0 -111 -26.5 -179t-82.5 -99.5t-147 -31.5q-115 0 -176 51l-66 -77l-51 45l73 86q-40 73 -40 205q0 164 62.5 237t197.5 73q112 0 174 -50l78 92l52 -44l-87 -103q39 -71 39 -205zM173 174l264 312q-36 40 -114 40q-60 0 -95 -22t-51 -72t-16 -136
q0 -79 12 -122zM471 419l-265 -312q37 -41 117 -41q59 0 93.5 22t50.5 72t16 136q0 75 -12 123z" />
    <glyph glyph-name="ugrave" unicode="&#xf9;" horiz-adv-x="653" 
d="M486 0l-10 74h-2q-64 -84 -181 -84q-96 0 -147.5 50.5t-51.5 155.5v400h93v-394q0 -66 31.5 -97.5t97.5 -31.5q49 0 87 21.5t60 56.5v445h94v-596h-71zM271 913l126 -195h-88l-141 195h103z" />
    <glyph glyph-name="uacute" unicode="&#xfa;" horiz-adv-x="653" 
d="M486 0l-10 74h-2q-64 -84 -181 -84q-96 0 -147.5 50.5t-51.5 155.5v400h93v-394q0 -66 31.5 -97.5t97.5 -31.5q49 0 87 21.5t60 56.5v445h94v-596h-71zM493 913l-142 -195h-88l126 195h104z" />
    <glyph glyph-name="ucircumflex" unicode="&#xfb;" horiz-adv-x="653" 
d="M486 0l-10 74h-2q-64 -84 -181 -84q-96 0 -147.5 50.5t-51.5 155.5v400h93v-394q0 -66 31.5 -97.5t97.5 -31.5q49 0 87 21.5t60 56.5v445h94v-596h-71zM376 913l142 -195h-86l-105 147l-105 -147h-84l139 195h99z" />
    <glyph glyph-name="udieresis" unicode="&#xfc;" horiz-adv-x="653" 
d="M486 0l-10 74h-2q-64 -84 -181 -84q-96 0 -147.5 50.5t-51.5 155.5v400h93v-394q0 -66 31.5 -97.5t97.5 -31.5q49 0 87 21.5t60 56.5v445h94v-596h-71zM162 776q0 57 54 57q29 0 42.5 -14t13.5 -43t-13.5 -42.5t-42.5 -13.5q-28 0 -41 13t-13 43zM384 776q0 57 56 57
q54 0 54 -57q0 -29 -13 -42.5t-41 -13.5q-29 0 -42.5 13t-13.5 43z" />
    <glyph glyph-name="yacute" unicode="&#xfd;" horiz-adv-x="599" 
d="M243 -33l15 40l-244 589h109l155 -415l25 -76h3l25 78l155 413h101l-249 -631q-34 -87 -80 -131t-130 -44q-51 0 -90 15v83q38 -18 85 -18q44 0 72.5 24.5t47.5 72.5zM477 913l-142 -195h-88l126 195h104z" />
    <glyph glyph-name="thorn" unicode="&#xfe;" horiz-adv-x="642" 
d="M355 -11q-108 0 -164 65l-3 -1l2 -81v-172h-96v1040l95 6v-230l-2 -80l3 -1q31 34 76.5 52.5t98.5 18.5q110 0 165.5 -70.5t55.5 -236.5q0 -310 -231 -310zM336 521q-48 0 -85 -18.5t-61 -52.5v-307q19 -33 54.5 -53.5t85.5 -20.5q78 0 117.5 50t39.5 181q0 85 -16.5 133
t-49.5 68t-85 20z" />
    <glyph glyph-name="ydieresis" unicode="&#xff;" horiz-adv-x="599" 
d="M243 -33l15 40l-244 589h109l155 -415l25 -76h3l25 78l155 413h101l-249 -631q-34 -87 -80 -131t-130 -44q-51 0 -90 15v83q38 -18 85 -18q44 0 72.5 24.5t47.5 72.5zM146 776q0 57 54 57q29 0 42.5 -14t13.5 -43t-13.5 -42.5t-42.5 -13.5q-28 0 -41 13t-13 43zM368 776
q0 57 56 57q54 0 54 -57q0 -29 -13 -42.5t-41 -13.5q-29 0 -42.5 13t-13.5 43z" />
    <glyph glyph-name="Amacron" unicode="&#x100;" horiz-adv-x="716" 
d="M130 0h-109l274 750h126l275 -750h-115l-61 181h-328zM493 267l-115 336l-19 64h-3l-20 -64l-117 -336h274zM204 928h309v-61h-309v61z" />
    <glyph glyph-name="amacron" unicode="&#x101;" horiz-adv-x="618" 
d="M252 -10q-90 0 -140 47t-50 144q0 86 55.5 133.5t165.5 47.5q79 0 143 -23v59q0 71 -33 99.5t-112 28.5q-50 0 -91.5 -10t-83.5 -31l-9 82q88 40 200 40q82 0 130.5 -23t70 -71.5t21.5 -128.5v-384h-71l-9 75l-3 1q-25 -40 -73.5 -63t-110.5 -23zM299 294
q-77 0 -112.5 -28.5t-35.5 -83.5q0 -61 32.5 -87.5t94.5 -26.5q39 0 73.5 14t54.5 37.5t20 48.5v104q-14 8 -47.5 15t-79.5 7zM146 800h309v-61h-309v61z" />
    <glyph glyph-name="Abreve" unicode="&#x102;" horiz-adv-x="716" 
d="M130 0h-109l274 750h126l275 -750h-115l-61 181h-328zM493 267l-115 336l-19 64h-3l-20 -64l-117 -336h274zM359 834q-93 0 -141.5 42.5t-48.5 110.5h73q0 -43 31 -69.5t86 -26.5q54 0 84.5 26t30.5 70h74q0 -67 -49.5 -110t-139.5 -43z" />
    <glyph glyph-name="abreve" unicode="&#x103;" horiz-adv-x="618" 
d="M252 -10q-90 0 -140 47t-50 144q0 86 55.5 133.5t165.5 47.5q79 0 143 -23v59q0 71 -33 99.5t-112 28.5q-50 0 -91.5 -10t-83.5 -31l-9 82q88 40 200 40q82 0 130.5 -23t70 -71.5t21.5 -128.5v-384h-71l-9 75l-3 1q-25 -40 -73.5 -63t-110.5 -23zM299 294
q-77 0 -112.5 -28.5t-35.5 -83.5q0 -61 32.5 -87.5t94.5 -26.5q39 0 73.5 14t54.5 37.5t20 48.5v104q-14 8 -47.5 15t-79.5 7zM305 712q-97 0 -145.5 46.5t-48.5 133.5h74q0 -61 30 -90t90 -29q59 0 88.5 28.5t29.5 90.5h74q0 -85 -49 -132.5t-143 -47.5z" />
    <glyph glyph-name="Aogonek" unicode="&#x104;" horiz-adv-x="716" 
d="M633 -212q-54 0 -82 25.5t-28 68.5q0 71 79 118h-21l-61 181h-328l-62 -181h-109l274 750h126l275 -750h-29q-39 -24 -59.5 -48.5t-20.5 -53.5q0 -27 16.5 -40.5t44.5 -13.5q34 0 66 14l1 -53q-32 -17 -82 -17zM378 603l-19 64h-3l-20 -64l-117 -336h274z" />
    <glyph glyph-name="aogonek" unicode="&#x105;" horiz-adv-x="618" 
d="M473 -212q-54 0 -82 25.5t-28 68.5q0 73 84 121l-8 72l-3 1q-25 -40 -73.5 -63t-110.5 -23q-90 0 -140 47t-50 144q0 86 55.5 133.5t165.5 47.5q79 0 143 -23v59q0 71 -33 99.5t-112 28.5q-50 0 -91.5 -10t-83.5 -31l-9 82q88 40 200 40q82 0 130.5 -23t70 -71.5
t21.5 -128.5v-384h-12q-39 -24 -59.5 -48.5t-20.5 -53.5q0 -27 16.5 -40.5t44.5 -13.5q34 0 66 14l1 -53q-32 -17 -82 -17zM299 294q-77 0 -112.5 -28.5t-35.5 -83.5q0 -61 32.5 -87.5t94.5 -26.5q39 0 73.5 14t54.5 37.5t20 48.5v104q-14 8 -47.5 15t-79.5 7z" />
    <glyph glyph-name="Cacute" unicode="&#x106;" horiz-adv-x="617" 
d="M403 669q-81 0 -130 -27t-72 -90t-23 -171q0 -115 23.5 -181t73 -94t131.5 -28t157 36l13 -84q-37 -19 -86 -31.5t-97 -12.5q-166 0 -244 95.5t-78 300.5q0 195 79.5 288t247.5 93q45 0 94 -10t81 -25l-12 -90q-31 14 -72.5 22.5t-85.5 8.5zM540 987l-146 -147h-86
l120 147h112z" />
    <glyph glyph-name="cacute" unicode="&#x107;" horiz-adv-x="520" 
d="M338 520q-96 0 -136.5 -50.5t-40.5 -167.5q0 -124 43.5 -178t131.5 -54q35 0 68 9t59 25l8 -76q-28 -19 -68 -30t-86 -11q-128 0 -191 76.5t-63 238.5q0 153 62 228t194 75q39 0 77.5 -8t69.5 -22l-7 -83q-58 28 -121 28zM458 913l-142 -195h-88l126 195h104z" />
    <glyph glyph-name="Ccircumflex" unicode="&#x108;" horiz-adv-x="617" 
d="M403 669q-81 0 -130 -27t-72 -90t-23 -171q0 -115 23.5 -181t73 -94t131.5 -28t157 36l13 -84q-37 -19 -86 -31.5t-97 -12.5q-166 0 -244 95.5t-78 300.5q0 195 79.5 288t247.5 93q45 0 94 -10t81 -25l-12 -90q-31 14 -72.5 22.5t-85.5 8.5zM429 987l138 -147h-94
l-99 103l-98 -103h-94l136 147h111z" />
    <glyph glyph-name="ccircumflex" unicode="&#x109;" horiz-adv-x="520" 
d="M338 520q-96 0 -136.5 -50.5t-40.5 -167.5q0 -124 43.5 -178t131.5 -54q35 0 68 9t59 25l8 -76q-28 -19 -68 -30t-86 -11q-128 0 -191 76.5t-63 238.5q0 153 62 228t194 75q39 0 77.5 -8t69.5 -22l-7 -83q-58 28 -121 28zM341 913l142 -195h-86l-105 147l-105 -147h-84
l139 195h99z" />
    <glyph glyph-name="Cdotaccent" unicode="&#x10a;" horiz-adv-x="617" 
d="M403 669q-81 0 -130 -27t-72 -90t-23 -171q0 -115 23.5 -181t73 -94t131.5 -28t157 36l13 -84q-37 -19 -86 -31.5t-97 -12.5q-166 0 -244 95.5t-78 300.5q0 195 79.5 288t247.5 93q45 0 94 -10t81 -25l-12 -90q-31 14 -72.5 22.5t-85.5 8.5zM375 837q-34 0 -50.5 12
t-16.5 42q0 55 67 55q66 0 66 -55q0 -28 -16 -41t-50 -13z" />
    <glyph glyph-name="cdotaccent" unicode="&#x10b;" horiz-adv-x="520" 
d="M338 520q-96 0 -136.5 -50.5t-40.5 -167.5q0 -124 43.5 -178t131.5 -54q35 0 68 9t59 25l8 -76q-28 -19 -68 -30t-86 -11q-128 0 -191 76.5t-63 238.5q0 153 62 228t194 75q39 0 77.5 -8t69.5 -22l-7 -83q-58 28 -121 28zM294 728q-34 0 -50.5 12t-16.5 42q0 55 67 55
q66 0 66 -55q0 -28 -16 -41t-50 -13z" />
    <glyph glyph-name="Ccaron" unicode="&#x10c;" horiz-adv-x="617" 
d="M403 669q-81 0 -130 -27t-72 -90t-23 -171q0 -115 23.5 -181t73 -94t131.5 -28t157 36l13 -84q-37 -19 -86 -31.5t-97 -12.5q-166 0 -244 95.5t-78 300.5q0 195 79.5 288t247.5 93q45 0 94 -10t81 -25l-12 -90q-31 14 -72.5 22.5t-85.5 8.5zM276 987l99 -103l98 103h94
l-136 -147h-111l-138 147h94z" />
    <glyph glyph-name="ccaron" unicode="&#x10d;" horiz-adv-x="520" 
d="M338 520q-96 0 -136.5 -50.5t-40.5 -167.5q0 -124 43.5 -178t131.5 -54q35 0 68 9t59 25l8 -76q-28 -19 -68 -30t-86 -11q-128 0 -191 76.5t-63 238.5q0 153 62 228t194 75q39 0 77.5 -8t69.5 -22l-7 -83q-58 28 -121 28zM188 913l105 -147l105 147h85l-140 -195h-98
l-142 195h85z" />
    <glyph glyph-name="Dcaron" unicode="&#x10e;" horiz-adv-x="758" 
d="M352 0h-245v750h243q171 0 254 -88.5t83 -283.5q0 -191 -86.5 -284.5t-248.5 -93.5zM349 656h-140v-563h140q115 0 173.5 66t58.5 219q0 105 -25.5 166t-76 86.5t-130.5 25.5zM280 987l99 -103l98 103h94l-136 -147h-111l-138 147h94z" />
    <glyph glyph-name="dcaron" unicode="&#x10f;" horiz-adv-x="658" 
d="M755 798q0 -52 -14.5 -104.5t-36.5 -97.5h-61q15 36 24.5 85.5t9.5 93.5q0 48 -9 88h80q7 -28 7 -65zM469 65q-57 -77 -176 -77q-120 0 -175 75t-55 236q0 153 56 230t174 77q51 0 95 -17.5t74 -52.5l2 2l-2 80v222l94 6v-846h-73l-11 64zM319 520q-58 0 -92.5 -22.5
t-50 -71.5t-15.5 -131q0 -85 14.5 -134.5t48.5 -72t94 -22.5q57 0 92.5 21.5t51.5 51.5v313q-20 31 -57.5 49.5t-85.5 18.5z" />
    <glyph glyph-name="Dcroat" unicode="&#x110;" horiz-adv-x="763" 
d="M687 378q0 -191 -86.5 -284.5t-248.5 -93.5h-245v343h-88v80h88v327h243q171 0 254 -88.5t83 -283.5zM581 378q0 105 -25.5 166t-76 86.5t-130.5 25.5h-140v-233h140v-80h-140v-250h140q115 0 173.5 66t58.5 219z" />
    <glyph glyph-name="dcroat" unicode="&#x111;" horiz-adv-x="656" 
d="M556 685v-685h-73l-11 64l-3 1q-57 -77 -176 -77q-120 0 -175 75t-55 236q0 153 56 230t174 77q51 0 95 -17.5t74 -52.5l2 2l-2 80v67h-171v71h171v84l94 6v-90h96v-71h-96zM319 520q-58 0 -92.5 -22.5t-50 -71.5t-15.5 -131q0 -85 14.5 -134.5t48.5 -72t94 -22.5
q57 0 92.5 21.5t51.5 51.5v313q-20 31 -57.5 49.5t-85.5 18.5z" />
    <glyph glyph-name="Emacron" unicode="&#x112;" horiz-adv-x="642" 
d="M107 0v750h463v-92h-361v-226h310v-84h-310v-257h378v-91h-480zM194 928h309v-61h-309v61z" />
    <glyph glyph-name="emacron" unicode="&#x113;" horiz-adv-x="611" 
d="M63 307q0 146 67 222.5t192 76.5q113 0 170.5 -67t57.5 -207q0 -41 -2 -57h-387q1 -106 44.5 -154t135.5 -48q94 0 179 39l9 -81q-39 -19 -89.5 -30.5t-105.5 -11.5q-142 0 -206.5 78t-64.5 240zM320 529q-76 0 -116 -43.5t-44 -132.5h298q0 94 -34.5 135t-103.5 41z
M152 800h309v-61h-309v61z" />
    <glyph glyph-name="Ebreve" unicode="&#x114;" horiz-adv-x="642" 
d="M107 0v750h463v-92h-361v-226h310v-84h-310v-257h378v-91h-480zM348 834q-93 0 -141.5 42.5t-48.5 110.5h73q0 -43 31 -69.5t86 -26.5q54 0 84.5 26t30.5 70h74q0 -67 -49.5 -110t-139.5 -43z" />
    <glyph glyph-name="ebreve" unicode="&#x115;" horiz-adv-x="611" 
d="M63 307q0 146 67 222.5t192 76.5q113 0 170.5 -67t57.5 -207q0 -41 -2 -57h-387q1 -106 44.5 -154t135.5 -48q94 0 179 39l9 -81q-39 -19 -89.5 -30.5t-105.5 -11.5q-142 0 -206.5 78t-64.5 240zM320 529q-76 0 -116 -43.5t-44 -132.5h298q0 94 -34.5 135t-103.5 41z
M311 712q-97 0 -145.5 46.5t-48.5 133.5h74q0 -61 30 -90t90 -29q59 0 88.5 28.5t29.5 90.5h74q0 -85 -49 -132.5t-143 -47.5z" />
    <glyph glyph-name="Edotaccent" unicode="&#x116;" horiz-adv-x="642" 
d="M107 0v750h463v-92h-361v-226h310v-84h-310v-257h378v-91h-480zM348 837q-34 0 -50.5 12t-16.5 42q0 55 67 55q66 0 66 -55q0 -28 -16 -41t-50 -13z" />
    <glyph glyph-name="edotaccent" unicode="&#x117;" horiz-adv-x="611" 
d="M63 307q0 146 67 222.5t192 76.5q113 0 170.5 -67t57.5 -207q0 -41 -2 -57h-387q1 -106 44.5 -154t135.5 -48q94 0 179 39l9 -81q-39 -19 -89.5 -30.5t-105.5 -11.5q-142 0 -206.5 78t-64.5 240zM320 529q-76 0 -116 -43.5t-44 -132.5h298q0 94 -34.5 135t-103.5 41z
M310 728q-34 0 -50.5 12t-16.5 42q0 55 67 55q66 0 66 -55q0 -28 -16 -41t-50 -13z" />
    <glyph glyph-name="Eogonek" unicode="&#x118;" horiz-adv-x="642" 
d="M513 -212q-54 0 -82 25.5t-28 68.5q0 71 79 118h-375v750h463v-92h-361v-226h310v-84h-310v-257h378v-91h-40q-39 -24 -59.5 -48.5t-20.5 -53.5q0 -27 16.5 -40.5t44.5 -13.5q34 0 66 14l1 -53q-32 -17 -82 -17z" />
    <glyph glyph-name="eogonek" unicode="&#x119;" horiz-adv-x="611" 
d="M548 275h-387q1 -106 44.5 -154t135.5 -48q94 0 179 39l9 -81q-13 -7 -36 -16q-77 -47 -77 -100q0 -27 16.5 -40.5t44.5 -13.5q34 0 66 14l1 -53q-32 -17 -82 -17q-54 0 -82 25.5t-28 68.5q0 54 45 94q-27 -4 -63 -4q-142 0 -206.5 78t-64.5 240q0 146 67 222.5t192 76.5
q113 0 170.5 -67t57.5 -207q0 -41 -2 -57zM320 529q-76 0 -116 -43.5t-44 -132.5h298q0 94 -34.5 135t-103.5 41z" />
    <glyph glyph-name="Ecaron" unicode="&#x11a;" horiz-adv-x="642" 
d="M107 0v750h463v-92h-361v-226h310v-84h-310v-257h378v-91h-480zM249 987l99 -103l98 103h94l-136 -147h-111l-138 147h94z" />
    <glyph glyph-name="ecaron" unicode="&#x11b;" horiz-adv-x="611" 
d="M63 307q0 146 67 222.5t192 76.5q113 0 170.5 -67t57.5 -207q0 -41 -2 -57h-387q1 -106 44.5 -154t135.5 -48q94 0 179 39l9 -81q-39 -19 -89.5 -30.5t-105.5 -11.5q-142 0 -206.5 78t-64.5 240zM320 529q-76 0 -116 -43.5t-44 -132.5h298q0 94 -34.5 135t-103.5 41z
M204 913l105 -147l105 147h85l-140 -195h-98l-142 195h85z" />
    <glyph glyph-name="Gcircumflex" unicode="&#x11c;" horiz-adv-x="716" 
d="M71 372q0 205 83 298t262 93q57 0 111 -10t96 -27l-11 -93q-104 38 -199 38q-84 0 -135 -27t-75.5 -91.5t-24.5 -178.5q0 -112 22.5 -176.5t72 -92.5t133.5 -28q70 0 133 21v214h-141v82h234v-360q-41 -21 -103.5 -34.5t-126.5 -13.5q-118 0 -190.5 40.5t-106.5 125.5
t-34 220zM442 987l138 -147h-94l-99 103l-98 -103h-94l136 147h111z" />
    <glyph glyph-name="gcircumflex" unicode="&#x11d;" horiz-adv-x="633" 
d="M52 -40q0 81 78 124q-64 26 -64 92q0 67 72 99q-66 45 -66 145q0 92 58 140t173 48q99 0 159 -34l152 10v-75h-108q21 -39 21 -90q0 -90 -56.5 -138t-169.5 -48q-58 0 -103 13q-22 -8 -33.5 -20.5t-11.5 -32.5q0 -44 63 -50l167 -16q65 -6 106 -19.5t64.5 -43t23.5 -82.5
t-32 -94t-95 -64.5t-152 -23.5q-123 0 -184.5 42t-61.5 118zM436 420q0 62 -30 89t-104 27q-72 0 -104 -28t-32 -88q0 -63 33 -89t103 -26q72 0 103 28.5t31 86.5zM486 -27q0 40 -27.5 54.5t-92.5 21.5l-170 17q-57 -31 -57 -89q0 -50 39.5 -75.5t127.5 -25.5
q93 0 136.5 26.5t43.5 70.5zM359 913l142 -195h-86l-105 147l-105 -147h-84l139 195h99z" />
    <glyph glyph-name="Gbreve" unicode="&#x11e;" horiz-adv-x="716" 
d="M71 372q0 205 83 298t262 93q57 0 111 -10t96 -27l-11 -93q-104 38 -199 38q-84 0 -135 -27t-75.5 -91.5t-24.5 -178.5q0 -112 22.5 -176.5t72 -92.5t133.5 -28q70 0 133 21v214h-141v82h234v-360q-41 -21 -103.5 -34.5t-126.5 -13.5q-118 0 -190.5 40.5t-106.5 125.5
t-34 220zM389 834q-93 0 -141.5 42.5t-48.5 110.5h73q0 -43 31 -69.5t86 -26.5q54 0 84.5 26t30.5 70h74q0 -67 -49.5 -110t-139.5 -43z" />
    <glyph glyph-name="gbreve" unicode="&#x11f;" horiz-adv-x="633" 
d="M52 -40q0 81 78 124q-64 26 -64 92q0 67 72 99q-66 45 -66 145q0 92 58 140t173 48q99 0 159 -34l152 10v-75h-108q21 -39 21 -90q0 -90 -56.5 -138t-169.5 -48q-58 0 -103 13q-22 -8 -33.5 -20.5t-11.5 -32.5q0 -44 63 -50l167 -16q65 -6 106 -19.5t64.5 -43t23.5 -82.5
t-32 -94t-95 -64.5t-152 -23.5q-123 0 -184.5 42t-61.5 118zM436 420q0 62 -30 89t-104 27q-72 0 -104 -28t-32 -88q0 -63 33 -89t103 -26q72 0 103 28.5t31 86.5zM486 -27q0 40 -27.5 54.5t-92.5 21.5l-170 17q-57 -31 -57 -89q0 -50 39.5 -75.5t127.5 -25.5
q93 0 136.5 26.5t43.5 70.5zM312 712q-97 0 -145.5 46.5t-48.5 133.5h74q0 -61 30 -90t90 -29q59 0 88.5 28.5t29.5 90.5h74q0 -85 -49 -132.5t-143 -47.5z" />
    <glyph glyph-name="Gdotaccent" unicode="&#x120;" horiz-adv-x="716" 
d="M71 372q0 205 83 298t262 93q57 0 111 -10t96 -27l-11 -93q-104 38 -199 38q-84 0 -135 -27t-75.5 -91.5t-24.5 -178.5q0 -112 22.5 -176.5t72 -92.5t133.5 -28q70 0 133 21v214h-141v82h234v-360q-41 -21 -103.5 -34.5t-126.5 -13.5q-118 0 -190.5 40.5t-106.5 125.5
t-34 220zM388 837q-34 0 -50.5 12t-16.5 42q0 55 67 55q66 0 66 -55q0 -28 -16 -41t-50 -13z" />
    <glyph glyph-name="gdotaccent" unicode="&#x121;" horiz-adv-x="633" 
d="M52 -40q0 81 78 124q-64 26 -64 92q0 67 72 99q-66 45 -66 145q0 92 58 140t173 48q99 0 159 -34l152 10v-75h-108q21 -39 21 -90q0 -90 -56.5 -138t-169.5 -48q-58 0 -103 13q-22 -8 -33.5 -20.5t-11.5 -32.5q0 -44 63 -50l167 -16q65 -6 106 -19.5t64.5 -43t23.5 -82.5
t-32 -94t-95 -64.5t-152 -23.5q-123 0 -184.5 42t-61.5 118zM436 420q0 62 -30 89t-104 27q-72 0 -104 -28t-32 -88q0 -63 33 -89t103 -26q72 0 103 28.5t31 86.5zM486 -27q0 40 -27.5 54.5t-92.5 21.5l-170 17q-57 -31 -57 -89q0 -50 39.5 -75.5t127.5 -25.5
q93 0 136.5 26.5t43.5 70.5zM312 728q-34 0 -50.5 12t-16.5 42q0 55 67 55q66 0 66 -55q0 -28 -16 -41t-50 -13z" />
    <glyph glyph-name="uni0122" unicode="&#x122;" horiz-adv-x="716" 
d="M71 372q0 205 83 298t262 93q57 0 111 -10t96 -27l-11 -93q-104 38 -199 38q-84 0 -135 -27t-75.5 -91.5t-24.5 -178.5q0 -112 22.5 -176.5t72 -92.5t133.5 -28q70 0 133 21v214h-141v82h234v-360q-41 -21 -103.5 -34.5t-126.5 -13.5q-118 0 -190.5 40.5t-106.5 125.5
t-34 220zM444 -129q0 -66 -47 -140h-69q27 61 27 123q0 27 -10 71h91q8 -32 8 -54z" />
    <glyph glyph-name="uni0123" unicode="&#x123;" horiz-adv-x="633" 
d="M271 771q0 67 47 140h69q-27 -60 -27 -123q0 -27 10 -71h-91q-8 32 -8 54zM52 -40q0 81 78 124q-64 26 -64 92q0 67 72 99q-66 45 -66 145q0 92 58 140t173 48q99 0 159 -34l152 10v-75h-108q21 -39 21 -90q0 -90 -56.5 -138t-169.5 -48q-58 0 -103 13
q-22 -8 -33.5 -20.5t-11.5 -32.5q0 -44 63 -50l167 -16q65 -6 106 -19.5t64.5 -43t23.5 -82.5t-32 -94t-95 -64.5t-152 -23.5q-123 0 -184.5 42t-61.5 118zM436 420q0 62 -30 89t-104 27q-72 0 -104 -28t-32 -88q0 -63 33 -89t103 -26q72 0 103 28.5t31 86.5zM486 -27
q0 40 -27 55t-93 21l-170 17q-57 -31 -57 -89q0 -50 39.5 -75.5t127.5 -25.5q93 0 136.5 26.5t43.5 70.5z" />
    <glyph glyph-name="Hcircumflex" unicode="&#x124;" horiz-adv-x="774" 
d="M209 342v-342h-102v750h102v-315h355v315h102v-750h-102v342h-355zM438 987l138 -147h-94l-99 103l-98 -103h-94l136 147h111z" />
    <glyph glyph-name="hcircumflex" unicode="&#x125;" horiz-adv-x="656" 
d="M199 987l138 -147h-93l-100 103l-98 -103h-94l136 147h111zM332 521q-46 0 -84 -19.5t-57 -49.5v-452h-94v781l94 6v-167l-2 -80l3 -2q31 33 74.5 50.5t93.5 17.5q97 0 148.5 -54.5t51.5 -156.5v-395h-94v395q0 62 -33.5 94t-100.5 32z" />
    <glyph glyph-name="Hbar" unicode="&#x126;" horiz-adv-x="774" 
d="M209 342v-342h-102v554h-56v57h56v139h102v-139h355v139h102v-139h67v-57h-67v-554h-102v342h-355zM209 554v-119h355v119h-355z" />
    <glyph glyph-name="hbar" unicode="&#x127;" horiz-adv-x="656" 
d="M559 395v-395h-94v395q0 62 -33.5 94t-100.5 32q-46 0 -84 -19.5t-57 -49.5v-452h-94v685h-91v71h91v84l94 6v-90h177v-71h-177v-65l-2 -80l3 -2q31 33 74.5 50.5t93.5 17.5q97 0 148.5 -54.5t51.5 -156.5z" />
    <glyph glyph-name="Itilde" unicode="&#x128;" horiz-adv-x="318" 
d="M211 0h-104v750h104v-750zM75 985q31 0 54 -13.5t46 -37.5q18 -19 32 -28t31 -9q51 0 60 85h55q-4 -73 -34.5 -111t-81.5 -38q-30 0 -53 13t-46 37q-18 19 -32.5 28t-30.5 9q-26 0 -41 -21.5t-19 -63.5h-56q4 71 34 110.5t82 39.5z" />
    <glyph glyph-name="itilde" unicode="&#x129;" horiz-adv-x="286" 
d="M190 598v-598h-94v593zM61 869q31 0 54 -13.5t46 -37.5q18 -19 32 -28t31 -9q51 0 60 85h55q-4 -73 -34.5 -111t-81.5 -38q-30 0 -53 13t-46 37q-18 19 -32.5 28t-30.5 9q-26 0 -41 -21.5t-19 -63.5h-56q4 71 34 110.5t82 39.5z" />
    <glyph glyph-name="Imacron" unicode="&#x12a;" horiz-adv-x="318" 
d="M211 0h-104v750h104v-750zM5 928h309v-61h-309v61z" />
    <glyph glyph-name="imacron" unicode="&#x12b;" horiz-adv-x="286" 
d="M190 598v-598h-94v593zM-15 800h309v-61h-309v61z" />
    <glyph glyph-name="Ibreve" unicode="&#x12c;" horiz-adv-x="318" 
d="M211 0h-104v750h104v-750zM159 834q-93 0 -141.5 42.5t-48.5 110.5h73q0 -43 31 -69.5t86 -26.5q54 0 84.5 26t30.5 70h74q0 -67 -49.5 -110t-139.5 -43z" />
    <glyph glyph-name="ibreve" unicode="&#x12d;" horiz-adv-x="286" 
d="M190 598v-598h-94v593zM144 712q-97 0 -145.5 46.5t-48.5 133.5h74q0 -61 30 -90t90 -29q59 0 88.5 28.5t29.5 90.5h74q0 -85 -49 -132.5t-143 -47.5z" />
    <glyph glyph-name="Iogonek" unicode="&#x12e;" horiz-adv-x="318" 
d="M161 -212q-54 0 -82 25.5t-28 68.5q0 71 79 118h-23v750h104v-750h-16q-39 -24 -59.5 -48.5t-20.5 -53.5q0 -27 16.5 -40.5t44.5 -13.5q34 0 66 14l1 -53q-32 -17 -82 -17z" />
    <glyph glyph-name="iogonek" unicode="&#x12f;" horiz-adv-x="286" 
d="M80 776q0 26 16 40.5t47 14.5q63 0 63 -55q0 -53 -63 -53q-32 0 -47.5 12t-15.5 41zM154 -212q-54 0 -82 25.5t-28 68.5q0 71 79 118h-27v593l94 5v-594l3 -1l-3 -2v-1h-2q-39 -24 -59.5 -48.5t-20.5 -53.5q0 -27 16.5 -40.5t44.5 -13.5q34 0 66 14l1 -53
q-32 -17 -82 -17z" />
    <glyph glyph-name="Idotaccent" unicode="&#x130;" horiz-adv-x="318" 
d="M211 0h-104v750h104v-750zM159 837q-34 0 -50.5 12t-16.5 42q0 55 67 55q66 0 66 -55q0 -28 -16 -41t-50 -13z" />
    <glyph glyph-name="IJ" unicode="&#x132;" horiz-adv-x="871" 
d="M211 0h-104v750h104v-750zM512 -14q-51 0 -93 10t-72 27l9 95q24 -17 64 -28.5t81 -11.5q83 0 122.5 42.5t39.5 133.5v496h103v-498q0 -130 -66.5 -198t-187.5 -68z" />
    <glyph glyph-name="ij" unicode="&#x133;" horiz-adv-x="572" 
d="M143 723q-32 0 -47.5 12t-15.5 41q0 26 16 40.5t47 14.5q63 0 63 -55q0 -53 -63 -53zM190 598v-598h-94v593zM429 723q-32 0 -47.5 12t-15.5 41q0 26 16 40.5t47 14.5q63 0 63 -55q0 -53 -63 -53zM306 -206q-52 0 -85 14l6 80q29 -11 64 -11q41 0 66 26t25 79v611l94 5
v-619q0 -90 -46 -137.5t-124 -47.5z" />
    <glyph glyph-name="Jcircumflex" unicode="&#x134;" horiz-adv-x="553" 
d="M194 -14q-51 0 -93 10t-72 27l9 95q24 -17 64 -28.5t81 -11.5q83 0 122.5 42.5t39.5 133.5v496h103v-498q0 -130 -66.5 -198t-187.5 -68zM448 987l138 -147h-94l-99 103l-98 -103h-94l136 147h111z" />
    <glyph glyph-name="jcircumflex" unicode="&#x135;" horiz-adv-x="284" 
d="M18 -206q-52 0 -85 14l6 80q29 -11 64 -11q42 0 66.5 26t24.5 79v611l94 5v-619q0 -90 -46 -137.5t-124 -47.5zM187 913l142 -195h-86l-105 147l-105 -147h-84l139 195h99z" />
    <glyph glyph-name="uni0136" unicode="&#x136;" horiz-adv-x="711" 
d="M209 346v-346h-102v750h102v-318h110l231 318h121l-260 -355l275 -395h-126l-243 346h-108zM417 -129q0 -66 -47 -140h-69q27 61 27 123q0 27 -10 71h91q8 -32 8 -54z" />
    <glyph glyph-name="uni0137" unicode="&#x137;" horiz-adv-x="596" 
d="M460 596h108l-207 -271l215 -325h-109l-187 282h-90v-282h-94v840l94 6v-486h90zM366 -129q0 -66 -47 -140h-69q27 61 27 123q0 27 -10 71h91q8 -32 8 -54z" />
    <glyph glyph-name="kgreenlandic" unicode="&#x138;" horiz-adv-x="589" 
d="M452 596h109l-208 -271l216 -325h-109l-187 282h-90v-282h-94v594l94 6v-240h90z" />
    <glyph glyph-name="Lacute" unicode="&#x139;" horiz-adv-x="584" 
d="M107 0v750h103v-656h349l-3 -94h-449zM323 987l-146 -147h-86l120 147h112z" />
    <glyph glyph-name="lacute" unicode="&#x13a;" horiz-adv-x="321" 
d="M325 987l-146 -147h-86l119 147h113zM96 104v654l95 5v-631q0 -33 13.5 -47t44.5 -14q26 0 50.5 2t31.5 3v-75q-56 -8 -108 -8q-66 0 -96.5 27t-30.5 84z" />
    <glyph glyph-name="uni013B" unicode="&#x13b;" horiz-adv-x="584" 
d="M107 0v750h103v-656h349l-3 -94h-449zM385 -129q0 -66 -47 -140h-69q27 61 27 123q0 27 -10 71h91q8 -32 8 -54z" />
    <glyph glyph-name="uni013C" unicode="&#x13c;" horiz-adv-x="321" 
d="M96 117v723l95 5v-713q0 -33 12.5 -47t42.5 -14q23 0 65 5v-74q-49 -9 -93 -9q-66 0 -94 29t-28 95zM244 -129q0 -66 -47 -140h-69q27 61 27 123q0 27 -10 71h91q8 -32 8 -54z" />
    <glyph glyph-name="Lcaron" unicode="&#x13d;" horiz-adv-x="584" 
d="M475 798q0 -52 -14.5 -104.5t-36.5 -97.5h-61q15 36 24.5 85.5t9.5 93.5q0 48 -9 88h80q7 -28 7 -65zM107 0v750h103v-656h349l-3 -94h-449z" />
    <glyph glyph-name="lcaron" unicode="&#x13e;" horiz-adv-x="321" 
d="M384 798q0 -52 -14.5 -104.5t-36.5 -97.5h-61q15 36 24.5 85.5t9.5 93.5q0 48 -9 88h80q7 -28 7 -65zM96 117v722l95 5v-712q0 -33 12.5 -47t42.5 -14q23 0 65 5v-74q-49 -9 -93 -9q-66 0 -94 29t-28 95z" />
    <glyph glyph-name="Ldot" unicode="&#x13f;" horiz-adv-x="584" 
d="M107 0v750h103v-656h349l-3 -94h-449zM437 360q-33 0 -47.5 14t-14.5 46q0 61 62 61t62 -61q0 -60 -62 -60z" />
    <glyph glyph-name="ldot" unicode="&#x140;" horiz-adv-x="321" 
d="M96 117v723l95 5v-713q0 -33 12.5 -47t42.5 -14q23 0 65 5v-74q-49 -9 -93 -9q-66 0 -94 29t-28 95zM333 387q-33 0 -47.5 14t-14.5 46q0 61 62 61t62 -61q0 -60 -62 -60z" />
    <glyph glyph-name="Lslash" unicode="&#x141;" horiz-adv-x="574" 
d="M556 0h-449v309l-104 -48l-8 83l112 53v353h103v-305l158 74l10 -87l-168 -77v-261h349z" />
    <glyph glyph-name="lslash" unicode="&#x142;" horiz-adv-x="321" 
d="M311 76v-74q-49 -9 -93 -9q-66 0 -94 29t-28 95v244l-87 -50v84l87 49v395l95 5v-346l114 64v-81l-114 -66v-283q0 -33 12.5 -47t42.5 -14q23 0 65 5z" />
    <glyph glyph-name="Nacute" unicode="&#x143;" horiz-adv-x="779" 
d="M200 589l-2 -1l1 -81v-507h-92v750h93l336 -504l45 -67l2 1l-2 80v490h90v-750h-73l-354 521zM554 987l-146 -147h-86l120 147h112z" />
    <glyph glyph-name="nacute" unicode="&#x144;" horiz-adv-x="653" 
d="M167 596l10 -70h2q65 80 178 80q97 0 150 -50.5t53 -150.5v-405h-94v394q0 128 -128 128q-48 0 -87 -20t-61 -53v-449h-94v596h71zM485 913l-142 -195h-88l126 195h104z" />
    <glyph glyph-name="uni0145" unicode="&#x145;" horiz-adv-x="779" 
d="M200 589l-2 -1l1 -81v-507h-92v750h93l336 -504l45 -67l2 1l-2 80v490h90v-750h-73l-354 521zM445 -129q0 -66 -47 -140h-69q27 61 27 123q0 27 -10 71h91q8 -32 8 -54z" />
    <glyph glyph-name="uni0146" unicode="&#x146;" horiz-adv-x="653" 
d="M167 596l10 -70h2q65 80 178 80q97 0 150 -50.5t53 -150.5v-405h-94v394q0 128 -128 128q-48 0 -87 -20t-61 -53v-449h-94v596h71zM375 -129q0 -66 -47 -140h-69q27 61 27 123q0 27 -10 71h91q8 -32 8 -54z" />
    <glyph glyph-name="Ncaron" unicode="&#x147;" horiz-adv-x="779" 
d="M200 589l-2 -1l1 -81v-507h-92v750h93l336 -504l45 -67l2 1l-2 80v490h90v-750h-73l-354 521zM290 987l99 -103l98 103h94l-136 -147h-111l-138 147h94z" />
    <glyph glyph-name="ncaron" unicode="&#x148;" horiz-adv-x="653" 
d="M167 596l10 -70h2q65 80 178 80q97 0 150 -50.5t53 -150.5v-405h-94v394q0 128 -128 128q-48 0 -87 -20t-61 -53v-449h-94v596h71zM214 913l105 -147l105 147h85l-140 -195h-98l-142 195h85z" />
    <glyph glyph-name="napostrophe" unicode="&#x149;" horiz-adv-x="744" 
d="M238 596l10 -70h2q65 80 178 80q97 0 150 -50.5t53 -150.5v-405h-94v394q0 128 -128 128q-48 0 -87 -20t-61 -53v-449h-94v596h71zM130 746q0 -42 -26 -100t-61 -111l-46 8l51 144q-24 6 -39.5 23t-15.5 43q0 29 17.5 48t50.5 19t51 -21t18 -53z" />
    <glyph glyph-name="Eng" unicode="&#x14a;" horiz-adv-x="758" 
d="M476 -181q-77 0 -130 33l15 85q50 -34 110 -34q94 0 97 126l-335 492l-43 68l-2 -1l1 -79v-509h-92v750h93l340 -510l41 -63l2 1l-2 75v497h90v-714q0 -108 -48.5 -162.5t-136.5 -54.5z" />
    <glyph glyph-name="eng" unicode="&#x14b;" horiz-adv-x="657" 
d="M306 -192l6 80q29 -11 63 -11q42 0 67 26t25 79v412q0 128 -128 128q-48 0 -87 -20t-61 -53v-449h-94v596h71l10 -70h2q65 80 178 80q97 0 150 -50.5t53 -150.5v-426q0 -90 -46 -137.5t-124 -47.5q-52 0 -85 14z" />
    <glyph glyph-name="Omacron" unicode="&#x14c;" horiz-adv-x="761" 
d="M382 -14q-112 0 -180 40t-99.5 125.5t-31.5 223.5q0 139 31 223.5t99 124t181 39.5q112 0 179.5 -39.5t98.5 -124t31 -223.5q0 -140 -31 -225t-98.5 -124.5t-179.5 -39.5zM381 669q-76 0 -119.5 -26t-63.5 -89t-20 -179q0 -115 20 -178.5t64 -90t120 -26.5t119.5 26.5
t63.5 90t20 178.5q0 116 -20 179.5t-63.5 89t-120.5 25.5zM228 928h309v-61h-309v61z" />
    <glyph glyph-name="omacron" unicode="&#x14d;" horiz-adv-x="642" 
d="M323 -14q-136 0 -198 72.5t-62 237.5q0 164 62.5 237t197.5 73q91 0 147 -31.5t82.5 -99.5t26.5 -179t-26.5 -179t-82.5 -99.5t-147 -31.5zM323 66q59 0 93.5 22t50.5 72t16 136t-16 136t-50.5 72t-93.5 22q-60 0 -95 -22t-51 -72t-16 -136t16.5 -136t51.5 -72t94 -22z
M171 800h309v-61h-309v61z" />
    <glyph glyph-name="Obreve" unicode="&#x14e;" horiz-adv-x="761" 
d="M382 -14q-112 0 -180 40t-99.5 125.5t-31.5 223.5q0 139 31 223.5t99 124t181 39.5q112 0 179.5 -39.5t98.5 -124t31 -223.5q0 -140 -31 -225t-98.5 -124.5t-179.5 -39.5zM381 669q-76 0 -119.5 -26t-63.5 -89t-20 -179q0 -115 20 -178.5t64 -90t120 -26.5t119.5 26.5
t63.5 90t20 178.5q0 116 -20 179.5t-63.5 89t-120.5 25.5zM382 834q-93 0 -141.5 42.5t-48.5 110.5h73q0 -43 31 -69.5t86 -26.5q54 0 84.5 26t30.5 70h74q0 -67 -49.5 -110t-139.5 -43z" />
    <glyph glyph-name="obreve" unicode="&#x14f;" horiz-adv-x="642" 
d="M323 -14q-136 0 -198 72.5t-62 237.5q0 164 62.5 237t197.5 73q91 0 147 -31.5t82.5 -99.5t26.5 -179t-26.5 -179t-82.5 -99.5t-147 -31.5zM323 66q59 0 93.5 22t50.5 72t16 136t-16 136t-50.5 72t-93.5 22q-60 0 -95 -22t-51 -72t-16 -136t16.5 -136t51.5 -72t94 -22z
M329 712q-97 0 -145.5 46.5t-48.5 133.5h74q0 -61 30 -90t90 -29q59 0 88.5 28.5t29.5 90.5h74q0 -85 -49 -132.5t-143 -47.5z" />
    <glyph glyph-name="Ohungarumlaut" unicode="&#x150;" horiz-adv-x="761" 
d="M382 -14q-112 0 -180 40t-99.5 125.5t-31.5 223.5q0 139 31 223.5t99 124t181 39.5q112 0 179.5 -39.5t98.5 -124t31 -223.5q0 -140 -31 -225t-98.5 -124.5t-179.5 -39.5zM381 669q-76 0 -119.5 -26t-63.5 -89t-20 -179q0 -115 20 -178.5t64 -90t120 -26.5t119.5 26.5
t63.5 90t20 178.5q0 116 -20 179.5t-63.5 89t-120.5 25.5zM460 987l-132 -147h-86l105 147h113zM668 987l-132 -147h-86l105 147h113z" />
    <glyph glyph-name="ohungarumlaut" unicode="&#x151;" horiz-adv-x="642" 
d="M323 -14q-136 0 -198 72.5t-62 237.5q0 164 62.5 237t197.5 73q91 0 147 -31.5t82.5 -99.5t26.5 -179t-26.5 -179t-82.5 -99.5t-147 -31.5zM323 66q59 0 93.5 22t50.5 72t16 136t-16 136t-50.5 72t-93.5 22q-60 0 -95 -22t-51 -72t-16 -136t16.5 -136t51.5 -72t94 -22z
M200 718l118 195h89l-138 -195h-69zM387 718l124 195h90l-144 -195h-70z" />
    <glyph glyph-name="OE" unicode="&#x152;" horiz-adv-x="1115" 
d="M589 98q-30 -58 -86 -85t-138 -27q-102 0 -166.5 40.5t-95 126t-30.5 222.5q0 138 30.5 222.5t94.5 124.5t168 40q165 0 223 -105h2v93h453l1 -92h-361v-226h309v-84h-309v-257h378v-91h-471v97zM383 670q-76 0 -119.5 -26t-63.5 -90t-20 -179t20 -178.5t64 -90
t120 -26.5t118.5 26t62 89.5t19.5 179.5q0 117 -19 180t-62 89t-120 26z" />
    <glyph glyph-name="oe" unicode="&#x153;" horiz-adv-x="1039" 
d="M71 296q0 164 62.5 237t197.5 73q81 0 131.5 -27.5t76.5 -86.5q58 114 204 114q113 0 170.5 -67t57.5 -207q0 -41 -2 -54h-387q1 -107 44.5 -156t135.5 -49q94 0 179 39l9 -81q-39 -19 -89.5 -30.5t-105.5 -11.5q-82 0 -134.5 28t-81.5 85q-25 -60 -76 -88t-132 -28
q-91 0 -148 31.5t-84.5 99.5t-27.5 179zM741 529q-76 0 -116 -43.5t-44 -132.5h299q-1 94 -35.5 135t-103.5 41zM490 296q0 87 -16 136.5t-50 71.5t-93 22q-60 0 -95 -22t-51.5 -72t-16.5 -136t16.5 -136t51.5 -72t95 -22q59 0 93 22t50 72t16 136z" />
    <glyph glyph-name="Racute" unicode="&#x154;" horiz-adv-x="689" 
d="M454 336l197 -336h-121l-170 317h-151v-317h-102v750h254q123 0 182 -52.5t59 -161.5q0 -86 -38 -136.5t-110 -63.5zM362 663h-153v-266h148q74 0 107 31t33 105q0 70 -32 100t-103 30zM517 987l-146 -147h-86l120 147h112z" />
    <glyph glyph-name="racute" unicode="&#x155;" horiz-adv-x="449" 
d="M173 596l7 -129h2q54 137 184 137q39 0 66 -8l-6 -94q-29 9 -68 9q-48 0 -86.5 -25.5t-60 -73t-21.5 -110.5v-302h-94v596h77zM402 913l-142 -195h-88l126 195h104z" />
    <glyph glyph-name="uni0156" unicode="&#x156;" horiz-adv-x="689" 
d="M454 336l197 -336h-121l-170 317h-151v-317h-102v750h254q123 0 182 -52.5t59 -161.5q0 -86 -38 -136.5t-110 -63.5zM362 663h-153v-266h148q74 0 107 31t33 105q0 70 -32 100t-103 30zM408 -129q0 -66 -47 -140h-69q27 61 27 123q0 27 -10 71h91q8 -32 8 -54z" />
    <glyph glyph-name="uni0157" unicode="&#x157;" horiz-adv-x="449" 
d="M173 596l7 -129h2q54 137 184 137q39 0 66 -8l-6 -94q-29 9 -68 9q-48 0 -86.5 -25.5t-60 -73t-21.5 -110.5v-302h-94v596h77zM198 -129q0 -66 -47 -140h-69q27 61 27 123q0 27 -10 71h91q8 -32 8 -54z" />
    <glyph glyph-name="Rcaron" unicode="&#x158;" horiz-adv-x="689" 
d="M454 336l197 -336h-121l-170 317h-151v-317h-102v750h254q123 0 182 -52.5t59 -161.5q0 -86 -38 -136.5t-110 -63.5zM362 663h-153v-266h148q74 0 107 31t33 105q0 70 -32 100t-103 30zM253 987l99 -103l98 103h94l-136 -147h-111l-138 147h94z" />
    <glyph glyph-name="rcaron" unicode="&#x159;" horiz-adv-x="449" 
d="M173 596l7 -129h2q54 137 184 137q39 0 66 -8l-6 -94q-29 9 -68 9q-48 0 -86.5 -25.5t-60 -73t-21.5 -110.5v-302h-94v596h77zM132 913l105 -147l105 147h85l-140 -195h-98l-142 195h85z" />
    <glyph glyph-name="Sacute" unicode="&#x15a;" horiz-adv-x="599" 
d="M283 -14q-123 0 -219 57l15 91q94 -57 204 -57q78 0 118 34t40 96q0 36 -21 60.5t-52.5 39.5t-86.5 35q-69 25 -111 46.5t-71.5 61.5t-29.5 103q0 93 62.5 151.5t184.5 58.5q55 0 106 -10.5t92 -30.5l-15 -87q-91 36 -178 36q-80 0 -116.5 -31.5t-36.5 -81.5
q0 -34 20.5 -57t51 -37.5t83.5 -32.5q70 -25 112.5 -46.5t73 -63.5t30.5 -108q0 -107 -66.5 -167t-189.5 -60zM464 987l-146 -147h-86l120 147h112z" />
    <glyph glyph-name="sacute" unicode="&#x15b;" horiz-adv-x="515" 
d="M243 -12q-111 0 -191 39l8 86q37 -21 83.5 -33.5t96.5 -12.5q69 0 100.5 25t31.5 68q0 38 -30.5 58.5t-94.5 38.5q-64 19 -102.5 38t-60.5 53t-22 89q0 78 55 123.5t160 45.5q98 0 170 -32l-8 -84q-75 34 -165 34q-58 0 -88.5 -22.5t-30.5 -64.5q0 -30 14.5 -48t40 -29
t70.5 -23q64 -17 101.5 -34.5t58.5 -48.5t21 -81q0 -85 -54 -135t-164 -50zM432 913l-142 -195h-88l126 195h104z" />
    <glyph glyph-name="Scircumflex" unicode="&#x15c;" horiz-adv-x="599" 
d="M283 -14q-123 0 -219 57l15 91q94 -57 204 -57q78 0 118 34t40 96q0 36 -21 60.5t-52.5 39.5t-86.5 35q-69 25 -111 46.5t-71.5 61.5t-29.5 103q0 93 62.5 151.5t184.5 58.5q55 0 106 -10.5t92 -30.5l-15 -87q-91 36 -178 36q-80 0 -116.5 -31.5t-36.5 -81.5
q0 -34 20.5 -57t51 -37.5t83.5 -32.5q70 -25 112.5 -46.5t73 -63.5t30.5 -108q0 -107 -66.5 -167t-189.5 -60zM353 987l138 -147h-94l-99 103l-98 -103h-94l136 147h111z" />
    <glyph glyph-name="scircumflex" unicode="&#x15d;" horiz-adv-x="515" 
d="M243 -12q-111 0 -191 39l8 86q37 -21 83.5 -33.5t96.5 -12.5q69 0 100.5 25t31.5 68q0 38 -30.5 58.5t-94.5 38.5q-64 19 -102.5 38t-60.5 53t-22 89q0 78 55 123.5t160 45.5q98 0 170 -32l-8 -84q-75 34 -165 34q-58 0 -88.5 -22.5t-30.5 -64.5q0 -30 14.5 -48t40 -29
t70.5 -23q64 -17 101.5 -34.5t58.5 -48.5t21 -81q0 -85 -54 -135t-164 -50zM315 913l142 -195h-86l-105 147l-105 -147h-84l139 195h99z" />
    <glyph glyph-name="Scedilla" unicode="&#x15e;" horiz-adv-x="599" 
d="M314 -13l-34 -193h-90l59 194q-104 7 -185 55l15 91q94 -57 204 -57q78 0 118 34t40 96q0 36 -21 60.5t-52.5 39.5t-86.5 35q-69 25 -111 46.5t-71.5 61.5t-29.5 103q0 93 62.5 151.5t184.5 58.5q55 0 106 -10.5t92 -30.5l-15 -87q-91 36 -178 36q-80 0 -116.5 -31.5
t-36.5 -81.5q0 -34 20.5 -57t51 -37.5t83.5 -32.5q70 -25 112.5 -46.5t73 -63.5t30.5 -108q0 -99 -58.5 -158.5t-166.5 -67.5z" />
    <glyph glyph-name="scedilla" unicode="&#x15f;" horiz-adv-x="515" 
d="M281 -10l-35 -196h-90l59 195q-97 4 -163 38l8 86q37 -21 83.5 -33.5t96.5 -12.5q69 0 100.5 25t31.5 68q0 38 -30.5 58.5t-94.5 38.5q-64 19 -102.5 38t-60.5 53t-22 89q0 78 55 123.5t160 45.5q98 0 170 -32l-8 -84q-75 34 -165 34q-58 0 -88.5 -22.5t-30.5 -64.5
q0 -30 14.5 -48t40 -29t70.5 -23q64 -17 101.5 -34.5t58.5 -48.5t21 -81q0 -77 -44.5 -125.5t-135.5 -57.5z" />
    <glyph glyph-name="Scaron" unicode="&#x160;" horiz-adv-x="599" 
d="M283 -14q-123 0 -219 57l15 91q94 -57 204 -57q78 0 118 34t40 96q0 36 -21 60.5t-52.5 39.5t-86.5 35q-69 25 -111 46.5t-71.5 61.5t-29.5 103q0 93 62.5 151.5t184.5 58.5q55 0 106 -10.5t92 -30.5l-15 -87q-91 36 -178 36q-80 0 -116.5 -31.5t-36.5 -81.5
q0 -34 20.5 -57t51 -37.5t83.5 -32.5q70 -25 112.5 -46.5t73 -63.5t30.5 -108q0 -107 -66.5 -167t-189.5 -60zM200 987l99 -103l98 103h94l-136 -147h-111l-138 147h94z" />
    <glyph glyph-name="scaron" unicode="&#x161;" horiz-adv-x="515" 
d="M243 -12q-111 0 -191 39l8 86q37 -21 83.5 -33.5t96.5 -12.5q69 0 100.5 25t31.5 68q0 38 -30.5 58.5t-94.5 38.5q-64 19 -102.5 38t-60.5 53t-22 89q0 78 55 123.5t160 45.5q98 0 170 -32l-8 -84q-75 34 -165 34q-58 0 -88.5 -22.5t-30.5 -64.5q0 -30 14.5 -48t40 -29
t70.5 -23q64 -17 101.5 -34.5t58.5 -48.5t21 -81q0 -85 -54 -135t-164 -50zM162 913l105 -147l105 147h85l-140 -195h-98l-142 195h85z" />
    <glyph glyph-name="Tcaron" unicode="&#x164;" horiz-adv-x="597" 
d="M246 0v656h-221v94h547v-94h-222v-656h-104zM199 987l99 -103l98 103h94l-136 -147h-111l-138 147h94z" />
    <glyph glyph-name="tcaron" unicode="&#x165;" horiz-adv-x="428" 
d="M427 889q0 -52 -14.5 -104.5t-36.5 -97.5h-61q15 36 24.5 85.5t9.5 93.5q0 48 -9 88h80q7 -28 7 -65zM120 154v370h-101v72h101l15 183h80v-183h176v-72h-176v-352q0 -57 19.5 -80t65.5 -23q26 0 51.5 5t40.5 12v-75q-47 -21 -115 -21q-84 0 -120.5 39.5t-36.5 124.5z
" />
    <glyph glyph-name="Tbar" unicode="&#x166;" horiz-adv-x="597" 
d="M350 390h147v-68h-147v-322h-104v322h-161v68h161v266h-221v94h547v-94h-222v-266z" />
    <glyph glyph-name="tbar" unicode="&#x167;" horiz-adv-x="428" 
d="M215 172q0 -57 19.5 -80t65.5 -23q26 0 51.5 5t40.5 12v-75q-47 -21 -115 -21q-84 0 -120.5 39.5t-36.5 124.5v126h-91v70h91v174h-101v72h101l15 183h80v-183h176v-72h-176v-174h198v-70h-198v-108z" />
    <glyph glyph-name="Utilde" unicode="&#x168;" horiz-adv-x="774" 
d="M387 -14q-285 0 -285 284v480h101v-480q0 -98 45 -143.5t139 -45.5t139 45.5t45 143.5v480h102v-480q0 -284 -286 -284zM305 985q31 0 54 -13.5t46 -37.5q18 -19 32 -28t31 -9q51 0 60 85h55q-4 -73 -34.5 -111t-81.5 -38q-30 0 -53 13t-46 37q-18 19 -32.5 28t-30.5 9
q-26 0 -41 -21.5t-19 -63.5h-56q4 71 34 110.5t82 39.5z" />
    <glyph glyph-name="utilde" unicode="&#x169;" horiz-adv-x="653" 
d="M486 0l-10 74h-2q-64 -84 -181 -84q-96 0 -147.5 50.5t-51.5 155.5v400h93v-394q0 -66 31.5 -97.5t97.5 -31.5q49 0 87 21.5t60 56.5v445h94v-596h-71zM246 869q31 0 54 -13.5t46 -37.5q18 -19 32 -28t31 -9q51 0 60 85h55q-4 -73 -34.5 -111t-81.5 -38q-30 0 -53 13
t-46 37q-18 19 -32.5 28t-30.5 9q-26 0 -41 -21.5t-19 -63.5h-56q4 71 34 110.5t82 39.5z" />
    <glyph glyph-name="Umacron" unicode="&#x16a;" horiz-adv-x="774" 
d="M387 -14q-285 0 -285 284v480h101v-480q0 -98 45 -143.5t139 -45.5t139 45.5t45 143.5v480h102v-480q0 -284 -286 -284zM235 928h309v-61h-309v61z" />
    <glyph glyph-name="umacron" unicode="&#x16b;" horiz-adv-x="653" 
d="M486 0l-10 74h-2q-64 -84 -181 -84q-96 0 -147.5 50.5t-51.5 155.5v400h93v-394q0 -66 31.5 -97.5t97.5 -31.5q49 0 87 21.5t60 56.5v445h94v-596h-71zM170 800h309v-61h-309v61z" />
    <glyph glyph-name="Ubreve" unicode="&#x16c;" horiz-adv-x="774" 
d="M387 -14q-285 0 -285 284v480h101v-480q0 -98 45 -143.5t139 -45.5t139 45.5t45 143.5v480h102v-480q0 -284 -286 -284zM389 834q-93 0 -141.5 42.5t-48.5 110.5h73q0 -43 31 -69.5t86 -26.5q54 0 84.5 26t30.5 70h74q0 -67 -49.5 -110t-139.5 -43z" />
    <glyph glyph-name="ubreve" unicode="&#x16d;" horiz-adv-x="653" 
d="M486 0l-10 74h-2q-64 -84 -181 -84q-96 0 -147.5 50.5t-51.5 155.5v400h93v-394q0 -66 31.5 -97.5t97.5 -31.5q49 0 87 21.5t60 56.5v445h94v-596h-71zM329 712q-97 0 -145.5 46.5t-48.5 133.5h74q0 -61 30 -90t90 -29q59 0 88.5 28.5t29.5 90.5h74q0 -85 -49 -132.5
t-143 -47.5z" />
    <glyph glyph-name="Uring" unicode="&#x16e;" horiz-adv-x="774" 
d="M392 987q71 0 109.5 -30t38.5 -77q0 -50 -38 -77.5t-110 -27.5q-74 0 -112.5 26.5t-38.5 78.5q0 49 38 78t113 29zM392 825q43 0 65.5 15t22.5 40q0 26 -22 41.5t-66 15.5q-47 0 -69 -15.5t-22 -41.5q0 -55 91 -55zM387 -14q-285 0 -285 284v480h101v-480
q0 -98 45 -143.5t139 -45.5t139 45.5t45 143.5v480h102v-480q0 -284 -286 -284z" />
    <glyph glyph-name="uring" unicode="&#x16f;" horiz-adv-x="653" 
d="M486 0l-10 74h-2q-64 -84 -181 -84q-96 0 -147.5 50.5t-51.5 155.5v400h93v-394q0 -66 31.5 -97.5t97.5 -31.5q49 0 87 21.5t60 56.5v445h94v-596h-71zM329 948q70 0 107.5 -33t37.5 -86q0 -55 -36.5 -86t-108.5 -31q-73 0 -110 30t-37 87q0 55 36.5 87t110.5 32z
M329 762q43 0 64 18t21 49q0 32 -20.5 50t-64.5 18q-88 0 -88 -68q0 -67 88 -67z" />
    <glyph glyph-name="Uhungarumlaut" unicode="&#x170;" horiz-adv-x="774" 
d="M387 -14q-285 0 -285 284v480h101v-480q0 -98 45 -143.5t139 -45.5t139 45.5t45 143.5v480h102v-480q0 -284 -286 -284zM467 987l-132 -147h-86l105 147h113zM675 987l-132 -147h-86l105 147h113z" />
    <glyph glyph-name="uhungarumlaut" unicode="&#x171;" horiz-adv-x="653" 
d="M486 0l-10 74h-2q-64 -84 -181 -84q-96 0 -147.5 50.5t-51.5 155.5v400h93v-394q0 -66 31.5 -97.5t97.5 -31.5q49 0 87 21.5t60 56.5v445h94v-596h-71zM199 718l118 195h89l-138 -195h-69zM386 718l124 195h90l-144 -195h-70z" />
    <glyph glyph-name="Uogonek" unicode="&#x172;" horiz-adv-x="774" 
d="M673 270q0 -195 -134 -255q-36 -24 -55 -48t-19 -51t16.5 -40.5t44.5 -13.5q34 0 66 14l1 -53q-32 -17 -82 -17q-54 0 -82 25.5t-28 68.5q0 52 40 89q-25 -3 -54 -3q-285 0 -285 284v480h101v-480q0 -98 45 -143.5t139 -45.5t139 45.5t45 143.5v480h102v-480z" />
    <glyph glyph-name="uogonek" unicode="&#x173;" horiz-adv-x="653" 
d="M510 -212q-54 0 -82 25.5t-28 68.5q0 75 86 122l-10 70h-2q-64 -84 -181 -84q-96 0 -147.5 50.5t-51.5 155.5v400h93v-394q0 -66 31.5 -97.5t97.5 -31.5q49 0 87 21.5t60 56.5v445h94v-596h-13q-39 -24 -59.5 -48.5t-20.5 -53.5q0 -27 16.5 -40.5t44.5 -13.5q34 0 66 14
l1 -53q-32 -17 -82 -17z" />
    <glyph glyph-name="Wcircumflex" unicode="&#x174;" horiz-adv-x="1013" 
d="M720 99h3l15 79l123 572h102l-181 -750h-125l-133 570l-16 80h-3l-17 -80l-133 -570h-124l-181 750h105l124 -574l16 -79h3l16 78l138 575h113l137 -572zM559 987l138 -147h-94l-99 103l-98 -103h-94l136 147h111z" />
    <glyph glyph-name="wcircumflex" unicode="&#x175;" horiz-adv-x="865" 
d="M624 73h3l16 81l102 442h92l-151 -596h-119l-110 418l-18 86h-3l-20 -86l-114 -418h-116l-158 596h96l104 -440l17 -81h3l18 81l120 440h100l120 -443zM477 913l142 -195h-86l-105 147l-105 -147h-84l139 195h99z" />
    <glyph glyph-name="Ycircumflex" unicode="&#x176;" horiz-adv-x="657" 
d="M331 349h3l33 73l163 328h112l-260 -495v-255h-104v255l-263 495h116l165 -329zM389 987l138 -147h-94l-99 103l-98 -103h-94l136 147h111z" />
    <glyph glyph-name="ycircumflex" unicode="&#x177;" horiz-adv-x="599" 
d="M243 -33l15 40l-244 589h109l155 -415l25 -76h3l25 78l155 413h101l-249 -631q-34 -87 -80 -131t-130 -44q-51 0 -90 15v83q38 -18 85 -18q44 0 72.5 24.5t47.5 72.5zM360 913l142 -195h-86l-105 147l-105 -147h-84l139 195h99z" />
    <glyph glyph-name="Ydieresis" unicode="&#x178;" horiz-adv-x="657" 
d="M331 349h3l33 73l163 328h112l-260 -495v-255h-104v255l-263 495h116l165 -329zM169 890q0 57 54 57q29 0 42.5 -14t13.5 -43t-13.5 -42.5t-42.5 -13.5q-28 0 -41 13t-13 43zM391 890q0 57 56 57q54 0 54 -57q0 -29 -13 -42.5t-41 -13.5q-29 0 -42.5 13t-13.5 43z" />
    <glyph glyph-name="Zacute" unicode="&#x179;" horiz-adv-x="632" 
d="M404 590l45 64l-1 2h-378v94h502v-77l-341 -513l-46 -64l1 -3h387v-93h-516v68zM473 987l-146 -147h-86l120 147h112z" />
    <glyph glyph-name="zacute" unicode="&#x17a;" horiz-adv-x="528" 
d="M163 80h316l-3 -80h-424v66l266 384l47 63l-1 2h-301l4 81h406v-67l-264 -383l-47 -63zM434 913l-142 -195h-88l126 195h104z" />
    <glyph glyph-name="Zdotaccent" unicode="&#x17b;" horiz-adv-x="632" 
d="M404 590l45 64l-1 2h-378v94h502v-77l-341 -513l-46 -64l1 -3h387v-93h-516v68zM308 837q-34 0 -50.5 12t-16.5 42q0 55 67 55q66 0 66 -55q0 -28 -16 -41t-50 -13z" />
    <glyph glyph-name="zdotaccent" unicode="&#x17c;" horiz-adv-x="528" 
d="M163 80h316l-3 -80h-424v66l266 384l47 63l-1 2h-301l4 81h406v-67l-264 -383l-47 -63zM269 728q-34 0 -50.5 12t-16.5 42q0 55 67 55q66 0 66 -55q0 -28 -16 -41t-50 -13z" />
    <glyph glyph-name="Zcaron" unicode="&#x17d;" horiz-adv-x="632" 
d="M404 590l45 64l-1 2h-378v94h502v-77l-341 -513l-46 -64l1 -3h387v-93h-516v68zM209 987l99 -103l98 103h94l-136 -147h-111l-138 147h94z" />
    <glyph glyph-name="zcaron" unicode="&#x17e;" horiz-adv-x="528" 
d="M163 80h316l-3 -80h-424v66l266 384l47 63l-1 2h-301l4 81h406v-67l-264 -383l-47 -63zM164 913l105 -147l105 147h85l-140 -195h-98l-142 195h85z" />
    <glyph glyph-name="longs" unicode="&#x17f;" horiz-adv-x="305" 
d="M338 804l4 -66q-54 0 -86.5 -11t-50 -43t-17.5 -94v-496q0 -121 -54 -177.5t-164 -70.5l-7 65q49 8 77.5 27t42 56t13.5 100v433h-87l3 64h84q1 79 24.5 125.5t75.5 67t142 20.5z" />
    <glyph glyph-name="uni018F" unicode="&#x18f;" horiz-adv-x="742" 
d="M60 359q0 23 2 57h509q-4 96 -28.5 151.5t-75 80.5t-133.5 25q-62 0 -117.5 -10.5t-94.5 -27.5l-14 85q47 19 108.5 31t131.5 12q168 0 249.5 -91.5t81.5 -298.5q0 -136 -31.5 -220.5t-99 -125t-179.5 -40.5q-107 0 -174.5 36t-101 117.5t-33.5 218.5zM572 337h-405v-22
q1 -89 21.5 -141t64 -75.5t117.5 -23.5q73 0 116 26t63 83t23 153z" />
    <glyph glyph-name="florin" unicode="&#x192;" horiz-adv-x="650" 
d="M212 522l16 73h63l10 49q13 65 60 102t124 37q21 0 43.5 -3.5t38.5 -9.5l-21 -63q-27 10 -56 10q-40 0 -64.5 -19t-31.5 -55l-9 -48h142l-15 -73h-143l-145 -670h-93l145 670h-64z" />
    <glyph glyph-name="uni01B5" unicode="&#x1b5;" horiz-adv-x="617" 
d="M573 0h-516v68l185 277h-160v72h207l115 173l45 64l-1 2h-378v94h502v-77l-170 -256h135v-72h-183l-123 -185l-46 -64l1 -3h387v-93z" />
    <glyph glyph-name="uni01B6" unicode="&#x1b6;" horiz-adv-x="537" 
d="M476 0h-424v66l139 201h-114v72h164l77 111l47 63l-1 2h-301l4 81h406v-67l-131 -190h130v-72h-179l-84 -121l-47 -63l1 -3h316z" />
    <glyph glyph-name="Aringacute" unicode="&#x1fa;" horiz-adv-x="710" 
d="M293 845l117 142h113l-144 -142h-86zM578 0l-61 151h-329l-61 -151h-109l265 604q-76 23 -76 97q0 50 38 79t112 29q71 0 110 -30t39 -78q0 -74 -78 -98l264 -603h-114zM357 645q44 0 66.5 15t22.5 41t-22 41.5t-67 15.5q-46 0 -68 -15.5t-22 -41.5q0 -56 90 -56z
M379 501l-23 65h-3l-25 -65l-112 -276h273z" />
    <glyph glyph-name="aringacute" unicode="&#x1fb;" horiz-adv-x="618" 
d="M244 833l120 147h112l-146 -147h-86zM519 384v-384h-71l-9 75l-3 1q-25 -40 -73.5 -63t-110.5 -23q-90 0 -140 47t-50 144q0 86 55.5 133.5t165.5 47.5q79 0 143 -23v59q0 71 -33 99.5t-112 28.5q-50 0 -91.5 -10t-83.5 -31l-9 82q58 27 131 36q-72 23 -72 94
q0 50 38 78.5t112 28.5q71 0 110 -29.5t39 -77.5q0 -36 -20.5 -60.5t-60.5 -35.5q78 -15 111.5 -66.5t33.5 -150.5zM216 697q0 -26 21.5 -40.5t68.5 -14.5q44 0 66.5 15t22.5 40q0 27 -22 42t-67 15q-90 0 -90 -57zM299 294q-77 0 -112.5 -28.5t-35.5 -83.5
q0 -61 32.5 -87.5t94.5 -26.5q39 0 73.5 14t54.5 37.5t20 48.5v104q-14 8 -47.5 15t-79.5 7z" />
    <glyph glyph-name="AEacute" unicode="&#x1fc;" horiz-adv-x="1018" 
d="M897 432v-84h-290l28 -257h330l-2 -91h-424l-18 181h-304l-95 -181h-122l417 750h535l3 -92h-379l24 -226h297zM514 267l-32 332l-6 80l-3 1l-35 -73l-178 -340h254zM726 987l-146 -147h-86l120 147h112z" />
    <glyph glyph-name="aeacute" unicode="&#x1fd;" horiz-adv-x="986" 
d="M480 110h-4q-19 -52 -68.5 -86t-131.5 -34q-206 0 -206 191q0 86 56 133.5t166 47.5q79 0 143 -23v59q0 71 -33 99.5t-112 28.5q-50 0 -91.5 -10t-83.5 -31l-9 82q88 40 200 40q77 0 122.5 -22.5t65.5 -72.5h5q61 94 191 94q113 0 170.5 -67t57.5 -207q0 -34 -3 -54h-387
q1 -107 45 -156t135 -49q94 0 179 40l8 -81q-39 -20 -89 -31.5t-105 -11.5q-85 0 -139 29.5t-82 91.5zM688 529q-152 0 -161 -176h301q-1 94 -35.5 135t-104.5 41zM435 209v63q-14 8 -47.5 15t-79.5 7q-77 0 -113 -28.5t-36 -83.5q0 -61 33 -87.5t95 -26.5q70 0 109 39.5
t39 101.5zM669 913l-142 -195h-88l126 195h104z" />
    <glyph glyph-name="Oslashacute" unicode="&#x1fe;" horiz-adv-x="766" 
d="M315 840l120 147h112l-146 -147h-86zM691 375q0 -140 -31 -225t-98.5 -124.5t-179.5 -39.5q-149 0 -222 73l-89 -111l-56 43l102 127q-46 88 -46 257q0 139 31 223.5t99 124t181 39.5q136 0 208 -60l80 100l55 -41l-90 -112q56 -89 56 -274zM193 212l333 412
q-24 24 -59.5 34.5t-85.5 10.5q-76 0 -119.5 -26t-63.5 -89t-20 -179q0 -100 15 -163zM563 560l-338 -420q24 -32 62 -46t95 -14q76 0 119.5 26.5t63.5 90t20 178.5q0 120 -22 185z" />
    <glyph glyph-name="oslashacute" unicode="&#x1ff;" horiz-adv-x="642" 
d="M579 296q0 -111 -26.5 -179t-82.5 -99.5t-147 -31.5q-115 0 -176 51l-66 -77l-51 45l73 86q-40 73 -40 205q0 164 62.5 237t197.5 73q112 0 174 -50l78 92l52 -44l-87 -103q39 -71 39 -205zM173 174l264 312q-36 40 -114 40q-60 0 -95 -22t-51 -72t-16 -136
q0 -79 12 -122zM471 419l-265 -312q37 -41 117 -41q59 0 93.5 22t50.5 72t16 136q0 75 -12 123zM493 913l-142 -195h-88l126 195h104z" />
    <glyph glyph-name="uni0218" unicode="&#x218;" horiz-adv-x="599" 
d="M283 -14q-123 0 -219 57l15 91q94 -57 204 -57q78 0 118 34t40 96q0 36 -21 60.5t-52.5 39.5t-86.5 35q-69 25 -111 46.5t-71.5 61.5t-29.5 103q0 93 62.5 151.5t184.5 58.5q55 0 106 -10.5t92 -30.5l-15 -87q-91 36 -178 36q-80 0 -116.5 -31.5t-36.5 -81.5
q0 -34 20.5 -57t51 -37.5t83.5 -32.5q70 -25 112.5 -46.5t73 -63.5t30.5 -108q0 -107 -66.5 -167t-189.5 -60zM338 -129q0 -66 -47 -140h-69q27 61 27 123q0 27 -10 71h91q8 -32 8 -54z" />
    <glyph glyph-name="uni0219" unicode="&#x219;" horiz-adv-x="515" 
d="M243 -12q-111 0 -191 39l8 86q37 -21 83.5 -33.5t96.5 -12.5q69 0 100.5 25t31.5 68q0 38 -30.5 58.5t-94.5 38.5q-64 19 -102.5 38t-60.5 53t-22 89q0 78 55 123.5t160 45.5q98 0 170 -32l-8 -84q-75 34 -165 34q-58 0 -88.5 -22.5t-30.5 -64.5q0 -30 14.5 -48t40 -29
t70.5 -23q64 -17 101.5 -34.5t58.5 -48.5t21 -81q0 -85 -54 -135t-164 -50zM305 -129q0 -66 -47 -140h-69q27 61 27 123q0 27 -10 71h91q8 -32 8 -54z" />
    <glyph glyph-name="uni021A" unicode="&#x21a;" horiz-adv-x="597" 
d="M246 0v656h-221v94h547v-94h-222v-656h-104zM354 -129q0 -66 -47 -140h-69q27 61 27 123q0 27 -10 71h91q8 -32 8 -54z" />
    <glyph glyph-name="uni021B" unicode="&#x21b;" horiz-adv-x="428" 
d="M120 154v370h-101v72h101l15 183h80v-183h176v-72h-176v-352q0 -57 19.5 -80t65.5 -23q26 0 51.5 5t40.5 12v-75q-47 -21 -115 -21q-84 0 -120.5 39.5t-36.5 124.5zM316 -129q0 -66 -47 -140h-69q27 61 27 123q0 27 -10 71h91q8 -32 8 -54z" />
    <glyph glyph-name="uni0259" unicode="&#x259;" horiz-adv-x="612" 
d="M548 289q0 -146 -67 -222.5t-192 -76.5q-113 0 -170.5 67t-57.5 207q0 41 2 57h387q-1 106 -44.5 154t-135.5 48q-94 0 -179 -39l-9 81q39 19 89.5 30.5t105.5 11.5q142 0 206.5 -78t64.5 -240zM291 67q76 0 116 43.5t44 132.5h-298q0 -94 34.5 -135t103.5 -41z" />
    <glyph glyph-name="circumflex" unicode="&#x2c6;" horiz-adv-x="399" 
d="M248 913l142 -195h-86l-105 147l-105 -147h-84l139 195h99z" />
    <glyph glyph-name="caron" unicode="&#x2c7;" horiz-adv-x="399" 
d="M95 913l105 -147l105 147h85l-140 -195h-98l-142 195h85z" />
    <glyph glyph-name="breve" unicode="&#x2d8;" horiz-adv-x="399" 
d="M200 712q-97 0 -145.5 46.5t-48.5 133.5h74q0 -61 30 -90t90 -29q59 0 88.5 28.5t29.5 90.5h74q0 -85 -49 -132.5t-143 -47.5z" />
    <glyph glyph-name="dotaccent" unicode="&#x2d9;" horiz-adv-x="399" 
d="M199 728q-34 0 -50.5 12t-16.5 42q0 55 67 55q66 0 66 -55q0 -28 -16 -41t-50 -13z" />
    <glyph glyph-name="ring" unicode="&#x2da;" horiz-adv-x="399" 
d="M201 948q70 0 107.5 -33t37.5 -86q0 -55 -36.5 -86t-108.5 -31q-73 0 -110 30t-37 87q0 55 36.5 87t110.5 32zM201 762q43 0 64 18t21 49q0 32 -20.5 50t-64.5 18q-88 0 -88 -68q0 -67 88 -67z" />
    <glyph glyph-name="ogonek" unicode="&#x2db;" horiz-adv-x="399" 
d="M141 -118q0 44 28 76.5t82 57.5l39 -13q-42 -24 -63.5 -50t-21.5 -55q0 -27 16.5 -40.5t44.5 -13.5q34 0 66 14l1 -53q-32 -17 -82 -17q-54 0 -82 25.5t-28 68.5z" />
    <glyph glyph-name="tilde" unicode="&#x2dc;" horiz-adv-x="399" 
d="M118 869q31 0 54 -13.5t46 -37.5q18 -19 32 -28t31 -9q51 0 60 85h55q-4 -73 -34.5 -111t-81.5 -38q-30 0 -53 13t-46 37q-18 19 -32.5 28t-30.5 9q-26 0 -41 -21.5t-19 -63.5h-56q4 71 34 110.5t82 39.5z" />
    <glyph glyph-name="hungarumlaut" unicode="&#x2dd;" horiz-adv-x="399" 
d="M69 718l118 195h89l-138 -195h-69zM256 718l124 195h90l-144 -195h-70z" />
    <glyph glyph-name="pi" unicode="&#x3c0;" horiz-adv-x="675" 
d="M235 0h-94v512q-64 -3 -91 -24l-26 74q42 34 154 34h450v-83h-95v-365q0 -46 15.5 -62.5t56.5 -16.5v-73q-66 0 -101 14.5t-49 46.5t-14 91v365h-206v-513z" />
    <glyph glyph-name="Wgrave" unicode="&#x1e80;" horiz-adv-x="1013" 
d="M720 99h3l15 79l123 572h102l-181 -750h-125l-133 570l-16 80h-3l-17 -80l-133 -570h-124l-181 750h105l124 -574l16 -79h3l16 78l138 575h113l137 -572zM448 987l120 -147h-86l-147 147h113z" />
    <glyph glyph-name="wgrave" unicode="&#x1e81;" horiz-adv-x="865" 
d="M624 73h3l16 81l102 442h92l-151 -596h-119l-110 418l-18 86h-3l-20 -86l-114 -418h-116l-158 596h96l104 -440l17 -81h3l18 81l120 440h100l120 -443zM372 913l126 -195h-88l-141 195h103z" />
    <glyph glyph-name="Wacute" unicode="&#x1e82;" horiz-adv-x="1013" 
d="M720 99h3l15 79l123 572h102l-181 -750h-125l-133 570l-16 80h-3l-17 -80l-133 -570h-124l-181 750h105l124 -574l16 -79h3l16 78l138 575h113l137 -572zM670 987l-146 -147h-86l120 147h112z" />
    <glyph glyph-name="wacute" unicode="&#x1e83;" horiz-adv-x="865" 
d="M624 73h3l16 81l102 442h92l-151 -596h-119l-110 418l-18 86h-3l-20 -86l-114 -418h-116l-158 596h96l104 -440l17 -81h3l18 81l120 440h100l120 -443zM594 913l-142 -195h-88l126 195h104z" />
    <glyph glyph-name="Wdieresis" unicode="&#x1e84;" horiz-adv-x="1013" 
d="M720 99h3l15 79l123 572h102l-181 -750h-125l-133 570l-16 80h-3l-17 -80l-133 -570h-124l-181 750h105l124 -574l16 -79h3l16 78l138 575h113l137 -572zM339 890q0 57 54 57q29 0 42.5 -14t13.5 -43t-13.5 -42.5t-42.5 -13.5q-28 0 -41 13t-13 43zM561 890q0 57 56 57
q54 0 54 -57q0 -29 -13 -42.5t-41 -13.5q-29 0 -42.5 13t-13.5 43z" />
    <glyph glyph-name="wdieresis" unicode="&#x1e85;" horiz-adv-x="865" 
d="M624 73h3l16 81l102 442h92l-151 -596h-119l-110 418l-18 86h-3l-20 -86l-114 -418h-116l-158 596h96l104 -440l17 -81h3l18 81l120 440h100l120 -443zM263 776q0 57 54 57q29 0 42.5 -14t13.5 -43t-13.5 -42.5t-42.5 -13.5q-28 0 -41 13t-13 43zM485 776q0 57 56 57
q54 0 54 -57q0 -29 -13 -42.5t-41 -13.5q-29 0 -42.5 13t-13.5 43z" />
    <glyph glyph-name="uni1E8A" unicode="&#x1e8a;" horiz-adv-x="697" 
d="M349 837q-34 0 -50.5 12t-16.5 42q0 55 67 55q66 0 66 -55q0 -28 -16 -41t-50 -13zM46 750h123l144 -239l35 -62h3l33 63l143 238h118l-224 -360l239 -390h-118l-161 270l-32 60h-3l-32 -62l-156 -268h-120l234 389z" />
    <glyph glyph-name="uni1E8B" unicode="&#x1e8b;" horiz-adv-x="581" 
d="M296 728q-34 0 -50.5 12t-16.5 42q0 55 67 55q66 0 66 -55q0 -28 -16 -41t-50 -13zM35 596h111l113 -187l33 -61h2l33 62l111 186h108l-187 -292l192 -304h-111l-120 199l-32 59h-2l-31 -60l-118 -198h-107l195 302z" />
    <glyph glyph-name="Ygrave" unicode="&#x1ef2;" horiz-adv-x="657" 
d="M331 349h3l33 73l163 328h112l-260 -495v-255h-104v255l-263 495h116l165 -329zM278 987l120 -147h-86l-147 147h113z" />
    <glyph glyph-name="ygrave" unicode="&#x1ef3;" horiz-adv-x="599" 
d="M243 -33l15 40l-244 589h109l155 -415l25 -76h3l25 78l155 413h101l-249 -631q-34 -87 -80 -131t-130 -44q-51 0 -90 15v83q38 -18 85 -18q44 0 72.5 24.5t47.5 72.5zM255 913l126 -195h-88l-141 195h103z" />
    <glyph glyph-name="uni2007" unicode="&#x2007;" horiz-adv-x="650" 
 />
    <glyph glyph-name="uni2008" unicode="&#x2008;" horiz-adv-x="289" 
 />
    <glyph glyph-name="uni200B" unicode="&#x200b;" horiz-adv-x="0" 
 />
    <glyph glyph-name="endash" unicode="&#x2013;" horiz-adv-x="533" 
d="M70 306v70h392v-70h-392z" />
    <glyph glyph-name="emdash" unicode="&#x2014;" horiz-adv-x="708" 
d="M70 306v70h568v-70h-568z" />
    <glyph glyph-name="quoteleft" unicode="&#x2018;" horiz-adv-x="258" 
d="M58 609q0 41 26.5 100.5t61.5 110.5l45 -9l-51 -143q24 -6 40 -23t16 -43q0 -29 -18 -48t-50 -19q-33 0 -51.5 21t-18.5 53z" />
    <glyph glyph-name="quoteright" unicode="&#x2019;" horiz-adv-x="257" 
d="M198 746q0 -42 -26 -100t-61 -111l-46 8l51 144q-24 6 -39.5 23t-15.5 43q0 29 17.5 48t50.5 19t51 -21t18 -53z" />
    <glyph glyph-name="quotesinglbase" unicode="&#x201a;" horiz-adv-x="257" 
d="M198 65q0 -43 -26 -100.5t-61 -110.5l-46 9l51 143q-24 6 -39.5 23t-15.5 43q0 29 17.5 48t50.5 19t51 -21t18 -53z" />
    <glyph glyph-name="quotedblleft" unicode="&#x201c;" horiz-adv-x="488" 
d="M58 609q0 41 26.5 100.5t61.5 110.5l45 -9l-51 -143q24 -6 40 -23t16 -43q0 -29 -18 -48t-50 -19q-33 0 -51.5 21t-18.5 53zM276 609q0 40 26.5 100t61.5 111l46 -9l-51 -143q23 -6 39 -23t16 -43q0 -29 -17.5 -48t-50.5 -19t-51.5 21t-18.5 53z" />
    <glyph glyph-name="quotedblright" unicode="&#x201d;" horiz-adv-x="488" 
d="M198 746q0 -43 -26 -100.5t-61 -110.5l-46 8l51 144q-24 6 -39.5 23t-15.5 43q0 29 17.5 48t50.5 19t51 -21t18 -53zM417 746q0 -43 -26.5 -101.5t-61.5 -109.5l-46 8l51 144q-24 6 -39.5 23t-15.5 43q0 29 17.5 48t50.5 19t51.5 -21t18.5 -53z" />
    <glyph glyph-name="quotedblbase" unicode="&#x201e;" horiz-adv-x="488" 
d="M198 65q0 -43 -26 -100.5t-61 -110.5l-46 9l51 143q-24 6 -39.5 23t-15.5 43q0 29 17.5 48t50.5 19t51 -21t18 -53zM417 65q0 -43 -26.5 -101.5t-61.5 -109.5l-46 8l51 144q-24 6 -39.5 23t-15.5 43q0 29 17.5 48t50.5 19t51.5 -21t18.5 -53z" />
    <glyph glyph-name="dagger" unicode="&#x2020;" horiz-adv-x="501" 
d="M294 793l-6 -199l168 7v-90l-168 6l6 -662h-92l7 662l-165 -6v90l165 -7l-7 199h92z" />
    <glyph glyph-name="daggerdbl" unicode="&#x2021;" horiz-adv-x="501" 
d="M294 -145h-92l7 203l-165 -6v89l166 -7v384l-166 -7v90l165 -7l-7 199h92l-6 -199l168 7v-90l-168 7v-384l168 7v-89l-168 6z" />
    <glyph glyph-name="bullet" unicode="&#x2022;" horiz-adv-x="406" 
d="M200 458q68 0 101.5 -33.5t33.5 -102.5q0 -70 -33.5 -103.5t-101.5 -33.5t-101 33.5t-33 103.5q0 69 33 102.5t101 33.5z" />
    <glyph glyph-name="ellipsis" unicode="&#x2026;" horiz-adv-x="868" 
d="M81 48q0 61 64 61q63 0 63 -61q0 -59 -63 -59q-64 0 -64 59zM369 48q0 61 64 61q63 0 63 -61q0 -59 -63 -59q-64 0 -64 59zM660 48q0 61 63 61q64 0 64 -61q0 -59 -64 -59q-63 0 -63 59z" />
    <glyph glyph-name="perthousand" unicode="&#x2030;" horiz-adv-x="1220" 
d="M146 0l504 750h70l-504 -750h-70zM177 319q-80 0 -116.5 48t-36.5 154q0 108 36.5 155.5t117.5 47.5q80 0 116 -47.5t36 -155.5q0 -106 -36.5 -154t-116.5 -48zM178 666q-31 0 -49 -12.5t-27 -44t-9 -88.5t9 -88.5t27 -43.5t49 -12q43 0 63 30.5t20 113.5t-20 114t-63 31
zM690 -7q-80 0 -116.5 48t-36.5 154q0 108 36.5 155.5t117.5 47.5q80 0 116 -47.5t36 -155.5q0 -106 -36.5 -154t-116.5 -48zM1044 -7q-80 0 -116.5 48t-36.5 154q0 108 36.5 155.5t117.5 47.5q80 0 116 -47.5t36 -155.5q0 -106 -36.5 -154t-116.5 -48zM691 340
q-31 0 -49 -12.5t-27 -44t-9 -88.5t9 -88.5t27 -43.5t49 -12q43 0 63 30.5t20 113.5t-20 114t-63 31zM1045 340q-31 0 -49 -12.5t-27 -44t-9 -88.5t9 -88.5t27 -43.5t49 -12q43 0 63 30.5t20 113.5t-20 114t-63 31z" />
    <glyph glyph-name="guilsinglleft" unicode="&#x2039;" horiz-adv-x="405" 
d="M339 129l-290 193v9l290 192v-77l-194 -120l194 -121v-76z" />
    <glyph glyph-name="guilsinglright" unicode="&#x203a;" horiz-adv-x="406" 
d="M66 446v77l291 -192v-9l-291 -193v76l193 121z" />
    <glyph glyph-name="fraction" unicode="&#x2044;" horiz-adv-x="160" 
d="M-207 0l504 750h70l-504 -750h-70z" />
    <glyph glyph-name="uni207A" unicode="&#x207a;" horiz-adv-x="370" 
d="M155 556v112h-111v61h111v113h57v-113h113v-61h-113v-112h-57z" />
    <glyph glyph-name="uni207B" unicode="&#x207b;" horiz-adv-x="370" 
d="M322 731v-58h-274v58h274z" />
    <glyph glyph-name="uni207C" unicode="&#x207c;" horiz-adv-x="370" 
d="M322 785v-52h-274v52h274zM322 669v-53h-274v53h274z" />
    <glyph glyph-name="uni207D" unicode="&#x207d;" horiz-adv-x="209" 
d="M125 680q0 -130 73 -239l-49 -4q-43 45 -65.5 107.5t-22.5 135.5q0 147 88 244l49 -4q-73 -106 -73 -240z" />
    <glyph glyph-name="uni207E" unicode="&#x207e;" horiz-adv-x="209" 
d="M148 680q0 -73 -22.5 -135.5t-64.5 -107.5l-50 4q73 111 73 239q0 134 -73 240l50 4q87 -96 87 -244z" />
    <glyph glyph-name="uni208A" unicode="&#x208a;" horiz-adv-x="370" 
d="M155 -89v112h-111v61h111v113h57v-113h113v-61h-113v-112h-57z" />
    <glyph glyph-name="uni208B" unicode="&#x208b;" horiz-adv-x="370" 
d="M322 85v-58h-274v58h274z" />
    <glyph glyph-name="uni208C" unicode="&#x208c;" horiz-adv-x="370" 
d="M322 140v-52h-274v52h274zM322 24v-53h-274v53h274z" />
    <glyph glyph-name="uni208D" unicode="&#x208d;" horiz-adv-x="209" 
d="M125 36q0 -130 73 -239l-49 -4q-43 45 -65.5 107.5t-22.5 135.5q0 147 88 244l49 -4q-73 -106 -73 -240z" />
    <glyph glyph-name="uni208E" unicode="&#x208e;" horiz-adv-x="209" 
d="M148 36q0 -73 -22.5 -135.5t-64.5 -107.5l-50 4q73 111 73 239q0 134 -73 240l50 4q87 -96 87 -244z" />
    <glyph glyph-name="franc" unicode="&#x20a3;" horiz-adv-x="650" 
d="M552 422l-1 -89h-302v-130h149v-72h-149v-131h-102v131h-107v72h107v547h461l2 -94h-361v-234h303z" />
    <glyph glyph-name="lira" unicode="&#x20a4;" horiz-adv-x="650" 
d="M617 85l-6 -91q-142 15 -251 15q-144 0 -287 -17l-5 88q54 14 82.5 54.5t29.5 102.5h-123v69h115q-4 17 -8 32t-7 28q-10 34 -14 52h-86v69h72q-4 25 -4 60q0 95 63.5 154.5t202.5 59.5q102 0 187 -37l-13 -88q-33 15 -77 25t-87 10q-91 0 -133.5 -36.5t-42.5 -97.5
q0 -16 4 -50h287v-69h-273q4 -18 7 -27q11 -45 18 -85h248v-69h-242q-1 -52 -21 -91t-54 -62l1 -2q76 15 204 15q98 0 213 -12z" />
    <glyph glyph-name="peseta" unicode="&#x20a7;" horiz-adv-x="650" 
d="M324 282h-134v-282h-95v487h-62v53h62v210h229q123 0 180.5 -49.5t63.5 -160.5h59l-1 -53h-59q-6 -105 -64 -155t-179 -50zM324 666h-135v-126h281q-4 69 -39 97.5t-107 28.5zM470 487h-281v-124h135q71 0 106 27.5t40 96.5z" />
    <glyph glyph-name="Euro" unicode="&#x20ac;" horiz-adv-x="650" 
d="M433 -14q-129 0 -203 63.5t-97 194.5h-106v69h98q-3 33 -3 69q0 20 2 54h-97v69h105q22 131 97.5 194.5t210.5 63.5q46 0 91.5 -8.5t77.5 -21.5l-12 -89q-70 28 -152 28q-91 0 -141 -38.5t-68 -128.5h299v-69h-307q-2 -34 -2 -55q0 -26 2 -68h307v-69h-298
q19 -92 69.5 -130t139.5 -38q87 0 153 30l14 -84q-35 -16 -82 -26t-98 -10z" />
    <glyph glyph-name="trademark" unicode="&#x2122;" horiz-adv-x="663" 
d="M117 493v224h-84v52h226v-52h-84v-224h-58zM566 703l-3 1l-29 -76l-55 -135h-43l-56 135l-30 75l-2 -1l1 -81v-128h-50v276h73l56 -134l30 -75h3l28 75l56 134h69v-276h-50v129z" />
    <glyph glyph-name="uni03A9" unicode="&#x3a9;" horiz-adv-x="742" 
d="M674 432q0 -104 -44.5 -193.5t-132.5 -152.5v-3h184v-83h-271v118q75 59 117 137t42 172q0 127 -47.5 185t-150.5 58t-150 -58t-47 -185q0 -94 42 -172t116 -137v-118h-271v83h184l1 3q-89 62 -133.5 151.5t-44.5 194.5q0 166 77.5 247.5t225.5 81.5q303 0 303 -329z" />
    <glyph glyph-name="uni2150" unicode="&#x2150;" horiz-adv-x="766" 
d="M65 0l504 750h70l-504 -750h-70zM121 555l3 80l-3 1l-85 -56l-8 63l119 77h45v-396h-71v231zM498 1l173 330h-223l4 64h295v-60l-167 -334h-82z" />
    <glyph glyph-name="uni2151" unicode="&#x2151;" horiz-adv-x="785" 
d="M65 0l504 750h70l-504 -750h-70zM121 555l3 80l-3 1l-85 -56l-8 63l119 77h45v-396h-71v231zM584 -4q-31 0 -53.5 4.5t-47.5 14.5l10 56q22 -9 42 -13t45 -4q54 0 80.5 31.5t30.5 102.5l-2 1q-34 -33 -93 -33q-71 0 -104.5 32t-33.5 87q0 57 36 91.5t106 34.5
q78 0 115.5 -46.5t37.5 -138.5q0 -114 -41.5 -167t-127.5 -53zM599 345q-36 0 -55 -17.5t-19 -50.5t19 -50.5t60 -17.5q25 0 47 8t33 22q0 57 -21 81.5t-64 24.5z" />
    <glyph glyph-name="uni2152" unicode="&#x2152;" horiz-adv-x="1057" 
d="M65 0l504 750h70l-504 -750h-70zM121 555l3 80l-3 1l-85 -56l-8 63l119 77h45v-396h-71v231zM881 -7q-80 0 -116.5 48t-36.5 154q0 108 36.5 155.5t117.5 47.5q80 0 116 -47.5t36 -155.5q0 -106 -36.5 -154t-116.5 -48zM553 229l3 80l-3 1l-85 -56l-8 63l119 77h45v-396
h-71v231zM882 340q-31 0 -49 -12.5t-27 -44t-9 -88.5t9 -88.5t27 -43.5t49 -12q43 0 63 30.5t20 113.5t-20 114t-63 31z" />
    <glyph glyph-name="onethird" unicode="&#x2153;" horiz-adv-x="785" 
d="M65 0l504 750h70l-504 -750h-70zM121 555l3 80l-3 1l-85 -56l-8 63l119 77h45v-396h-71v231zM588 -7q-71 0 -129 33l17 54q48 -30 112 -30q44 0 66 18.5t22 50.5q0 33 -26.5 47t-95.5 14v50q63 0 89 14.5t26 44.5q0 25 -20.5 38t-58.5 13q-33 0 -59.5 -9t-52.5 -27
l-17 51q25 19 59.5 31t72.5 12q67 0 104.5 -27.5t37.5 -76.5q0 -64 -68 -86v-2q38 -9 57.5 -31t19.5 -59q0 -58 -38.5 -90.5t-117.5 -32.5z" />
    <glyph glyph-name="twothirds" unicode="&#x2154;" horiz-adv-x="867" 
d="M146 0l504 750h70l-504 -750h-70zM127 388v-3h183v-60h-275v47l48 43q81 71 116.5 112t35.5 79q0 27 -18.5 42.5t-59.5 15.5q-51 0 -107 -37l-18 55q62 43 138 43q67 0 103 -30.5t36 -82.5q0 -56 -44 -105.5t-138 -118.5zM669 -7q-71 0 -129 33l17 54q48 -30 112 -30
q44 0 66 18.5t22 50.5q0 33 -26.5 47t-95.5 14v50q63 0 89 14.5t26 44.5q0 25 -20.5 38t-58.5 13q-33 0 -59.5 -9t-52.5 -27l-17 51q25 19 59.5 31t72.5 12q67 0 104.5 -27.5t37.5 -76.5q0 -64 -68 -86v-2q38 -9 57.5 -31t19.5 -59q0 -58 -38.5 -90.5t-117.5 -32.5z" />
    <glyph glyph-name="uni2155" unicode="&#x2155;" horiz-adv-x="785" 
d="M65 0l504 750h70l-504 -750h-70zM121 555l3 80l-3 1l-85 -56l-8 63l119 77h45v-396h-71v231zM472 24l13 55q27 -15 52 -21.5t57 -6.5q47 0 66.5 18.5t19.5 59.5q0 33 -19.5 49t-63.5 16q-25 0 -49.5 -4.5t-42.5 -12.5l-30 23l18 193h236v-60h-181l-8 -95l2 -1
q33 12 71 12q66 0 100.5 -29t34.5 -86q0 -140 -148 -140q-74 0 -128 30z" />
    <glyph glyph-name="uni2156" unicode="&#x2156;" horiz-adv-x="867" 
d="M146 0l504 750h70l-504 -750h-70zM127 388v-3h183v-60h-275v47l48 43q81 71 116.5 112t35.5 79q0 27 -18.5 42.5t-59.5 15.5q-51 0 -107 -37l-18 55q62 43 138 43q67 0 103 -30.5t36 -82.5q0 -56 -44 -105.5t-138 -118.5zM553 24l13 55q27 -15 52 -21.5t57 -6.5
q47 0 66.5 18.5t19.5 59.5q0 33 -19.5 49t-63.5 16q-25 0 -49.5 -4.5t-42.5 -12.5l-30 23l18 193h236v-60h-181l-8 -95l2 -1q33 12 71 12q66 0 100.5 -29t34.5 -86q0 -140 -148 -140q-74 0 -128 30z" />
    <glyph glyph-name="uni2157" unicode="&#x2157;" horiz-adv-x="867" 
d="M146 0l504 750h70l-504 -750h-70zM156 319q-71 0 -129 33l17 54q48 -30 112 -30q44 0 66 18.5t22 50.5q0 33 -26.5 47t-95.5 14v50q63 0 89 14.5t26 44.5q0 25 -20.5 38t-58.5 13q-33 0 -59.5 -9t-52.5 -27l-17 51q25 19 59.5 31t72.5 12q67 0 104.5 -27.5t37.5 -76.5
q0 -64 -68 -86v-2q38 -9 57.5 -31t19.5 -59q0 -58 -38.5 -90.5t-117.5 -32.5zM553 24l13 55q27 -15 52 -21.5t57 -6.5q47 0 66.5 18.5t19.5 59.5q0 33 -19.5 49t-63.5 16q-25 0 -49.5 -4.5t-42.5 -12.5l-30 23l18 193h236v-60h-181l-8 -95l2 -1q33 12 71 12q66 0 100.5 -29
t34.5 -86q0 -140 -148 -140q-74 0 -128 30z" />
    <glyph glyph-name="uni2158" unicode="&#x2158;" horiz-adv-x="867" 
d="M146 0l504 750h70l-504 -750h-70zM17 408l-6 41l190 272h85v-256h46v-57h-46v-81h-65v81h-204zM224 579l3 81l-2 1l-36 -57l-61 -86l-38 -50l1 -3h131zM553 24l13 55q27 -15 52 -21.5t57 -6.5q47 0 66.5 18.5t19.5 59.5q0 33 -19.5 49t-63.5 16q-25 0 -49.5 -4.5
t-42.5 -12.5l-30 23l18 193h236v-60h-181l-8 -95l2 -1q33 12 71 12q66 0 100.5 -29t34.5 -86q0 -140 -148 -140q-74 0 -128 30z" />
    <glyph glyph-name="uni2159" unicode="&#x2159;" horiz-adv-x="785" 
d="M65 0l504 750h70l-504 -750h-70zM121 555l3 80l-3 1l-85 -56l-8 63l119 77h45v-396h-71v231zM615 -4q-76 0 -115 45.5t-39 145.5q0 106 45.5 160t133.5 54q50 0 98 -17l-6 -56q-44 14 -84 14q-56 0 -84.5 -28.5t-33.5 -87.5l2 -2q38 30 96 30q67 0 99.5 -29t32.5 -88
q0 -69 -37 -105t-108 -36zM617 202q-22 0 -47 -9t-37 -24q1 -63 20.5 -89t62.5 -26q75 0 75 83q0 33 -17.5 49t-56.5 16z" />
    <glyph glyph-name="uni215A" unicode="&#x215a;" horiz-adv-x="867" 
d="M146 0l504 750h70l-504 -750h-70zM40 350l13 55q27 -15 52 -21.5t57 -6.5q47 0 66.5 18.5t19.5 59.5q0 33 -19.5 49t-63.5 16q-25 0 -49.5 -4.5t-42.5 -12.5l-30 23l18 193h236v-60h-181l-8 -95l2 -1q33 12 71 12q66 0 100.5 -29t34.5 -86q0 -140 -148 -140
q-74 0 -128 30zM696 -4q-76 0 -115 45.5t-39 145.5q0 106 45.5 160t133.5 54q50 0 98 -17l-6 -56q-44 14 -84 14q-56 0 -84.5 -28.5t-33.5 -87.5l2 -2q38 30 96 30q67 0 99.5 -29t32.5 -88q0 -69 -37 -105t-108 -36zM698 202q-22 0 -47 -9t-37 -24q1 -63 20.5 -89t62.5 -26
q75 0 75 83q0 33 -17.5 49t-56.5 16z" />
    <glyph glyph-name="oneeighth" unicode="&#x215b;" horiz-adv-x="785" 
d="M65 0l504 750h70l-504 -750h-70zM121 555l3 80l-3 1l-85 -56l-8 63l119 77h45v-396h-71v231zM457 112q0 32 18 56t54 38v2q-28 14 -42 34t-14 53q0 105 137 105q134 0 134 -104q0 -55 -56 -84v-2q36 -14 54 -36t18 -59q0 -120 -150 -120q-153 0 -153 117zM681 290
q0 57 -72 57q-35 0 -52.5 -14t-17.5 -40q0 -25 20.5 -37.5t72.5 -27.5q49 25 49 62zM690 108q0 30 -25 44t-82 30q-57 -28 -57 -71q0 -31 20 -46.5t65 -15.5q37 0 58 14.5t21 44.5z" />
    <glyph glyph-name="threeeighths" unicode="&#x215c;" horiz-adv-x="867" 
d="M146 0l504 750h70l-504 -750h-70zM156 319q-71 0 -129 33l17 54q48 -30 112 -30q44 0 66 18.5t22 50.5q0 33 -26.5 47t-95.5 14v50q63 0 89 14.5t26 44.5q0 25 -20.5 38t-58.5 13q-33 0 -59.5 -9t-52.5 -27l-17 51q25 19 59.5 31t72.5 12q67 0 104.5 -27.5t37.5 -76.5
q0 -64 -68 -86v-2q38 -9 57.5 -31t19.5 -59q0 -58 -38.5 -90.5t-117.5 -32.5zM538 112q0 32 18 56t54 38v2q-28 14 -42 34t-14 53q0 105 137 105q134 0 134 -104q0 -55 -56 -84v-2q36 -14 54 -36t18 -59q0 -120 -150 -120q-153 0 -153 117zM762 290q0 57 -72 57
q-35 0 -52.5 -14t-17.5 -40q0 -25 20.5 -37.5t72.5 -27.5q49 25 49 62zM771 108q0 30 -25 44t-82 30q-57 -28 -57 -71q0 -31 20 -46.5t65 -15.5q37 0 58 14.5t21 44.5z" />
    <glyph glyph-name="fiveeighths" unicode="&#x215d;" horiz-adv-x="867" 
d="M146 0l504 750h70l-504 -750h-70zM40 350l13 55q27 -15 52 -21.5t57 -6.5q47 0 66.5 18.5t19.5 59.5q0 33 -19.5 49t-63.5 16q-25 0 -49.5 -4.5t-42.5 -12.5l-30 23l18 193h236v-60h-181l-8 -95l2 -1q33 12 71 12q66 0 100.5 -29t34.5 -86q0 -140 -148 -140
q-74 0 -128 30zM538 112q0 32 18 56t54 38v2q-28 14 -42 34t-14 53q0 105 137 105q134 0 134 -104q0 -55 -56 -84v-2q36 -14 54 -36t18 -59q0 -120 -150 -120q-153 0 -153 117zM762 290q0 57 -72 57q-35 0 -52.5 -14t-17.5 -40q0 -25 20.5 -37.5t72.5 -27.5q49 25 49 62z
M771 108q0 30 -25 44t-82 30q-57 -28 -57 -71q0 -31 20 -46.5t65 -15.5q37 0 58 14.5t21 44.5z" />
    <glyph glyph-name="seveneighths" unicode="&#x215e;" horiz-adv-x="848" 
d="M127 0l504 750h70l-504 -750h-70zM66 327l173 330h-223l4 64h295v-60l-167 -334h-82zM520 112q0 32 18 56t54 38v2q-28 14 -42 34t-14 53q0 105 137 105q134 0 134 -104q0 -55 -56 -84v-2q36 -14 54 -36t18 -59q0 -120 -150 -120q-153 0 -153 117zM744 290q0 57 -72 57
q-35 0 -52.5 -14t-17.5 -40q0 -25 20.5 -37.5t72.5 -27.5q49 25 49 62zM753 108q0 30 -25 44t-82 30q-57 -28 -57 -71q0 -31 20 -46.5t65 -15.5q37 0 58 14.5t21 44.5z" />
    <glyph glyph-name="uni215F" unicode="&#x215f;" horiz-adv-x="432" 
d="M65 0l504 750h70l-504 -750h-70zM121 555l3 80l-3 1l-85 -56l-8 63l119 77h45v-396h-71v231z" />
    <glyph glyph-name="uni2189" unicode="&#x2189;" horiz-adv-x="867" 
d="M146 0l504 750h70l-504 -750h-70zM177 319q-80 0 -116.5 48t-36.5 154q0 108 36.5 155.5t117.5 47.5q80 0 116 -47.5t36 -155.5q0 -106 -36.5 -154t-116.5 -48zM178 666q-31 0 -49 -12.5t-27 -44t-9 -88.5t9 -88.5t27 -43.5t49 -12q43 0 63 30.5t20 113.5t-20 114t-63 31
zM669 -7q-71 0 -129 33l17 54q48 -30 112 -30q44 0 66 18.5t22 50.5q0 33 -26.5 47t-95.5 14v50q63 0 89 14.5t26 44.5q0 25 -20.5 38t-58.5 13q-33 0 -59.5 -9t-52.5 -27l-17 51q25 19 59.5 31t72.5 12q67 0 104.5 -27.5t37.5 -76.5q0 -64 -68 -86v-2q38 -9 57.5 -31
t19.5 -59q0 -58 -38.5 -90.5t-117.5 -32.5z" />
    <glyph glyph-name="partialdiff" unicode="&#x2202;" horiz-adv-x="632" 
d="M49 227q0 103 33 178t95.5 115t148.5 40q52 0 94 -17.5t68 -47.5l3 2q-13 92 -61.5 135.5t-133.5 43.5q-59 0 -103.5 -16t-83.5 -48l-26 67q47 38 100.5 58t127.5 20q77 0 138 -35.5t97 -112t36 -194.5q0 -122 -37 -219.5t-107.5 -153.5t-167.5 -56q-112 0 -166.5 62
t-54.5 179zM483 372q0 28 -17 54.5t-49.5 43t-76.5 16.5q-91 0 -142.5 -68t-51.5 -197q0 -157 137 -157q63 0 108 42t68.5 112.5t23.5 153.5z" />
    <glyph glyph-name="uni0394" unicode="&#x394;" horiz-adv-x="755" 
d="M342 754h70l299 -754h-668zM586 85l-181 474l-27 77h-3l-28 -77l-184 -474h423z" />
    <glyph glyph-name="product" unicode="&#x220f;" horiz-adv-x="745" 
d="M65 672v78h618v-78h-89v-823h-89v823h-262v-823h-89v823h-89z" />
    <glyph glyph-name="summation" unicode="&#x2211;" horiz-adv-x="702" 
d="M212 -72h439v-79h-558v55l306 405l-306 381v60h558v-82h-431l-1 -2l51 -60l230 -286v-23l-238 -306l-51 -61z" />
    <glyph glyph-name="minus" unicode="&#x2212;" horiz-adv-x="669" 
d="M566 383v-89h-439v89h439z" />
    <glyph glyph-name="uni2219" unicode="&#x2219;" horiz-adv-x="597" 
d="M298 458q68 0 101.5 -33.5t33.5 -102.5q0 -70 -33.5 -103.5t-101.5 -33.5t-101 33.5t-33 103.5q0 69 33 102.5t101 33.5z" />
    <glyph glyph-name="radical" unicode="&#x221a;" horiz-adv-x="585" 
d="M264 179l23 -77h3l20 78l170 614h99l-232 -794h-113l-141 408h-85v86h152z" />
    <glyph glyph-name="infinity" unicode="&#x221e;" horiz-adv-x="741" 
d="M47 350q0 81 43 131t120 50q54 0 93 -23.5t69 -69.5q28 44 65 68.5t94 24.5q72 0 118 -48.5t46 -134.5q0 -81 -43.5 -131t-120.5 -50q-54 0 -93 23.5t-70 69.5q-27 -44 -64 -68.5t-93 -24.5q-72 0 -118 49t-46 134zM338 372q-24 42 -52.5 63t-70.5 21t-65.5 -29.5
t-23.5 -75.5q0 -48 25 -75.5t62 -27.5q42 0 67.5 28.5t57.5 95.5zM615 348q0 48 -24.5 75.5t-62.5 27.5q-30 0 -51 -14.5t-36.5 -39.5t-37.5 -72q24 -41 53 -61.5t71 -20.5q41 0 64.5 29.5t23.5 75.5z" />
    <glyph glyph-name="integral" unicode="&#x222b;" horiz-adv-x="318" 
d="M7 -158l-2 64q55 1 80.5 32.5t25.5 96.5v574q0 188 199 191l2 -65q-51 -1 -78 -33t-27 -94v-571q0 -99 -49 -147t-151 -48z" />
    <glyph glyph-name="approxequal" unicode="&#x2248;" horiz-adv-x="669" 
d="M338 389q-33 12 -56.5 18.5t-45.5 6.5q-58 0 -111 -34v77q53 33 111 33q24 0 51 -7t65 -21t60 -20t44 -6q58 0 113 34v-76q-53 -33 -113 -33q-27 0 -54 7t-64 21zM340 210q-38 14 -60 20t-44 6q-58 0 -111 -34v76q54 34 111 34q24 0 51 -7t64 -21q38 -14 60.5 -20
t44.5 -6q58 0 113 34v-77q-56 -33 -113 -33q-27 0 -54 7t-62 21z" />
    <glyph glyph-name="notequal" unicode="&#x2260;" horiz-adv-x="669" 
d="M569 464v-76h-158l-54 -106h212v-76h-250l-64 -127l-62 31l49 96h-117v76h155l54 106h-209v76h247l63 123l61 -30l-48 -93h121z" />
    <glyph glyph-name="lessequal" unicode="&#x2264;" horiz-adv-x="669" 
d="M195 391l77 -24l295 -101v-91l-441 172v92l441 178v-92l-295 -106l-77 -25v-3zM567 128v-77h-436v77h436z" />
    <glyph glyph-name="greaterequal" unicode="&#x2265;" horiz-adv-x="669" 
d="M499 391v3l-77 25l-295 106v92l440 -178v-92l-440 -172v91l294 101zM562 128v-77h-435v77h435z" />
    <glyph glyph-name="dotmath" unicode="&#x22c5;" horiz-adv-x="597" 
d="M237 344q0 61 62 61t62 -61q0 -60 -62 -60q-33 0 -47.5 14t-14.5 46z" />
    <glyph glyph-name="lozenge" unicode="&#x25ca;" horiz-adv-x="613" 
d="M307 653l277 -323l-277 -324l-278 324zM306 534l-176 -205l176 -203l176 203z" />
    <glyph glyph-name="glyph421" horiz-adv-x="299" 
d="M156 697q-31 0 -46 11.5t-15 38.5q0 25 15.5 38.5t45.5 13.5t45.5 -13.5t15.5 -38.5q0 -50 -61 -50zM203 598v-598h-95v593z" />
    <glyph glyph-name="glyph422" horiz-adv-x="571" 
d="M97 0v750h102v-656h350l-3 -94h-449zM428 350q-31 0 -45 13t-14 43q0 57 59 57q58 0 58 -57q0 -27 -14.5 -41.5t-43.5 -14.5z" />
    <glyph glyph-name="glyph423" horiz-adv-x="364" 
d="M197 795v-795h-95v790zM337 342q-29 0 -42.5 13t-13.5 42q0 54 56 54t56 -54q0 -55 -56 -55z" />
    <glyph glyph-name="dollar.inferior" horiz-adv-x="319" 
d="M292 219l-9 -56q-51 18 -95 18q-38 0 -55.5 -13.5t-17.5 -33.5t17 -29.5t57 -21.5q36 -10 59.5 -20.5t40 -31.5t16.5 -55q0 -47 -28 -76.5t-79 -36.5l-4 -75h-55l4 75q-55 3 -96 26l9 59q50 -30 108 -30q37 0 56.5 14t19.5 38q0 21 -18.5 32t-56.5 22q-36 11 -59 21.5
t-39.5 31.5t-16.5 54q0 42 27 71t82 35l6 77h56l-6 -77q36 -4 77 -18z" />
    <glyph glyph-name="comma.inferior" horiz-adv-x="154" 
d="M121 -117q0 -23 -15 -57t-33 -59l-25 6l16 70q-12 4 -20.5 14t-8.5 23q0 43 43 43q22 0 32.5 -11t10.5 -29z" />
    <glyph glyph-name="period.inferior" horiz-adv-x="154" 
d="M79 -156q-23 0 -33.5 9.5t-10.5 30.5q0 41 44 41q23 0 33.5 -10t10.5 -31q0 -20 -10.5 -30t-33.5 -10z" />
    <glyph glyph-name="cent.inferior" horiz-adv-x="316" 
d="M212 178q-59 0 -83 -28t-24 -95q0 -69 26 -99.5t80 -30.5q43 0 79 19l5 -52q-34 -21 -79 -24l-3 -80h-57l4 82q-128 17 -128 185q0 85 34 130t108 51l6 78h57l-6 -78q34 -5 60 -17l-4 -57q-34 16 -75 16z" />
    <glyph glyph-name="dollar.superior" horiz-adv-x="319" 
d="M292 864l-9 -56q-51 18 -95 18q-38 0 -55.5 -13.5t-17.5 -33.5t17.5 -29.5t55.5 -20.5q37 -10 60.5 -20.5t40 -31.5t16.5 -56q0 -47 -27.5 -76.5t-79.5 -36.5l-4 -75h-55l4 74q-57 5 -96 28l9 58q50 -30 108 -30q37 0 56.5 14t19.5 38q0 21 -18.5 32t-57.5 22
q-36 11 -59 21.5t-39 31.5t-16 54q0 42 27 71t82 35l6 78h56l-6 -77q39 -4 77 -19z" />
    <glyph glyph-name="comma.superior" horiz-adv-x="154" 
d="M121 528q0 -23 -15 -57t-33 -59l-25 6l16 70q-12 4 -20.5 14t-8.5 23q0 43 43 43q22 0 32.5 -11t10.5 -29z" />
    <glyph glyph-name="period.superior" horiz-adv-x="154" 
d="M79 489q-23 0 -33.5 9.5t-10.5 30.5q0 41 44 41q23 0 33.5 -10t10.5 -31q0 -40 -44 -40z" />
    <glyph glyph-name="cent.superior" horiz-adv-x="316" 
d="M212 823q-59 0 -83 -28t-24 -95q0 -69 26 -99.5t80 -30.5q43 0 79 19l5 -51q-30 -21 -79 -25l-3 -80h-57l4 81q-128 18 -128 186q0 85 34 130t108 51l6 79h57l-6 -79q34 -5 60 -17l-4 -56q-35 15 -75 15z" />
    <glyph glyph-name="dollar.numr" horiz-adv-x="319" 
d="M292 721l-9 -55q-53 17 -95 17q-38 0 -55.5 -13t-17.5 -33t17 -29.5t56 -21.5q37 -10 60.5 -20.5t40 -31.5t16.5 -56q0 -47 -28 -76.5t-79 -36.5l-4 -74h-55l4 73q-54 4 -96 28l9 58q51 -29 108 -29q37 0 56.5 13.5t19.5 38.5q0 21 -18.5 32t-56.5 22q-37 11 -59.5 21.5
t-39 31t-16.5 53.5q0 42 27 71.5t82 35.5l6 77h56l-6 -77q39 -4 77 -19z" />
    <glyph glyph-name="parenleft.numr" horiz-adv-x="204" 
d="M125 537q0 -129 73 -238l-49 -5q-43 45 -65.5 107.5t-22.5 135.5q0 147 88 244l49 -4q-73 -106 -73 -240z" />
    <glyph glyph-name="parenright.numr" horiz-adv-x="205" 
d="M148 537q0 -73 -22.5 -135.5t-64.5 -107.5l-50 5q73 111 73 238q0 134 -73 240l50 4q87 -96 87 -244z" />
    <glyph glyph-name="plus.numr" horiz-adv-x="368" 
d="M155 414v112h-111v60h111v114h57v-114h113v-60h-113v-112h-57z" />
    <glyph glyph-name="comma.numr" horiz-adv-x="154" 
d="M121 385q0 -22 -15 -57t-33 -58l-25 5l16 70q-11 4 -20 14.5t-9 22.5q0 43 43 43q22 0 32.5 -11t10.5 -29z" />
    <glyph glyph-name="period.numr" horiz-adv-x="154" 
d="M79 347q-23 0 -33.5 9t-10.5 30q0 42 44 42q24 0 34 -10t10 -32q0 -19 -10.5 -29t-33.5 -10z" />
    <glyph glyph-name="zero.numr" 
d="M177 319q-80 0 -116.5 48t-36.5 154q0 108 36.5 155.5t117.5 47.5q80 0 116 -47.5t36 -155.5q0 -106 -36.5 -154t-116.5 -48zM178 666q-31 0 -49 -12.5t-27 -44t-9 -88.5t9 -88.5t27 -43.5t49 -12q43 0 63 30.5t20 113.5t-20 114t-63 31z" />
    <glyph glyph-name="one.numr" horiz-adv-x="272" 
d="M121 555l3 80l-3 1l-85 -56l-8 63l119 77h45v-396h-71v231z" />
    <glyph glyph-name="two.numr" 
d="M127 388v-3h183v-60h-275v47l48 43q81 71 116.5 112t35.5 79q0 27 -18.5 42.5t-59.5 15.5q-51 0 -107 -37l-18 55q62 43 138 43q67 0 103 -30.5t36 -82.5q0 -56 -44 -105.5t-138 -118.5z" />
    <glyph glyph-name="three.numr" 
d="M156 319q-71 0 -129 33l17 54q48 -30 112 -30q44 0 66 18.5t22 50.5q0 33 -26.5 47t-95.5 14v50q63 0 89 14.5t26 44.5q0 25 -20.5 38t-58.5 13q-33 0 -59.5 -9t-52.5 -27l-17 51q25 19 59.5 31t72.5 12q67 0 104.5 -27.5t37.5 -76.5q0 -64 -68 -86v-2q38 -9 57.5 -31
t19.5 -59q0 -58 -38.5 -90.5t-117.5 -32.5z" />
    <glyph glyph-name="four.numr" 
d="M17 408l-6 41l190 272h85v-256h46v-57h-46v-81h-65v81h-204zM224 579l3 81l-2 1l-36 -57l-61 -86l-38 -50l1 -3h131z" />
    <glyph glyph-name="five.numr" 
d="M40 350l13 55q27 -15 52 -21.5t57 -6.5q47 0 66.5 18.5t19.5 59.5q0 33 -19.5 49t-63.5 16q-25 0 -49.5 -4.5t-42.5 -12.5l-30 23l18 193h236v-60h-181l-8 -95l2 -1q33 12 71 12q66 0 100.5 -29t34.5 -86q0 -140 -148 -140q-74 0 -128 30z" />
    <glyph glyph-name="six.numr" 
d="M183 322q-76 0 -115 45.5t-39 145.5q0 106 45.5 160t133.5 54q50 0 98 -17l-6 -56q-44 14 -84 14q-56 0 -84.5 -28.5t-33.5 -87.5l2 -2q38 30 96 30q67 0 99.5 -29t32.5 -88q0 -69 -37 -105t-108 -36zM185 528q-22 0 -47 -9t-37 -24q1 -63 20.5 -89t62.5 -26q75 0 75 83
q0 33 -17.5 49t-56.5 16z" />
    <glyph glyph-name="seven.numr" horiz-adv-x="334" 
d="M66 327l173 330h-223l4 64h295v-60l-167 -334h-82z" />
    <glyph glyph-name="eight.numr" 
d="M25 438q0 32 18 56t54 38v2q-28 14 -42 34t-14 53q0 105 137 105q134 0 134 -104q0 -55 -56 -84v-2q36 -14 54 -36t18 -59q0 -120 -150 -120q-153 0 -153 117zM249 616q0 57 -72 57q-35 0 -52.5 -14t-17.5 -40q0 -25 20.5 -37.5t72.5 -27.5q49 25 49 62zM258 434
q0 30 -25 44t-82 30q-57 -28 -57 -71q0 -31 20 -46.5t65 -15.5q37 0 58 14.5t21 44.5z" />
    <glyph glyph-name="nine.numr" 
d="M152 322q-31 0 -53.5 4.5t-47.5 14.5l10 56q22 -9 42 -13t45 -4q54 0 80.5 31.5t30.5 102.5l-2 1q-34 -33 -93 -33q-71 0 -104.5 32t-33.5 87q0 57 36 91.5t106 34.5q78 0 115.5 -46.5t37.5 -138.5q0 -114 -41.5 -167t-127.5 -53zM167 671q-36 0 -55 -17.5t-19 -50.5
t19 -50.5t60 -17.5q25 0 47 8t33 22q0 57 -21 81.5t-64 24.5z" />
    <glyph glyph-name="equal.numr" horiz-adv-x="371" 
d="M322 642v-52h-274v52h274zM322 527v-53h-274v53h274z" />
    <glyph glyph-name="cent.numr" horiz-adv-x="316" 
d="M212 680q-59 0 -83 -27.5t-24 -94.5q0 -70 26 -100.5t80 -30.5q41 0 79 20l5 -52q-30 -21 -79 -25l-3 -79h-57l4 80q-128 18 -128 187q0 84 34 129.5t108 51.5l6 78h57l-6 -79q37 -5 60 -16l-4 -57q-35 15 -75 15z" />
    <glyph glyph-name="minus.numr" horiz-adv-x="371" 
d="M322 588v-58h-274v58h274z" />
    <glyph glyph-name="dollar.dnom" horiz-adv-x="319" 
d="M292 366l-9 -56q-29 9 -50 13.5t-45 4.5q-38 0 -55.5 -13.5t-17.5 -33.5t17.5 -29.5t55.5 -20.5q37 -10 60.5 -20.5t40 -31.5t16.5 -56q0 -47 -27.5 -76.5t-79.5 -36.5l-4 -75h-55l4 74q-57 5 -96 28l9 58q50 -30 108 -30q37 0 56.5 14t19.5 38q0 21 -18.5 32t-56.5 22
q-37 11 -59.5 21.5t-39 31t-16.5 53.5q0 43 27 72t82 35l6 77h56l-6 -76q39 -4 77 -19z" />
    <glyph glyph-name="parenleft.dnom" horiz-adv-x="204" 
d="M125 182q0 -130 73 -239l-49 -4q-43 45 -65.5 107.5t-22.5 135.5q0 145 88 244l49 -5q-73 -106 -73 -239z" />
    <glyph glyph-name="parenright.dnom" horiz-adv-x="205" 
d="M148 182q0 -73 -22.5 -135.5t-64.5 -107.5l-50 4q73 111 73 239q0 133 -73 239l50 5q87 -97 87 -244z" />
    <glyph glyph-name="plus.dnom" horiz-adv-x="368" 
d="M155 58v112h-111v60h111v114h57v-114h113v-60h-113v-112h-57z" />
    <glyph glyph-name="comma.dnom" horiz-adv-x="154" 
d="M121 30q0 -23 -15 -57t-33 -59l-25 6l16 70q-12 4 -20.5 14t-8.5 23q0 43 43 43q22 0 32.5 -11t10.5 -29z" />
    <glyph glyph-name="period.dnom" horiz-adv-x="154" 
d="M79 -9q-23 0 -33.5 9t-10.5 30q0 42 44 42q24 0 34 -10t10 -32q0 -19 -10.5 -29t-33.5 -10z" />
    <glyph glyph-name="zero.dnom" 
d="M177 -7q-80 0 -116.5 48t-36.5 154q0 108 36.5 155.5t117.5 47.5q80 0 116 -47.5t36 -155.5q0 -106 -36.5 -154t-116.5 -48zM178 340q-31 0 -49 -12.5t-27 -44t-9 -88.5t9 -88.5t27 -43.5t49 -12q43 0 63 30.5t20 113.5t-20 114t-63 31z" />
    <glyph glyph-name="one.dnom" horiz-adv-x="272" 
d="M121 229l3 80l-3 1l-85 -56l-8 63l119 77h45v-396h-71v231z" />
    <glyph glyph-name="two.dnom" 
d="M127 62v-3h183v-60h-275v47l48 43q81 71 116.5 112t35.5 79q0 27 -18.5 42.5t-59.5 15.5q-51 0 -107 -37l-18 55q62 43 138 43q67 0 103 -30.5t36 -82.5q0 -56 -44 -105.5t-138 -118.5z" />
    <glyph glyph-name="three.dnom" 
d="M156 -7q-71 0 -129 33l17 54q48 -30 112 -30q44 0 66 18.5t22 50.5q0 33 -26.5 47t-95.5 14v50q63 0 89 14.5t26 44.5q0 25 -20.5 38t-58.5 13q-33 0 -59.5 -9t-52.5 -27l-17 51q25 19 59.5 31t72.5 12q67 0 104.5 -27.5t37.5 -76.5q0 -64 -68 -86v-2q38 -9 57.5 -31
t19.5 -59q0 -58 -38.5 -90.5t-117.5 -32.5z" />
    <glyph glyph-name="four.dnom" 
d="M17 82l-6 41l190 272h85v-256h46v-57h-46v-81h-65v81h-204zM224 253l3 81l-2 1l-36 -57l-61 -86l-38 -50l1 -3h131z" />
    <glyph glyph-name="five.dnom" 
d="M40 24l13 55q27 -15 52 -21.5t57 -6.5q47 0 66.5 18.5t19.5 59.5q0 33 -19.5 49t-63.5 16q-25 0 -49.5 -4.5t-42.5 -12.5l-30 23l18 193h236v-60h-181l-8 -95l2 -1q33 12 71 12q66 0 100.5 -29t34.5 -86q0 -140 -148 -140q-74 0 -128 30z" />
    <glyph glyph-name="six.dnom" 
d="M183 -4q-76 0 -115 45.5t-39 145.5q0 106 45.5 160t133.5 54q50 0 98 -17l-6 -56q-44 14 -84 14q-56 0 -84.5 -28.5t-33.5 -87.5l2 -2q38 30 96 30q67 0 99.5 -29t32.5 -88q0 -69 -37 -105t-108 -36zM185 202q-22 0 -47 -9t-37 -24q1 -63 20.5 -89t62.5 -26q75 0 75 83
q0 33 -17.5 49t-56.5 16z" />
    <glyph glyph-name="seven.dnom" horiz-adv-x="334" 
d="M66 1l173 330h-223l4 64h295v-60l-167 -334h-82z" />
    <glyph glyph-name="eight.dnom" 
d="M25 112q0 32 18 56t54 38v2q-28 14 -42 34t-14 53q0 105 137 105q134 0 134 -104q0 -55 -56 -84v-2q36 -14 54 -36t18 -59q0 -120 -150 -120q-153 0 -153 117zM249 290q0 57 -72 57q-35 0 -52.5 -14t-17.5 -40q0 -25 20.5 -37.5t72.5 -27.5q49 25 49 62zM258 108
q0 30 -25 44t-82 30q-57 -28 -57 -71q0 -31 20 -46.5t65 -15.5q37 0 58 14.5t21 44.5z" />
    <glyph glyph-name="nine.dnom" 
d="M152 -4q-31 0 -53.5 4.5t-47.5 14.5l10 56q22 -9 42 -13t45 -4q54 0 80.5 31.5t30.5 102.5l-2 1q-34 -33 -93 -33q-71 0 -104.5 32t-33.5 87q0 57 36 91.5t106 34.5q78 0 115.5 -46.5t37.5 -138.5q0 -114 -41.5 -167t-127.5 -53zM167 345q-36 0 -55 -17.5t-19 -50.5
t19 -50.5t60 -17.5q25 0 47 8t33 22q0 57 -21 81.5t-64 24.5z" />
    <glyph glyph-name="equal.dnom" horiz-adv-x="371" 
d="M322 287v-53h-274v53h274zM322 171v-53h-274v53h274z" />
    <glyph glyph-name="cent.dnom" horiz-adv-x="316" 
d="M212 325q-59 0 -83 -28t-24 -95q0 -70 26 -100t80 -30q43 0 79 19l5 -52q-31 -21 -79 -24l-3 -80h-57l4 81q-128 18 -128 186q0 84 34 129.5t108 51.5l6 78h57l-6 -78q34 -5 60 -17l-4 -57q-37 16 -75 16z" />
    <glyph glyph-name="minus.dnom" horiz-adv-x="371" 
d="M322 233v-59h-274v59h274z" />
    <glyph glyph-name="glyph470" horiz-adv-x="56" 
 />
    <glyph glyph-name="numbersign.pnum.oldstyle" horiz-adv-x="592" 
d="M45 398v70h134l26 181h74l-26 -181h132l27 181h72l-27 -181h95v-70h-104l-23 -142h127v-69h-136l-27 -187h-73l27 187h-132l-27 -187h-74l27 187h-93v69h102l24 142h-125zM376 398h-133l-22 -142h131z" />
    <glyph glyph-name="dollar.pnum.oldstyle" horiz-adv-x="484" 
d="M283 -9l-7 -136h-76l7 134q-95 6 -152 49l12 80q33 -25 79.5 -38.5t91.5 -13.5q62 0 92.5 27t30.5 72q0 29 -17 48.5t-43 31t-71 26.5q-56 18 -91 35t-59.5 49.5t-24.5 84.5q0 70 46.5 114t133.5 51l8 126h76l-9 -128q59 -6 114 -31l-8 -79q-37 16 -77.5 24.5t-76.5 8.5
q-54 0 -85 -22t-31 -60q0 -26 16 -43.5t40 -27.5t67 -24q57 -18 92.5 -35.5t61 -51.5t25.5 -88q0 -78 -41 -126t-124 -57z" />
    <glyph glyph-name="zero.pnum.oldstyle" horiz-adv-x="645" 
d="M322 -10q-136 0 -196.5 77t-60.5 246q0 117 26.5 188t83 104.5t148.5 33.5q91 0 147.5 -33.5t83 -105t26.5 -187.5q0 -169 -61 -246t-197 -77zM323 554q-59 0 -94.5 -21.5t-53 -74t-17.5 -144.5q0 -94 17.5 -146t53 -73t94.5 -21q58 0 93 21.5t52.5 73.5t17.5 144
q0 93 -17.5 145.5t-52.5 74t-93 21.5z" />
    <glyph glyph-name="one.pnum.oldstyle" horiz-adv-x="460" 
d="M214 432l1 76l-2 1l-40 -27l-113 -73l-26 86l218 136h59v-631h-97v432z" />
    <glyph glyph-name="two.pnum.oldstyle" horiz-adv-x="591" 
d="M177 88v-5h356l-3 -83h-472v93l26 18q142 97 206 145t97.5 91t33.5 90q0 116 -138 116q-106 0 -194 -64l-28 80q43 32 103.5 50.5t126.5 18.5q113 0 170.5 -49.5t57.5 -138.5q0 -66 -38 -121t-107 -107.5t-197 -133.5z" />
    <glyph glyph-name="three.pnum.oldstyle" horiz-adv-x="573" 
d="M76 -111l-8 78q349 7 349 181q0 59 -37.5 86.5t-118.5 27.5q-51 0 -100 -7l-5 71q130 9 184 40t54 87q0 103 -130 103q-96 0 -188 -53l-24 76q39 26 98 43t120 17q107 0 159 -47t52 -129q0 -114 -126 -154v-2q75 -7 113.5 -48.5t38.5 -108.5q0 -123 -105 -190.5
t-326 -70.5z" />
    <glyph glyph-name="four.pnum.oldstyle" horiz-adv-x="626" 
d="M397 -110v179h-363l-8 62l344 500h113v-484h102l-3 -78h-99v-173zM402 559l-44 -75l-184 -271l-46 -63l1 -3h268l4 323l3 88z" />
    <glyph glyph-name="five.pnum.oldstyle" horiz-adv-x="609" 
d="M103 -112l-9 83q349 6 349 191q0 124 -152 124q-47 0 -91.5 -10.5t-77.5 -28.5l-35 38l30 345h386l4 -91h-316l-11 -137l-7 -62h2q63 27 146 27q104 0 160 -50t56 -142q0 -137 -107.5 -210t-326.5 -77z" />
    <glyph glyph-name="six.pnum.oldstyle" horiz-adv-x="616" 
d="M313 -9q-122 0 -186 81t-64 261q0 205 109 307.5t303 104.5l14 -82q-162 -1 -241 -71.5t-88 -200.5l3 -2q73 66 186 66q100 0 153.5 -53.5t53.5 -154.5q0 -122 -63.5 -189t-179.5 -67zM329 378q-52 0 -96.5 -19.5t-72.5 -49.5q1 -127 39.5 -181.5t113.5 -54.5
q72 0 111.5 42t39.5 121q0 69 -34.5 105.5t-100.5 36.5z" />
    <glyph glyph-name="seven.pnum.oldstyle" horiz-adv-x="551" 
d="M107 -100l304 637h-381l6 92h478v-80l-301 -649h-106z" />
    <glyph glyph-name="eight.pnum.oldstyle" horiz-adv-x="637" 
d="M201 331v2q-53 22 -79.5 55t-26.5 86q0 78 54.5 121t169.5 43q223 0 223 -164q0 -100 -111 -141v-2q68 -21 103.5 -57t35.5 -98q0 -92 -63.5 -139t-187.5 -47q-252 0 -252 185q0 51 35.5 92t98.5 64zM360 356q50 20 74 46.5t24 62.5q0 49 -32.5 73.5t-107.5 24.5
q-71 0 -102.5 -23.5t-31.5 -68.5q0 -34 22.5 -55.5t57 -33t96.5 -26.5zM312 288l-40 11q-113 -45 -113 -122q0 -57 37.5 -83.5t124.5 -26.5q73 0 114 25.5t41 78.5q0 35 -22 56.5t-54.5 34t-87.5 26.5z" />
    <glyph glyph-name="nine.pnum.oldstyle" horiz-adv-x="610" 
d="M131 -110l-8 81q138 5 223.5 77t98.5 206l-2 2q-65 -67 -173 -67q-99 0 -154 56.5t-55 164.5q0 105 62 166.5t174 61.5q123 0 185 -76t62 -237q0 -144 -52.5 -240t-145 -144t-215.5 -51zM295 557q-67 0 -103.5 -38t-36.5 -105q0 -144 140 -144q49 0 90.5 20t63.5 48
q-2 117 -37.5 168t-116.5 51z" />
    <glyph glyph-name="cent.pnum.oldstyle" horiz-adv-x="494" 
d="M332 -10v-139h-83v140q-105 12 -157 88t-52 224q0 138 51 212.5t158 87.5v147h83v-146q63 -6 110 -28l-6 -83q-59 28 -121 28q-96 0 -137 -50.5t-41 -167.5q0 -124 44 -178t132 -54q71 0 127 34l7 -76q-47 -32 -115 -39z" />
    <glyph glyph-name="sterling.pnum.oldstyle" horiz-adv-x="587" 
d="M98 468q0 84 57 136.5t186 52.5q92 0 168 -32l-13 -78q-29 13 -68 21.5t-79 8.5q-81 0 -119 -31t-38 -84q0 -24 3.5 -44t13.5 -60h244v-68h-227q8 -38 8 -78q0 -47 -16.5 -82t-46.5 -56l2 -3q76 16 187 16q84 0 182 -12l-4 -80q-135 12 -222 12q-120 0 -253 -11l-3 78
q41 13 62.5 49.5t21.5 83.5q0 43 -8 83h-94l-1 68h77q-10 37 -15 60.5t-5 49.5z" />
    <glyph glyph-name="currency.pnum.oldstyle" horiz-adv-x="584" 
d="M146 425l-63 65l48 53l66 -67q44 28 94 28t94 -29l68 68l49 -52l-66 -68q28 -44 28 -94q0 -48 -25 -91l62 -64l-49 -52l-62 63q-43 -31 -99 -31q-55 0 -99 30l-62 -62l-47 52l61 62q-27 39 -27 93q0 51 29 96zM291 224q46 0 77 30.5t31 75.5q0 44 -31 74.5t-77 30.5
q-45 0 -76.5 -30.5t-31.5 -74.5q0 -45 31.5 -75.5t76.5 -30.5z" />
    <glyph glyph-name="yen.pnum.oldstyle" horiz-adv-x="588" 
d="M127 649l138 -248l30 -64h3l30 63l136 249h100l-195 -329h141v-64h-164v-97h164v-63h-164v-96h-99v96h-165v63h165v97h-165v64h142l-200 329h103z" />
    <glyph glyph-name="franc.pnum.oldstyle" horiz-adv-x="595" 
d="M564 649l2 -84h-344v-194h266v-80h-266v-132h105v-64h-105v-95h-93v95h-100v64h100v490h435z" />
    <glyph glyph-name="lira.pnum.oldstyle" horiz-adv-x="587" 
d="M542 75l-4 -80q-135 12 -222 12q-120 0 -253 -11l-3 78q40 12 62 46.5t24 80.5h-112v64h105q-3 12 -14 55q-8 28 -11 42h-80v65h67q-3 20 -3 41q0 84 57 136.5t186 52.5q92 0 168 -32l-13 -78q-29 13 -68 21.5t-79 8.5q-81 0 -119 -31t-38 -84q0 -13 2 -35h249v-65h-238
l7 -29q13 -48 16 -68h215v-64h-210q-3 -87 -62 -127l2 -3q76 16 187 16q84 0 182 -12z" />
    <glyph glyph-name="peseta.pnum.oldstyle" horiz-adv-x="591" 
d="M144 649q48 0 75 -16t39 -56.5t12 -116.5q0 -75 -11.5 -116t-38.5 -58t-75 -17h-48v-269h-56v649h103zM212 460q0 52 -6.5 78t-20 35.5t-40.5 9.5h-48v-252h48q25 0 39 9.5t21 37.5t7 82zM311 82v267h-24v50h25l10 91l39 8v-99h48v-50h-48v-265q0 -37 27 -37q10 0 15 4
l2 -50q-4 -4 -13 -6t-18 -2q-63 0 -63 89zM431 9l2 55q20 -17 47 -17q20 0 29.5 15.5t9.5 48.5q0 26 -9.5 40.5t-30.5 32.5q-25 22 -38 44t-13 66q0 48 21.5 79t59.5 31q27 0 49 -15l-3 -55q-19 12 -42 12q-36 0 -36 -51q0 -24 9 -37t28 -30q25 -22 38.5 -45.5t13.5 -71.5
q0 -62 -20 -90.5t-61 -28.5q-32 0 -54 17z" />
    <glyph glyph-name="Euro.pnum.oldstyle" horiz-adv-x="595" 
d="M389 576q-87 0 -130.5 -34t-61.5 -100h305l-19 -61h-294q-3 -25 -3 -52q0 -23 3 -52h272l-19 -59h-245q17 -77 64.5 -112.5t132.5 -35.5q43 0 85.5 11t74.5 32l8 -80q-33 -21 -81.5 -33.5t-103.5 -12.5q-244 0 -286 231h-77v59h69q-2 40 -2 54q0 16 2 50h-69v61h78
q21 100 93 158.5t194 58.5q53 0 102 -9t84 -26l-25 -78q-29 14 -70 22t-81 8z" />
    <glyph glyph-name="numbersign.pnum" horiz-adv-x="633" 
d="M56 462v74h156l31 214h74l-31 -214h115l32 214h73l-32 -214h113v-74h-122l-27 -169h148l1 -75h-159l-32 -218h-73l31 218h-115l-32 -218h-74l31 218h-109v75h119l28 169h-146zM392 462h-115l-28 -169h116z" />
    <glyph glyph-name="dollar.pnum" horiz-adv-x="592" 
d="M30 53l23 83q50 -30 98 -44.5t100 -16.5v274q-113 29 -164.5 74.5t-51.5 132.5q0 83 55.5 135.5t160.5 62.5v134h80v-133q106 -5 186 -44l-20 -79q-84 36 -166 40v-249q76 -21 121.5 -46t69 -64.5t23.5 -101.5q0 -92 -54.5 -147.5t-159.5 -68.5v-133h-80v130
q-117 5 -221 61zM129 558q0 -46 30 -72.5t92 -43.5v227q-122 -13 -122 -111zM452 206q0 52 -32 81t-89 44v-251q62 8 91.5 39t29.5 87z" />
    <glyph glyph-name="zero.pnum" horiz-adv-x="665" 
d="M328 -11q-96 0 -154.5 38.5t-85.5 123t-27 223.5q0 143 27.5 227t85.5 121t155 37q95 0 153.5 -37.5t86 -121.5t27.5 -226q0 -139 -28 -223t-86.5 -123t-153.5 -39zM329 671q-62 0 -99 -25t-55 -89t-18 -182q0 -120 18 -184.5t55 -89t99 -24.5q61 0 97.5 25t54 89.5
t17.5 184.5q0 118 -17.5 182t-54 88.5t-97.5 24.5z" />
    <glyph glyph-name="one.pnum" horiz-adv-x="455" 
d="M212 543l2 80l-2 2l-66 -47l-90 -62l-11 86l210 150h59v-752h-102v543z" />
    <glyph glyph-name="two.pnum" horiz-adv-x="650" 
d="M461 544q0 136 -154 136q-54 0 -106.5 -20t-94.5 -54l-33 80q50 37 112 58.5t129 21.5q116 0 180 -56t64 -159q0 -74 -39 -139.5t-117 -137.5t-228 -189v-7h400v-86h-511v106q187 157 261 223.5t105.5 116t31.5 106.5z" />
    <glyph glyph-name="three.pnum" horiz-adv-x="650" 
d="M51 52l29 81q45 -29 93 -43.5t105 -14.5q86 0 132 41t46 111q0 75 -70 104q-42 18 -128 18h-79v82h78q38 0 70 7t52 18q30 17 44.5 43.5t14.5 63.5q0 54 -37.5 82t-107.5 28q-61 0 -109 -17.5t-93 -51.5l-34 77q42 34 107 56t136 22q110 0 170.5 -49.5t60.5 -141.5
q0 -72 -36 -112.5t-97 -60.5v-2q67 -10 110.5 -51.5t43.5 -115.5q0 -113 -72 -173.5t-201 -60.5q-134 0 -228 60z" />
    <glyph glyph-name="four.pnum" horiz-adv-x="650" 
d="M383 0v164h-346l-9 63l326 523h121v-501h122v-85h-122v-164h-92zM391 663l-41 -71l-171 -275l-43 -65l1 -3h249l3 324l4 89z" />
    <glyph glyph-name="five.pnum" horiz-adv-x="650" 
d="M88 51l20 82q46 -29 91 -43t99 -14q89 0 131.5 42.5t42.5 128.5q0 74 -40.5 108t-126.5 34q-47 0 -93.5 -10.5t-80.5 -27.5l-38 38l30 361h409l4 -90h-335l-13 -155l-6 -58l2 -2q68 28 147 28q238 0 238 -217q0 -130 -65 -197.5t-196 -67.5q-125 0 -220 60z" />
    <glyph glyph-name="six.pnum" horiz-adv-x="665" 
d="M335 -9q-134 0 -200 83.5t-66 277.5q0 204 79.5 305.5t233.5 101.5q88 0 165 -30l-9 -86q-36 14 -70 20t-75 6q-110 0 -166 -62t-63 -195l2 -2q36 33 85 51t103 18q234 0 234 -221q0 -132 -64.5 -199.5t-188.5 -67.5zM336 401q-46 0 -93 -20.5t-74 -53.5
q1 -93 18.5 -147.5t53 -79t93.5 -24.5q157 0 157 183q0 71 -37.5 106.5t-117.5 35.5z" />
    <glyph glyph-name="seven.pnum" horiz-adv-x="569" 
d="M107 -1l331 655h-425l4 95h519v-84l-317 -666h-112z" />
    <glyph glyph-name="eight.pnum" horiz-adv-x="665" 
d="M65 207q0 130 140 189v3q-54 24 -83 62.5t-29 103.5q0 90 59.5 141.5t175.5 51.5q234 0 234 -191q0 -57 -30.5 -102t-88.5 -70v-2q69 -23 108 -66.5t39 -119.5q0 -108 -66 -162t-196 -54q-135 0 -199 54t-64 162zM474 560q0 59 -35.5 88.5t-110.5 29.5q-73 0 -108.5 -30
t-35.5 -87q0 -50 28.5 -76.5t84.5 -43.5l65 -20q58 27 85 60t27 79zM494 203q0 57 -35.5 87.5t-101.5 49.5l-71 21q-59 -28 -93 -65t-34 -89q0 -70 40.5 -103t131.5 -33q77 0 120 32.5t43 99.5z" />
    <glyph glyph-name="nine.pnum" horiz-adv-x="665" 
d="M281 -9q-52 0 -92.5 8t-81.5 27l14 82q37 -16 73 -23.5t78 -7.5q107 0 158 66.5t56 216.5l-2 1q-68 -61 -183 -61q-121 0 -180.5 59.5t-59.5 164.5q0 112 62.5 173.5t187.5 61.5q129 0 199 -87.5t70 -259.5q0 -222 -73.5 -321.5t-225.5 -99.5zM310 674q-76 0 -115.5 -37
t-39.5 -109q0 -148 163 -148q51 0 94 17t71 51q-3 226 -173 226z" />
    <glyph glyph-name="cent.pnum" horiz-adv-x="563" 
d="M366 -10v-139h-83v140q-105 12 -157 88t-52 224q0 138 51 212.5t158 87.5v147h83v-146q63 -6 110 -28l-6 -83q-59 28 -121 28q-96 0 -137 -50.5t-41 -167.5q0 -124 44 -178t132 -54q71 0 127 34l7 -76q-47 -32 -115 -39z" />
    <glyph glyph-name="sterling.pnum" horiz-adv-x="633" 
d="M108 547q0 95 63.5 154.5t203.5 59.5q103 0 186 -38l-13 -87q-32 16 -75.5 25.5t-87.5 9.5q-91 0 -133.5 -36.5t-42.5 -97.5q0 -29 5 -56t16 -68h263v-77h-245q9 -49 9 -90q0 -56 -20 -97t-55 -65l1 -2q78 15 204 15q100 0 213 -12l-6 -91q-140 15 -250 15
q-144 0 -288 -17l-4 88q55 15 83.5 56.5t28.5 104.5q0 50 -10 95h-110v77h90q-14 47 -20 74t-6 60z" />
    <glyph glyph-name="currency.pnum" horiz-adv-x="573" 
d="M141 461l-67 68l50 54l69 -70q45 29 97 29q53 0 96 -30l71 71l50 -54l-68 -70q29 -45 29 -98q0 -50 -26 -94l65 -66l-50 -54l-66 65q-43 -31 -101 -31q-57 0 -102 31l-65 -66l-50 54l65 66q-27 44 -27 95q0 57 30 100zM289 252q48 0 81 32t33 79t-33 79t-81 32
q-47 0 -80.5 -32.5t-33.5 -78.5q0 -47 33 -79t81 -32z" />
    <glyph glyph-name="yen.pnum" horiz-adv-x="695" 
d="M101 129v69h193v108h-193v69h167l-211 375h113l144 -285l31 -76h3l30 74l144 287h110l-206 -375h166v-69h-191v-108h192v-69h-192v-129h-107v129h-193z" />
    <glyph glyph-name="franc.pnum" horiz-adv-x="611" 
d="M530 422l-1 -89h-302v-130h149v-72h-149v-131h-102v131h-107v72h107v547h461l2 -94h-361v-234h303z" />
    <glyph glyph-name="lira.pnum" horiz-adv-x="653" 
d="M606 85l-6 -91q-142 15 -251 15q-144 0 -287 -17l-5 88q55 15 83 55t29 102h-123v69h115q-8 34 -13 51q-7 24 -16 61h-86v69h72q-4 40 -4 60q0 95 63.5 154.5t202.5 59.5q102 0 187 -37l-13 -88q-33 15 -77 25t-87 10q-91 0 -133.5 -36.5t-42.5 -97.5q0 -16 4 -50h287
v-69h-273q21 -84 25 -112h248v-69h-242q-1 -52 -21 -91t-54 -62l1 -2q76 15 204 15q98 0 213 -12z" />
    <glyph glyph-name="peseta.pnum" horiz-adv-x="792" 
d="M204 750q62 0 99.5 -20.5t55.5 -68.5t18 -132q0 -82 -17.5 -130.5t-55 -70.5t-100.5 -22h-62v-306h-73v750h135zM300 529q0 57 -9 87.5t-29.5 43t-57.5 12.5h-62v-291h62q36 0 56.5 12t30 44t9.5 92zM428 99v301h-29v60h32l11 105l52 7v-112h59v-60h-59v-300
q0 -45 33 -45q5 0 11 2t8 3l2 -60q-4 -4 -16 -6.5t-23 -2.5q-81 0 -81 108zM586 12l2 66q26 -22 64 -22q49 0 49 70q0 30 -12.5 46.5t-39.5 36.5q-22 17 -35.5 30.5t-23 37.5t-9.5 61q0 57 27 92.5t76 35.5q36 0 66 -20l-5 -64q-29 16 -58 16q-22 0 -33.5 -15t-11.5 -43
q0 -27 11.5 -42t36.5 -32q23 -17 37 -31t24 -40.5t10 -66.5q0 -71 -26 -105.5t-79 -34.5q-20 0 -38.5 6.5t-31.5 17.5z" />
    <glyph glyph-name="Euro.pnum" horiz-adv-x="665" 
d="M436 -14q-130 0 -204 63t-96 195h-107v69h98q-2 44 -2 69q0 20 2 54h-98v69h105q22 131 97.5 194.5t210.5 63.5q47 0 92 -8.5t78 -21.5l-13 -89q-68 28 -152 28q-91 0 -141 -38.5t-68 -128.5h299v-69h-307q-2 -34 -2 -55q0 -26 2 -68h307v-69h-298q19 -91 69.5 -129.5
t139.5 -38.5q88 0 154 30l13 -84q-34 -16 -81.5 -26t-97.5 -10z" />
    <glyph glyph-name="numbersign.oldstyle" horiz-adv-x="612" 
d="M45 398v70h134l26 181h74l-26 -181h132l27 181h72l-27 -181h95v-70h-104l-23 -142h127v-69h-136l-27 -187h-73l27 187h-132l-27 -187h-74l27 187h-93v69h102l24 142h-125zM376 398h-133l-22 -142h131z" />
    <glyph glyph-name="dollar.oldstyle" horiz-adv-x="612" 
d="M328 -10l-8 -138h-81l8 138q-102 6 -169 52l14 85q38 -27 92.5 -42.5t104.5 -15.5q68 0 101 27t33 71q0 28 -19 46t-47 28.5t-78 24.5q-63 18 -103.5 34.5t-68.5 49.5t-28 86q0 72 50.5 116t146.5 51l9 133h80l-9 -133q70 -6 139 -34l-9 -84q-85 35 -175 35
q-62 0 -96.5 -21.5t-34.5 -57.5q0 -25 18 -41.5t44.5 -26.5t74.5 -23q64 -17 104.5 -33.5t69.5 -50.5t29 -89q0 -79 -47.5 -128.5t-144.5 -58.5z" />
    <glyph glyph-name="zero.oldstyle" horiz-adv-x="612" 
d="M305 -10q-136 0 -196.5 77t-60.5 246q0 117 26.5 188t83 104.5t148.5 33.5q91 0 147.5 -33.5t83 -105t26.5 -187.5q0 -169 -61.5 -246t-196.5 -77zM306 554q-59 0 -94.5 -21.5t-53 -74t-17.5 -144.5q0 -94 17.5 -146t53 -73t94.5 -21q58 0 93 21.5t52.5 73.5t17.5 144
q0 93 -17.5 145.5t-52.5 74t-93 21.5z" />
    <glyph glyph-name="one.oldstyle" horiz-adv-x="612" 
d="M269 431l2 77l-2 2l-59 -37l-129 -73v97l230 130h60v-542h171v-85h-459v85h186v346z" />
    <glyph glyph-name="two.oldstyle" horiz-adv-x="612" 
d="M180 88v-5h356l-3 -83h-472v93l26 18q142 97 206 145t97.5 91t33.5 90q0 116 -138 116q-106 0 -194 -64l-28 80q43 32 103.5 50.5t126.5 18.5q113 0 170.5 -49.5t57.5 -138.5q0 -66 -38 -121t-107 -107.5t-197 -133.5z" />
    <glyph glyph-name="three.oldstyle" horiz-adv-x="612" 
d="M80 -111l-8 78q349 7 349 181q0 59 -37.5 86.5t-118.5 27.5q-51 0 -100 -7l-5 71q130 9 184 40t54 87q0 103 -130 103q-96 0 -188 -53l-24 76q39 26 98 43t121 17q106 0 158 -47t52 -129q0 -56 -31 -95t-94 -59v-2q75 -7 113.5 -48.5t38.5 -108.5q0 -123 -105.5 -190.5
t-326.5 -70.5z" />
    <glyph glyph-name="four.oldstyle" horiz-adv-x="612" 
d="M382 -110v179h-363l-8 62l344 500h113v-484h102l-3 -78h-99v-173zM387 559l-44 -75l-184 -271l-46 -63l1 -3h268l4 323l3 88z" />
    <glyph glyph-name="five.oldstyle" horiz-adv-x="612" 
d="M123 -112l-10 83q350 6 350 191q0 124 -152 124q-47 0 -92 -10.5t-77 -28.5l-35 38l30 345h386l4 -91h-316l-12 -137l-6 -62h2q63 27 146 27q104 0 159.5 -50t55.5 -142q0 -137 -107 -210t-326 -77z" />
    <glyph glyph-name="six.oldstyle" horiz-adv-x="612" 
d="M326 -9q-122 0 -186.5 81t-64.5 261q0 205 109 307.5t303 104.5l15 -82q-313 -3 -329 -272l2 -2q35 31 79.5 48.5t106.5 17.5q101 0 154.5 -53.5t53.5 -154.5q0 -122 -63.5 -189t-179.5 -67zM341 378q-52 0 -96.5 -19.5t-72.5 -49.5q1 -128 40 -182t114 -54q72 0 111 42
t39 121q0 69 -34.5 105.5t-100.5 36.5z" />
    <glyph glyph-name="seven.oldstyle" horiz-adv-x="612" 
d="M127 -100l304 637h-381l6 92h477v-80l-301 -649h-105z" />
    <glyph glyph-name="eight.oldstyle" horiz-adv-x="612" 
d="M206 331v2q-53 22 -79.5 55t-26.5 86q0 78 55 121t170 43q114 0 168.5 -42.5t54.5 -121.5q0 -100 -111 -141v-2q67 -21 102.5 -57t35.5 -98q0 -92 -63 -139t-187 -47q-253 0 -253 185q0 51 35.5 92t98.5 64zM365 356q51 20 75 46.5t24 62.5q0 49 -33 73.5t-107 24.5
q-72 0 -103.5 -23.5t-31.5 -68.5q0 -34 23 -55t56.5 -33t96.5 -27zM317 288l-40 11q-113 -46 -113 -122q0 -57 38 -83.5t125 -26.5q73 0 113.5 25.5t40.5 78.5q0 35 -22 56.5t-54.5 34t-87.5 26.5z" />
    <glyph glyph-name="nine.oldstyle" horiz-adv-x="612" 
d="M135 -110l-9 81q139 5 224 77t99 206l-2 2q-65 -67 -173 -67q-99 0 -154.5 56.5t-55.5 164.5q0 105 62 166.5t174 61.5q124 0 186 -75.5t62 -237.5q0 -144 -52.5 -240t-145 -144t-215.5 -51zM298 557q-66 0 -102.5 -38t-36.5 -105q0 -144 139 -144q49 0 90.5 20t64.5 48
q-1 117 -37.5 168t-117.5 51z" />
    <glyph glyph-name="cent.oldstyle" horiz-adv-x="612" 
d="M370 515q-101 0 -148.5 -54t-47.5 -165q0 -119 48 -171t147 -52q44 0 86 10.5t73 29.5l9 -81q-27 -18 -64.5 -29.5t-77.5 -14.5v-138h-79v139q-124 10 -183.5 87t-59.5 220q0 138 63.5 215.5t179.5 86.5v138h79v-135q77 -5 136 -30l-8 -86q-32 14 -73 22t-80 8z" />
    <glyph glyph-name="sterling.oldstyle" horiz-adv-x="612" 
d="M109 468q0 84 56.5 136.5t185.5 52.5q92 0 168 -32l-13 -78q-29 13 -68 21.5t-79 8.5q-81 0 -118.5 -31t-37.5 -84q0 -25 4 -48t13 -56h244v-68h-228q8 -38 8 -78q0 -47 -16.5 -82t-46.5 -56l2 -3q77 16 187 16q84 0 183 -12l-5 -80q-134 12 -222 12q-120 0 -253 -11
l-3 78q41 13 63 49.5t22 83.5q0 33 -8 83h-95v68h76q-9 34 -14 58.5t-5 51.5z" />
    <glyph glyph-name="currency.oldstyle" horiz-adv-x="612" 
d="M153 425l-64 65l49 53l66 -67q44 28 94 28q49 0 93 -29l68 68l49 -52l-66 -68q29 -43 29 -94q0 -49 -26 -91l63 -64l-49 -52l-62 63q-43 -31 -99 -31q-55 0 -99 30l-62 -62l-48 52l61 62q-26 40 -26 93q0 51 29 96zM298 224q45 0 76.5 30.5t31.5 75.5q0 44 -31.5 74.5
t-76.5 30.5q-46 0 -77.5 -30.5t-31.5 -74.5q0 -45 31.5 -75.5t77.5 -30.5z" />
    <glyph glyph-name="yen.oldstyle" horiz-adv-x="612" 
d="M129 649l138 -248l30 -64h3l31 63l135 249h100l-194 -329h140v-64h-164v-97h164v-63h-164v-96h-99v96h-165v63h165v97h-165v64h142l-199 329h102z" />
    <glyph glyph-name="uni2007.aalt" horiz-adv-x="612" 
 />
    <glyph glyph-name="franc.oldstyle" horiz-adv-x="612" 
d="M563 649l2 -84h-344v-194h266v-80h-266v-132h105v-64h-105v-95h-93v95h-100v64h100v490h435z" />
    <glyph glyph-name="lira.oldstyle" horiz-adv-x="612" 
d="M561 75l-4 -80q-135 12 -222 12q-121 0 -253 -11l-3 78q41 13 63 47t23 80h-112v64h105q-3 17 -9 37.5t-8 28.5l-9 31h-79v65h67q-3 20 -3 41q0 84 57 136.5t186 52.5q92 0 168 -32l-13 -78q-29 13 -68 21.5t-79 8.5q-81 0 -119 -31t-38 -84q0 -13 2 -35h249v-65h-238
l7 -29q13 -48 16 -68h215v-64h-210q-3 -87 -62 -127l2 -3q76 16 187 16q84 0 182 -12z" />
    <glyph glyph-name="peseta.oldstyle" horiz-adv-x="612" 
d="M297 244h-126v-244h-89v419h-57v47h57v183h215q112 0 165.5 -44t58.5 -139h60v-46h-60q-6 -90 -59.5 -133t-164.5 -43zM297 571h-126v-105h258q-4 57 -35 81t-97 24zM429 419h-258v-101h126q64 0 95 22t37 79z" />
    <glyph glyph-name="Euro.oldstyle" horiz-adv-x="612" 
d="M394 576q-87 0 -130.5 -34t-61.5 -100h305l-19 -61h-294q-3 -25 -3 -52q0 -23 3 -52h272l-19 -59h-245q17 -77 64.5 -112.5t132.5 -35.5q43 0 85.5 11t74.5 32l8 -80q-33 -21 -81.5 -33.5t-103.5 -12.5q-244 0 -286 231h-77v59h69q-2 40 -2 54q0 16 2 50h-69v61h78
q21 100 93 158.5t194 58.5q53 0 102 -9t84 -26l-25 -78q-29 14 -70 22t-81 8z" />
    <glyph glyph-name="glyph532" horiz-adv-x="873" 
d="M492 367l-1 -83h-292v-284h-95v649h426l3 -86h-334v-196h293zM769 0h-97v649h97v-649z" />
    <glyph glyph-name="glyph533" horiz-adv-x="1115" 
d="M492 367l-1 -83h-292v-284h-95v649h426l3 -86h-334v-196h293zM672 0v649h95v-563h322l-2 -86h-415z" />
    <glyph glyph-name="exclam.aalt" horiz-adv-x="293" 
d="M198 649l-14 -416h-68l-14 416h96zM85 48q0 61 63 61q64 0 64 -61q0 -59 -64 -59q-63 0 -63 59z" />
    <glyph glyph-name="ampersand.aalt" horiz-adv-x="681" 
d="M59 173q0 68 36 112.5t118 74.5q-34 37 -51 72t-17 74q0 69 47 108.5t131 39.5q79 0 123.5 -37.5t44.5 -104.5q0 -57 -32.5 -96.5t-95.5 -67.5l-25 -10q33 -35 77 -76.5t76 -68.5q19 31 33 79.5t15 89.5l84 -2q-3 -54 -22.5 -114t-48.5 -102q83 -64 134 -92l-50 -68
q-60 37 -134 95q-86 -91 -224 -91q-105 0 -162 48.5t-57 136.5zM407 505q0 41 -23 61.5t-65 20.5q-43 0 -66.5 -21t-23.5 -61q0 -31 14.5 -59.5t45.5 -58.5q61 21 89.5 50t28.5 68zM441 129q-123 110 -184 178q-60 -22 -84.5 -52t-24.5 -78q0 -54 34.5 -83t100.5 -29
q99 0 158 64z" />
    <glyph glyph-name="question.aalt" horiz-adv-x="483" 
d="M271 286l-4 -110h-69l-7 146q81 43 118 79.5t37 86.5q0 89 -116 89q-48 0 -86.5 -15.5t-73.5 -45.5l-34 70q36 33 90 53t117 20q97 0 146.5 -41.5t49.5 -116.5q0 -71 -42.5 -122.5t-125.5 -92.5zM234 -10q-30 0 -43 11.5t-13 38.5q0 51 56 51q54 0 54 -51q0 -50 -54 -50z
" />
    <glyph glyph-name="grave.c2sc" horiz-adv-x="387" 
d="M192 828l79 -132h-71l-118 132h110z" />
    <glyph glyph-name="A.c2sc" horiz-adv-x="667" 
d="M123 0h-102l255 649h112l258 -649h-109l-56 154h-301zM454 233l-95 264l-25 78h-3l-26 -78l-98 -264h247z" />
    <glyph glyph-name="B.aalt" horiz-adv-x="663" 
d="M372 0h-268v649h256q100 0 151.5 -41.5t51.5 -120.5q0 -58 -26 -93t-70 -49v-3q60 -13 91.5 -52t31.5 -105q0 -90 -52 -137.5t-166 -47.5zM357 568h-162v-198h170q107 0 107 100q0 52 -27.5 75t-87.5 23zM369 301h-174v-222h178q63 0 93 26t30 88q0 54 -31 81t-96 27z
" />
    <glyph glyph-name="C.aalt" horiz-adv-x="576" 
d="M376 575q-75 0 -120 -23.5t-66.5 -77t-21.5 -145.5q0 -96 21.5 -152t67.5 -80t121 -24q77 0 146 32l12 -78q-35 -17 -80 -28t-90 -11q-152 0 -224.5 83.5t-72.5 258.5q0 166 74 248t229 82q42 0 87 -9t75 -22l-13 -84q-28 13 -66.5 21.5t-78.5 8.5z" />
    <glyph glyph-name="D.aalt" horiz-adv-x="709" 
d="M336 0h-232v649h231q157 0 231 -78.5t74 -244.5q0 -168 -76.5 -247t-227.5 -79zM334 563h-136v-478h136q71 0 116 22t68 75t23 145q0 89 -22 140.5t-67 73.5t-118 22z" />
    <glyph glyph-name="E.aalt" horiz-adv-x="605" 
d="M104 0v649h428l2 -85h-336v-189h288v-75h-288v-216h351l-3 -84h-442z" />
    <glyph glyph-name="F.aalt" horiz-adv-x="568" 
d="M492 367l-1 -83h-292v-284h-95v649h426l3 -86h-334v-196h293z" />
    <glyph glyph-name="G.aalt" horiz-adv-x="663" 
d="M69 323q0 175 75.5 256.5t238.5 81.5q49 0 99 -9t87 -24l-11 -83q-80 30 -170 30q-80 0 -127.5 -23t-70 -77.5t-22.5 -150.5q0 -94 21 -148.5t65.5 -78.5t119.5 -24q68 0 120 19v169h-118v75h205v-308q-39 -18 -94 -29t-110 -11q-163 0 -235.5 80.5t-72.5 254.5z" />
    <glyph glyph-name="H.aalt" horiz-adv-x="724" 
d="M199 293v-293h-95v649h95v-270h325v270h96v-649h-96v293h-325z" />
    <glyph glyph-name="I.aalt" horiz-adv-x="304" 
d="M201 0h-97v649h97v-649z" />
    <glyph glyph-name="J.aalt" horiz-adv-x="478" 
d="M167 -12q-40 0 -76.5 10t-61.5 27l8 82q22 -16 52.5 -26t59.5 -10q65 0 96.5 34.5t31.5 106.5v437h96v-437q0 -115 -54 -169.5t-152 -54.5z" />
    <glyph glyph-name="K.aalt" horiz-adv-x="664" 
d="M198 297v-297h-94v649h94v-273h104l211 273h113l-239 -307l253 -342h-121l-220 297h-101z" />
    <glyph glyph-name="L.aalt" horiz-adv-x="546" 
d="M104 0v649h95v-563h322l-2 -86h-415z" />
    <glyph glyph-name="M.aalt" horiz-adv-x="873" 
d="M435 125h3l30 74l196 450h105v-649h-87v426l2 81l-3 1l-30 -76l-184 -432h-63l-183 423l-31 76l-2 -1l1 -81v-417h-85v649h107l193 -449z" />
    <glyph glyph-name="N.aalt" horiz-adv-x="729" 
d="M190 512l-2 -1l1 -81v-430h-85v649h85l305 -431l46 -66l2 1l-2 80v416h85v-649h-76l-314 445z" />
    <glyph glyph-name="O.c2sc" horiz-adv-x="712" 
d="M356 -12q-152 0 -219.5 80t-67.5 256q0 118 29 191.5t92 108.5t166 35q104 0 166.5 -35t91 -108.5t28.5 -191.5q0 -119 -28.5 -192.5t-91 -108.5t-166.5 -35zM356 574q-70 0 -110.5 -22.5t-59 -76.5t-18.5 -151q0 -96 19 -150.5t59.5 -77.5t110.5 -23q69 0 109 23
t58 77.5t18 150.5q0 97 -18 151t-58 76.5t-110 22.5z" />
    <glyph glyph-name="P.aalt" horiz-adv-x="625" 
d="M336 240h-137v-240h-95v649h232q124 0 181.5 -50t57.5 -156q0 -102 -57 -152.5t-182 -50.5zM335 569h-136v-253h137q75 0 108 27.5t33 100.5q0 68 -33.5 96.5t-108.5 28.5z" />
    <glyph glyph-name="Q.aalt" horiz-adv-x="712" 
d="M421 -8l95 -186h-101l-82 183q-140 5 -202 85.5t-62 249.5q0 118 29 191.5t92 108.5t166 35q104 0 166.5 -35t91 -108.5t28.5 -191.5q0 -158 -51.5 -237t-169.5 -95zM542 324q0 97 -18 151t-58 76.5t-110 22.5t-110.5 -22.5t-59 -76.5t-18.5 -151q0 -96 19 -150.5
t59.5 -77.5t110.5 -23q69 0 109 23t58 77.5t18 150.5z" />
    <glyph glyph-name="R.aalt" horiz-adv-x="644" 
d="M428 288l178 -288h-115l-153 269h-139v-269h-95v649h236q112 0 166.5 -46.5t54.5 -140.5q0 -74 -34 -118t-99 -56zM340 569h-141v-227h138q67 0 96 27t29 90q0 59 -28 84.5t-94 25.5z" />
    <glyph glyph-name="S.aalt" horiz-adv-x="562" 
d="M268 -12q-116 0 -204 51l14 83q89 -52 190 -52q70 0 106.5 29t36.5 82q0 31 -19 51t-48 32t-77 27q-64 21 -103 39.5t-66.5 53.5t-27.5 92q0 80 57 132t169 52q50 0 98 -9.5t86 -26.5l-13 -81q-90 33 -167 33q-72 0 -105.5 -26.5t-33.5 -68.5q0 -29 18.5 -48t46 -30.5
t74.5 -25.5q64 -20 104.5 -38.5t69 -55.5t28.5 -97q0 -91 -61 -144.5t-173 -53.5z" />
    <glyph glyph-name="T.aalt" horiz-adv-x="557" 
d="M230 0v564h-205l2 85h504l1 -85h-205v-564h-97z" />
    <glyph glyph-name="U.aalt" horiz-adv-x="731" 
d="M366 -12q-264 0 -264 255v406h95v-406q0 -87 41.5 -128t127.5 -41t127 41t41 128v406h95v-406q0 -255 -263 -255z" />
    <glyph glyph-name="V.aalt" horiz-adv-x="642" 
d="M267 0l-247 649h107l169 -486l26 -77h3l24 77l171 486h102l-247 -649h-108z" />
    <glyph glyph-name="W.aalt" horiz-adv-x="945" 
d="M670 87h3l16 79l110 483h96l-167 -649h-117l-119 478l-17 80h-3l-19 -80l-119 -478h-116l-168 649h100l110 -487l17 -79h3l17 79l124 487h106l124 -483z" />
    <glyph glyph-name="X.aalt" horiz-adv-x="652" 
d="M502 0l-137 216l-39 65h-2l-38 -66l-133 -215h-115l215 337l-208 312h119l122 -192l39 -62h2l39 63l122 191h113l-207 -310l221 -339h-113z" />
    <glyph glyph-name="Y.aalt" horiz-adv-x="611" 
d="M308 301h2l39 77l141 271h107l-240 -428v-221h-99v221l-243 428h110l145 -273z" />
    <glyph glyph-name="Z.aalt" horiz-adv-x="595" 
d="M368 497l48 64l-1 2h-347l4 86h461v-71l-307 -427l-47 -62l1 -3h356l-2 -86h-477v62z" />
    <glyph glyph-name="exclamdown.aalt" horiz-adv-x="286" 
d="M206 591q0 -61 -63 -61t-63 61q0 59 63 59t63 -59zM93 -10l14 416h68l15 -416h-97z" />
    <glyph glyph-name="dieresis.c2sc" horiz-adv-x="384" 
d="M120 726q-22 0 -33 10t-11 33q0 42 44 42t44 -42q0 -43 -44 -43zM282 726q-44 0 -44 43q0 20 11.5 31t32.5 11q45 0 45 -42q0 -43 -45 -43z" />
    <glyph glyph-name="glyph566" horiz-adv-x="391" 
d="M61 778h282v-55h-282v55z" />
    <glyph glyph-name="acute.c2sc" horiz-adv-x="379" 
d="M141 696l98 132h118l-137 -132h-79z" />
    <glyph glyph-name="cedilla.aalt" horiz-adv-x="388" 
d="M215 -191h-89l64 195l63 2z" />
    <glyph glyph-name="questiondown.aalt" horiz-adv-x="483" 
d="M249 663q29 0 42.5 -11.5t13.5 -38.5q0 -24 -14 -37.5t-42 -13.5q-55 0 -55 51q0 50 55 50zM211 367l5 110h69l6 -146q-80 -43 -117 -79.5t-37 -86.5q0 -89 115 -89q48 0 86.5 15t73.5 46l35 -70q-36 -33 -90.5 -53t-116.5 -20q-97 0 -147 41t-50 117q0 71 42.5 122.5
t125.5 92.5z" />
    <glyph glyph-name="germandbls.aalt" horiz-adv-x="1124" 
d="M830 -12q-116 0 -204 51l14 83q89 -52 190 -52q70 0 106.5 29t36.5 82q0 31 -19 51t-48 32t-77 27q-64 21 -103 39.5t-66.5 53.5t-27.5 92q0 80 57 132t169 52q50 0 98 -9.5t86 -26.5l-13 -81q-90 33 -167 33q-72 0 -105.5 -26.5t-33.5 -68.5q0 -29 18.5 -48t46 -30.5
t74.5 -25.5q64 -20 104.5 -38.5t69 -55.5t28.5 -97q0 -91 -61 -144.5t-173 -53.5zM268 -12q-116 0 -204 51l14 83q89 -52 190 -52q70 0 106.5 29t36.5 82q0 31 -19 51t-48 32t-77 27q-64 21 -103 39.5t-66.5 53.5t-27.5 92q0 80 57 132t169 52q50 0 98 -9.5t86 -26.5
l-13 -81q-90 33 -167 33q-72 0 -105.5 -26.5t-33.5 -68.5q0 -29 18.5 -48t46 -30.5t74.5 -25.5q64 -20 104.5 -38.5t69 -55.5t28.5 -97q0 -91 -61 -144.5t-173 -53.5z" />
    <glyph glyph-name="Agrave.aalt" horiz-adv-x="667" 
d="M123 0h-102l255 649h112l258 -649h-109l-56 154h-301zM454 233l-95 264l-25 78h-3l-26 -78l-98 -264h247zM277 966l126 -195h-88l-141 195h103z" />
    <glyph glyph-name="Aacute.aalt" horiz-adv-x="667" 
d="M123 0h-102l255 649h112l258 -649h-109l-56 154h-301zM454 233l-95 264l-25 78h-3l-26 -78l-98 -264h247zM499 966l-142 -195h-88l126 195h104z" />
    <glyph glyph-name="Acircumflex.aalt" horiz-adv-x="667" 
d="M123 0h-102l255 649h112l258 -649h-109l-56 154h-301zM454 233l-95 264l-25 78h-3l-26 -78l-98 -264h247zM382 966l142 -195h-86l-105 147l-105 -147h-84l139 195h99z" />
    <glyph glyph-name="Atilde.aalt" horiz-adv-x="667" 
d="M123 0h-102l255 649h112l258 -649h-109l-56 154h-301zM454 233l-95 264l-25 78h-3l-26 -78l-98 -264h247zM252 922q31 0 54 -13.5t46 -37.5q18 -19 32 -28t31 -9q51 0 60 85h55q-4 -73 -34.5 -111t-81.5 -38q-30 0 -53 13t-46 37q-18 19 -32.5 28t-30.5 9
q-26 0 -41 -21.5t-19 -63.5h-56q4 71 34 110.5t82 39.5z" />
    <glyph glyph-name="Adieresis.aalt" horiz-adv-x="667" 
d="M123 0h-102l255 649h112l258 -649h-109l-56 154h-301zM454 233l-95 264l-25 78h-3l-26 -78l-98 -264h247zM168 829q0 57 54 57q29 0 42.5 -14t13.5 -43t-13.5 -42.5t-42.5 -13.5q-28 0 -41 13t-13 43zM390 829q0 57 56 57q54 0 54 -57q0 -29 -13 -42.5t-41 -13.5
q-29 0 -42.5 13t-13.5 43z" />
    <glyph glyph-name="Aring.aalt" horiz-adv-x="667" 
d="M123 0h-102l255 649h112l258 -649h-109l-56 154h-301zM454 233l-95 264l-25 78h-3l-26 -78l-98 -264h247zM335 986q70 0 107.5 -33t37.5 -86q0 -55 -36.5 -86t-108.5 -31q-73 0 -110 30t-37 87q0 55 36.5 87t110.5 32zM335 800q43 0 64 18t21 49q0 32 -20.5 50t-64.5 18
q-88 0 -88 -68q0 -67 88 -67z" />
    <glyph glyph-name="AE.aalt" horiz-adv-x="962" 
d="M845 375v-75h-265l24 -216h303l-2 -84h-391l-18 154h-280l-86 -154h-115l385 649h495l3 -85h-346l21 -189h272zM489 233l-28 264l-7 81l-3 1l-38 -72l-154 -274h230z" />
    <glyph glyph-name="Ccedilla.aalt" horiz-adv-x="576" 
d="M366 -12h-4l-34 -194h-90l60 199q-117 17 -173 100t-56 237q0 166 74 248t229 82q42 0 87 -9t75 -22l-13 -84q-28 13 -66.5 21.5t-78.5 8.5q-75 0 -120 -23.5t-66.5 -77t-21.5 -145.5q0 -96 21.5 -152t67.5 -80t121 -24q77 0 146 32l12 -78q-35 -17 -80 -28t-90 -11z" />
    <glyph glyph-name="Egrave.aalt" horiz-adv-x="605" 
d="M104 0v649h428l2 -85h-336v-189h288v-75h-288v-216h351l-3 -84h-442zM268 966l126 -195h-88l-141 195h103z" />
    <glyph glyph-name="Eacute.aalt" horiz-adv-x="605" 
d="M104 0v649h428l2 -85h-336v-189h288v-75h-288v-216h351l-3 -84h-442zM490 966l-142 -195h-88l126 195h104z" />
    <glyph glyph-name="Ecircumflex.aalt" horiz-adv-x="605" 
d="M104 0v649h428l2 -85h-336v-189h288v-75h-288v-216h351l-3 -84h-442zM373 966l142 -195h-86l-105 147l-105 -147h-84l139 195h99z" />
    <glyph glyph-name="Edieresis.aalt" horiz-adv-x="605" 
d="M104 0v649h428l2 -85h-336v-189h288v-75h-288v-216h351l-3 -84h-442zM159 829q0 57 54 57q29 0 42.5 -14t13.5 -43t-13.5 -42.5t-42.5 -13.5q-28 0 -41 13t-13 43zM381 829q0 57 56 57q54 0 54 -57q0 -29 -13 -42.5t-41 -13.5q-29 0 -42.5 13t-13.5 43z" />
    <glyph glyph-name="Igrave.aalt" horiz-adv-x="304" 
d="M201 0h-97v649h97v-649zM95 966l126 -195h-88l-141 195h103z" />
    <glyph glyph-name="Iacute.aalt" horiz-adv-x="304" 
d="M201 0h-97v649h97v-649zM317 966l-142 -195h-88l126 195h104z" />
    <glyph glyph-name="Icircumflex.aalt" horiz-adv-x="304" 
d="M201 0h-97v649h97v-649zM200 966l142 -195h-86l-105 147l-105 -147h-84l139 195h99z" />
    <glyph glyph-name="Idieresis.aalt" horiz-adv-x="304" 
d="M201 0h-97v649h97v-649zM-14 829q0 57 54 57q29 0 42.5 -14t13.5 -43t-13.5 -42.5t-42.5 -13.5q-28 0 -41 13t-13 43zM208 829q0 57 56 57q54 0 54 -57q0 -29 -13 -42.5t-41 -13.5q-29 0 -42.5 13t-13.5 43z" />
    <glyph glyph-name="Eth.aalt" horiz-adv-x="709" 
d="M640 326q0 -168 -76.5 -247t-227.5 -79h-232v296h-89v68h89v285h231q157 0 231 -78.5t74 -244.5zM541 327q0 89 -22 140.5t-67 73.5t-118 22h-136v-199h149v-68h-149v-211h136q71 0 116 22t68 75t23 145z" />
    <glyph glyph-name="Ntilde.aalt" horiz-adv-x="729" 
d="M190 512l-2 -1l1 -81v-430h-85v649h85l305 -431l46 -66l2 1l-2 80v416h85v-649h-76l-314 445zM277 922q31 0 54 -13.5t46 -37.5q18 -19 32 -28t31 -9q51 0 60 85h55q-4 -73 -34.5 -111t-81.5 -38q-30 0 -53 13t-46 37q-18 19 -32.5 28t-30.5 9q-26 0 -41 -21.5t-19 -63.5
h-56q4 71 34 110.5t82 39.5z" />
    <glyph glyph-name="Ograve.aalt" horiz-adv-x="712" 
d="M356 -12q-152 0 -219.5 80t-67.5 256q0 118 29 191.5t92 108.5t166 35q104 0 166.5 -35t91 -108.5t28.5 -191.5q0 -119 -28.5 -192.5t-91 -108.5t-166.5 -35zM356 574q-70 0 -110.5 -22.5t-59 -76.5t-18.5 -151q0 -96 19 -150.5t59.5 -77.5t110.5 -23q69 0 109 23
t58 77.5t18 150.5q0 97 -18 151t-58 76.5t-110 22.5zM295 966l126 -195h-88l-141 195h103z" />
    <glyph glyph-name="Oacute.aalt" horiz-adv-x="712" 
d="M356 -12q-152 0 -219.5 80t-67.5 256q0 118 29 191.5t92 108.5t166 35q104 0 166.5 -35t91 -108.5t28.5 -191.5q0 -119 -28.5 -192.5t-91 -108.5t-166.5 -35zM356 574q-70 0 -110.5 -22.5t-59 -76.5t-18.5 -151q0 -96 19 -150.5t59.5 -77.5t110.5 -23q69 0 109 23
t58 77.5t18 150.5q0 97 -18 151t-58 76.5t-110 22.5zM517 966l-142 -195h-88l126 195h104z" />
    <glyph glyph-name="Ocircumflex.aalt" horiz-adv-x="712" 
d="M356 -12q-152 0 -219.5 80t-67.5 256q0 118 29 191.5t92 108.5t166 35q104 0 166.5 -35t91 -108.5t28.5 -191.5q0 -119 -28.5 -192.5t-91 -108.5t-166.5 -35zM356 574q-70 0 -110.5 -22.5t-59 -76.5t-18.5 -151q0 -96 19 -150.5t59.5 -77.5t110.5 -23q69 0 109 23
t58 77.5t18 150.5q0 97 -18 151t-58 76.5t-110 22.5zM400 966l142 -195h-86l-105 147l-105 -147h-84l139 195h99z" />
    <glyph glyph-name="Otilde.aalt" horiz-adv-x="712" 
d="M356 -12q-152 0 -219.5 80t-67.5 256q0 118 29 191.5t92 108.5t166 35q104 0 166.5 -35t91 -108.5t28.5 -191.5q0 -119 -28.5 -192.5t-91 -108.5t-166.5 -35zM356 574q-70 0 -110.5 -22.5t-59 -76.5t-18.5 -151q0 -96 19 -150.5t59.5 -77.5t110.5 -23q69 0 109 23
t58 77.5t18 150.5q0 97 -18 151t-58 76.5t-110 22.5zM270 922q31 0 54 -13.5t46 -37.5q18 -19 32 -28t31 -9q51 0 60 85h55q-4 -73 -34.5 -111t-81.5 -38q-30 0 -53 13t-46 37q-18 19 -32.5 28t-30.5 9q-26 0 -41 -21.5t-19 -63.5h-56q4 71 34 110.5t82 39.5z" />
    <glyph glyph-name="Odieresis.aalt" horiz-adv-x="712" 
d="M356 -12q-152 0 -219.5 80t-67.5 256q0 118 29 191.5t92 108.5t166 35q104 0 166.5 -35t91 -108.5t28.5 -191.5q0 -119 -28.5 -192.5t-91 -108.5t-166.5 -35zM356 574q-70 0 -110.5 -22.5t-59 -76.5t-18.5 -151q0 -96 19 -150.5t59.5 -77.5t110.5 -23q69 0 109 23
t58 77.5t18 150.5q0 97 -18 151t-58 76.5t-110 22.5zM186 829q0 57 54 57q29 0 42.5 -14t13.5 -43t-13.5 -42.5t-42.5 -13.5q-28 0 -41 13t-13 43zM408 829q0 57 56 57q54 0 54 -57q0 -29 -13 -42.5t-41 -13.5q-29 0 -42.5 13t-13.5 43z" />
    <glyph glyph-name="Oslash.aalt" horiz-adv-x="712" 
d="M642 324q0 -119 -28.5 -192.5t-91 -108.5t-166.5 -35q-133 0 -201 61l-72 -81l-44 41l77 88q-47 79 -47 227q0 118 29 191.5t92 108.5t166 35q135 0 203 -61l70 80l45 -43l-76 -86q44 -75 44 -225zM186 176l310 351q-22 25 -56 36t-84 11q-70 0 -110.5 -22.5t-59 -76.5
t-18.5 -151q0 -92 18 -148zM526 469l-309 -350q22 -24 56.5 -35t83.5 -11q69 0 109 23t58 77.5t18 150.5q0 91 -16 145z" />
    <glyph glyph-name="Ugrave.aalt" horiz-adv-x="731" 
d="M366 -12q-264 0 -264 255v406h95v-406q0 -87 41.5 -128t127.5 -41t127 41t41 128v406h95v-406q0 -255 -263 -255zM310 966l126 -195h-88l-141 195h103z" />
    <glyph glyph-name="Uacute.aalt" horiz-adv-x="731" 
d="M366 -12q-264 0 -264 255v406h95v-406q0 -87 41.5 -128t127.5 -41t127 41t41 128v406h95v-406q0 -255 -263 -255zM532 966l-142 -195h-88l126 195h104z" />
    <glyph glyph-name="Ucircumflex.aalt" horiz-adv-x="731" 
d="M366 -12q-264 0 -264 255v406h95v-406q0 -87 41.5 -128t127.5 -41t127 41t41 128v406h95v-406q0 -255 -263 -255zM415 966l142 -195h-86l-105 147l-105 -147h-84l139 195h99z" />
    <glyph glyph-name="Udieresis.aalt" horiz-adv-x="731" 
d="M366 -12q-264 0 -264 255v406h95v-406q0 -87 41.5 -128t127.5 -41t127 41t41 128v406h95v-406q0 -255 -263 -255zM201 829q0 57 54 57q29 0 42.5 -14t13.5 -43t-13.5 -42.5t-42.5 -13.5q-28 0 -41 13t-13 43zM423 829q0 57 56 57q54 0 54 -57q0 -29 -13 -42.5t-41 -13.5
q-29 0 -42.5 13t-13.5 43z" />
    <glyph glyph-name="Yacute.aalt" horiz-adv-x="611" 
d="M308 301h2l39 77l141 271h107l-240 -428v-221h-99v221l-243 428h110l145 -273zM471 966l-142 -195h-88l126 195h104z" />
    <glyph glyph-name="Thorn.aalt" horiz-adv-x="607" 
d="M312 127h-119v-127h-95v649h95v-112h119q137 0 197 -49.5t60 -155.5q0 -103 -60.5 -154t-196.5 -51zM312 457h-119v-253h119q86 0 122.5 28t36.5 100q0 69 -36.5 97t-122.5 28z" />
    <glyph glyph-name="ydieresis.aalt" horiz-adv-x="611" 
d="M308 301h2l39 77l141 271h107l-240 -428v-221h-99v221l-243 428h110l145 -273zM140 829q0 57 54 57q29 0 42.5 -14t13.5 -43t-13.5 -42.5t-42.5 -13.5q-28 0 -41 13t-13 43zM362 829q0 57 56 57q54 0 54 -57q0 -29 -13 -42.5t-41 -13.5q-29 0 -42.5 13t-13.5 43z" />
    <glyph glyph-name="Amacron.aalt" horiz-adv-x="667" 
d="M123 0h-102l255 649h112l258 -649h-109l-56 154h-301zM454 233l-95 264l-25 78h-3l-26 -78l-98 -264h247zM176 853h309v-61h-309v61z" />
    <glyph glyph-name="Abreve.aalt" horiz-adv-x="667" 
d="M123 0h-102l255 649h112l258 -649h-109l-56 154h-301zM454 233l-95 264l-25 78h-3l-26 -78l-98 -264h247zM335 765q-97 0 -145.5 46.5t-48.5 133.5h74q0 -61 30 -90t90 -29q59 0 88.5 28.5t29.5 90.5h74q0 -85 -49 -132.5t-143 -47.5z" />
    <glyph glyph-name="Aogonek.aalt" horiz-adv-x="667" 
d="M638 -142l1 -53q-32 -17 -82 -17q-54 0 -82 25.5t-28 68.5q0 75 88 123l-54 149h-301l-57 -154h-102l255 649h112l258 -649h-55q-39 -24 -59.5 -48.5t-20.5 -53.5q0 -27 16.5 -40.5t44.5 -13.5q34 0 66 14zM359 497l-25 78h-3l-26 -78l-98 -264h247z" />
    <glyph glyph-name="Cacute.aalt" horiz-adv-x="576" 
d="M376 575q-75 0 -120 -23.5t-66.5 -77t-21.5 -145.5q0 -96 21.5 -152t67.5 -80t121 -24q77 0 146 32l12 -78q-35 -17 -80 -28t-90 -11q-152 0 -224.5 83.5t-72.5 258.5q0 166 74 248t229 82q42 0 87 -9t75 -22l-13 -84q-28 13 -66.5 21.5t-78.5 8.5zM506 966l-142 -195
h-88l126 195h104z" />
    <glyph glyph-name="Ccircumflex.aalt" horiz-adv-x="576" 
d="M376 575q-75 0 -120 -23.5t-66.5 -77t-21.5 -145.5q0 -96 21.5 -152t67.5 -80t121 -24q77 0 146 32l12 -78q-35 -17 -80 -28t-90 -11q-152 0 -224.5 83.5t-72.5 258.5q0 166 74 248t229 82q42 0 87 -9t75 -22l-13 -84q-28 13 -66.5 21.5t-78.5 8.5zM389 966l142 -195h-86
l-105 147l-105 -147h-84l139 195h99z" />
    <glyph glyph-name="Cdotaccent.aalt" horiz-adv-x="576" 
d="M376 575q-75 0 -120 -23.5t-66.5 -77t-21.5 -145.5q0 -96 21.5 -152t67.5 -80t121 -24q77 0 146 32l12 -78q-35 -17 -80 -28t-90 -11q-152 0 -224.5 83.5t-72.5 258.5q0 166 74 248t229 82q42 0 87 -9t75 -22l-13 -84q-28 13 -66.5 21.5t-78.5 8.5zM341 781
q-34 0 -50.5 12t-16.5 42q0 55 67 55q66 0 66 -55q0 -28 -16 -41t-50 -13z" />
    <glyph glyph-name="Ccaron.aalt" horiz-adv-x="576" 
d="M376 575q-75 0 -120 -23.5t-66.5 -77t-21.5 -145.5q0 -96 21.5 -152t67.5 -80t121 -24q77 0 146 32l12 -78q-35 -17 -80 -28t-90 -11q-152 0 -224.5 83.5t-72.5 258.5q0 166 74 248t229 82q42 0 87 -9t75 -22l-13 -84q-28 13 -66.5 21.5t-78.5 8.5zM235 966l105 -147
l105 147h85l-140 -195h-98l-142 195h85z" />
    <glyph glyph-name="Dcaron.aalt" horiz-adv-x="709" 
d="M336 0h-232v649h231q157 0 231 -78.5t74 -244.5q0 -168 -76.5 -247t-227.5 -79zM334 563h-136v-478h136q71 0 116 22t68 75t23 145q0 89 -22 140.5t-67 73.5t-118 22zM245 966l105 -147l105 147h85l-140 -195h-98l-142 195h85z" />
    <glyph glyph-name="Dcroat.aalt" horiz-adv-x="709" 
d="M640 326q0 -168 -76.5 -247t-227.5 -79h-232v296h-89v68h89v285h231q157 0 231 -78.5t74 -244.5zM541 327q0 89 -22 140.5t-67 73.5t-118 22h-136v-199h149v-68h-149v-211h136q71 0 116 22t68 75t23 145z" />
    <glyph glyph-name="Emacron.aalt" horiz-adv-x="605" 
d="M104 0v649h428l2 -85h-336v-189h288v-75h-288v-216h351l-3 -84h-442zM167 853h309v-61h-309v61z" />
    <glyph glyph-name="Ebreve.aalt" horiz-adv-x="605" 
d="M104 0v649h428l2 -85h-336v-189h288v-75h-288v-216h351l-3 -84h-442zM326 765q-97 0 -145.5 46.5t-48.5 133.5h74q0 -61 30 -90t90 -29q59 0 88.5 28.5t29.5 90.5h74q0 -85 -49 -132.5t-143 -47.5z" />
    <glyph glyph-name="Edotaccent.aalt" horiz-adv-x="605" 
d="M104 0v649h428l2 -85h-336v-189h288v-75h-288v-216h351l-3 -84h-442zM325 781q-34 0 -50.5 12t-16.5 42q0 55 67 55q66 0 66 -55q0 -28 -16 -41t-50 -13z" />
    <glyph glyph-name="Eogonek.aalt" horiz-adv-x="605" 
d="M486 -212q-54 0 -82 25.5t-28 68.5q0 71 79 118h-351v649h428l2 -85h-336v-189h288v-75h-288v-216h351l-3 -84h-26q-39 -24 -59.5 -48.5t-20.5 -53.5q0 -27 16.5 -40.5t44.5 -13.5q34 0 66 14l1 -53q-32 -17 -82 -17z" />
    <glyph glyph-name="Ecaron.aalt" horiz-adv-x="605" 
d="M104 0v649h428l2 -85h-336v-189h288v-75h-288v-216h351l-3 -84h-442zM219 966l105 -147l105 147h85l-140 -195h-98l-142 195h85z" />
    <glyph glyph-name="Gcircumflex.aalt" horiz-adv-x="663" 
d="M69 323q0 175 75.5 256.5t238.5 81.5q49 0 99 -9t87 -24l-11 -83q-80 30 -170 30q-80 0 -127.5 -23t-70 -77.5t-22.5 -150.5q0 -94 21 -148.5t65.5 -78.5t119.5 -24q68 0 120 19v169h-118v75h205v-308q-39 -18 -94 -29t-110 -11q-163 0 -235.5 80.5t-72.5 254.5zM400 966
l142 -195h-86l-105 147l-105 -147h-84l139 195h99z" />
    <glyph glyph-name="Gbreve.aalt" horiz-adv-x="663" 
d="M69 323q0 175 75.5 256.5t238.5 81.5q49 0 99 -9t87 -24l-11 -83q-80 30 -170 30q-80 0 -127.5 -23t-70 -77.5t-22.5 -150.5q0 -94 21 -148.5t65.5 -78.5t119.5 -24q68 0 120 19v169h-118v75h205v-308q-39 -18 -94 -29t-110 -11q-163 0 -235.5 80.5t-72.5 254.5zM353 765
q-97 0 -145.5 46.5t-48.5 133.5h74q0 -61 30 -90t90 -29q59 0 88.5 28.5t29.5 90.5h74q0 -85 -49 -132.5t-143 -47.5z" />
    <glyph glyph-name="Gdotaccent.aalt" horiz-adv-x="663" 
d="M69 323q0 175 75.5 256.5t238.5 81.5q49 0 99 -9t87 -24l-11 -83q-80 30 -170 30q-80 0 -127.5 -23t-70 -77.5t-22.5 -150.5q0 -94 21 -148.5t65.5 -78.5t119.5 -24q68 0 120 19v169h-118v75h205v-308q-39 -18 -94 -29t-110 -11q-163 0 -235.5 80.5t-72.5 254.5zM352 781
q-34 0 -50.5 12t-16.5 42q0 55 67 55q66 0 66 -55q0 -28 -16 -41t-50 -13z" />
    <glyph glyph-name="uni0122.aalt" horiz-adv-x="663" 
d="M69 323q0 175 75.5 256.5t238.5 81.5q49 0 99 -9t87 -24l-11 -83q-80 30 -170 30q-80 0 -127.5 -23t-70 -77.5t-22.5 -150.5q0 -94 21 -148.5t65.5 -78.5t119.5 -24q68 0 120 19v169h-118v75h205v-308q-39 -18 -94 -29t-110 -11q-163 0 -235.5 80.5t-72.5 254.5z
M398 -129q0 -66 -47 -140h-69q27 61 27 123q0 27 -10 71h91q8 -32 8 -54z" />
    <glyph glyph-name="Hcircumflex.aalt" horiz-adv-x="724" 
d="M199 293v-293h-95v649h95v-270h325v270h96v-649h-96v293h-325zM404 966l142 -195h-86l-105 147l-105 -147h-84l139 195h99z" />
    <glyph glyph-name="Hbar.aalt" horiz-adv-x="724" 
d="M620 488v-488h-96v293h-325v-293h-95v488h-88v57h88v104h95v-104h325v104h96v-104h87v-57h-87zM199 488v-109h325v109h-325z" />
    <glyph glyph-name="Itilde.aalt" horiz-adv-x="304" 
d="M201 0h-97v649h97v-649zM70 922q31 0 54 -13.5t46 -37.5q18 -19 32 -28t31 -9q51 0 60 85h55q-4 -73 -34.5 -111t-81.5 -38q-30 0 -53 13t-46 37q-18 19 -32.5 28t-30.5 9q-26 0 -41 -21.5t-19 -63.5h-56q4 71 34 110.5t82 39.5z" />
    <glyph glyph-name="Imacron.aalt" horiz-adv-x="304" 
d="M201 0h-97v649h97v-649zM-6 853h309v-61h-309v61z" />
    <glyph glyph-name="Ibreve.aalt" horiz-adv-x="304" 
d="M201 0h-97v649h97v-649zM153 765q-97 0 -145.5 46.5t-48.5 133.5h74q0 -61 30 -90t90 -29q59 0 88.5 28.5t29.5 90.5h74q0 -85 -49 -132.5t-143 -47.5z" />
    <glyph glyph-name="Iogonek.aalt" horiz-adv-x="304" 
d="M143 -211q-54 0 -82 25.5t-28 68.5q0 72 78 117h-7v649h97v-649h-26q-78 -48 -78 -101q0 -27 16.5 -40.5t44.5 -13.5q34 0 66 14l1 -53q-32 -17 -82 -17z" />
    <glyph glyph-name="Idotaccent.aalt" horiz-adv-x="304" 
d="M152 781q-34 0 -50.5 12t-16.5 42q0 55 67 55q66 0 66 -55q0 -28 -16 -41t-50 -13zM201 0h-97v649h97v-649z" />
    <glyph glyph-name="glyph627" horiz-adv-x="284" 
d="M198 0h-97v649h97v-649z" />
    <glyph glyph-name="IJ.aalt" horiz-adv-x="782" 
d="M201 0h-97v649h97v-649zM471 -12q-40 0 -76.5 10t-61.5 27l8 82q22 -16 52.5 -26t59.5 -10q65 0 96.5 34.5t31.5 106.5v437h96v-437q0 -115 -54 -169.5t-152 -54.5z" />
    <glyph glyph-name="Jcircumflex.aalt" horiz-adv-x="478" 
d="M167 -12q-40 0 -76.5 10t-61.5 27l8 82q22 -16 52.5 -26t59.5 -10q65 0 96.5 34.5t31.5 106.5v437h96v-437q0 -115 -54 -169.5t-152 -54.5zM371 966l142 -195h-86l-105 147l-105 -147h-84l139 195h99z" />
    <glyph glyph-name="uni0136.aalt" horiz-adv-x="664" 
d="M198 297v-297h-94v649h94v-273h104l211 273h113l-239 -307l253 -342h-121l-220 297h-101zM397 -129q0 -66 -47 -140h-69q27 61 27 123q0 27 -10 71h91q8 -32 8 -54z" />
    <glyph glyph-name="kgreenlandic.aalt" horiz-adv-x="664" 
d="M198 297v-297h-94v649h94v-273h104l211 273h113l-239 -307l253 -342h-121l-220 297h-101z" />
    <glyph glyph-name="Lacute.aalt" horiz-adv-x="546" 
d="M104 0v649h95v-563h322l-2 -86h-415zM316 966l-142 -195h-88l126 195h104z" />
    <glyph glyph-name="uni013B.aalt" horiz-adv-x="546" 
d="M104 0v649h95v-563h322l-2 -86h-415zM358 -129q0 -66 -47 -140h-69q27 61 27 123q0 27 -10 71h91q8 -32 8 -54z" />
    <glyph glyph-name="lcaron.aalt" horiz-adv-x="546" 
d="M450 653q0 -52 -14.5 -104.5t-36.5 -97.5h-61q15 36 24.5 85.5t9.5 93.5q0 48 -9 88h80q7 -28 7 -65zM104 0v649h95v-563h322l-2 -86h-415z" />
    <glyph glyph-name="Ldot.aalt" horiz-adv-x="546" 
d="M104 0v649h95v-563h322l-2 -86h-415zM410 317q-33 0 -47.5 14t-14.5 46q0 61 62 61t62 -61q0 -60 -62 -60z" />
    <glyph glyph-name="Lslash.aalt" horiz-adv-x="546" 
d="M519 0h-415v272l-93 -42l-5 80l98 45v294h95v-250l188 86l7 -82l-195 -88v-229h322z" />
    <glyph glyph-name="Nacute.aalt" horiz-adv-x="729" 
d="M190 512l-2 -1l1 -81v-430h-85v649h85l305 -431l46 -66l2 1l-2 80v416h85v-649h-76l-314 445zM524 966l-142 -195h-88l126 195h104z" />
    <glyph glyph-name="uni0145.aalt" horiz-adv-x="729" 
d="M190 512l-2 -1l1 -81v-430h-85v649h85l305 -431l46 -66l2 1l-2 80v416h85v-649h-76l-314 445zM414 -129q0 -66 -47 -140h-69q27 61 27 123q0 27 -10 71h91q8 -32 8 -54z" />
    <glyph glyph-name="Ncaron.aalt" horiz-adv-x="729" 
d="M190 512l-2 -1l1 -81v-430h-85v649h85l305 -431l46 -66l2 1l-2 80v416h85v-649h-76l-314 445zM253 966l105 -147l105 147h85l-140 -195h-98l-142 195h85z" />
    <glyph glyph-name="napostrophe.aalt" horiz-adv-x="774" 
d="M96 802q0 -52 -14.5 -104.5t-36.5 -97.5h-61q15 36 24.5 85.5t9.5 93.5q0 48 -9 88h80q7 -28 7 -65zM236 512l-2 -1l1 -81v-430h-86v649h85l305 -431l46 -66l2 1l-2 80v416h85v-649h-75l-314 445z" />
    <glyph glyph-name="Eng.aalt" horiz-adv-x="704" 
d="M472 -122q-28 0 -53.5 8t-43.5 21l7 59q14 -12 34 -19t38 -7q67 0 79 71l-304 433l-45 67l-2 -1l1 -81v-429h-85v649h85l305 -431l46 -66l2 1l-2 80v416h85v-597q0 -89 -39.5 -131.5t-107.5 -42.5z" />
    <glyph glyph-name="Omacron.aalt" horiz-adv-x="712" 
d="M356 -12q-152 0 -219.5 80t-67.5 256q0 118 29 191.5t92 108.5t166 35q104 0 166.5 -35t91 -108.5t28.5 -191.5q0 -119 -28.5 -192.5t-91 -108.5t-166.5 -35zM356 574q-70 0 -110.5 -22.5t-59 -76.5t-18.5 -151q0 -96 19 -150.5t59.5 -77.5t110.5 -23q69 0 109 23
t58 77.5t18 150.5q0 97 -18 151t-58 76.5t-110 22.5zM194 853h309v-61h-309v61z" />
    <glyph glyph-name="Obreve.aalt" horiz-adv-x="712" 
d="M356 -12q-152 0 -219.5 80t-67.5 256q0 118 29 191.5t92 108.5t166 35q104 0 166.5 -35t91 -108.5t28.5 -191.5q0 -119 -28.5 -192.5t-91 -108.5t-166.5 -35zM356 574q-70 0 -110.5 -22.5t-59 -76.5t-18.5 -151q0 -96 19 -150.5t59.5 -77.5t110.5 -23q69 0 109 23
t58 77.5t18 150.5q0 97 -18 151t-58 76.5t-110 22.5zM353 765q-97 0 -145.5 46.5t-48.5 133.5h74q0 -61 30 -90t90 -29q59 0 88.5 28.5t29.5 90.5h74q0 -85 -49 -132.5t-143 -47.5z" />
    <glyph glyph-name="Ohungarumlaut.aalt" horiz-adv-x="712" 
d="M356 -12q-152 0 -219.5 80t-67.5 256q0 118 29 191.5t92 108.5t166 35q104 0 166.5 -35t91 -108.5t28.5 -191.5q0 -119 -28.5 -192.5t-91 -108.5t-166.5 -35zM356 574q-70 0 -110.5 -22.5t-59 -76.5t-18.5 -151q0 -96 19 -150.5t59.5 -77.5t110.5 -23q69 0 109 23
t58 77.5t18 150.5q0 97 -18 151t-58 76.5t-110 22.5zM223 771l118 195h89l-138 -195h-69zM410 771l124 195h90l-144 -195h-70z" />
    <glyph glyph-name="OE.aalt" horiz-adv-x="1031" 
d="M546 94l-3 1q-56 -107 -206 -107q-139 0 -203.5 80.5t-64.5 255.5q0 176 64 255.5t205 79.5q75 0 126 -23.5t79 -75.5h3l-2 42v47h414l3 -86h-330v-188h282v-76h-282v-214h345l-2 -85h-430v41zM354 574q-70 0 -109.5 -22.5t-58 -76.5t-18.5 -151q0 -96 18.5 -150.5
t58.5 -77.5t109 -23t108.5 23t57.5 77.5t18 150.5q0 97 -17.5 151t-57 76.5t-109.5 22.5z" />
    <glyph glyph-name="Racute.aalt" horiz-adv-x="644" 
d="M428 288l178 -288h-115l-153 269h-139v-269h-95v649h236q112 0 166.5 -46.5t54.5 -140.5q0 -74 -34 -118t-99 -56zM340 569h-141v-227h138q67 0 96 27t29 90q0 59 -28 84.5t-94 25.5zM501 966l-142 -195h-88l126 195h104z" />
    <glyph glyph-name="uni0156.aalt" horiz-adv-x="644" 
d="M428 288l178 -288h-115l-153 269h-139v-269h-95v649h236q112 0 166.5 -46.5t54.5 -140.5q0 -74 -34 -118t-99 -56zM340 569h-141v-227h138q67 0 96 27t29 90q0 59 -28 84.5t-94 25.5zM377 -129q0 -66 -47 -140h-69q27 61 27 123q0 27 -10 71h91q8 -32 8 -54z" />
    <glyph glyph-name="Rcaron.aalt" horiz-adv-x="644" 
d="M428 288l178 -288h-115l-153 269h-139v-269h-95v649h236q112 0 166.5 -46.5t54.5 -140.5q0 -74 -34 -118t-99 -56zM340 569h-141v-227h138q67 0 96 27t29 90q0 59 -28 84.5t-94 25.5zM231 966l105 -147l105 147h85l-140 -195h-98l-142 195h85z" />
    <glyph glyph-name="Sacute.aalt" horiz-adv-x="562" 
d="M268 -12q-116 0 -204 51l14 83q89 -52 190 -52q70 0 106.5 29t36.5 82q0 31 -19 51t-48 32t-77 27q-64 21 -103 39.5t-66.5 53.5t-27.5 92q0 80 57 132t169 52q50 0 98 -9.5t86 -26.5l-13 -81q-90 33 -167 33q-72 0 -105.5 -26.5t-33.5 -68.5q0 -29 18.5 -48t46 -30.5
t74.5 -25.5q64 -20 104.5 -38.5t69 -55.5t28.5 -97q0 -91 -61 -144.5t-173 -53.5zM453 966l-142 -195h-88l126 195h104z" />
    <glyph glyph-name="Scircumflex.aalt" horiz-adv-x="562" 
d="M268 -12q-116 0 -204 51l14 83q89 -52 190 -52q70 0 106.5 29t36.5 82q0 31 -19 51t-48 32t-77 27q-64 21 -103 39.5t-66.5 53.5t-27.5 92q0 80 57 132t169 52q50 0 98 -9.5t86 -26.5l-13 -81q-90 33 -167 33q-72 0 -105.5 -26.5t-33.5 -68.5q0 -29 18.5 -48t46 -30.5
t74.5 -25.5q64 -20 104.5 -38.5t69 -55.5t28.5 -97q0 -91 -61 -144.5t-173 -53.5zM336 966l142 -195h-86l-105 147l-105 -147h-84l139 195h99z" />
    <glyph glyph-name="Scedilla.c2sc" horiz-adv-x="562" 
d="M300 -10l-35 -196h-90l59 195q-99 8 -170 50l14 83q89 -52 190 -52q70 0 106.5 29t36.5 82q0 31 -19 51t-48 32t-77 27q-64 21 -103 39.5t-66.5 53.5t-27.5 92q0 80 57 132t169 52q50 0 98 -9.5t86 -26.5l-13 -81q-90 33 -167 33q-72 0 -105.5 -26.5t-33.5 -68.5
q0 -29 18.5 -48t46 -30.5t74.5 -25.5q64 -20 104.5 -38.5t69 -55.5t28.5 -97q0 -85 -52.5 -137t-149.5 -59z" />
    <glyph glyph-name="Scaron.aalt" horiz-adv-x="562" 
d="M268 -12q-116 0 -204 51l14 83q89 -52 190 -52q70 0 106.5 29t36.5 82q0 31 -19 51t-48 32t-77 27q-64 21 -103 39.5t-66.5 53.5t-27.5 92q0 80 57 132t169 52q50 0 98 -9.5t86 -26.5l-13 -81q-90 33 -167 33q-72 0 -105.5 -26.5t-33.5 -68.5q0 -29 18.5 -48t46 -30.5
t74.5 -25.5q64 -20 104.5 -38.5t69 -55.5t28.5 -97q0 -91 -61 -144.5t-173 -53.5zM182 966l105 -147l105 147h85l-140 -195h-98l-142 195h85z" />
    <glyph glyph-name="Tcaron.aalt" horiz-adv-x="557" 
d="M230 0v564h-205l2 85h504l1 -85h-205v-564h-97zM173 966l105 -147l105 147h85l-140 -195h-98l-142 195h85z" />
    <glyph glyph-name="Tbar.aalt" horiz-adv-x="557" 
d="M469 331v-68h-142v-263h-97v263h-141v68h141v233h-205l2 85h504l1 -85h-205v-233h142z" />
    <glyph glyph-name="Utilde.aalt" horiz-adv-x="731" 
d="M366 -12q-264 0 -264 255v406h95v-406q0 -87 41.5 -128t127.5 -41t127 41t41 128v406h95v-406q0 -255 -263 -255zM285 922q31 0 54 -13.5t46 -37.5q18 -19 32 -28t31 -9q51 0 60 85h55q-4 -73 -34.5 -111t-81.5 -38q-30 0 -53 13t-46 37q-18 19 -32.5 28t-30.5 9
q-26 0 -41 -21.5t-19 -63.5h-56q4 71 34 110.5t82 39.5z" />
    <glyph glyph-name="Umacron.aalt" horiz-adv-x="731" 
d="M366 -12q-264 0 -264 255v406h95v-406q0 -87 41.5 -128t127.5 -41t127 41t41 128v406h95v-406q0 -255 -263 -255zM209 853h309v-61h-309v61z" />
    <glyph glyph-name="Ubreve.aalt" horiz-adv-x="731" 
d="M366 -12q-264 0 -264 255v406h95v-406q0 -87 41.5 -128t127.5 -41t127 41t41 128v406h95v-406q0 -255 -263 -255zM368 765q-97 0 -145.5 46.5t-48.5 133.5h74q0 -61 30 -90t90 -29q59 0 88.5 28.5t29.5 90.5h74q0 -85 -49 -132.5t-143 -47.5z" />
    <glyph glyph-name="Uring.aalt" horiz-adv-x="731" 
d="M366 -12q-264 0 -264 255v406h95v-406q0 -87 41.5 -128t127.5 -41t127 41t41 128v406h95v-406q0 -255 -263 -255zM368 986q70 0 107.5 -33t37.5 -86q0 -55 -36.5 -86t-108.5 -31q-73 0 -110 30t-37 87q0 55 36.5 87t110.5 32zM368 800q43 0 64 18t21 49q0 32 -20.5 50
t-64.5 18q-88 0 -88 -68q0 -67 88 -67z" />
    <glyph glyph-name="Uhungarumlaut.aalt" horiz-adv-x="731" 
d="M366 -12q-264 0 -264 255v406h95v-406q0 -87 41.5 -128t127.5 -41t127 41t41 128v406h95v-406q0 -255 -263 -255zM238 771l118 195h89l-138 -195h-69zM425 771l124 195h90l-144 -195h-70z" />
    <glyph glyph-name="Uogonek.aalt" horiz-adv-x="731" 
d="M629 243q0 -190 -146 -238q-68 -44 -68 -95q0 -27 16.5 -40.5t44.5 -13.5q34 0 66 14l1 -53q-32 -17 -82 -17q-54 0 -82 25.5t-28 68.5q0 56 47 95l-32 -1q-264 0 -264 255v406h95v-406q0 -87 41.5 -128t127.5 -41t127 41t41 128v406h95v-406z" />
    <glyph glyph-name="Wcircumflex.aalt" horiz-adv-x="945" 
d="M670 87h3l16 79l110 483h96l-167 -649h-117l-119 478l-17 80h-3l-19 -80l-119 -478h-116l-168 649h100l110 -487l17 -79h3l17 79l124 487h106l124 -483zM521 966l142 -195h-86l-105 147l-105 -147h-84l139 195h99z" />
    <glyph glyph-name="Ycircumflex.aalt" horiz-adv-x="611" 
d="M308 301h2l39 77l141 271h107l-240 -428v-221h-99v221l-243 428h110l145 -273zM354 966l142 -195h-86l-105 147l-105 -147h-84l139 195h99z" />
    <glyph glyph-name="Zacute.aalt" horiz-adv-x="595" 
d="M368 497l48 64l-1 2h-347l4 86h461v-71l-307 -427l-47 -62l1 -3h356l-2 -86h-477v62zM469 966l-142 -195h-88l126 195h104z" />
    <glyph glyph-name="Zdotaccent.aalt" horiz-adv-x="595" 
d="M368 497l48 64l-1 2h-347l4 86h461v-71l-307 -427l-47 -62l1 -3h356l-2 -86h-477v62zM304 781q-34 0 -50.5 12t-16.5 42q0 55 67 55q66 0 66 -55q0 -28 -16 -41t-50 -13z" />
    <glyph glyph-name="Zcaron.aalt" horiz-adv-x="595" 
d="M368 497l48 64l-1 2h-347l4 86h461v-71l-307 -427l-47 -62l1 -3h356l-2 -86h-477v62zM199 966l105 -147l105 147h85l-140 -195h-98l-142 195h85z" />
    <glyph glyph-name="longs.aalt" horiz-adv-x="525" 
d="M255 -12q-116 0 -204 51l15 83q87 -52 189 -52q71 0 107 29t36 82q0 31 -19 51t-48 32t-77 27q-64 21 -103 39.5t-66.5 53.5t-27.5 92q0 80 57 132t170 52q50 0 97.5 -9.5t85.5 -26.5l-13 -81q-88 33 -167 33q-72 0 -105 -26.5t-33 -68.5q0 -29 18.5 -48t46 -30.5
t74.5 -25.5q64 -20 104.5 -38.5t69 -55.5t28.5 -97q0 -91 -61.5 -144.5t-173.5 -53.5z" />
    <glyph glyph-name="uni01B6.aalt" horiz-adv-x="595" 
d="M534 0h-477v62l169 237h-141v62h186l97 136l48 64l-1 2h-347l4 86h461v-71l-156 -217h129v-62h-173l-107 -148l-47 -62l1 -3h356z" />
    <glyph glyph-name="Aringacute.aalt" horiz-adv-x="667" 
d="M268 845l118 142h112l-144 -142h-86zM537 0l-56 147h-301l-57 -147h-102l249 601q-87 20 -87 100q0 50 38 79t112 29q71 0 109.5 -30t38.5 -78q0 -38 -22 -64t-65 -36l252 -601h-109zM333 645q43 0 66 15t23 41t-22.5 41.5t-66.5 15.5q-47 0 -69 -15.5t-22 -41.5t22 -41
t69 -15zM359 473l-25 73h-3l-26 -73l-98 -252h247z" />
    <glyph glyph-name="AEacute.aalt" horiz-adv-x="962" 
d="M845 375v-75h-265l24 -216h303l-2 -84h-391l-18 154h-280l-86 -154h-115l385 649h495l3 -85h-346l21 -189h272zM489 233l-28 264l-7 81l-3 1l-38 -72l-154 -274h230zM722 966l-142 -195h-88l126 195h104z" />
    <glyph glyph-name="Oslashacute.aalt" horiz-adv-x="712" 
d="M642 324q0 -119 -28.5 -192.5t-91 -108.5t-166.5 -35q-133 0 -201 61l-72 -81l-44 41l77 88q-47 79 -47 227q0 118 29 191.5t92 108.5t166 35q135 0 203 -61l70 80l45 -43l-76 -86q44 -75 44 -225zM186 176l310 351q-22 25 -56 36t-84 11q-70 0 -110.5 -22.5t-59 -76.5
t-18.5 -151q0 -92 18 -148zM526 469l-309 -350q22 -24 56.5 -35t83.5 -11q69 0 109 23t58 77.5t18 150.5q0 91 -16 145zM517 966l-142 -195h-88l126 195h104z" />
    <glyph glyph-name="uni0218.aalt" horiz-adv-x="562" 
d="M268 -12q-116 0 -204 51l14 83q89 -52 190 -52q70 0 106.5 29t36.5 82q0 31 -19 51t-48 32t-77 27q-64 21 -103 39.5t-66.5 53.5t-27.5 92q0 80 57 132t169 52q50 0 98 -9.5t86 -26.5l-13 -81q-90 33 -167 33q-72 0 -105.5 -26.5t-33.5 -68.5q0 -29 18.5 -48t46 -30.5
t74.5 -25.5q64 -20 104.5 -38.5t69 -55.5t28.5 -97q0 -91 -61 -144.5t-173 -53.5zM325 -129q0 -66 -47 -140h-69q27 61 27 123q0 27 -10 71h91q8 -32 8 -54z" />
    <glyph glyph-name="uni021B.aalt" horiz-adv-x="557" 
d="M230 0v564h-205l2 85h504l1 -85h-205v-564h-97zM334 -129q0 -66 -47 -140h-69q27 61 27 123q0 27 -10 71h91q8 -32 8 -54z" />
    <glyph glyph-name="glyph673" horiz-adv-x="448" 
d="M175 -12q-40 0 -76.5 10t-60.5 27l7 82q23 -17 53.5 -26.5t58.5 -9.5q65 0 96.5 34.5t31.5 106.5v437h96v-437q0 -115 -54 -169.5t-152 -54.5z" />
    <glyph glyph-name="uni0259.aalt" horiz-adv-x="691" 
d="M60 363h461q-6 120 -58.5 167.5t-155.5 47.5q-112 0 -192 -32l-12 76q41 17 97.5 27.5t117.5 10.5q146 0 225 -78t79 -259q0 -119 -28.5 -192.5t-90.5 -108t-164 -34.5q-139 0 -210 70.5t-71 243.5q0 43 2 61zM522 288h-364v-19q2 -110 45 -154t136 -44q65 0 103.5 21
t57.5 68t22 128z" />
    <glyph glyph-name="circumflex.c2sc" horiz-adv-x="389" 
d="M269 696l-70 96l-70 -96h-74l102 132h84l104 -132h-76z" />
    <glyph glyph-name="caron.c2sc" horiz-adv-x="389" 
d="M130 828l70 -96l70 96h77l-105 -132h-84l-103 132h75z" />
    <glyph glyph-name="breve.c2sc" horiz-adv-x="391" 
d="M199 692q-141 0 -141 136h66q0 -45 20.5 -67t55.5 -22q33 0 53 23t20 66h67q0 -65 -35 -100.5t-106 -35.5z" />
    <glyph glyph-name="dotaccent.c2sc" horiz-adv-x="387" 
d="M200 718q-29 0 -43 10.5t-14 35.5q0 22 14.5 34t42.5 12q56 0 56 -46t-56 -46z" />
    <glyph glyph-name="ring.c2sc" horiz-adv-x="385" 
d="M200 834q50 0 77.5 -23t27.5 -60q0 -40 -27 -62t-78 -22q-50 0 -77 21t-27 63q0 39 26 61t78 22zM202 709q26 0 40 11t14 31q0 19 -14 30.5t-40 11.5q-28 0 -42 -11.5t-14 -30.5q0 -42 56 -42z" />
    <glyph glyph-name="ogonek.c2sc" horiz-adv-x="386" 
d="M212 -72q0 -49 60 -50q32 0 58 14l9 -52q-41 -23 -93 -23t-80 23t-28 62q0 44 29.5 75t77.5 41l36 -18q-30 -1 -49.5 -22.5t-19.5 -49.5z" />
    <glyph glyph-name="tilde.c2sc" horiz-adv-x="388" 
d="M139 826q21 0 38.5 -8t36.5 -23q16 -12 27 -17.5t23 -5.5q30 0 41 41l45 -1q-4 -40 -27 -66t-58 -26q-19 0 -36 7t-38 23q-17 12 -28 17.5t-23 5.5q-28 -1 -41 -41h-45q5 42 28 68t57 26z" />
    <glyph glyph-name="hungarumlaut.c2sc" horiz-adv-x="379" 
d="M98 696l75 132h99l-112 -132h-62zM243 696l88 132h100l-119 -132h-69z" />
    <glyph glyph-name="Wgrave.aalt" horiz-adv-x="945" 
d="M670 87h3l16 79l110 483h96l-167 -649h-117l-119 478l-17 80h-3l-19 -80l-119 -478h-116l-168 649h100l110 -487l17 -79h3l17 79l124 487h106l124 -483zM416 966l126 -195h-88l-141 195h103z" />
    <glyph glyph-name="Wacute.aalt" horiz-adv-x="945" 
d="M670 87h3l16 79l110 483h96l-167 -649h-117l-119 478l-17 80h-3l-19 -80l-119 -478h-116l-168 649h100l110 -487l17 -79h3l17 79l124 487h106l124 -483zM638 966l-142 -195h-88l126 195h104z" />
    <glyph glyph-name="Wdieresis.aalt" horiz-adv-x="945" 
d="M670 87h3l16 79l110 483h96l-167 -649h-117l-119 478l-17 80h-3l-19 -80l-119 -478h-116l-168 649h100l110 -487l17 -79h3l17 79l124 487h106l124 -483zM307 829q0 57 54 57q29 0 42.5 -14t13.5 -43t-13.5 -42.5t-42.5 -13.5q-28 0 -41 13t-13 43zM529 829q0 57 56 57
q54 0 54 -57q0 -29 -13 -42.5t-41 -13.5q-29 0 -42.5 13t-13.5 43z" />
    <glyph glyph-name="uni1E8B.aalt" horiz-adv-x="652" 
d="M325 781q-34 0 -50.5 12t-16.5 42q0 55 67 55q66 0 66 -55q0 -28 -16 -41t-50 -13zM502 0l-137 216l-39 65h-2l-38 -66l-133 -215h-115l215 337l-208 312h119l122 -192l39 -62h2l39 63l122 191h113l-207 -310l221 -339h-113z" />
    <glyph glyph-name="Ygrave.aalt" horiz-adv-x="611" 
d="M308 301h2l39 77l141 271h107l-240 -428v-221h-99v221l-243 428h110l145 -273zM249 966l126 -195h-88l-141 195h103z" />
    <glyph glyph-name="uniFB01.aalt" horiz-adv-x="873" 
d="M492 367l-1 -83h-292v-284h-95v649h426l3 -86h-334v-196h293zM769 0h-97v649h97v-649z" />
    <glyph glyph-name="uniFB02.aalt" horiz-adv-x="1115" 
d="M492 367l-1 -83h-292v-284h-95v649h426l3 -86h-334v-196h293zM672 0v649h95v-563h322l-2 -86h-415z" />
    <glyph glyph-name="glyph690" horiz-adv-x="288" 
d="M149 718q-29 0 -42.5 10.5t-13.5 35.5q0 46 56 46t56 -46t-56 -46zM198 0h-97v649h97v-649z" />
    <glyph glyph-name="glyph691" horiz-adv-x="528" 
d="M88 0v649h96v-563h322l-3 -86h-415zM394 342q-29 0 -42.5 13t-13.5 42q0 54 56 54t56 -54q0 -26 -14 -40.5t-42 -14.5z" />
    <glyph glyph-name="parenleft.case" horiz-adv-x="355" 
d="M175 378q0 -235 174 -459l-76 -5q-85 88 -136.5 209.5t-51.5 254.5q0 253 188 463l77 -5q-175 -221 -175 -458z" />
    <glyph glyph-name="parenright.case" horiz-adv-x="355" 
d="M181 377q0 236 -175 459l76 5q85 -88 137 -209.5t52 -254.5q0 -254 -189 -463l-77 5q176 223 176 458z" />
    <glyph glyph-name="hyphen.aalt" horiz-adv-x="395" 
d="M70 339v70h265v-70h-265z" />
    <glyph glyph-name="bracketleft.aalt" horiz-adv-x="326" 
d="M323 765h-143v-784h143v-68h-229v922h229v-70z" />
    <glyph glyph-name="bracketright.aalt" horiz-adv-x="317" 
d="M3 -19h144v784h-144v70h229v-922h-229v68z" />
    <glyph glyph-name="grave.case" horiz-adv-x="390" 
d="M197 916l80 -117h-79l-120 117h119z" />
    <glyph glyph-name="braceleft.aalt" horiz-adv-x="370" 
d="M190 377v-3q30 -13 46.5 -39.5t16.5 -62.5q0 -41 -8 -105q-1 -9 -4 -38.5t-3 -60.5q0 -83 99 -83h30v-73h-26q-101 0 -145.5 36.5t-44.5 107.5q0 41 10 111q1 9 5 42t4 65t-20.5 53.5t-55.5 26.5v43q35 5 55.5 26.5t20.5 53.5t-4 65t-5 41q-10 70 -10 112q0 71 44.5 107
t145.5 36h26v-73h-30q-52 0 -75.5 -21t-23.5 -61q0 -31 3 -61.5t4 -38.5q8 -64 8 -103q0 -37 -16.5 -64t-46.5 -39z" />
    <glyph glyph-name="braceright.aalt" horiz-adv-x="361" 
d="M181 374v3q-31 12 -47.5 39t-16.5 64q0 39 8 103q1 8 4 38.5t3 61.5q0 82 -99 82h-30v73h26q101 0 145 -36t44 -107q0 -35 -4 -70t-5 -42q-9 -61 -9 -106q0 -32 20.5 -53.5t55.5 -26.5v-43q-35 -5 -55.5 -26.5t-20.5 -53.5q0 -44 9 -107q1 -7 5 -42t4 -69
q0 -71 -44 -107.5t-145 -36.5h-26v73h30q99 0 99 83q0 31 -3 60.5t-4 38.5q-8 64 -8 105q0 36 16.5 62.5t47.5 39.5z" />
    <glyph glyph-name="dieresis.case" horiz-adv-x="388" 
d="M105 803q-23 0 -34.5 10t-11.5 35q0 22 12 33.5t34 11.5q46 0 46 -45t-46 -45zM297 803q-23 0 -34 10t-11 35q0 45 45 45t45 -45q0 -23 -11 -34t-34 -11z" />
    <glyph glyph-name="guillemotleft.aalt" horiz-adv-x="610" 
d="M317 178l-290 193v8l290 193v-77l-194 -120l194 -121v-76zM534 178l-290 193v8l290 193v-77l-193 -120l193 -121v-76z" />
    <glyph glyph-name="uni00AD.aalt" horiz-adv-x="395" 
d="M70 339v71h265v-71h-265z" />
    <glyph glyph-name="glyph703" horiz-adv-x="390" 
d="M57 865h284v-51h-284v51z" />
    <glyph glyph-name="acute.case" horiz-adv-x="379" 
d="M127 798l79 116h129l-130 -116h-78z" />
    <glyph glyph-name="guillemotright.aalt" horiz-adv-x="618" 
d="M74 495v77l291 -193v-8l-291 -193v76l193 121zM291 495v77l291 -193v-8l-291 -193v76l193 121z" />
    <glyph glyph-name="circumflex.case" horiz-adv-x="388" 
d="M274 797l-76 80l-75 -80h-88l112 118h100l117 -118h-90z" />
    <glyph glyph-name="caron.case" horiz-adv-x="388" 
d="M124 915l75 -84l76 84h88l-114 -118h-101l-113 118h89z" />
    <glyph glyph-name="breve.case" horiz-adv-x="391" 
d="M201 792q-156 0 -156 123h71q0 -36 23 -53t62 -17t61 17t21 53h72q0 -123 -154 -123z" />
    <glyph glyph-name="dotaccent.case" horiz-adv-x="385" 
d="M200 801q-34 0 -48.5 10t-14.5 36q0 48 63 48q33 0 47.5 -12t14.5 -36t-14.5 -35t-47.5 -11z" />
    <glyph glyph-name="ring.case" horiz-adv-x="384" 
d="M197 896q49 0 74.5 -22t25.5 -59q0 -40 -25 -61t-75 -21q-49 0 -73.5 19.5t-24.5 61.5q0 38 24 60t74 22zM198 774q48 0 48 38q0 39 -48 39t-48 -39q0 -38 48 -38z" />
    <glyph glyph-name="ogonek.case" horiz-adv-x="386" 
d="M212 -72q0 -49 60 -50q33 0 58 14l9 -52q-41 -23 -93 -23q-53 0 -80.5 23.5t-27.5 64.5q0 43 26.5 73.5t75.5 41.5l41 -20q-29 0 -49 -22t-20 -50z" />
    <glyph glyph-name="tilde.case" horiz-adv-x="389" 
d="M139 910q20 0 39.5 -9.5t41.5 -26.5q17 -13 28.5 -19t21.5 -6q31 0 40 47l42 -1q-4 -48 -27 -77t-60 -29q-20 0 -37.5 9t-42.5 29q-14 11 -25.5 17.5t-21.5 6.5q-15 0 -25.5 -13t-14.5 -34h-45q4 49 27 77.5t59 28.5z" />
    <glyph glyph-name="hungarumlaut.case" horiz-adv-x="380" 
d="M60 796l59 118h104l-99 -118h-64zM197 796l85 118h105l-118 -118h-72z" />
    <glyph glyph-name="endash.aalt" horiz-adv-x="523" 
d="M70 339v70h392v-70h-392z" />
    <glyph glyph-name="emdash.aalt" horiz-adv-x="698" 
d="M70 339v70h568v-70h-568z" />
    <glyph glyph-name="guilsinglleft.aalt" horiz-adv-x="395" 
d="M336 178l-290 193v9l290 192v-77l-194 -120l194 -121v-76z" />
    <glyph glyph-name="guilsinglright.aalt" horiz-adv-x="397" 
d="M69 495v77l291 -192v-9l-291 -193v76l193 121z" />
    <glyph glyph-name="zero.zero" horiz-adv-x="650" 
d="M325 -11q-96 0 -154.5 38.5t-86 123t-27.5 223.5q0 143 27.5 227t86 121t155.5 37q95 0 153 -37.5t85.5 -121t27.5 -226.5q0 -139 -27.5 -223t-86 -123t-153.5 -39zM326 671q-62 0 -99 -25t-55 -89t-18 -182q0 -120 18 -184.5t55 -89t99 -24.5q61 0 97.5 25t54 89.5
t17.5 184.5q0 118 -17.5 182t-54 88.5t-97.5 24.5zM327 327q-21 0 -32 11.5t-11 38.5q0 51 43 51q41 0 41 -51q0 -50 -41 -50z" />
    <glyph glyph-name="zero.pnum.oldstyle.zero" horiz-adv-x="617" 
d="M313 -10q-136 0 -197 77t-61 246q0 117 26.5 188t83 104.5t148.5 33.5q91 0 147.5 -33.5t83.5 -104.5t27 -188q0 -169 -61.5 -246t-196.5 -77zM312 550q-59 0 -95 -21.5t-53.5 -73t-17.5 -141.5q0 -91 17.5 -142.5t53.5 -72.5t95 -21q60 0 96 21t53.5 72.5t17.5 142.5
t-17.5 142.5t-53.5 72.5t-96 21zM313 264q-21 0 -32 11.5t-11 38.5q0 51 43 51q41 0 41 -51q0 -50 -41 -50z" />
    <glyph glyph-name="zero.pnum.zero" horiz-adv-x="625" 
d="M317 -11q-96 0 -154.5 38.5t-86 123t-27.5 223.5q0 143 27.5 227t85.5 121t155 37q96 0 154 -37.5t85.5 -121t27.5 -226.5q0 -139 -27.5 -223t-86 -123t-153.5 -39zM317 671q-62 0 -98.5 -25t-54.5 -89t-18 -182q0 -120 18 -184.5t54.5 -89t98.5 -24.5t98 25t54 89.5
t18 184.5q0 118 -18 182t-54 88.5t-98 24.5zM317 327q-21 0 -32 11.5t-11 38.5q0 51 43 51q41 0 41 -51q0 -50 -41 -50z" />
    <glyph glyph-name="zero.oldstyle.zero" horiz-adv-x="612" 
d="M298 -10q-136 0 -197 77t-61 246q0 117 27 188t83.5 104.5t148.5 33.5q91 0 147.5 -33.5t83 -104.5t26.5 -188q0 -169 -61 -246t-197 -77zM299 554q-58 0 -93.5 -21.5t-53 -74t-17.5 -144.5q0 -94 17.5 -146t52.5 -73t94 -21q58 0 93 21.5t52 73.5t17 144q0 93 -17 145.5
t-52 74t-93 21.5zM301 264q-21 0 -32 11.5t-11 39.5q0 51 43 51q41 0 41 -51t-41 -51z" />
    <glyph glyph-name="Lcaron.ss01" horiz-adv-x="584" 
d="M107 0v750h103v-656h349l-3 -94h-449zM59 987l99 -103l98 103h94l-136 -147h-111l-138 147h94z" />
    <glyph glyph-name="lcaron.aalt.aalt" horiz-adv-x="546" 
d="M104 0v649h95v-563h322l-2 -86h-415zM46 966l105 -147l105 147h85l-140 -195h-98l-142 195h85z" />
    <glyph glyph-name="glyph724" horiz-adv-x="712" 
d="M215 110q-24 34 -31 41q-51 57 -91 151.5t-40 192.5q0 122 72.5 196t232.5 74q159 0 232 -74.5t73 -195.5q0 -98 -40 -192.5t-91 -151.5q-10 -11 -33 -43q-40 -56 -72.5 -88.5t-68.5 -32.5q-37 0 -69.5 33t-73.5 90zM465 130q24 34 32 42q26 26 52 71.5t44 101.5t18 111
q0 38 -22.5 59.5t-77 31t-152.5 9.5q-100 0 -154 -9.5t-76.5 -30.5t-22.5 -60q0 -55 18 -111t44 -101.5t52 -71.5q10 -11 29 -39q35 -48 59.5 -73.5t50.5 -25.5q25 0 49 25t57 71zM178 381q0 25 7 47.5t20 34.5q25 -28 59.5 -48.5t76.5 -37.5l-23 -35q-35 5 -74 15.5
t-66 23.5zM513 463q13 -12 20 -34t7 -48q-27 -13 -66 -23.5t-74 -15.5l-23 35q94 39 136 86zM361 216q-58 0 -99 -11q-35 38 -49 93q71 -23 145 -23q77 0 146 23q-14 -59 -46 -93q-41 11 -97 11z" />
    <glyph glyph-name="f_i.dlig" horiz-adv-x="672" 
d="M13 524v72h106v79q0 83 42 129t131 46q37 0 77 -9v-71q-34 9 -64 9q-48 0 -70 -25t-22 -81v-77h148v-72h-148v-524h-94v524h-106zM530 723q-32 0 -47.5 12t-15.5 41q0 26 16 40.5t47 14.5q63 0 63 -55q0 -53 -63 -53zM577 598v-598h-94v593z" />
    <glyph glyph-name="f_j.dlig" horiz-adv-x="673" 
d="M13 524v72h106v79q0 83 42 129t131 46q37 0 77 -9v-71q-34 9 -64 9q-48 0 -70 -25t-22 -81v-77h148v-72h-148v-524h-94v524h-106zM530 723q-32 0 -47.5 12t-15.5 41q0 26 16 40.5t47 14.5q63 0 63 -55q0 -53 -63 -53zM407 -206q-52 0 -85 14l6 80q29 -11 64 -11
q41 0 66 26t25 79v611l94 5v-619q0 -90 -46 -137.5t-124 -47.5z" />
    <glyph glyph-name="f_l.dlig" horiz-adv-x="708" 
d="M13 524v72h106v74q0 85 44 132.5t133 47.5q45 0 80 -10v-72q-40 11 -73 11q-47 0 -68.5 -27.5t-21.5 -87.5v-68h150v-72h-150v-524h-94v524h-106zM483 117v722l95 5v-712q0 -33 12.5 -47t42.5 -14q23 0 65 5v-74q-49 -9 -93 -9q-66 0 -94 29t-28 95z" />
    <glyph glyph-name="uni0162" unicode="&#x162;" horiz-adv-x="597" 
d="M572 656h-222v-656h-20l-36 -206h-90l62 206h-20v656h-221v94h547v-94z" />
    <glyph glyph-name="dotlessi" unicode="&#x131;" horiz-adv-x="286" 
d="M190 598v-598h-94v593z" />
    <glyph glyph-name="uni0237" unicode="&#x237;" horiz-adv-x="284" 
d="M18 -206q-52 0 -85 14l6 80q29 -11 64 -11q42 0 66.5 26t24.5 79v611l94 5v-619q0 -90 -46 -137.5t-124 -47.5z" />
    </font>
</defs>
</svg>
