<?xml version="1.0" standalone="no"?>
<!DOCTYPE svg PUBLIC "-//W3C//DTD SVG 1.1//EN" "http://www.w3.org/Graphics/SVG/1.1/DTD/svg11.dtd" >
<svg xmlns="http://www.w3.org/2000/svg" xmlns:xlink="http://www.w3.org/1999/xlink" version="1.1">
<metadata>
Created by FontForge 20170910 at Wed May 25 16:52:21 2016
 By Jimmy Wärting
Copyright (c) 2006, 2016 Lukasz Dziedzic published by FSI FontShop International GmbH.
</metadata>
<defs>
<font id="ClanProForUBER-Medium" horiz-adv-x="402" >
  <font-face 
    font-family="ClanProForUBER-Medium"
    font-weight="500"
    font-stretch="normal"
    units-per-em="1000"
    panose-1="2 11 4 4 2 1 1 2 1 2"
    ascent="787"
    descent="-213"
    x-height="602"
    cap-height="750"
    bbox="-409 -279 1238 987"
    underline-thickness="80"
    underline-position="-100"
    unicode-range="U+000D-FEFF"
  />
<missing-glyph horiz-adv-x="625" 
d="M553 0h-481v750h481v-750zM152 670v-590h321v590h-321z" />
    <glyph glyph-name="uniFB01" unicode="fi" horiz-adv-x="689" 
d="M10 505v97h96v73q0 81 44 128t140 47q42 0 76 -8v-94q-28 7 -57 7q-40 0 -57.5 -19t-17.5 -62v-72h130v-97h-130v-505h-127v505h-97zM540 716q-41 0 -60 14.5t-19 50.5q0 33 20 50.5t59 17.5q78 0 78 -68q0 -65 -78 -65zM603 605v-605h-127v598z" />
    <glyph glyph-name="uniFB02" unicode="fl" horiz-adv-x="725" 
d="M10 505v97h96v65q0 85 47.5 134t144.5 49q45 0 82 -10v-96q-37 11 -71 11q-41 0 -58 -23t-17 -73v-57h136v-97h-136v-505h-127v505h-97zM476 127v712l129 6v-698q0 -26 12 -38.5t39 -12.5q26 0 61 5v-98q-42 -10 -101 -10q-75 0 -107.5 31.5t-32.5 102.5z" />
    <glyph glyph-name=".notdef" horiz-adv-x="625" 
d="M553 0h-481v750h481v-750zM152 670v-590h321v590h-321z" />
    <glyph glyph-name="glyph1" horiz-adv-x="0" 
 />
    <glyph glyph-name="glyph1" horiz-adv-x="0" 
 />
    <glyph glyph-name="uni000D" unicode="&#xd;" horiz-adv-x="245" 
 />
    <glyph glyph-name="space" unicode=" " horiz-adv-x="245" 
 />
    <glyph glyph-name="exclam" unicode="!" horiz-adv-x="315" 
d="M226 750l-20 -504h-98l-20 504h138zM78 62q0 76 79 76t79 -76q0 -74 -79 -74t-79 74z" />
    <glyph glyph-name="quotedbl" unicode="&#x22;" horiz-adv-x="469" 
d="M77 463l-18 305h124l-23 -305h-83zM304 463l-18 305h124l-23 -305h-83z" />
    <glyph glyph-name="numbersign" unicode="#" horiz-adv-x="645" 
d="M60 451v100h140l29 199h101l-29 -199h99l28 199h100l-30 -199h90v-100h-103l-21 -152h124v-101h-138l-29 -198h-99l28 198h-99l-29 -198h-101l29 198h-90v101h104l22 152h-126zM386 451h-99l-22 -152h100z" />
    <glyph glyph-name="dollar" unicode="$" horiz-adv-x="655" 
d="M58 49l31 111q51 -29 96.5 -43.5t92.5 -17.5v234q-81 19 -127.5 46t-68 68t-21.5 103q0 86 56 140t161 67v135h107v-133q104 -6 182 -43l-26 -106q-76 31 -156 38v-215q81 -22 126.5 -48.5t65.5 -66.5t20 -104q0 -91 -54 -148t-158 -73v-135h-107v130q-113 6 -220 61z
M187 553q0 -38 21 -60.5t70 -35.5v187q-47 -9 -69 -31.5t-22 -59.5zM472 207q0 83 -87 103v-204q47 10 67 34t20 67z" />
    <glyph glyph-name="percent" unicode="%" horiz-adv-x="860" 
d="M145 0l500 750h92l-501 -750h-91zM180 321q-84 0 -122.5 48t-38.5 153q0 108 38 156t124 48q85 0 123 -48t38 -156q0 -105 -38.5 -153t-123.5 -48zM181 650q-26 0 -41.5 -10.5t-22.5 -38t-7 -78.5t7 -78.5t22.5 -38t41.5 -10.5q25 0 40 10.5t22.5 38t7.5 78.5t-7.5 78.5
t-22.5 38t-40 10.5zM663 -5q-84 0 -122.5 48t-38.5 153q0 108 38 156t124 48q85 0 123 -48t38 -156q0 -105 -38.5 -153t-123.5 -48zM664 324q-26 0 -41.5 -10.5t-22.5 -38t-7 -78.5t7 -78.5t22.5 -38t41.5 -10.5q25 0 40 10.5t22.5 38t7.5 78.5t-7.5 78.5t-22.5 38t-40 10.5
z" />
    <glyph glyph-name="ampersand" unicode="&#x26;" horiz-adv-x="779" 
d="M35 200q0 78 40.5 131t132.5 91q-40 45 -57.5 82.5t-17.5 76.5q0 88 53 135.5t151 47.5q92 0 147 -45t55 -120q0 -67 -34.5 -114t-111.5 -85l-16 -8q50 -53 155 -146q19 36 32 84.5t14 90.5l119 -1q-2 -53 -23.5 -124t-54.5 -122q92 -70 148 -103l-68 -92
q-84 53 -151 108q-50 -53 -111.5 -77.5t-145.5 -24.5q-122 0 -189 55.5t-67 159.5zM422 590q0 40 -21 59t-64 19q-46 0 -68 -20t-22 -62q0 -30 13.5 -56t49.5 -63q63 28 87.5 55.5t24.5 67.5zM464 159l-32 30q-11 10 -68.5 64t-90.5 91q-63 -27 -89 -58t-26 -79
q0 -113 141 -113q56 0 94 15.5t71 49.5z" />
    <glyph glyph-name="quotesingle" unicode="'" horiz-adv-x="242" 
d="M77 463l-18 305h124l-23 -305h-83z" />
    <glyph glyph-name="parenleft" unicode="(" horiz-adv-x="375" 
d="M203 329q0 -123 44.5 -238t121.5 -217l-98 -8q-87 88 -138.5 209t-51.5 254q0 134 50.5 250.5t139.5 212.5l99 -8q-78 -102 -122.5 -217.5t-44.5 -237.5z" />
    <glyph glyph-name="parenright" unicode=")" horiz-adv-x="375" 
d="M172 329q0 123 -44.5 238t-121.5 217l98 8q87 -88 138.5 -209t51.5 -254q0 -134 -50.5 -250.5t-139.5 -212.5l-99 8q78 102 122.5 217.5t44.5 237.5z" />
    <glyph glyph-name="asterisk" unicode="*" horiz-adv-x="502" 
d="M192 552l-162 40l32 92l152 -60l-6 167l90 -1l-10 -166l153 60l31 -92l-162 -40l112 -128l-72 -59l-97 143l-98 -142l-75 55z" />
    <glyph glyph-name="plus" unicode="+" horiz-adv-x="665" 
d="M275 103v175h-175v119h175v176h112v-176h178v-119h-178v-175h-112z" />
    <glyph glyph-name="comma" unicode="," horiz-adv-x="315" 
d="M218 61q0 -54 -18.5 -111t-48.5 -106h-89q17 40 29 91.5t12 95.5q0 50 -12 96h120q7 -31 7 -66z" />
    <glyph glyph-name="hyphen" unicode="-" horiz-adv-x="397" 
d="M60 294v95h277v-95h-277z" />
    <glyph glyph-name="period" unicode="." horiz-adv-x="314" 
d="M78 62q0 76 79 76t79 -76q0 -74 -79 -74t-79 74z" />
    <glyph glyph-name="slash" unicode="/" horiz-adv-x="452" 
d="M2 -123l340 911h110l-343 -911h-107z" />
    <glyph glyph-name="zero" unicode="0" horiz-adv-x="655" 
d="M327 -11q-98 0 -157.5 39.5t-87.5 123.5t-28 221q0 142 28 226t87.5 122t158.5 38q97 0 156.5 -38t88 -122t28.5 -226q0 -136 -28.5 -220.5t-89 -124t-156.5 -39.5zM328 638q-52 0 -82.5 -21.5t-45.5 -78.5t-15 -164q0 -110 15 -167t45 -78t83 -21q52 0 82 21.5t44.5 79
t14.5 166.5q0 108 -14.5 164.5t-44.5 77.5t-82 21z" />
    <glyph glyph-name="one" unicode="1" horiz-adv-x="655" 
d="M271 516l2 72l-2 2l-58 -37l-113 -59v128l228 129h81v-636h158v-115h-457v115h161v401z" />
    <glyph glyph-name="two" unicode="2" horiz-adv-x="655" 
d="M435 537q0 61 -32.5 89t-102.5 28q-49 0 -99 -18.5t-91 -51.5l-45 107q52 38 115.5 58.5t129.5 20.5q122 0 189.5 -58.5t67.5 -164.5q0 -71 -38.5 -136.5t-114 -134t-205.5 -165.5v-7h365v-116h-515v138q171 141 246.5 210t102.5 112t27 89z" />
    <glyph glyph-name="three" unicode="3" horiz-adv-x="655" 
d="M61 48l39 109q46 -27 91 -39.5t98 -12.5q72 0 112 34t40 95q0 54 -44 79q-37 21 -134 21h-75v112h72q40 0 73 7t50 19q23 16 33 35.5t10 47.5q0 43 -33 65.5t-98 22.5q-54 0 -98.5 -15.5t-87.5 -47.5l-46 105q42 34 108.5 54.5t133.5 20.5q119 0 183.5 -51.5t64.5 -146.5
q0 -66 -35.5 -105.5t-95.5 -60.5v-2q67 -11 109 -53t42 -111q0 -119 -75.5 -178.5t-206.5 -59.5q-136 0 -230 56z" />
    <glyph glyph-name="four" unicode="4" horiz-adv-x="655" 
d="M375 0v151h-338l-12 87l312 512h162v-483h113v-116h-113v-151h-124zM386 629l-41 -71l-132 -222l-42 -66l1 -3h207l5 280l4 81z" />
    <glyph glyph-name="five" unicode="5" horiz-adv-x="655" 
d="M85 49l25 110q48 -27 91 -40t97 -13q80 0 115.5 34.5t35.5 105.5q0 61 -35 88.5t-111 27.5q-43 0 -86.5 -8.5t-75.5 -22.5l-49 53l31 366h419l5 -122h-319l-9 -121l-4 -46l2 -2q62 16 124 16q118 0 179.5 -54.5t61.5 -163.5q0 -129 -67 -197.5t-204 -68.5q-130 0 -226 58
z" />
    <glyph glyph-name="six" unicode="6" horiz-adv-x="655" 
d="M338 -9q-138 0 -206.5 85t-68.5 279q0 200 81.5 302t240.5 102q49 0 89.5 -7t80.5 -22l-10 -117q-36 13 -69.5 18.5t-74.5 5.5q-100 0 -149.5 -49t-59.5 -155l2 -2q75 53 168 53q119 0 177.5 -55.5t58.5 -167.5q0 -135 -66.5 -202.5t-193.5 -67.5zM337 379
q-36 0 -76.5 -16t-62.5 -42q1 -81 15.5 -127.5t44.5 -66.5t79 -20q130 0 130 156q0 60 -31 88t-99 28z" />
    <glyph glyph-name="seven" unicode="7" horiz-adv-x="655" 
d="M133 0l317 620h-403l6 130h529v-116l-297 -634h-152z" />
    <glyph glyph-name="eight" unicode="8" horiz-adv-x="655" 
d="M58 215q0 122 120 179v2q-46 25 -69.5 63t-23.5 99q0 94 61.5 147.5t182.5 53.5q123 0 182.5 -51t59.5 -146q0 -53 -26 -96.5t-75 -68.5v-2q128 -44 128 -181q0 -111 -68 -167t-201 -56q-139 0 -205 56t-66 168zM452 551q0 50 -30 74.5t-94 24.5q-59 0 -89 -25.5
t-30 -72.5q0 -43 25 -66t74 -37l56 -16q44 24 66 52t22 66zM468 207q0 50 -32 76.5t-91 43.5l-60 18q-99 -52 -99 -131q0 -60 34.5 -87.5t111.5 -27.5q64 0 100 26.5t36 81.5z" />
    <glyph glyph-name="nine" unicode="9" horiz-adv-x="655" 
d="M282 -9q-57 0 -99 8t-84 27l19 112q38 -15 73.5 -22.5t77.5 -7.5q96 0 141 53t52 173l-2 2q-64 -48 -165 -48q-119 0 -179 60.5t-60 166.5q0 116 64.5 180t194.5 64q133 0 204.5 -88t71.5 -263q0 -219 -76 -318t-233 -99zM313 643q-129 0 -129 -123q0 -61 33 -92.5
t103 -31.5q45 0 80.5 14t58.5 43q-1 101 -38.5 145.5t-107.5 44.5z" />
    <glyph glyph-name="colon" unicode=":" horiz-adv-x="315" 
d="M78 532q0 76 79 76t79 -76q0 -74 -79 -74t-79 74zM78 62q0 76 79 76t79 -76q0 -74 -79 -74t-79 74z" />
    <glyph glyph-name="semicolon" unicode=";" horiz-adv-x="315" 
d="M78 532q0 76 79 76t79 -76q0 -74 -79 -74t-79 74zM218 61q0 -54 -18.5 -111t-48.5 -106h-89q17 40 29 91.5t12 95.5q0 50 -12 96h120q7 -31 7 -66z" />
    <glyph glyph-name="less" unicode="&#x3c;" horiz-adv-x="665" 
d="M274 332l73 -33l197 -94v-125l-424 221v65l424 226v-130l-197 -94l-73 -33v-3z" />
    <glyph glyph-name="equal" unicode="=" horiz-adv-x="665" 
d="M557 479v-102h-449v102h449zM557 284v-102h-449v102h449z" />
    <glyph glyph-name="greater" unicode="&#x3e;" horiz-adv-x="665" 
d="M390 331v3l-74 33l-196 95v130l424 -226v-65l-424 -221v125l196 93z" />
    <glyph glyph-name="question" unicode="?" horiz-adv-x="511" 
d="M299 338l-5 -99h-100l-8 158q84 29 121 61t37 81q0 53 -28 77t-82 24q-92 0 -162 -62l-48 106q39 35 98 56t129 21q110 0 168.5 -53t58.5 -147q0 -155 -179 -223zM166 62q0 76 79 76t79 -76q0 -74 -79 -74t-79 74z" />
    <glyph glyph-name="at" unicode="@" horiz-adv-x="878" 
d="M44 343q0 124 49 227t144.5 164t228.5 61q112 0 195.5 -48t128 -135.5t44.5 -203.5q0 -102 -27 -169t-73 -98.5t-104 -31.5q-44 0 -76 17t-47 48h-2q-22 -29 -58.5 -47t-79.5 -18q-62 0 -100.5 46t-38.5 135q0 76 29.5 143.5t80 108t111.5 40.5q60 0 91 -41h2l14 34
l70 -4l-44 -266q-3 -18 -3 -36q0 -74 62 -74q53 0 86 53t33 159q0 91 -33.5 161.5t-100 111t-161.5 40.5q-112 0 -189.5 -50t-116.5 -135.5t-39 -191.5q0 -111 37.5 -196.5t115.5 -134t193 -48.5q104 0 177 29.5t119 69.5l30 -67q-57 -47 -139.5 -76.5t-186.5 -29.5
q-132 0 -227 54.5t-145 156.5t-50 242zM485 311l25 150q-16 30 -55 30q-33 0 -61 -28.5t-44.5 -75t-16.5 -96.5q0 -42 16 -64.5t47 -22.5q32 0 56.5 29.5t32.5 77.5z" />
    <glyph glyph-name="A" unicode="A" horiz-adv-x="723" 
d="M158 0h-147l264 750h171l266 -750h-155l-49 161h-300zM472 278l-95 304l-16 57h-3l-16 -57l-98 -304h228z" />
    <glyph glyph-name="B" unicode="B" horiz-adv-x="711" 
d="M392 0h-299v750h291q116 0 175.5 -49t59.5 -141q0 -63 -26.5 -103t-74.5 -59v-2q129 -36 129 -180q0 -216 -255 -216zM379 631h-153v-194h159q52 0 77 24t25 74q0 52 -25.5 74t-82.5 22zM390 332h-164v-216h167q60 0 88 25t28 86q0 55 -28 80t-91 25z" />
    <glyph glyph-name="C" unicode="C" horiz-adv-x="610" 
d="M406 636q-75 0 -118 -24t-63 -79t-20 -153q0 -103 20.5 -161.5t64 -83t119.5 -24.5q79 0 151 32l16 -115q-38 -19 -88 -30.5t-97 -11.5q-169 0 -250 96.5t-81 298.5q0 192 82.5 287t256.5 95q44 0 92.5 -9.5t81.5 -23.5l-15 -121q-70 27 -152 27z" />
    <glyph glyph-name="D" unicode="D" horiz-adv-x="753" 
d="M354 0h-261v750h259q176 0 258.5 -89t82.5 -283q0 -188 -86.5 -283t-252.5 -95zM351 623h-120v-497h120q101 0 149.5 58t48.5 195q0 96 -21 149t-63.5 74t-113.5 21z" />
    <glyph glyph-name="E" unicode="E" horiz-adv-x="640" 
d="M93 0v750h481v-125h-343v-181h292v-113h-292v-208h359v-123h-497z" />
    <glyph glyph-name="F" unicode="F" horiz-adv-x="603" 
d="M518 430l-1 -121h-286v-309h-138v750h479l3 -128h-344v-192h287z" />
    <glyph glyph-name="G" unicode="G" horiz-adv-x="719" 
d="M60 373q0 201 86.5 295.5t271.5 94.5q56 0 111 -9.5t99 -25.5l-14 -127q-107 37 -202 37q-75 0 -120 -24t-66 -81t-21 -158q0 -102 19.5 -159.5t62 -82t117.5 -24.5q56 0 109 14v172h-126v110h252v-370q-43 -20 -109 -34.5t-130 -14.5q-122 0 -197 42t-109 127t-34 218z
" />
    <glyph glyph-name="H" unicode="H" horiz-adv-x="767" 
d="M231 322v-322h-138v750h138v-301h305v301h138v-750h-138v322h-305z" />
    <glyph glyph-name="I" unicode="I" horiz-adv-x="326" 
d="M233 0h-140v750h140v-750z" />
    <glyph glyph-name="J" unicode="J" horiz-adv-x="557" 
d="M199 -14q-103 0 -165 31l9 128q22 -15 61.5 -25t77.5 -10q78 0 111 37t33 121v482h141v-485q0 -138 -70 -208.5t-198 -70.5z" />
    <glyph glyph-name="K" unicode="K" horiz-adv-x="722" 
d="M231 329v-329h-138v750h138v-306h96l202 306h161l-240 -356l253 -394h-168l-211 329h-93z" />
    <glyph glyph-name="L" unicode="L" horiz-adv-x="581" 
d="M93 0v750h139v-623h327l-3 -127h-463z" />
    <glyph glyph-name="M" unicode="M" horiz-adv-x="939" 
d="M468 197h3l28 75l194 478h153v-750h-126v433l2 81l-3 1l-29 -76l-176 -439h-94l-175 439l-29 76l-2 -1l1 -81v-433h-122v750h154l192 -478z" />
    <glyph glyph-name="N" unicode="N" horiz-adv-x="772" 
d="M217 525l-2 -1l1 -81v-443h-123v750h120l299 -438l45 -67l2 1l-2 80v424h122v-750h-97l-320 457z" />
    <glyph glyph-name="O" unicode="O" horiz-adv-x="762" 
d="M382 -14q-114 0 -184.5 41t-104 126.5t-33.5 221.5q0 137 33 221.5t103.5 125t185.5 40.5t185 -40.5t102.5 -125t32.5 -221.5q0 -138 -32.5 -223.5t-102.5 -125.5t-185 -40zM381 635q-67 0 -104.5 -22.5t-54.5 -78t-17 -159.5t17.5 -160t55 -79t104.5 -23t104.5 23
t54.5 79.5t17 159.5q0 104 -17 160t-54.5 78t-105.5 22z" />
    <glyph glyph-name="P" unicode="P" horiz-adv-x="668" 
d="M353 261h-122v-261h-138v750h260q147 0 212.5 -59.5t65.5 -188.5q0 -120 -66.5 -180.5t-211.5 -60.5zM353 632h-122v-258h122q49 0 78 11t43.5 39t14.5 79q0 72 -31 100.5t-105 28.5z" />
    <glyph glyph-name="Q" unicode="Q" horiz-adv-x="762" 
d="M463 -8l103 -205h-135l-87 200q-149 10 -216.5 103t-67.5 285q0 137 33 221.5t103.5 125t185.5 40.5t185 -40.5t102.5 -125t32.5 -221.5q0 -181 -56 -272.5t-183 -110.5zM558 375q0 104 -17 160t-54.5 78t-105.5 22q-67 0 -104.5 -22.5t-54.5 -78t-17 -159.5t17.5 -160
t55 -79t104.5 -23t104.5 23t54.5 79.5t17 159.5z" />
    <glyph glyph-name="R" unicode="R" horiz-adv-x="695" 
d="M484 322l185 -322h-162l-148 295h-128v-295h-138v750h265q133 0 197 -55t64 -170q0 -82 -35 -134.5t-100 -68.5zM359 632h-128v-230h124q65 0 93 26t28 92q0 62 -27 87t-90 25z" />
    <glyph glyph-name="S" unicode="S" horiz-adv-x="600" 
d="M282 -14q-127 0 -226 56l19 123q98 -56 206 -56q136 0 136 102q0 28 -18.5 47.5t-46 32.5t-75.5 30q-69 25 -112 47.5t-74 65t-31 108.5q0 98 65.5 159.5t194.5 61.5q55 0 109 -10.5t96 -29.5l-18 -119q-94 34 -180 34q-71 0 -102.5 -24.5t-31.5 -64.5q0 -27 18 -46
t44.5 -31t75.5 -29q69 -24 112.5 -46.5t75 -65.5t31.5 -111q0 -109 -70.5 -171.5t-197.5 -62.5z" />
    <glyph glyph-name="T" unicode="T" horiz-adv-x="602" 
d="M231 0v622h-209v128h559v-128h-210v-622h-140z" />
    <glyph glyph-name="U" unicode="U" horiz-adv-x="765" 
d="M383 -14q-295 0 -295 283v481h137v-480q0 -81 38.5 -118.5t119.5 -37.5t118.5 37.5t37.5 118.5v480h138v-481q0 -283 -294 -283z" />
    <glyph glyph-name="V" unicode="V" horiz-adv-x="690" 
d="M267 0l-260 750h152l166 -540l22 -77h3l22 77l168 540h143l-260 -750h-156z" />
    <glyph glyph-name="W" unicode="W" horiz-adv-x="1028" 
d="M729 135h3l14 79l107 536h137l-178 -750h-167l-114 535l-15 80h-3l-16 -80l-114 -535h-166l-179 750h143l107 -539l15 -79h3l15 79l121 539h150l120 -536z" />
    <glyph glyph-name="X" unicode="X" horiz-adv-x="705" 
d="M34 750h165l116 -209l38 -71h3l37 71l115 209h158l-216 -359l228 -391h-158l-130 238l-36 72h-3l-36 -73l-126 -237h-161l223 388z" />
    <glyph glyph-name="Y" unicode="Y" horiz-adv-x="665" 
d="M336 371h3l31 74l141 305h151l-257 -504v-246h-141v246l-261 504h156l144 -306z" />
    <glyph glyph-name="Z" unicode="Z" horiz-adv-x="641" 
d="M371 556l46 64l-1 2h-349v128h517v-104l-309 -453l-46 -63l1 -3h355v-127h-530v92z" />
    <glyph glyph-name="bracketleft" unicode="[" horiz-adv-x="340" 
d="M337 696h-136v-735h136v-91h-252v919h252v-93z" />
    <glyph glyph-name="backslash" unicode="\" horiz-adv-x="380" 
d="M295 -123l-299 911h104l298 -911h-103z" />
    <glyph glyph-name="bracketright" unicode="]" horiz-adv-x="340" 
d="M3 -40h137v736h-137v93h252v-919h-252v90z" />
    <glyph glyph-name="asciicircum" unicode="^" horiz-adv-x="665" 
d="M68 464l221 340h89l218 -340h-102l-162 244l-160 -244h-104z" />
    <glyph glyph-name="underscore" unicode="_" horiz-adv-x="422" 
d="M20 -121v80h384v-80h-384z" />
    <glyph glyph-name="grave" unicode="`" 
d="M166 913l124 -195h-114l-144 195h134z" />
    <glyph glyph-name="a" unicode="a" horiz-adv-x="624" 
d="M245 -10q-90 0 -140.5 49t-50.5 147q0 86 57 136t164 50q71 0 130 -19v45q0 56 -30 80.5t-101 24.5q-50 0 -88.5 -9t-83.5 -29l-11 109q89 39 206 39q86 0 137.5 -24.5t74 -75.5t22.5 -134v-379h-97l-11 64l-3 1q-28 -36 -73 -55.5t-102 -19.5zM298 282q-64 0 -94 -23.5
t-30 -70.5q0 -95 106 -95q33 0 62 12t46 31t17 41v88q-14 7 -42 12t-65 5z" />
    <glyph glyph-name="b" unicode="b" horiz-adv-x="658" 
d="M360 -12q-52 0 -95 17.5t-72 49.5h-2l-17 -55h-86v840l127 7v-213l-2 -80l3 -2q31 30 72 45t87 15q227 0 227 -310q0 -163 -62 -238.5t-180 -75.5zM339 498q-40 0 -72 -15.5t-52 -43.5v-285q17 -27 49 -44t76 -17t72.5 17.5t44 62.5t15.5 127q0 80 -15 123t-43.5 59
t-74.5 16z" />
    <glyph glyph-name="c" unicode="c" horiz-adv-x="523" 
d="M351 495q-61 0 -96.5 -19.5t-51 -61t-15.5 -112.5q0 -107 40 -155t120 -48q67 0 118 28l9 -102q-27 -18 -67 -28t-87 -10q-132 0 -198.5 77.5t-66.5 237.5q0 154 65 231.5t203 77.5q38 0 77 -7.5t69 -19.5l-8 -112q-54 23 -111 23z" />
    <glyph glyph-name="d" unicode="d" horiz-adv-x="659" 
d="M455 58q-58 -70 -168 -70q-118 0 -174.5 77t-56.5 238q0 152 57 231t173 79q46 0 86.5 -15.5t71.5 -45.5l2 2l-2 80v206l127 7v-847h-99l-14 57zM323 496q-50 0 -79.5 -19t-42.5 -62t-13 -117q0 -78 12.5 -122t41 -63t80.5 -19q47 0 77.5 17.5t44.5 42.5v287
q-17 25 -49 40t-72 15z" />
    <glyph glyph-name="e" unicode="e" horiz-adv-x="621" 
d="M56 304q0 149 69.5 228.5t200.5 79.5q122 0 181 -68.5t59 -212.5q0 -39 -3 -72h-375q1 -157 158 -157q101 0 184 36l12 -108q-39 -19 -92.5 -30t-112.5 -11q-146 0 -213.5 78.5t-67.5 236.5zM324 509q-64 0 -98.5 -35t-38.5 -110h255q0 77 -29.5 111t-88.5 34z" />
    <glyph glyph-name="f" unicode="f" horiz-adv-x="384" 
d="M10 505v97h96v65q0 83 53 133t152 50q51 0 88 -10v-96q-37 11 -77 11q-43 0 -65.5 -24t-22.5 -72v-57h149v-97h-149v-505h-127v505h-97z" />
    <glyph glyph-name="g" unicode="g" horiz-adv-x="648" 
d="M48 -43q0 77 75 118q-61 31 -61 97q0 68 68 103q-31 25 -46 60t-15 85q0 97 61 146t181 49q50 0 92.5 -9t69.5 -24l155 13v-98h-100q15 -35 15 -81q0 -92 -59 -141.5t-174 -49.5q-67 0 -106 14q-12 -7 -19 -17t-7 -26q0 -18 12.5 -29t35.5 -13l174 -16q95 -9 145 -41
t50 -110q0 -55 -34 -97t-100 -66t-158 -24q-126 0 -190.5 40.5t-64.5 116.5zM421 420q0 55 -24.5 77.5t-85.5 22.5q-63 0 -89.5 -22.5t-26.5 -77.5t25.5 -77.5t88.5 -22.5q61 0 86.5 23.5t25.5 76.5zM473 -26q0 31 -22.5 43t-71.5 17l-173 18q-20 -11 -31 -29.5t-11 -41.5
q0 -42 34 -61.5t116 -19.5q159 0 159 74z" />
    <glyph glyph-name="h" unicode="h" horiz-adv-x="662" 
d="M335 497q-39 0 -71.5 -15.5t-48.5 -40.5v-441h-127v840l127 7v-211l-2 -80l3 -2q63 59 159 59t149 -58.5t53 -164.5v-390h-128v390q0 107 -114 107z" />
    <glyph glyph-name="i" unicode="i" horiz-adv-x="303" 
d="M152 716q-41 0 -60 14.5t-19 50.5q0 33 20 50.5t59 17.5q78 0 78 -68q0 -65 -78 -65zM215 605v-605h-127v598z" />
    <glyph glyph-name="j" unicode="j" horiz-adv-x="303" 
d="M152 716q-41 0 -60 14.5t-19 50.5q0 33 20 50.5t59 17.5q78 0 78 -68q0 -65 -78 -65zM27 -206q-54 0 -88 13l7 107q29 -9 58 -9q38 0 61 23.5t23 70.5v599l127 7v-610q0 -96 -50 -148.5t-138 -52.5z" />
    <glyph glyph-name="k" unicode="k" horiz-adv-x="621" 
d="M449 602h144l-183 -274l189 -328h-145l-153 270h-86v-270h-127v840l127 7v-471h86z" />
    <glyph glyph-name="l" unicode="l" horiz-adv-x="337" 
d="M88 127v713l129 6v-699q0 -26 12 -38.5t39 -12.5q26 0 61 5v-98q-42 -10 -101 -10q-75 0 -107.5 31.5t-32.5 102.5z" />
    <glyph glyph-name="m" unicode="m" horiz-adv-x="971" 
d="M183 602l16 -57h2q56 67 159 67q54 0 93.5 -22t61.5 -61h2q25 40 69.5 61.5t104.5 21.5q89 0 142 -54.5t53 -164.5v-393h-127v391q0 53 -27.5 79t-78.5 26q-46 0 -74 -25t-28 -73v-398h-127v398q0 51 -27 75t-75 24q-32 0 -61.5 -15t-45.5 -40v-442h-127v602h95z" />
    <glyph glyph-name="n" unicode="n" horiz-adv-x="662" 
d="M183 602l14 -64h2q65 75 171 75q97 0 152 -53.5t55 -153.5v-406h-127v389q0 110 -107 110q-42 0 -75.5 -16t-52.5 -43v-440h-127v602h95z" />
    <glyph glyph-name="o" unicode="o" horiz-adv-x="649" 
d="M326 -14q-141 0 -205.5 73.5t-64.5 239.5q0 165 65 239.5t205 74.5q141 0 204 -74t63 -240q0 -112 -28 -180.5t-86.5 -100.5t-152.5 -32zM326 93q51 0 80 19t42.5 63.5t13.5 123.5t-13.5 123.5t-42.5 63.5t-80 19t-81 -19t-43.5 -63.5t-13.5 -123.5t14 -123.5t43.5 -63.5
t80.5 -19z" />
    <glyph glyph-name="p" unicode="p" horiz-adv-x="658" 
d="M368 -11q-97 0 -150 56l-3 -1l2 -81v-163h-129v802h94l19 -55h2q33 31 76.5 48t93.5 17q116 0 172.5 -71t56.5 -239q0 -158 -61.5 -235.5t-172.5 -77.5zM340 497q-40 0 -71.5 -15.5t-51.5 -43.5v-279q17 -28 47 -44.5t72 -16.5q66 0 100.5 44t34.5 161q0 75 -14 117.5
t-42.5 59.5t-74.5 17z" />
    <glyph glyph-name="q" unicode="q" horiz-adv-x="657" 
d="M444 41l-2 1q-59 -51 -150 -51q-111 0 -173.5 75t-62.5 234q0 312 239 312q113 0 174 -70h3l16 60h81v-802l-127 -1v161zM322 495q-51 0 -79.5 -17t-41.5 -59.5t-13 -119.5q0 -74 14 -117.5t43.5 -62t77.5 -18.5q49 0 81 19t38 44v275q-13 24 -46 40t-74 16z" />
    <glyph glyph-name="r" unicode="r" horiz-adv-x="462" 
d="M192 602l9 -111h3q29 60 70.5 90t104.5 30q39 0 65 -8l-8 -129q-32 10 -67 10q-70 0 -112 -48.5t-42 -132.5v-303h-127v602h104z" />
    <glyph glyph-name="s" unicode="s" horiz-adv-x="528" 
d="M246 -12q-113 0 -193 37l11 114q37 -21 82.5 -33t94.5 -12q61 0 88.5 20t27.5 53q0 30 -28 47t-91 34t-101 37.5t-59 56t-21 92.5q0 81 58.5 129.5t169.5 48.5q99 0 175 -32l-10 -112q-79 35 -170 35q-46 0 -72 -18t-26 -52q0 -32 24.5 -48.5t80.5 -30.5
q69 -17 108.5 -35.5t60.5 -49.5t21 -84q0 -90 -57 -143.5t-174 -53.5z" />
    <glyph glyph-name="t" unicode="t" horiz-adv-x="439" 
d="M109 160v345h-94v97h94l19 180h109v-180h166v-97h-166v-318q0 -52 17 -72t59 -20q25 0 50.5 5t40.5 12v-100q-54 -22 -122 -22q-92 0 -132.5 41.5t-40.5 128.5z" />
    <glyph glyph-name="u" unicode="u" horiz-adv-x="662" 
d="M479 0l-14 71h-2q-64 -82 -175 -82q-96 0 -149.5 52.5t-53.5 162.5v398h127v-389q0 -57 26.5 -84t81.5 -27q43 0 75.5 18.5t51.5 47.5v434h127v-602h-95z" />
    <glyph glyph-name="v" unicode="v" horiz-adv-x="609" 
d="M228 0l-222 602h140l134 -410l24 -79h3l23 79l134 410h139l-222 -602h-153z" />
    <glyph glyph-name="w" unicode="w" horiz-adv-x="882" 
d="M634 99h3l14 83l87 420h124l-146 -602h-158l-93 388l-17 90h-3l-19 -90l-96 -388h-156l-154 602h128l91 -419l15 -82h3l17 82l105 419h132l106 -421z" />
    <glyph glyph-name="x" unicode="x" horiz-adv-x="598" 
d="M26 602h149l89 -166l37 -71h3l36 72l88 165h143l-178 -295l183 -307h-149l-95 176l-36 72h-3l-36 -73l-93 -175h-142l188 304z" />
    <glyph glyph-name="y" unicode="y" horiz-adv-x="610" 
d="M230 -26l16 40l-240 588h146l131 -380l23 -77h3l24 79l135 378h136l-244 -627q-23 -59 -49.5 -98.5t-69.5 -63t-108 -23.5q-54 0 -95 15v108q38 -18 85 -18q40 0 66 20t41 59z" />
    <glyph glyph-name="z" unicode="z" horiz-adv-x="540" 
d="M199 108h295l-4 -108h-440v91l242 337l48 63l-1 2h-280l5 109h423v-91l-241 -338l-48 -62z" />
    <glyph glyph-name="braceleft" unicode="{" horiz-adv-x="379" 
d="M206 333v-3q28 -15 43.5 -42.5t15.5 -62.5q0 -44 -7 -93q-6 -54 -6 -85q0 -37 22.5 -59t69.5 -22h32v-97h-26q-114 0 -163.5 40.5t-49.5 120.5q0 43 9 101q8 64 8 96q0 30 -19 51t-50 26v55q31 5 50 26t19 51q0 32 -8 96q-9 58 -9 101q0 80 49.5 120.5t163.5 40.5h26v-97
h-32q-47 0 -69.5 -22t-22.5 -59q0 -31 6 -85q7 -49 7 -92q0 -36 -15.5 -64t-43.5 -42z" />
    <glyph glyph-name="bar" unicode="|" horiz-adv-x="286" 
d="M193 -178h-99v987h99v-987z" />
    <glyph glyph-name="braceright" unicode="}" horiz-adv-x="379" 
d="M174 330v3q-29 14 -44.5 41.5t-15.5 64.5q0 43 7 92q6 54 6 85q0 37 -22.5 59t-69.5 22h-32v97h26q114 0 163 -40.5t49 -120.5q0 -37 -8 -101t-8 -96q0 -30 19 -51t50 -26v-55q-31 -5 -50 -26t-19 -51q0 -32 8 -96t8 -101q0 -80 -49 -120.5t-163 -40.5h-26v97h32
q47 0 69.5 22t22.5 59q0 31 -6 85q-7 49 -7 93q0 35 15.5 62.5t44.5 42.5z" />
    <glyph glyph-name="asciitilde" unicode="~" horiz-adv-x="665" 
d="M230 776q25 0 51 -9t62 -27q31 -16 51.5 -23.5t38.5 -7.5q49 0 65 54h74q-6 -86 -41.5 -128.5t-96.5 -42.5q-27 0 -52.5 9.5t-60.5 27.5q-31 16 -50.5 23t-36.5 7q-26 0 -43.5 -15t-24.5 -40h-74q12 172 138 172z" />
    <glyph glyph-name="uni00A0" unicode="&#xa0;" horiz-adv-x="245" 
 />
    <glyph glyph-name="exclamdown" unicode="&#xa1;" horiz-adv-x="315" 
d="M236 542q0 -76 -79 -76t-79 76q0 74 79 74t79 -74zM88 -146l20 504h98l20 -504h-138z" />
    <glyph glyph-name="cent" unicode="&#xa2;" horiz-adv-x="655" 
d="M432 -9v-140h-111v140q-207 32 -207 311q0 136 50.5 212.5t156.5 92.5v143h111v-142q57 -8 96 -24l-8 -112q-54 23 -111 23q-61 0 -96.5 -19.5t-51 -61t-15.5 -112.5q0 -107 40 -155t120 -48q67 0 118 28l9 -102q-42 -27 -101 -34z" />
    <glyph glyph-name="sterling" unicode="&#xa3;" horiz-adv-x="655" 
d="M119 543q0 97 66.5 158t212.5 61q100 0 184 -34l-16 -118q-32 13 -72.5 21.5t-80.5 8.5q-82 0 -120 -30.5t-38 -82.5q0 -42 18 -103h252v-103h-227q5 -33 5 -63q0 -49 -18.5 -86t-51.5 -58l1 -2q77 17 195 17q97 0 189 -12l-7 -124q-128 15 -243 15q-144 0 -291 -17
l-6 120q51 13 78.5 49.5t27.5 91.5q0 38 -6 69h-105v103h77q-12 34 -18 61.5t-6 57.5z" />
    <glyph glyph-name="currency" unicode="&#xa4;" horiz-adv-x="655" 
d="M166 457l-67 69l66 71l69 -71q43 24 92 24q50 0 92 -25l72 73l65 -71l-69 -71q26 -43 26 -95q0 -48 -22 -89l64 -66l-65 -71l-64 65q-45 -28 -99 -28t-98 28l-64 -65l-65 71l63 64q-22 42 -22 91q0 53 26 96zM326 265q43 0 72.5 28.5t29.5 69.5t-29.5 69.5t-72.5 28.5
t-73 -28.5t-30 -69.5t30 -69.5t73 -28.5z" />
    <glyph glyph-name="yen" unicode="&#xa5;" horiz-adv-x="655" 
d="M79 116v90h179v100h-179v90h144l-190 354h152l115 -263l28 -79h3l27 76l116 266h148l-185 -354h146v-90h-179v-100h180v-90h-180v-116h-146v116h-179z" />
    <glyph glyph-name="brokenbar" unicode="&#xa6;" horiz-adv-x="286" 
d="M193 373h-99v436h99v-436zM193 -167h-99v436h99v-436z" />
    <glyph glyph-name="section" unicode="&#xa7;" horiz-adv-x="566" 
d="M142 487q-73 53 -73 123q0 83 60 127.5t172 44.5q52 0 105 -11t90 -32l-11 -98q-85 39 -178 39q-52 0 -79.5 -17t-27.5 -48q0 -27 28 -46.5t91 -47.5q66 -30 108 -55t72.5 -66.5t30.5 -99.5q0 -45 -22.5 -85t-67.5 -65q73 -54 73 -122q0 -83 -59.5 -127.5t-171.5 -44.5
q-52 0 -105 11t-89 32l10 98q85 -39 177 -39q53 0 80 17t27 48q0 28 -28.5 47t-90.5 47q-66 30 -107.5 55t-72 66.5t-30.5 99.5q0 44 22.5 84t66.5 65zM240 429q-64 -25 -64 -77q0 -29 20.5 -52.5t53 -42.5t92.5 -49q32 13 48.5 33t16.5 45q0 28 -21 51.5t-53 42.5t-93 49z
" />
    <glyph glyph-name="dieresis" unicode="&#xa8;" horiz-adv-x="405" 
d="M17 783q0 70 68 70q70 0 70 -70q0 -69 -70 -69q-35 0 -51.5 16t-16.5 53zM250 783q0 70 70 70q68 0 68 -70q0 -35 -16.5 -52t-51.5 -17q-36 0 -53 16t-17 53z" />
    <glyph glyph-name="copyright" unicode="&#xa9;" horiz-adv-x="887" 
d="M444 770q106 0 196 -52.5t143 -142.5t53 -196q0 -107 -53 -197t-143 -143t-196 -53q-107 0 -197 53t-143 143t-53 197q0 106 53 196t143 142.5t197 52.5zM444 54q89 0 164.5 44t119.5 118.5t44 162.5q0 86 -44 159.5t-119.5 117t-164.5 43.5q-90 0 -165 -43.5
t-118.5 -117t-43.5 -159.5q0 -87 43.5 -161.5t118.5 -119t165 -44.5zM483 517q-77 0 -119 -38t-42 -100q0 -65 43.5 -103.5t119.5 -38.5q33 0 66 9t56 23l13 -89q-31 -26 -76.5 -44t-93.5 -18q-74 0 -132 34t-91 93.5t-33 132.5q0 68 31 126t89 93t136 35q49 0 90 -14.5
t69 -37.5l-10 -92q-22 13 -54.5 21t-61.5 8z" />
    <glyph glyph-name="ordfeminine" unicode="&#xaa;" horiz-adv-x="433" 
d="M175 347q-64 0 -100 38t-36 114q0 65 41 104.5t114 39.5q47 0 83 -14v30q0 36 -20 51.5t-67 15.5q-32 0 -58.5 -5.5t-56.5 -18.5l-9 91q69 30 146 30q94 0 133 -43t39 -139v-288h-84l-9 44l-3 1q-40 -51 -113 -51zM215 563q-74 0 -74 -63q0 -62 63 -62q29 0 50.5 16
t21.5 38v61q-20 10 -61 10z" />
    <glyph glyph-name="guillemotleft" unicode="&#xab;" horiz-adv-x="676" 
d="M340 112l-302 206v10l302 206v-102l-175 -109l175 -110v-101zM617 112l-302 206v10l302 206v-102l-175 -109l175 -110v-101z" />
    <glyph glyph-name="logicalnot" unicode="&#xac;" horiz-adv-x="665" 
d="M552 396v-265h-104v152h-335v113h439z" />
    <glyph glyph-name="uni00AD" unicode="&#xad;" horiz-adv-x="397" 
d="M60 294v95h277v-95h-277z" />
    <glyph glyph-name="registered" unicode="&#xae;" horiz-adv-x="444" 
d="M223 836q50 0 92.5 -25.5t67.5 -69t25 -94.5t-25 -94t-67.5 -68t-92.5 -25q-51 0 -93.5 25t-67.5 68t-25 94t25 94.5t67.5 69t93.5 25.5zM223 498q40 0 74.5 20.5t54.5 54.5t20 74q0 41 -20 75t-54.5 54t-74.5 20t-74.5 -20t-55 -54t-20.5 -75q0 -40 20.5 -74t55 -54.5
t74.5 -20.5zM280 631l40 -81h-57l-33 74h-35v-74h-54v203h91q84 0 84 -66q0 -19 -9 -34t-27 -22zM233 708h-38v-48h41q14 0 21 6.5t7 17.5q0 24 -31 24z" />
    <glyph glyph-name="degree" unicode="&#xb0;" horiz-adv-x="348" 
d="M174 773q43 0 78.5 -21.5t56.5 -58t21 -79.5t-21 -79.5t-56.5 -58t-78.5 -21.5t-78.5 21.5t-56.5 58t-21 79.5t20.5 79.5t56.5 58t79 21.5zM174 529q38 0 63 24t25 61t-25 61.5t-63 24.5t-63 -25t-25 -61q0 -35 25.5 -60t62.5 -25z" />
    <glyph glyph-name="plusminus" unicode="&#xb1;" horiz-adv-x="665" 
d="M274 182v155h-169v110h169v164h113v-164h173v-110h-173v-155h-113zM558 145v-98h-453v98h453z" />
    <glyph glyph-name="uni00B2" unicode="&#xb2;" horiz-adv-x="360" 
d="M150 573v-3h170v-77h-288v60q22 20 57 49q73 62 104 97.5t31 66.5q0 22 -16.5 35t-51.5 13q-28 0 -53.5 -9t-53.5 -27l-22 73q64 42 146 42q73 0 110 -32t37 -87q0 -52 -40.5 -96.5t-129.5 -104.5z" />
    <glyph glyph-name="uni00B3" unicode="&#xb3;" horiz-adv-x="360" 
d="M158 488q-77 0 -134 33l20 70q50 -29 114 -29q38 0 57 14.5t19 39.5q0 26 -24 38t-91 12v63q61 0 85 11t24 37q0 41 -69 41q-62 0 -114 -35l-21 68q27 19 63.5 30.5t75.5 11.5q72 0 111.5 -29t39.5 -80q0 -60 -60 -84v-2q69 -20 69 -87q0 -59 -40.5 -91t-124.5 -32z" />
    <glyph glyph-name="acute" unicode="&#xb4;" 
d="M377 913l-144 -195h-114l124 195h134z" />
    <glyph glyph-name="uni03BC" unicode="&#x3bc;" horiz-adv-x="625" 
d="M184 64l-2 -1q7 -138 14 -211l-124 -10v760h127v-392q0 -49 33.5 -77t87.5 -28q51 0 82 24.5t31 69.5v403h127v-599l-90 -8l-17 49h-3q-20 -26 -53 -40t-73 -14q-45 0 -81.5 18.5t-58.5 55.5z" />
    <glyph glyph-name="paragraph" unicode="&#xb6;" horiz-adv-x="683" 
d="M35 618q0 59 41.5 95.5t114.5 36.5h450l-5 -106h-76v-800h-112v800h-151v-800h-112v631q-68 3 -109 39.5t-41 103.5z" />
    <glyph glyph-name="periodcentered" unicode="&#xb7;" horiz-adv-x="290" 
d="M145 270q-41 0 -59 17.5t-18 57.5q0 76 77 76t77 -76q0 -75 -77 -75z" />
    <glyph glyph-name="cedilla" unicode="&#xb8;" 
d="M230 -210h-116l69 221h84z" />
    <glyph glyph-name="uni00B9" unicode="&#xb9;" horiz-adv-x="279" 
d="M117 702l3 79l-3 1l-81 -50l-9 81l125 76h57v-396h-92v209z" />
    <glyph glyph-name="ordmasculine" unicode="&#xba;" horiz-adv-x="473" 
d="M237 347q-103 0 -149.5 55.5t-46.5 182.5t47 182.5t149 55.5q103 0 149 -55.5t46 -182.5q0 -128 -46 -183t-149 -55zM237 440q32 0 50 12.5t26 43.5t8 89t-8 89t-26 43t-50 12t-50 -12t-26 -43t-8 -89t8 -89t26 -43.5t50 -12.5z" />
    <glyph glyph-name="guillemotright" unicode="&#xbb;" horiz-adv-x="675" 
d="M45 534l302 -206v-10l-302 -206v102l175 109l-175 110v101zM322 534l302 -206v-10l-302 -206v102l175 109l-175 110v101z" />
    <glyph glyph-name="onequarter" unicode="&#xbc;" horiz-adv-x="815" 
d="M71 0l500 750h92l-501 -750h-91zM117 535l3 79l-3 1l-81 -50l-9 81l125 76h57v-396h-92v209zM467 74l-7 53l184 267h111v-246h43v-74h-43v-74h-85v74h-203zM674 233l4 80h-3l-31 -50l-47 -68l-33 -44l1 -3h107z" />
    <glyph glyph-name="onehalf" unicode="&#xbd;" horiz-adv-x="815" 
d="M71 0l500 750h92l-501 -750h-91zM117 535l3 79l-3 1l-81 -50l-9 81l125 76h57v-396h-92v209zM605 80v-3h170v-77h-288v60q22 20 57 49q73 64 104 98t31 66q0 22 -16.5 35t-51.5 13q-28 0 -53.5 -9t-53.5 -27l-22 73q64 42 146 42q73 0 110 -32t37 -87q0 -53 -40.5 -96
t-129.5 -105z" />
    <glyph glyph-name="threequarters" unicode="&#xbe;" horiz-adv-x="896" 
d="M152 0l500 750h92l-501 -750h-91zM158 321q-77 0 -134 33l20 70q50 -29 114 -29q38 0 57 14.5t19 39.5q0 26 -24 38t-91 12v63q62 0 85.5 12t23.5 36q0 41 -69 41q-62 0 -114 -35l-21 68q27 19 63.5 30.5t75.5 11.5q72 0 111.5 -29t39.5 -80q0 -60 -60 -84v-2
q69 -20 69 -87q0 -59 -40.5 -91t-124.5 -32zM548 74l-7 53l184 267h111v-246h43v-74h-43v-74h-85v74h-203zM755 233l4 80h-3l-31 -50l-47 -68l-33 -44l1 -3h107z" />
    <glyph glyph-name="questiondown" unicode="&#xbf;" horiz-adv-x="511" 
d="M345 529q0 -76 -79 -76t-79 76q0 74 79 74t79 -74zM212 253l5 99h100l8 -158q-84 -29 -121 -61t-37 -81q0 -53 28 -77t82 -24q92 0 162 62l48 -106q-39 -35 -98 -56t-129 -21q-110 0 -168.5 53t-58.5 147q0 155 179 223z" />
    <glyph glyph-name="Agrave" unicode="&#xc0;" horiz-adv-x="723" 
d="M158 0h-147l264 750h171l266 -750h-155l-49 161h-300zM472 278l-95 304l-16 57h-3l-16 -57l-98 -304h228zM321 987l115 -147h-114l-149 147h148z" />
    <glyph glyph-name="Aacute" unicode="&#xc1;" horiz-adv-x="723" 
d="M158 0h-147l264 750h171l266 -750h-155l-49 161h-300zM472 278l-95 304l-16 57h-3l-16 -57l-98 -304h228zM547 987l-149 -147h-114l115 147h148z" />
    <glyph glyph-name="Acircumflex" unicode="&#xc2;" horiz-adv-x="723" 
d="M158 0h-147l264 750h171l266 -750h-155l-49 161h-300zM472 278l-95 304l-16 57h-3l-16 -57l-98 -304h228zM434 987l131 -147h-121l-83 90l-83 -90h-121l130 147h147z" />
    <glyph glyph-name="Atilde" unicode="&#xc3;" horiz-adv-x="723" 
d="M158 0h-147l264 750h171l266 -750h-155l-49 161h-300zM472 278l-95 304l-16 57h-3l-16 -57l-98 -304h228zM283 987q31 0 54.5 -12.5t44.5 -32.5q16 -15 28.5 -22.5t26.5 -7.5q47 0 53 73h68q-3 -74 -34.5 -115t-86.5 -41q-30 0 -53 12t-46 33q-17 15 -29.5 22.5
t-25.5 7.5q-23 0 -36.5 -20t-15.5 -53h-70q2 72 34.5 114t87.5 42z" />
    <glyph glyph-name="Adieresis" unicode="&#xc4;" horiz-adv-x="723" 
d="M158 0h-147l264 750h171l266 -750h-155l-49 161h-300zM472 278l-95 304l-16 57h-3l-16 -57l-98 -304h228zM177 900q0 70 68 70q70 0 70 -70q0 -69 -70 -69q-35 0 -51.5 16t-16.5 53zM410 900q0 70 70 70q68 0 68 -70q0 -35 -16.5 -52t-51.5 -17q-36 0 -53 16t-17 53z" />
    <glyph glyph-name="Aring" unicode="&#xc5;" horiz-adv-x="723" 
d="M158 0h-147l264 750h171l266 -750h-155l-49 161h-300zM472 278l-95 304l-16 57h-3l-16 -57l-98 -304h228zM365 987q75 0 115 -31.5t40 -80.5q0 -52 -39 -80.5t-116 -28.5q-158 0 -158 109q0 52 39.5 82t118.5 30zM365 831q39 0 58 12t19 32q0 21 -18.5 34t-58.5 13
q-80 0 -80 -47q0 -44 80 -44z" />
    <glyph glyph-name="AE" unicode="&#xc6;" horiz-adv-x="1032" 
d="M914 444v-113h-272l17 -208h323l-3 -123h-450l-12 162h-281l-80 -162h-164l410 750h566l3 -125h-352l14 -181h281zM508 278l-22 299l-4 81l-3 1l-34 -74l-152 -307h215z" />
    <glyph glyph-name="Ccedilla" unicode="&#xc7;" horiz-adv-x="610" 
d="M413 -13l-33 -197h-116l62 200q-135 17 -200.5 113t-65.5 278q0 192 82.5 287t256.5 95q44 0 92.5 -9.5t81.5 -23.5l-15 -121q-70 27 -152 27q-75 0 -118 -24t-63 -79t-20 -153q0 -103 20.5 -161.5t64 -83t119.5 -24.5q79 0 151 32l16 -115q-35 -17 -77.5 -28t-85.5 -13z
" />
    <glyph glyph-name="Egrave" unicode="&#xc8;" horiz-adv-x="640" 
d="M93 0v750h481v-125h-343v-181h292v-113h-292v-208h359v-123h-497zM300 987l115 -147h-114l-149 147h148z" />
    <glyph glyph-name="Eacute" unicode="&#xc9;" horiz-adv-x="640" 
d="M93 0v750h481v-125h-343v-181h292v-113h-292v-208h359v-123h-497zM526 987l-149 -147h-114l115 147h148z" />
    <glyph glyph-name="Ecircumflex" unicode="&#xca;" horiz-adv-x="640" 
d="M93 0v750h481v-125h-343v-181h292v-113h-292v-208h359v-123h-497zM413 987l131 -147h-121l-83 90l-83 -90h-121l130 147h147z" />
    <glyph glyph-name="Edieresis" unicode="&#xcb;" horiz-adv-x="640" 
d="M93 0v750h481v-125h-343v-181h292v-113h-292v-208h359v-123h-497zM156 900q0 70 68 70q70 0 70 -70q0 -69 -70 -69q-35 0 -51.5 16t-16.5 53zM389 900q0 70 70 70q68 0 68 -70q0 -35 -16.5 -52t-51.5 -17q-36 0 -53 16t-17 53z" />
    <glyph glyph-name="Igrave" unicode="&#xcc;" horiz-adv-x="326" 
d="M233 0h-140v750h140v-750zM122 987l115 -147h-114l-149 147h148z" />
    <glyph glyph-name="Iacute" unicode="&#xcd;" horiz-adv-x="326" 
d="M233 0h-140v750h140v-750zM348 987l-149 -147h-114l115 147h148z" />
    <glyph glyph-name="Icircumflex" unicode="&#xce;" horiz-adv-x="326" 
d="M233 0h-140v750h140v-750zM235 987l131 -147h-121l-83 90l-83 -90h-121l130 147h147z" />
    <glyph glyph-name="Idieresis" unicode="&#xcf;" horiz-adv-x="326" 
d="M233 0h-140v750h140v-750zM-22 900q0 70 68 70q70 0 70 -70q0 -69 -70 -69q-35 0 -51.5 16t-16.5 53zM211 900q0 70 70 70q68 0 68 -70q0 -35 -16.5 -52t-51.5 -17q-36 0 -53 16t-17 53z" />
    <glyph glyph-name="Eth" unicode="&#xd0;" horiz-adv-x="753" 
d="M693 378q0 -188 -86.5 -283t-252.5 -95h-261v328h-77v106h77v316h259q176 0 258.5 -89t82.5 -283zM549 379q0 96 -21 149t-63.5 74t-113.5 21h-120v-189h124v-106h-124v-202h120q101 0 149.5 58t48.5 195z" />
    <glyph glyph-name="Ntilde" unicode="&#xd1;" horiz-adv-x="772" 
d="M217 525l-2 -1l1 -81v-443h-123v750h120l299 -438l45 -67l2 1l-2 80v424h122v-750h-97l-320 457zM307 987q31 0 54.5 -12.5t44.5 -32.5q16 -15 28.5 -22.5t26.5 -7.5q47 0 53 73h68q-3 -74 -34.5 -115t-86.5 -41q-30 0 -53 12t-46 33q-17 15 -29.5 22.5t-25.5 7.5
q-23 0 -36.5 -20t-15.5 -53h-70q2 72 34.5 114t87.5 42z" />
    <glyph glyph-name="Ograve" unicode="&#xd2;" horiz-adv-x="762" 
d="M382 -14q-114 0 -184.5 41t-104 126.5t-33.5 221.5q0 137 33 221.5t103.5 125t185.5 40.5t185 -40.5t102.5 -125t32.5 -221.5q0 -138 -32.5 -223.5t-102.5 -125.5t-185 -40zM381 635q-67 0 -104.5 -22.5t-54.5 -78t-17 -159.5t17.5 -160t55 -79t104.5 -23t104.5 23
t54.5 79.5t17 159.5q0 104 -17 160t-54.5 78t-105.5 22zM342 987l115 -147h-114l-149 147h148z" />
    <glyph glyph-name="Oacute" unicode="&#xd3;" horiz-adv-x="762" 
d="M382 -14q-114 0 -184.5 41t-104 126.5t-33.5 221.5q0 137 33 221.5t103.5 125t185.5 40.5t185 -40.5t102.5 -125t32.5 -221.5q0 -138 -32.5 -223.5t-102.5 -125.5t-185 -40zM381 635q-67 0 -104.5 -22.5t-54.5 -78t-17 -159.5t17.5 -160t55 -79t104.5 -23t104.5 23
t54.5 79.5t17 159.5q0 104 -17 160t-54.5 78t-105.5 22zM568 987l-149 -147h-114l115 147h148z" />
    <glyph glyph-name="Ocircumflex" unicode="&#xd4;" horiz-adv-x="762" 
d="M382 -14q-114 0 -184.5 41t-104 126.5t-33.5 221.5q0 137 33 221.5t103.5 125t185.5 40.5t185 -40.5t102.5 -125t32.5 -221.5q0 -138 -32.5 -223.5t-102.5 -125.5t-185 -40zM381 635q-67 0 -104.5 -22.5t-54.5 -78t-17 -159.5t17.5 -160t55 -79t104.5 -23t104.5 23
t54.5 79.5t17 159.5q0 104 -17 160t-54.5 78t-105.5 22zM455 987l131 -147h-121l-83 90l-83 -90h-121l130 147h147z" />
    <glyph glyph-name="Otilde" unicode="&#xd5;" horiz-adv-x="762" 
d="M382 -14q-114 0 -184.5 41t-104 126.5t-33.5 221.5q0 137 33 221.5t103.5 125t185.5 40.5t185 -40.5t102.5 -125t32.5 -221.5q0 -138 -32.5 -223.5t-102.5 -125.5t-185 -40zM381 635q-67 0 -104.5 -22.5t-54.5 -78t-17 -159.5t17.5 -160t55 -79t104.5 -23t104.5 23
t54.5 79.5t17 159.5q0 104 -17 160t-54.5 78t-105.5 22zM304 987q31 0 54.5 -12.5t44.5 -32.5q16 -15 28.5 -22.5t26.5 -7.5q47 0 53 73h68q-3 -74 -34.5 -115t-86.5 -41q-30 0 -53 12t-46 33q-17 15 -29.5 22.5t-25.5 7.5q-23 0 -36.5 -20t-15.5 -53h-70q2 72 34.5 114
t87.5 42z" />
    <glyph glyph-name="Odieresis" unicode="&#xd6;" horiz-adv-x="762" 
d="M382 -14q-114 0 -184.5 41t-104 126.5t-33.5 221.5q0 137 33 221.5t103.5 125t185.5 40.5t185 -40.5t102.5 -125t32.5 -221.5q0 -138 -32.5 -223.5t-102.5 -125.5t-185 -40zM381 635q-67 0 -104.5 -22.5t-54.5 -78t-17 -159.5t17.5 -160t55 -79t104.5 -23t104.5 23
t54.5 79.5t17 159.5q0 104 -17 160t-54.5 78t-105.5 22zM198 900q0 70 68 70q70 0 70 -70q0 -69 -70 -69q-35 0 -51.5 16t-16.5 53zM431 900q0 70 70 70q68 0 68 -70q0 -35 -16.5 -52t-51.5 -17q-36 0 -53 16t-17 53z" />
    <glyph glyph-name="multiply" unicode="&#xd7;" horiz-adv-x="665" 
d="M193 113l-74 80l140 137l-142 139l74 81l142 -139l141 139l73 -81l-141 -139l139 -137l-73 -80l-140 137z" />
    <glyph glyph-name="Oslash" unicode="&#xd8;" horiz-adv-x="762" 
d="M702 375q0 -138 -32.5 -223.5t-102.5 -125.5t-185 -40q-138 0 -213 60l-84 -104l-73 56l97 121q-49 92 -49 256q0 137 33 221.5t103.5 125t185.5 40.5q130 0 204 -53l81 100l72 -54l-91 -114q54 -90 54 -266zM214 248l287 355q-20 17 -49 24.5t-71 7.5
q-67 0 -104.5 -22.5t-54.5 -78t-17 -159.5q0 -76 9 -127zM546 515l-291 -361q21 -22 52 -31.5t75 -9.5q67 0 104.5 23t54.5 79.5t17 159.5q0 86 -12 140z" />
    <glyph glyph-name="Ugrave" unicode="&#xd9;" horiz-adv-x="765" 
d="M383 -14q-295 0 -295 283v481h137v-480q0 -81 38.5 -118.5t119.5 -37.5t118.5 37.5t37.5 118.5v480h138v-481q0 -283 -294 -283zM341 987l115 -147h-114l-149 147h148z" />
    <glyph glyph-name="Uacute" unicode="&#xda;" horiz-adv-x="765" 
d="M383 -14q-295 0 -295 283v481h137v-480q0 -81 38.5 -118.5t119.5 -37.5t118.5 37.5t37.5 118.5v480h138v-481q0 -283 -294 -283zM567 987l-149 -147h-114l115 147h148z" />
    <glyph glyph-name="Ucircumflex" unicode="&#xdb;" horiz-adv-x="765" 
d="M383 -14q-295 0 -295 283v481h137v-480q0 -81 38.5 -118.5t119.5 -37.5t118.5 37.5t37.5 118.5v480h138v-481q0 -283 -294 -283zM454 987l131 -147h-121l-83 90l-83 -90h-121l130 147h147z" />
    <glyph glyph-name="Udieresis" unicode="&#xdc;" horiz-adv-x="765" 
d="M383 -14q-295 0 -295 283v481h137v-480q0 -81 38.5 -118.5t119.5 -37.5t118.5 37.5t37.5 118.5v480h138v-481q0 -283 -294 -283zM197 900q0 70 68 70q70 0 70 -70q0 -69 -70 -69q-35 0 -51.5 16t-16.5 53zM430 900q0 70 70 70q68 0 68 -70q0 -35 -16.5 -52t-51.5 -17
q-36 0 -53 16t-17 53z" />
    <glyph glyph-name="Yacute" unicode="&#xdd;" horiz-adv-x="665" 
d="M336 371h3l31 74l141 305h151l-257 -504v-246h-141v246l-261 504h156l144 -306zM528 987l-149 -147h-114l115 147h148z" />
    <glyph glyph-name="Thorn" unicode="&#xde;" horiz-adv-x="678" 
d="M349 138h-108v-138h-138v750h138v-122h108q155 0 223.5 -59.5t68.5 -188.5q0 -121 -68.5 -181.5t-223.5 -60.5zM348 510h-107v-258h108q55 0 87.5 11t48 39t15.5 79q0 49 -15 77t-47.5 40t-89.5 12z" />
    <glyph glyph-name="germandbls" unicode="&#xdf;" horiz-adv-x="681" 
d="M266 16l8 114q20 -12 49 -20.5t61 -8.5q55 0 87.5 25t32.5 74q0 31 -16 51.5t-39 32t-63 26.5q-10 3 -30 11q-31 12 -48.5 33t-17.5 49q0 24 15.5 44.5t35.5 29.5q6 3 33 14.5t45.5 33t18.5 50.5q0 37 -24.5 60.5t-72.5 23.5q-61 0 -90 -38t-29 -117v-504h-127v509
q0 121 64 187.5t187 66.5q101 0 160.5 -47.5t59.5 -131.5q0 -63 -29.5 -98t-75.5 -56q-15 -7 -20 -11t-5 -8q0 -6 7 -9.5t23 -8.5q43 -14 76.5 -32t60.5 -59t27 -109q0 -93 -60 -147.5t-163 -54.5q-43 0 -81 7t-60 18z" />
    <glyph glyph-name="agrave" unicode="&#xe0;" horiz-adv-x="624" 
d="M245 -10q-90 0 -140.5 49t-50.5 147q0 86 57 136t164 50q71 0 130 -19v45q0 56 -30 80.5t-101 24.5q-50 0 -88.5 -9t-83.5 -29l-11 109q89 39 206 39q86 0 137.5 -24.5t74 -75.5t22.5 -134v-379h-97l-11 64l-3 1q-28 -36 -73 -55.5t-102 -19.5zM298 282q-64 0 -94 -23.5
t-30 -70.5q0 -95 106 -95q33 0 62 12t46 31t17 41v88q-14 7 -42 12t-65 5zM263 913l124 -195h-114l-144 195h134z" />
    <glyph glyph-name="aacute" unicode="&#xe1;" horiz-adv-x="624" 
d="M245 -10q-90 0 -140.5 49t-50.5 147q0 86 57 136t164 50q71 0 130 -19v45q0 56 -30 80.5t-101 24.5q-50 0 -88.5 -9t-83.5 -29l-11 109q89 39 206 39q86 0 137.5 -24.5t74 -75.5t22.5 -134v-379h-97l-11 64l-3 1q-28 -36 -73 -55.5t-102 -19.5zM298 282q-64 0 -94 -23.5
t-30 -70.5q0 -95 106 -95q33 0 62 12t46 31t17 41v88q-14 7 -42 12t-65 5zM485 913l-144 -195h-114l124 195h134z" />
    <glyph glyph-name="acircumflex" unicode="&#xe2;" horiz-adv-x="624" 
d="M245 -10q-90 0 -140.5 49t-50.5 147q0 86 57 136t164 50q71 0 130 -19v45q0 56 -30 80.5t-101 24.5q-50 0 -88.5 -9t-83.5 -29l-11 109q89 39 206 39q86 0 137.5 -24.5t74 -75.5t22.5 -134v-379h-97l-11 64l-3 1q-28 -36 -73 -55.5t-102 -19.5zM298 282q-64 0 -94 -23.5
t-30 -70.5q0 -95 106 -95q33 0 62 12t46 31t17 41v88q-14 7 -42 12t-65 5zM368 913l140 -195h-109l-94 134l-95 -134h-108l138 195h128z" />
    <glyph glyph-name="atilde" unicode="&#xe3;" horiz-adv-x="624" 
d="M245 -10q-90 0 -140.5 49t-50.5 147q0 86 57 136t164 50q71 0 130 -19v45q0 56 -30 80.5t-101 24.5q-50 0 -88.5 -9t-83.5 -29l-11 109q89 39 206 39q86 0 137.5 -24.5t74 -75.5t22.5 -134v-379h-97l-11 64l-3 1q-28 -36 -73 -55.5t-102 -19.5zM298 282q-64 0 -94 -23.5
t-30 -70.5q0 -95 106 -95q33 0 62 12t46 31t17 41v88q-14 7 -42 12t-65 5zM228 874q31 0 54.5 -12.5t44.5 -32.5q16 -15 28.5 -22.5t26.5 -7.5q47 0 53 73h68q-3 -74 -34.5 -115t-86.5 -41q-30 0 -53 12t-46 33q-17 15 -29.5 22.5t-25.5 7.5q-23 0 -36.5 -20t-15.5 -53h-70
q2 72 34.5 114t87.5 42z" />
    <glyph glyph-name="adieresis" unicode="&#xe4;" horiz-adv-x="624" 
d="M245 -10q-90 0 -140.5 49t-50.5 147q0 86 57 136t164 50q71 0 130 -19v45q0 56 -30 80.5t-101 24.5q-50 0 -88.5 -9t-83.5 -29l-11 109q89 39 206 39q86 0 137.5 -24.5t74 -75.5t22.5 -134v-379h-97l-11 64l-3 1q-28 -36 -73 -55.5t-102 -19.5zM298 282q-64 0 -94 -23.5
t-30 -70.5q0 -95 106 -95q33 0 62 12t46 31t17 41v88q-14 7 -42 12t-65 5zM119 783q0 70 68 70q70 0 70 -70q0 -69 -70 -69q-35 0 -51.5 16t-16.5 53zM352 783q0 70 70 70q68 0 68 -70q0 -35 -16.5 -52t-51.5 -17q-36 0 -53 16t-17 53z" />
    <glyph glyph-name="aring" unicode="&#xe5;" horiz-adv-x="624" 
d="M245 -10q-90 0 -140.5 49t-50.5 147q0 86 57 136t164 50q71 0 130 -19v45q0 56 -30 80.5t-101 24.5q-50 0 -88.5 -9t-83.5 -29l-11 109q89 39 206 39q86 0 137.5 -24.5t74 -75.5t22.5 -134v-379h-97l-11 64l-3 1q-28 -36 -73 -55.5t-102 -19.5zM298 282q-64 0 -94 -23.5
t-30 -70.5q0 -95 106 -95q33 0 62 12t46 31t17 41v88q-14 7 -42 12t-65 5zM305 959q76 0 115.5 -34.5t39.5 -90.5q0 -59 -39 -90.5t-116 -31.5q-79 0 -118.5 30t-39.5 92q0 58 38.5 91.5t119.5 33.5zM305 777q77 0 77 57q0 60 -77 60q-44 0 -62 -15.5t-18 -44.5
q0 -28 18 -42.5t62 -14.5z" />
    <glyph glyph-name="ae" unicode="&#xe6;" horiz-adv-x="977" 
d="M468 91h-4q-22 -45 -70.5 -73t-122.5 -28q-211 0 -211 196q0 86 57 136t164 50q71 0 130 -19v45q0 56 -30 80.5t-101 24.5q-50 0 -88.5 -9t-83.5 -29l-11 109q88 39 206 39q69 0 115 -17.5t71 -54.5h5q66 71 181 71q122 0 181 -68.5t59 -212.5q0 -41 -3 -68h-375
q1 -161 158 -161q101 0 184 36l12 -108q-39 -19 -92.5 -30t-112.5 -11q-156 0 -218 102zM673 509q-64 0 -98.5 -35t-38.5 -110h257q0 77 -30 111t-90 34zM411 209v56q-14 7 -42 12t-65 5q-64 0 -94 -23.5t-30 -70.5q0 -95 106 -95q57 0 91 33t34 83z" />
    <glyph glyph-name="ccedilla" unicode="&#xe7;" horiz-adv-x="523" 
d="M357 -11l-33 -199h-116l62 200q-107 14 -160.5 91t-53.5 221q0 154 65 231.5t203 77.5q38 0 77 -7.5t69 -19.5l-8 -112q-54 23 -111 23q-61 0 -96.5 -19.5t-51 -61t-15.5 -112.5q0 -107 40 -155t120 -48q67 0 118 28l9 -102q-44 -30 -118 -36z" />
    <glyph glyph-name="egrave" unicode="&#xe8;" horiz-adv-x="621" 
d="M56 304q0 149 69.5 228.5t200.5 79.5q122 0 181 -68.5t59 -212.5q0 -39 -3 -72h-375q1 -157 158 -157q101 0 184 36l12 -108q-39 -19 -92.5 -30t-112.5 -11q-146 0 -213.5 78.5t-67.5 236.5zM324 509q-64 0 -98.5 -35t-38.5 -110h255q0 77 -29.5 111t-88.5 34zM273 913
l124 -195h-114l-144 195h134z" />
    <glyph glyph-name="eacute" unicode="&#xe9;" horiz-adv-x="621" 
d="M56 304q0 149 69.5 228.5t200.5 79.5q122 0 181 -68.5t59 -212.5q0 -39 -3 -72h-375q1 -157 158 -157q101 0 184 36l12 -108q-39 -19 -92.5 -30t-112.5 -11q-146 0 -213.5 78.5t-67.5 236.5zM324 509q-64 0 -98.5 -35t-38.5 -110h255q0 77 -29.5 111t-88.5 34zM495 913
l-144 -195h-114l124 195h134z" />
    <glyph glyph-name="ecircumflex" unicode="&#xea;" horiz-adv-x="621" 
d="M56 304q0 149 69.5 228.5t200.5 79.5q122 0 181 -68.5t59 -212.5q0 -39 -3 -72h-375q1 -157 158 -157q101 0 184 36l12 -108q-39 -19 -92.5 -30t-112.5 -11q-146 0 -213.5 78.5t-67.5 236.5zM324 509q-64 0 -98.5 -35t-38.5 -110h255q0 77 -29.5 111t-88.5 34zM378 913
l140 -195h-109l-94 134l-95 -134h-108l138 195h128z" />
    <glyph glyph-name="edieresis" unicode="&#xeb;" horiz-adv-x="621" 
d="M56 304q0 149 69.5 228.5t200.5 79.5q122 0 181 -68.5t59 -212.5q0 -39 -3 -72h-375q1 -157 158 -157q101 0 184 36l12 -108q-39 -19 -92.5 -30t-112.5 -11q-146 0 -213.5 78.5t-67.5 236.5zM324 509q-64 0 -98.5 -35t-38.5 -110h255q0 77 -29.5 111t-88.5 34zM129 783
q0 70 68 70q70 0 70 -70q0 -69 -70 -69q-35 0 -51.5 16t-16.5 53zM362 783q0 70 70 70q68 0 68 -70q0 -35 -16.5 -52t-51.5 -17q-36 0 -53 16t-17 53z" />
    <glyph glyph-name="igrave" unicode="&#xec;" horiz-adv-x="303" 
d="M215 605v-605h-127v598zM110 913l124 -195h-114l-144 195h134z" />
    <glyph glyph-name="iacute" unicode="&#xed;" horiz-adv-x="303" 
d="M215 605v-605h-127v598zM332 913l-144 -195h-114l124 195h134z" />
    <glyph glyph-name="icircumflex" unicode="&#xee;" horiz-adv-x="303" 
d="M215 605v-605h-127v598zM215 913l140 -195h-109l-94 134l-95 -134h-108l138 195h128z" />
    <glyph glyph-name="idieresis" unicode="&#xef;" horiz-adv-x="303" 
d="M215 605v-605h-127v598zM-34 783q0 70 68 70q70 0 70 -70q0 -69 -70 -69q-35 0 -51.5 16t-16.5 53zM199 783q0 70 70 70q68 0 68 -70q0 -35 -16.5 -52t-51.5 -17q-36 0 -53 16t-17 53z" />
    <glyph glyph-name="eth" unicode="&#xf0;" horiz-adv-x="666" 
d="M64 277q0 137 64 207.5t173 70.5q86 0 139 -42l2 2q-17 45 -54 83t-74 58l-92 -63l-63 55l82 58q-17 12 -42.5 25.5t-32.5 17.5q-5 3 -12 6.5t-14 7.5l93 72q72 -36 106 -58l86 56l61 -61l-76 -48q98 -62 145 -163t47 -247q0 -162 -70 -243.5t-203 -81.5q-265 0 -265 288
zM470 284q0 87 -33.5 124.5t-104.5 37.5q-50 0 -79.5 -16.5t-43 -54.5t-13.5 -103q0 -93 34.5 -134t100.5 -41q70 0 104.5 45.5t34.5 141.5z" />
    <glyph glyph-name="ntilde" unicode="&#xf1;" horiz-adv-x="662" 
d="M183 602l14 -64h2q65 75 171 75q97 0 152 -53.5t55 -153.5v-406h-127v389q0 110 -107 110q-42 0 -75.5 -16t-52.5 -43v-440h-127v602h95zM255 874q31 0 54.5 -12.5t44.5 -32.5q16 -15 28.5 -22.5t26.5 -7.5q47 0 53 73h68q-3 -74 -34.5 -115t-86.5 -41q-30 0 -53 12
t-46 33q-17 15 -29.5 22.5t-25.5 7.5q-23 0 -36.5 -20t-15.5 -53h-70q2 72 34.5 114t87.5 42z" />
    <glyph glyph-name="ograve" unicode="&#xf2;" horiz-adv-x="649" 
d="M326 -14q-141 0 -205.5 73.5t-64.5 239.5q0 165 65 239.5t205 74.5q141 0 204 -74t63 -240q0 -112 -28 -180.5t-86.5 -100.5t-152.5 -32zM326 93q51 0 80 19t42.5 63.5t13.5 123.5t-13.5 123.5t-42.5 63.5t-80 19t-81 -19t-43.5 -63.5t-13.5 -123.5t14 -123.5t43.5 -63.5
t80.5 -19zM292 913l124 -195h-114l-144 195h134z" />
    <glyph glyph-name="oacute" unicode="&#xf3;" horiz-adv-x="649" 
d="M326 -14q-141 0 -205.5 73.5t-64.5 239.5q0 165 65 239.5t205 74.5q141 0 204 -74t63 -240q0 -112 -28 -180.5t-86.5 -100.5t-152.5 -32zM326 93q51 0 80 19t42.5 63.5t13.5 123.5t-13.5 123.5t-42.5 63.5t-80 19t-81 -19t-43.5 -63.5t-13.5 -123.5t14 -123.5t43.5 -63.5
t80.5 -19zM514 913l-144 -195h-114l124 195h134z" />
    <glyph glyph-name="ocircumflex" unicode="&#xf4;" horiz-adv-x="649" 
d="M326 -14q-141 0 -205.5 73.5t-64.5 239.5q0 165 65 239.5t205 74.5q141 0 204 -74t63 -240q0 -112 -28 -180.5t-86.5 -100.5t-152.5 -32zM326 93q51 0 80 19t42.5 63.5t13.5 123.5t-13.5 123.5t-42.5 63.5t-80 19t-81 -19t-43.5 -63.5t-13.5 -123.5t14 -123.5t43.5 -63.5
t80.5 -19zM397 913l140 -195h-109l-94 134l-95 -134h-108l138 195h128z" />
    <glyph glyph-name="otilde" unicode="&#xf5;" horiz-adv-x="649" 
d="M326 -14q-141 0 -205.5 73.5t-64.5 239.5q0 165 65 239.5t205 74.5q141 0 204 -74t63 -240q0 -112 -28 -180.5t-86.5 -100.5t-152.5 -32zM326 93q51 0 80 19t42.5 63.5t13.5 123.5t-13.5 123.5t-42.5 63.5t-80 19t-81 -19t-43.5 -63.5t-13.5 -123.5t14 -123.5t43.5 -63.5
t80.5 -19zM257 874q31 0 54.5 -12.5t44.5 -32.5q16 -15 28.5 -22.5t26.5 -7.5q47 0 53 73h68q-3 -74 -34.5 -115t-86.5 -41q-30 0 -53 12t-46 33q-17 15 -29.5 22.5t-25.5 7.5q-23 0 -36.5 -20t-15.5 -53h-70q2 72 34.5 114t87.5 42z" />
    <glyph glyph-name="odieresis" unicode="&#xf6;" horiz-adv-x="649" 
d="M326 -14q-141 0 -205.5 73.5t-64.5 239.5q0 165 65 239.5t205 74.5q141 0 204 -74t63 -240q0 -112 -28 -180.5t-86.5 -100.5t-152.5 -32zM326 93q51 0 80 19t42.5 63.5t13.5 123.5t-13.5 123.5t-42.5 63.5t-80 19t-81 -19t-43.5 -63.5t-13.5 -123.5t14 -123.5t43.5 -63.5
t80.5 -19zM148 783q0 70 68 70q70 0 70 -70q0 -69 -70 -69q-35 0 -51.5 16t-16.5 53zM381 783q0 70 70 70q68 0 68 -70q0 -35 -16.5 -52t-51.5 -17q-36 0 -53 16t-17 53z" />
    <glyph glyph-name="divide" unicode="&#xf7;" horiz-adv-x="665" 
d="M332 450q-42 0 -62 15t-20 52q0 33 21 50t61 17t60.5 -17t20.5 -50t-20.5 -50t-60.5 -17zM571 397v-120h-478v120h478zM332 91q-42 0 -62 14.5t-20 51.5q0 67 82 67q81 0 81 -67q0 -66 -81 -66z" />
    <glyph glyph-name="oslash" unicode="&#xf8;" horiz-adv-x="649" 
d="M593 299q0 -112 -28 -180.5t-86.5 -100.5t-152.5 -32q-107 0 -168 41l-60 -71l-68 58l67 80q-41 72 -41 205q0 165 65 239.5t205 74.5q109 0 171 -44l75 90l69 -58l-85 -101q37 -73 37 -201zM194 209l224 267q-29 29 -92 29q-51 0 -81 -19t-43.5 -63.5t-13.5 -123.5
q0 -52 6 -90zM457 383l-222 -264q30 -26 91 -26q51 0 80 19t42.5 63.5t13.5 123.5q0 44 -5 84z" />
    <glyph glyph-name="ugrave" unicode="&#xf9;" horiz-adv-x="662" 
d="M479 0l-14 71h-2q-64 -82 -175 -82q-96 0 -149.5 52.5t-53.5 162.5v398h127v-389q0 -57 26.5 -84t81.5 -27q43 0 75.5 18.5t51.5 47.5v434h127v-602h-95zM289 913l124 -195h-114l-144 195h134z" />
    <glyph glyph-name="uacute" unicode="&#xfa;" horiz-adv-x="662" 
d="M479 0l-14 71h-2q-64 -82 -175 -82q-96 0 -149.5 52.5t-53.5 162.5v398h127v-389q0 -57 26.5 -84t81.5 -27q43 0 75.5 18.5t51.5 47.5v434h127v-602h-95zM511 913l-144 -195h-114l124 195h134z" />
    <glyph glyph-name="ucircumflex" unicode="&#xfb;" horiz-adv-x="662" 
d="M479 0l-14 71h-2q-64 -82 -175 -82q-96 0 -149.5 52.5t-53.5 162.5v398h127v-389q0 -57 26.5 -84t81.5 -27q43 0 75.5 18.5t51.5 47.5v434h127v-602h-95zM394 913l140 -195h-109l-94 134l-95 -134h-108l138 195h128z" />
    <glyph glyph-name="udieresis" unicode="&#xfc;" horiz-adv-x="662" 
d="M479 0l-14 71h-2q-64 -82 -175 -82q-96 0 -149.5 52.5t-53.5 162.5v398h127v-389q0 -57 26.5 -84t81.5 -27q43 0 75.5 18.5t51.5 47.5v434h127v-602h-95zM145 783q0 70 68 70q70 0 70 -70q0 -69 -70 -69q-35 0 -51.5 16t-16.5 53zM378 783q0 70 70 70q68 0 68 -70
q0 -35 -16.5 -52t-51.5 -17q-36 0 -53 16t-17 53z" />
    <glyph glyph-name="yacute" unicode="&#xfd;" horiz-adv-x="610" 
d="M230 -26l16 40l-240 588h146l131 -380l23 -77h3l24 79l135 378h136l-244 -627q-23 -59 -49.5 -98.5t-69.5 -63t-108 -23.5q-54 0 -95 15v108q38 -18 85 -18q40 0 66 20t41 59zM503 913l-144 -195h-114l124 195h134z" />
    <glyph glyph-name="thorn" unicode="&#xfe;" horiz-adv-x="633" 
d="M359 -11q-97 0 -152 54l-3 -1l2 -81v-161h-129v1040l128 7v-217l-2 -80l3 -2q31 30 73.5 47t90.5 17q109 0 165 -71.5t56 -238.5q0 -158 -60.5 -235.5t-171.5 -77.5zM329 497q-40 0 -71.5 -15.5t-51.5 -43.5v-279q17 -28 47 -44.5t72 -16.5q43 0 72 17.5t45 62.5t16 125
q0 76 -13.5 118t-41.5 59t-74 17z" />
    <glyph glyph-name="ydieresis" unicode="&#xff;" horiz-adv-x="610" 
d="M230 -26l16 40l-240 588h146l131 -380l23 -77h3l24 79l135 378h136l-244 -627q-23 -59 -49.5 -98.5t-69.5 -63t-108 -23.5q-54 0 -95 15v108q38 -18 85 -18q40 0 66 20t41 59zM137 783q0 70 68 70q70 0 70 -70q0 -69 -70 -69q-35 0 -51.5 16t-16.5 53zM370 783
q0 70 70 70q68 0 68 -70q0 -35 -16.5 -52t-51.5 -17q-36 0 -53 16t-17 53z" />
    <glyph glyph-name="Amacron" unicode="&#x100;" horiz-adv-x="723" 
d="M158 0h-147l264 750h171l266 -750h-155l-49 161h-300zM472 278l-95 304l-16 57h-3l-16 -57l-98 -304h228zM201 946h323v-81h-323v81z" />
    <glyph glyph-name="amacron" unicode="&#x101;" horiz-adv-x="624" 
d="M245 -10q-90 0 -140.5 49t-50.5 147q0 86 57 136t164 50q71 0 130 -19v45q0 56 -30 80.5t-101 24.5q-50 0 -88.5 -9t-83.5 -29l-11 109q89 39 206 39q86 0 137.5 -24.5t74 -75.5t22.5 -134v-379h-97l-11 64l-3 1q-28 -36 -73 -55.5t-102 -19.5zM298 282q-64 0 -94 -23.5
t-30 -70.5q0 -95 106 -95q33 0 62 12t46 31t17 41v88q-14 7 -42 12t-65 5zM140 814h323v-81h-323v81z" />
    <glyph glyph-name="Abreve" unicode="&#x102;" horiz-adv-x="723" 
d="M158 0h-147l264 750h171l266 -750h-155l-49 161h-300zM472 278l-95 304l-16 57h-3l-16 -57l-98 -304h228zM361 834q-96 0 -147 42.5t-51 110.5h99q0 -36 26 -57.5t73 -21.5t73 21t26 58h99q0 -67 -52.5 -110t-145.5 -43z" />
    <glyph glyph-name="abreve" unicode="&#x103;" horiz-adv-x="624" 
d="M245 -10q-90 0 -140.5 49t-50.5 147q0 86 57 136t164 50q71 0 130 -19v45q0 56 -30 80.5t-101 24.5q-50 0 -88.5 -9t-83.5 -29l-11 109q89 39 206 39q86 0 137.5 -24.5t74 -75.5t22.5 -134v-379h-97l-11 64l-3 1q-28 -36 -73 -55.5t-102 -19.5zM298 282q-64 0 -94 -23.5
t-30 -70.5q0 -95 106 -95q33 0 62 12t46 31t17 41v88q-14 7 -42 12t-65 5zM305 711q-105 0 -156.5 48t-51.5 138h99q0 -57 26 -81.5t83 -24.5t83 24.5t26 81.5h99q0 -89 -53 -137.5t-155 -48.5z" />
    <glyph glyph-name="Aogonek" unicode="&#x104;" horiz-adv-x="723" 
d="M723 -126v-70q-36 -17 -88 -17q-58 0 -89 25.5t-31 71.5q0 38 20 66t57 50h-35l-49 161h-300l-50 -161h-147l264 750h171l266 -750h-37q-36 -22 -55.5 -44t-19.5 -48q0 -25 15.5 -36t39.5 -11q38 0 68 13zM377 582l-16 57h-3l-16 -57l-98 -304h228z" />
    <glyph glyph-name="aogonek" unicode="&#x105;" horiz-adv-x="624" 
d="M564 -126v-70q-36 -17 -88 -17q-58 0 -89 25.5t-31 71.5q0 39 20 67t58 50l-11 63l-3 1q-28 -36 -73 -55.5t-102 -19.5q-90 0 -140.5 49t-50.5 147q0 86 57 136t164 50q71 0 130 -19v45q0 56 -30 80.5t-101 24.5q-50 0 -88.5 -9t-83.5 -29l-11 109q89 39 206 39
q86 0 137.5 -24.5t74 -75.5t22.5 -134v-379h-15q-36 -22 -55.5 -44t-19.5 -48q0 -25 15.5 -36t39.5 -11q38 0 68 13zM298 282q-64 0 -94 -23.5t-30 -70.5q0 -95 106 -95q33 0 62 12t46 31t17 41v88q-14 7 -42 12t-65 5z" />
    <glyph glyph-name="Cacute" unicode="&#x106;" horiz-adv-x="610" 
d="M406 636q-75 0 -118 -24t-63 -79t-20 -153q0 -103 20.5 -161.5t64 -83t119.5 -24.5q79 0 151 32l16 -115q-38 -19 -88 -30.5t-97 -11.5q-169 0 -250 96.5t-81 298.5q0 192 82.5 287t256.5 95q44 0 92.5 -9.5t81.5 -23.5l-15 -121q-70 27 -152 27zM555 987l-149 -147h-114
l115 147h148z" />
    <glyph glyph-name="cacute" unicode="&#x107;" horiz-adv-x="523" 
d="M351 495q-61 0 -96.5 -19.5t-51 -61t-15.5 -112.5q0 -107 40 -155t120 -48q67 0 118 28l9 -102q-27 -18 -67 -28t-87 -10q-132 0 -198.5 77.5t-66.5 237.5q0 154 65 231.5t203 77.5q38 0 77 -7.5t69 -19.5l-8 -112q-54 23 -111 23zM473 913l-144 -195h-114l124 195h134z
" />
    <glyph glyph-name="Ccircumflex" unicode="&#x108;" horiz-adv-x="610" 
d="M406 636q-75 0 -118 -24t-63 -79t-20 -153q0 -103 20.5 -161.5t64 -83t119.5 -24.5q79 0 151 32l16 -115q-38 -19 -88 -30.5t-97 -11.5q-169 0 -250 96.5t-81 298.5q0 192 82.5 287t256.5 95q44 0 92.5 -9.5t81.5 -23.5l-15 -121q-70 27 -152 27zM442 987l131 -147h-121
l-83 90l-83 -90h-121l130 147h147z" />
    <glyph glyph-name="ccircumflex" unicode="&#x109;" horiz-adv-x="523" 
d="M351 495q-61 0 -96.5 -19.5t-51 -61t-15.5 -112.5q0 -107 40 -155t120 -48q67 0 118 28l9 -102q-27 -18 -67 -28t-87 -10q-132 0 -198.5 77.5t-66.5 237.5q0 154 65 231.5t203 77.5q38 0 77 -7.5t69 -19.5l-8 -112q-54 23 -111 23zM356 913l140 -195h-109l-94 134
l-95 -134h-108l138 195h128z" />
    <glyph glyph-name="Cdotaccent" unicode="&#x10a;" horiz-adv-x="610" 
d="M406 636q-75 0 -118 -24t-63 -79t-20 -153q0 -103 20.5 -161.5t64 -83t119.5 -24.5q79 0 151 32l16 -115q-38 -19 -88 -30.5t-97 -11.5q-169 0 -250 96.5t-81 298.5q0 192 82.5 287t256.5 95q44 0 92.5 -9.5t81.5 -23.5l-15 -121q-70 27 -152 27zM370 837
q-43 0 -63.5 14.5t-20.5 50.5q0 66 84 66t84 -66q0 -33 -20.5 -49t-63.5 -16z" />
    <glyph glyph-name="cdotaccent" unicode="&#x10b;" horiz-adv-x="523" 
d="M351 495q-61 0 -96.5 -19.5t-51 -61t-15.5 -112.5q0 -107 40 -155t120 -48q67 0 118 28l9 -102q-27 -18 -67 -28t-87 -10q-132 0 -198.5 77.5t-66.5 237.5q0 154 65 231.5t203 77.5q38 0 77 -7.5t69 -19.5l-8 -112q-54 23 -111 23zM293 728q-43 0 -63.5 14.5t-20.5 50.5
q0 66 84 66t84 -66q0 -33 -20.5 -49t-63.5 -16z" />
    <glyph glyph-name="Ccaron" unicode="&#x10c;" horiz-adv-x="610" 
d="M406 636q-75 0 -118 -24t-63 -79t-20 -153q0 -103 20.5 -161.5t64 -83t119.5 -24.5q79 0 151 32l16 -115q-38 -19 -88 -30.5t-97 -11.5q-169 0 -250 96.5t-81 298.5q0 192 82.5 287t256.5 95q44 0 92.5 -9.5t81.5 -23.5l-15 -121q-70 27 -152 27zM286 987l83 -90l83 90
h121l-130 -147h-147l-131 147h121z" />
    <glyph glyph-name="ccaron" unicode="&#x10d;" horiz-adv-x="523" 
d="M351 495q-61 0 -96.5 -19.5t-51 -61t-15.5 -112.5q0 -107 40 -155t120 -48q67 0 118 28l9 -102q-27 -18 -67 -28t-87 -10q-132 0 -198.5 77.5t-66.5 237.5q0 154 65 231.5t203 77.5q38 0 77 -7.5t69 -19.5l-8 -112q-54 23 -111 23zM198 913l94 -134l95 134h108l-138 -195
h-128l-140 195h109z" />
    <glyph glyph-name="Dcaron" unicode="&#x10e;" horiz-adv-x="753" 
d="M354 0h-261v750h259q176 0 258.5 -89t82.5 -283q0 -188 -86.5 -283t-252.5 -95zM351 623h-120v-497h120q101 0 149.5 58t48.5 195q0 96 -21 149t-63.5 74t-113.5 21zM294 987l83 -90l83 90h121l-130 -147h-147l-131 147h121z" />
    <glyph glyph-name="dcaron" unicode="&#x10f;" horiz-adv-x="659" 
d="M791 814q0 -52 -17 -109t-43 -103h-77q15 35 25 87.5t10 96.5q0 47 -10 91h104q8 -34 8 -63zM455 58q-58 -70 -168 -70q-118 0 -174.5 77t-56.5 238q0 152 57 231t173 79q46 0 86.5 -15.5t71.5 -45.5l2 2l-2 80v206l127 7v-847h-99l-14 57zM323 496q-50 0 -79.5 -19
t-42.5 -62t-13 -117q0 -78 12.5 -122t41 -63t80.5 -19q47 0 77.5 17.5t44.5 42.5v287q-17 25 -49 40t-72 15z" />
    <glyph glyph-name="Dcroat" unicode="&#x110;" horiz-adv-x="753" 
d="M693 378q0 -188 -86.5 -283t-252.5 -95h-261v328h-77v106h77v316h259q176 0 258.5 -89t82.5 -283zM549 379q0 96 -21 149t-63.5 74t-113.5 21h-120v-189h124v-106h-124v-202h120q101 0 149.5 58t48.5 195z" />
    <glyph glyph-name="dcroat" unicode="&#x111;" horiz-adv-x="659" 
d="M571 677v-677h-99l-14 57l-3 1q-58 -70 -168 -70q-118 0 -174.5 77t-56.5 238q0 152 57 231t173 79q46 0 86.5 -15.5t71.5 -45.5l2 2l-2 80v43h-153v95h153v68l127 7v-75h97v-95h-97zM323 496q-50 0 -79.5 -19t-42.5 -62t-13 -117q0 -78 12.5 -122t41 -63t80.5 -19
q47 0 77.5 17.5t44.5 42.5v287q-17 25 -49 40t-72 15z" />
    <glyph glyph-name="Emacron" unicode="&#x112;" horiz-adv-x="640" 
d="M93 0v750h481v-125h-343v-181h292v-113h-292v-208h359v-123h-497zM180 946h323v-81h-323v81z" />
    <glyph glyph-name="emacron" unicode="&#x113;" horiz-adv-x="621" 
d="M56 304q0 149 69.5 228.5t200.5 79.5q122 0 181 -68.5t59 -212.5q0 -39 -3 -72h-375q1 -157 158 -157q101 0 184 36l12 -108q-39 -19 -92.5 -30t-112.5 -11q-146 0 -213.5 78.5t-67.5 236.5zM324 509q-64 0 -98.5 -35t-38.5 -110h255q0 77 -29.5 111t-88.5 34zM150 814
h323v-81h-323v81z" />
    <glyph glyph-name="Ebreve" unicode="&#x114;" horiz-adv-x="640" 
d="M93 0v750h481v-125h-343v-181h292v-113h-292v-208h359v-123h-497zM340 834q-96 0 -147 42.5t-51 110.5h99q0 -36 26 -57.5t73 -21.5t73 21t26 58h99q0 -67 -52.5 -110t-145.5 -43z" />
    <glyph glyph-name="ebreve" unicode="&#x115;" horiz-adv-x="621" 
d="M56 304q0 149 69.5 228.5t200.5 79.5q122 0 181 -68.5t59 -212.5q0 -39 -3 -72h-375q1 -157 158 -157q101 0 184 36l12 -108q-39 -19 -92.5 -30t-112.5 -11q-146 0 -213.5 78.5t-67.5 236.5zM324 509q-64 0 -98.5 -35t-38.5 -110h255q0 77 -29.5 111t-88.5 34zM315 711
q-105 0 -156.5 48t-51.5 138h99q0 -57 26 -81.5t83 -24.5t83 24.5t26 81.5h99q0 -89 -53 -137.5t-155 -48.5z" />
    <glyph glyph-name="Edotaccent" unicode="&#x116;" horiz-adv-x="640" 
d="M93 0v750h481v-125h-343v-181h292v-113h-292v-208h359v-123h-497zM341 837q-43 0 -63.5 14.5t-20.5 50.5q0 66 84 66t84 -66q0 -33 -20.5 -49t-63.5 -16z" />
    <glyph glyph-name="edotaccent" unicode="&#x117;" horiz-adv-x="621" 
d="M56 304q0 149 69.5 228.5t200.5 79.5q122 0 181 -68.5t59 -212.5q0 -39 -3 -72h-375q1 -157 158 -157q101 0 184 36l12 -108q-39 -19 -92.5 -30t-112.5 -11q-146 0 -213.5 78.5t-67.5 236.5zM324 509q-64 0 -98.5 -35t-38.5 -110h255q0 77 -29.5 111t-88.5 34zM315 728
q-43 0 -63.5 14.5t-20.5 50.5q0 66 84 66t84 -66q0 -33 -20.5 -49t-63.5 -16z" />
    <glyph glyph-name="Eogonek" unicode="&#x118;" horiz-adv-x="640" 
d="M598 -126v-70q-36 -17 -88 -17q-58 0 -89 25.5t-31 71.5q0 38 20 66t57 50h-374v750h481v-125h-343v-181h292v-113h-292v-208h359v-123h-40q-36 -22 -55.5 -44t-19.5 -48q0 -25 15.5 -36t39.5 -11q38 0 68 13z" />
    <glyph glyph-name="eogonek" unicode="&#x119;" horiz-adv-x="621" 
d="M563 259h-375q1 -157 158 -157q101 0 184 36l12 -108q-23 -10 -29 -12q-36 -22 -56 -44.5t-20 -48.5q0 -25 15.5 -36t39.5 -11q38 0 68 13v-70q-36 -17 -88 -17q-58 0 -89 25.5t-31 71.5q0 53 41 91q-27 -3 -56 -3q-146 0 -213.5 78.5t-67.5 236.5q0 149 69.5 228.5
t200.5 79.5q122 0 181 -68.5t59 -212.5q0 -39 -3 -72zM324 509q-64 0 -98.5 -35t-38.5 -110h255q0 77 -29.5 111t-88.5 34z" />
    <glyph glyph-name="Ecaron" unicode="&#x11a;" horiz-adv-x="640" 
d="M93 0v750h481v-125h-343v-181h292v-113h-292v-208h359v-123h-497zM257 987l83 -90l83 90h121l-130 -147h-147l-131 147h121z" />
    <glyph glyph-name="ecaron" unicode="&#x11b;" horiz-adv-x="621" 
d="M56 304q0 149 69.5 228.5t200.5 79.5q122 0 181 -68.5t59 -212.5q0 -39 -3 -72h-375q1 -157 158 -157q101 0 184 36l12 -108q-39 -19 -92.5 -30t-112.5 -11q-146 0 -213.5 78.5t-67.5 236.5zM324 509q-64 0 -98.5 -35t-38.5 -110h255q0 77 -29.5 111t-88.5 34zM220 913
l94 -134l95 134h108l-138 -195h-128l-140 195h109z" />
    <glyph glyph-name="Gcircumflex" unicode="&#x11c;" horiz-adv-x="719" 
d="M60 373q0 201 86.5 295.5t271.5 94.5q56 0 111 -9.5t99 -25.5l-14 -127q-107 37 -202 37q-75 0 -120 -24t-66 -81t-21 -158q0 -102 19.5 -159.5t62 -82t117.5 -24.5q56 0 109 14v172h-126v110h252v-370q-43 -20 -109 -34.5t-130 -14.5q-122 0 -197 42t-109 127t-34 218z
M457 987l131 -147h-121l-83 90l-83 -90h-121l130 147h147z" />
    <glyph glyph-name="gcircumflex" unicode="&#x11d;" horiz-adv-x="648" 
d="M48 -43q0 77 75 118q-61 31 -61 97q0 68 68 103q-31 25 -46 60t-15 85q0 97 61 146t181 49q50 0 92.5 -9t69.5 -24l155 13v-98h-100q15 -35 15 -81q0 -92 -59 -141.5t-174 -49.5q-67 0 -106 14q-12 -7 -19 -17t-7 -26q0 -18 12.5 -29t35.5 -13l174 -16q95 -9 145 -41
t50 -110q0 -55 -34 -97t-100 -66t-158 -24q-126 0 -190.5 40.5t-64.5 116.5zM421 420q0 55 -24.5 77.5t-85.5 22.5q-63 0 -89.5 -22.5t-26.5 -77.5t25.5 -77.5t88.5 -22.5q61 0 86.5 23.5t25.5 76.5zM473 -26q0 31 -22.5 43t-71.5 17l-173 18q-20 -11 -31 -29.5t-11 -41.5
q0 -42 34 -61.5t116 -19.5q159 0 159 74zM375 913l140 -195h-109l-94 134l-95 -134h-108l138 195h128z" />
    <glyph glyph-name="Gbreve" unicode="&#x11e;" horiz-adv-x="719" 
d="M60 373q0 201 86.5 295.5t271.5 94.5q56 0 111 -9.5t99 -25.5l-14 -127q-107 37 -202 37q-75 0 -120 -24t-66 -81t-21 -158q0 -102 19.5 -159.5t62 -82t117.5 -24.5q56 0 109 14v172h-126v110h252v-370q-43 -20 -109 -34.5t-130 -14.5q-122 0 -197 42t-109 127t-34 218z
M384 834q-96 0 -147 42.5t-51 110.5h99q0 -36 26 -57.5t73 -21.5t73 21t26 58h99q0 -67 -52.5 -110t-145.5 -43z" />
    <glyph glyph-name="gbreve" unicode="&#x11f;" horiz-adv-x="648" 
d="M48 -43q0 77 75 118q-61 31 -61 97q0 68 68 103q-31 25 -46 60t-15 85q0 97 61 146t181 49q50 0 92.5 -9t69.5 -24l155 13v-98h-100q15 -35 15 -81q0 -92 -59 -141.5t-174 -49.5q-67 0 -106 14q-12 -7 -19 -17t-7 -26q0 -18 12.5 -29t35.5 -13l174 -16q95 -9 145 -41
t50 -110q0 -55 -34 -97t-100 -66t-158 -24q-126 0 -190.5 40.5t-64.5 116.5zM421 420q0 55 -24.5 77.5t-85.5 22.5q-63 0 -89.5 -22.5t-26.5 -77.5t25.5 -77.5t88.5 -22.5q61 0 86.5 23.5t25.5 76.5zM473 -26q0 31 -22.5 43t-71.5 17l-173 18q-20 -11 -31 -29.5t-11 -41.5
q0 -42 34 -61.5t116 -19.5q159 0 159 74zM312 711q-105 0 -156.5 48t-51.5 138h99q0 -57 26 -81.5t83 -24.5t83 24.5t26 81.5h99q0 -89 -53 -137.5t-155 -48.5z" />
    <glyph glyph-name="Gdotaccent" unicode="&#x120;" horiz-adv-x="719" 
d="M60 373q0 201 86.5 295.5t271.5 94.5q56 0 111 -9.5t99 -25.5l-14 -127q-107 37 -202 37q-75 0 -120 -24t-66 -81t-21 -158q0 -102 19.5 -159.5t62 -82t117.5 -24.5q56 0 109 14v172h-126v110h252v-370q-43 -20 -109 -34.5t-130 -14.5q-122 0 -197 42t-109 127t-34 218z
M385 837q-43 0 -63.5 14.5t-20.5 50.5q0 66 84 66t84 -66q0 -33 -20.5 -49t-63.5 -16z" />
    <glyph glyph-name="gdotaccent" unicode="&#x121;" horiz-adv-x="648" 
d="M48 -43q0 77 75 118q-61 31 -61 97q0 68 68 103q-31 25 -46 60t-15 85q0 97 61 146t181 49q50 0 92.5 -9t69.5 -24l155 13v-98h-100q15 -35 15 -81q0 -92 -59 -141.5t-174 -49.5q-67 0 -106 14q-12 -7 -19 -17t-7 -26q0 -18 12.5 -29t35.5 -13l174 -16q95 -9 145 -41
t50 -110q0 -55 -34 -97t-100 -66t-158 -24q-126 0 -190.5 40.5t-64.5 116.5zM421 420q0 55 -24.5 77.5t-85.5 22.5q-63 0 -89.5 -22.5t-26.5 -77.5t25.5 -77.5t88.5 -22.5q61 0 86.5 23.5t25.5 76.5zM473 -26q0 31 -22.5 43t-71.5 17l-173 18q-20 -11 -31 -29.5t-11 -41.5
q0 -42 34 -61.5t116 -19.5q159 0 159 74zM312 728q-43 0 -63.5 14.5t-20.5 50.5q0 66 84 66t84 -66q0 -33 -20.5 -49t-63.5 -16z" />
    <glyph glyph-name="uni0122" unicode="&#x122;" horiz-adv-x="719" 
d="M60 373q0 201 86.5 295.5t271.5 94.5q56 0 111 -9.5t99 -25.5l-14 -127q-107 37 -202 37q-75 0 -120 -24t-66 -81t-21 -158q0 -102 19.5 -159.5t62 -82t117.5 -24.5q56 0 109 14v172h-126v110h252v-370q-43 -20 -109 -34.5t-130 -14.5q-122 0 -197 42t-109 127t-34 218z
M455 -129q0 -35 -14 -74t-41 -76h-89q26 61 26 130q0 30 -12 76h121q9 -32 9 -56z" />
    <glyph glyph-name="uni0123" unicode="&#x123;" horiz-adv-x="648" 
d="M262 772q0 35 14 74t41 76h89q-26 -61 -26 -130q0 -30 12 -76h-121q-9 32 -9 56zM48 -43q0 77 75 118q-61 31 -61 97q0 68 68 103q-31 25 -46 60t-15 85q0 97 61 146t181 49q50 0 92.5 -9t69.5 -24l155 13v-98h-100q15 -35 15 -81q0 -92 -59 -141.5t-174 -49.5
q-67 0 -106 14q-12 -7 -19 -17t-7 -26q0 -18 12.5 -29t35.5 -13l174 -16q95 -9 145 -41t50 -110q0 -55 -34 -97t-100 -66t-158 -24q-126 0 -190.5 40.5t-64.5 116.5zM421 420q0 55 -24.5 77.5t-85.5 22.5q-63 0 -89.5 -22.5t-26.5 -77.5t25.5 -77.5t88.5 -22.5
q61 0 86.5 23.5t25.5 76.5zM473 -26q0 31 -22.5 43t-71.5 17l-173 18q-20 -11 -31 -29.5t-11 -41.5q0 -42 34 -61.5t116 -19.5q159 0 159 74z" />
    <glyph glyph-name="Hcircumflex" unicode="&#x124;" horiz-adv-x="767" 
d="M231 322v-322h-138v750h138v-301h305v301h138v-750h-138v322h-305zM450 987l131 -147h-121l-83 90l-83 -90h-121l130 147h147z" />
    <glyph glyph-name="hcircumflex" unicode="&#x125;" horiz-adv-x="662" 
d="M225 987l131 -147h-121l-83 90l-83 -90h-121l130 147h147zM335 497q-39 0 -71.5 -15.5t-48.5 -40.5v-441h-127v779l127 7v-150l-2 -80l3 -2q63 59 159 59t149 -58.5t53 -164.5v-390h-128v390q0 107 -114 107z" />
    <glyph glyph-name="Hbar" unicode="&#x126;" horiz-adv-x="757" 
d="M226 322v-322h-138v552h-49v75h49v123h138v-123h305v123h138v-123h62v-75h-62v-552h-138v322h-305zM226 552v-103h305v103h-305z" />
    <glyph glyph-name="hbar" unicode="&#x127;" horiz-adv-x="662" 
d="M577 390v-390h-128v390q0 107 -114 107q-39 0 -71.5 -15.5t-48.5 -40.5v-441h-127v677h-80v95h80v68l127 7v-75h170v-95h-170v-41l-2 -80l3 -2q63 59 159 59t149 -58.5t53 -164.5z" />
    <glyph glyph-name="Itilde" unicode="&#x128;" horiz-adv-x="326" 
d="M233 0h-140v750h140v-750zM84 987q31 0 54.5 -12.5t44.5 -32.5q16 -15 28.5 -22.5t26.5 -7.5q47 0 53 73h68q-3 -74 -34.5 -115t-86.5 -41q-30 0 -53 12t-46 33q-17 15 -29.5 22.5t-25.5 7.5q-23 0 -36.5 -20t-15.5 -53h-70q2 72 34.5 114t87.5 42z" />
    <glyph glyph-name="itilde" unicode="&#x129;" horiz-adv-x="303" 
d="M215 605v-605h-127v598zM75 874q31 0 54.5 -12.5t44.5 -32.5q16 -15 28.5 -22.5t26.5 -7.5q47 0 53 73h68q-3 -74 -34.5 -115t-86.5 -41q-30 0 -53 12t-46 33q-17 15 -29.5 22.5t-25.5 7.5q-23 0 -36.5 -20t-15.5 -53h-70q2 72 34.5 114t87.5 42z" />
    <glyph glyph-name="Imacron" unicode="&#x12a;" horiz-adv-x="326" 
d="M233 0h-140v750h140v-750zM2 946h323v-81h-323v81z" />
    <glyph glyph-name="imacron" unicode="&#x12b;" horiz-adv-x="303" 
d="M215 605v-605h-127v598zM-13 814h323v-81h-323v81z" />
    <glyph glyph-name="Ibreve" unicode="&#x12c;" horiz-adv-x="326" 
d="M233 0h-140v750h140v-750zM162 834q-96 0 -147 42.5t-51 110.5h99q0 -36 26 -57.5t73 -21.5t73 21t26 58h99q0 -67 -52.5 -110t-145.5 -43z" />
    <glyph glyph-name="ibreve" unicode="&#x12d;" horiz-adv-x="303" 
d="M215 605v-605h-127v598zM152 711q-105 0 -156.5 48t-51.5 138h99q0 -57 26 -81.5t83 -24.5t83 24.5t26 81.5h99q0 -89 -53 -137.5t-155 -48.5z" />
    <glyph glyph-name="Iogonek" unicode="&#x12e;" horiz-adv-x="326" 
d="M261 -126v-70q-36 -17 -88 -17q-58 0 -89 25.5t-31 71.5q0 38 20 66t57 50h-37v750h140v-750h-20q-36 -22 -55.5 -44t-19.5 -48q0 -25 15.5 -36t39.5 -11q38 0 68 13z" />
    <glyph glyph-name="iogonek" unicode="&#x12f;" horiz-adv-x="303" 
d="M73 781q0 33 20 50.5t59 17.5q78 0 78 -68q0 -65 -78 -65q-41 0 -60 14.5t-19 50.5zM255 -126v-70q-36 -17 -88 -17q-58 0 -89 25.5t-31 71.5q0 38 20 66t57 50h-36v598l127 7v-605h-8q-36 -22 -55.5 -44t-19.5 -48q0 -25 15.5 -36t39.5 -11q38 0 68 13z" />
    <glyph glyph-name="Idotaccent" unicode="&#x130;" horiz-adv-x="326" 
d="M233 0h-140v750h140v-750zM163 837q-43 0 -63.5 14.5t-20.5 50.5q0 66 84 66t84 -66q0 -33 -20.5 -49t-63.5 -16z" />
    <glyph glyph-name="IJ" unicode="&#x132;" horiz-adv-x="883" 
d="M233 0h-140v750h140v-750zM525 -14q-103 0 -165 31l9 128q22 -15 61.5 -25t77.5 -10q78 0 111 37t33 121v482h141v-485q0 -138 -70 -208.5t-198 -70.5z" />
    <glyph glyph-name="ij" unicode="&#x133;" horiz-adv-x="606" 
d="M152 716q-41 0 -60 14.5t-19 50.5q0 33 20 50.5t59 17.5q78 0 78 -68q0 -65 -78 -65zM215 605v-605h-127v598zM455 716q-41 0 -60 14.5t-19 50.5q0 33 20 50.5t59 17.5q78 0 78 -68q0 -65 -78 -65zM330 -206q-54 0 -88 13l7 107q29 -9 58 -9q38 0 61 23.5t23 70.5v599
l127 7v-610q0 -96 -50 -148.5t-138 -52.5z" />
    <glyph glyph-name="Jcircumflex" unicode="&#x134;" horiz-adv-x="557" 
d="M199 -14q-103 0 -165 31l9 128q22 -15 61.5 -25t77.5 -10q78 0 111 37t33 121v482h141v-485q0 -138 -70 -208.5t-198 -70.5zM465 987l131 -147h-121l-83 90l-83 -90h-121l130 147h147z" />
    <glyph glyph-name="jcircumflex" unicode="&#x135;" horiz-adv-x="299" 
d="M24 -206q-54 0 -88 13l7 107q29 -9 58 -9q38 0 61 23.5t23 70.5v599l127 7v-610q0 -96 -50 -148.5t-138 -52.5zM208 913l140 -195h-109l-94 134l-95 -134h-108l138 195h128z" />
    <glyph glyph-name="uni0136" unicode="&#x136;" horiz-adv-x="722" 
d="M231 329v-329h-138v750h138v-306h96l202 306h161l-240 -356l253 -394h-168l-211 329h-93zM436 -129q0 -35 -14 -74t-41 -76h-89q26 61 26 130q0 30 -12 76h121q9 -32 9 -56z" />
    <glyph glyph-name="uni0137" unicode="&#x137;" horiz-adv-x="621" 
d="M449 602h144l-183 -274l189 -328h-145l-153 270h-86v-270h-127v840l127 7v-471h86zM392 -129q0 -35 -14 -74t-41 -76h-89q26 61 26 130q0 30 -12 76h121q9 -32 9 -56z" />
    <glyph glyph-name="kgreenlandic" unicode="&#x138;" horiz-adv-x="604" 
d="M438 602h144l-183 -274l189 -328h-145l-153 270h-86v-270h-127v600l127 7v-231h86z" />
    <glyph glyph-name="Lacute" unicode="&#x139;" horiz-adv-x="581" 
d="M93 0v750h139v-623h327l-3 -127h-463zM347 987l-149 -147h-114l115 147h148z" />
    <glyph glyph-name="lacute" unicode="&#x13a;" horiz-adv-x="337" 
d="M351 987l-149 -147h-114l115 147h148zM88 107v652l129 6v-618q0 -26 11 -38.5t38 -12.5q26 0 49 2.5t29 2.5v-100q-53 -8 -116 -8q-72 0 -106 28.5t-34 85.5z" />
    <glyph glyph-name="uni013B" unicode="&#x13b;" horiz-adv-x="581" 
d="M93 0v750h139v-623h327l-3 -127h-463zM396 -129q0 -35 -14 -74t-41 -76h-89q26 61 26 130q0 30 -12 76h121q9 -32 9 -56z" />
    <glyph glyph-name="uni013C" unicode="&#x13c;" horiz-adv-x="337" 
d="M88 127v713l129 6v-699q0 -26 12 -38.5t39 -12.5q26 0 61 5v-98q-42 -10 -101 -10q-75 0 -107.5 31.5t-32.5 102.5zM261 -129q0 -35 -14 -74t-41 -76h-89q26 61 26 130q0 30 -12 76h121q9 -32 9 -56z" />
    <glyph glyph-name="Lcaron" unicode="&#x13d;" horiz-adv-x="581" 
d="M499 814q0 -52 -17 -109t-43 -103h-77q15 35 25 87.5t10 96.5q0 47 -10 91h104q8 -34 8 -63zM93 0v750h139v-623h327l-3 -127h-463z" />
    <glyph glyph-name="lcaron" unicode="&#x13e;" horiz-adv-x="337" 
d="M436 814q0 -52 -17 -109t-43 -103h-77q15 35 25 87.5t10 96.5q0 47 -10 91h104q8 -34 8 -63zM88 127v712l129 6v-698q0 -26 12 -38.5t39 -12.5q26 0 61 5v-98q-42 -10 -101 -10q-75 0 -107.5 31.5t-32.5 102.5z" />
    <glyph glyph-name="Ldot" unicode="&#x13f;" horiz-adv-x="581" 
d="M93 0v750h139v-623h327l-3 -127h-463zM439 352q-41 0 -59 17.5t-18 57.5q0 76 77 76t77 -76q0 -75 -77 -75z" />
    <glyph glyph-name="ldot" unicode="&#x140;" horiz-adv-x="337" 
d="M88 127v713l129 6v-699q0 -26 12 -38.5t39 -12.5q26 0 61 5v-98q-42 -10 -101 -10q-75 0 -107.5 31.5t-32.5 102.5zM349 374q-41 0 -59 17.5t-18 57.5q0 76 77 76t77 -76q0 -75 -77 -75z" />
    <glyph glyph-name="Lslash" unicode="&#x141;" horiz-adv-x="571" 
d="M556 0h-463v291l-92 -40l-10 112l102 46v341h139v-278l156 70l12 -117l-168 -73v-225h327z" />
    <glyph glyph-name="lslash" unicode="&#x142;" horiz-adv-x="337" 
d="M329 101v-98q-42 -10 -101 -10q-75 0 -107.5 31.5t-32.5 102.5v210l-76 -43v112l76 43v390l129 6v-324l106 60v-109l-106 -61v-264q0 -26 12 -38.5t39 -12.5q26 0 61 5z" />
    <glyph glyph-name="Nacute" unicode="&#x143;" horiz-adv-x="772" 
d="M217 525l-2 -1l1 -81v-443h-123v750h120l299 -438l45 -67l2 1l-2 80v424h122v-750h-97l-320 457zM571 987l-149 -147h-114l115 147h148z" />
    <glyph glyph-name="nacute" unicode="&#x144;" horiz-adv-x="662" 
d="M183 602l14 -64h2q65 75 171 75q97 0 152 -53.5t55 -153.5v-406h-127v389q0 110 -107 110q-42 0 -75.5 -16t-52.5 -43v-440h-127v602h95zM512 913l-144 -195h-114l124 195h134z" />
    <glyph glyph-name="uni0145" unicode="&#x145;" horiz-adv-x="772" 
d="M217 525l-2 -1l1 -81v-443h-123v750h120l299 -438l45 -67l2 1l-2 80v424h122v-750h-97l-320 457zM456 -129q0 -35 -14 -74t-41 -76h-89q26 61 26 130q0 30 -12 76h121q9 -32 9 -56z" />
    <glyph glyph-name="uni0146" unicode="&#x146;" horiz-adv-x="662" 
d="M183 602l14 -64h2q65 75 171 75q97 0 152 -53.5t55 -153.5v-406h-127v389q0 110 -107 110q-42 0 -75.5 -16t-52.5 -43v-440h-127v602h95zM402 -129q0 -35 -14 -74t-41 -76h-89q26 61 26 130q0 30 -12 76h121q9 -32 9 -56z" />
    <glyph glyph-name="Ncaron" unicode="&#x147;" horiz-adv-x="772" 
d="M217 525l-2 -1l1 -81v-443h-123v750h120l299 -438l45 -67l2 1l-2 80v424h122v-750h-97l-320 457zM302 987l83 -90l83 90h121l-130 -147h-147l-131 147h121z" />
    <glyph glyph-name="ncaron" unicode="&#x148;" horiz-adv-x="662" 
d="M183 602l14 -64h2q65 75 171 75q97 0 152 -53.5t55 -153.5v-406h-127v389q0 110 -107 110q-42 0 -75.5 -16t-52.5 -43v-440h-127v602h95zM237 913l94 -134l95 134h108l-138 -195h-128l-140 195h109z" />
    <glyph glyph-name="napostrophe" unicode="&#x149;" horiz-adv-x="776" 
d="M282 602l14 -64h2q65 75 171 75q97 0 152 -53.5t55 -153.5v-406h-127v389q0 110 -107 110q-42 0 -75.5 -16t-52.5 -43v-440h-127v602h95zM150 729q0 -50 -29 -110.5t-67 -109.5l-61 11l53 137q-28 8 -46 28t-18 51q0 35 22 58t61 23q40 0 62.5 -25t22.5 -63z" />
    <glyph glyph-name="Eng" unicode="&#x14a;" horiz-adv-x="752" 
d="M473 -180q-82 0 -132 31l16 114q19 -13 47 -23t60 -10q39 0 59 27t21 82l-293 417l-44 67l-2 -1l1 -78v-446h-123v750h120l301 -441l43 -65l2 1l-2 79v426h122v-694q0 -236 -196 -236z" />
    <glyph glyph-name="eng" unicode="&#x14b;" horiz-adv-x="677" 
d="M308 -193l7 107q29 -9 58 -9q38 0 61 23.5t23 70.5v390q0 110 -107 110q-42 0 -75.5 -16t-52.5 -43v-440h-127v602h95l14 -64h2q65 75 171 75q97 0 152 -53.5t55 -153.5v-411q0 -96 -50 -148.5t-138 -52.5q-54 0 -88 13z" />
    <glyph glyph-name="Omacron" unicode="&#x14c;" horiz-adv-x="762" 
d="M382 -14q-114 0 -184.5 41t-104 126.5t-33.5 221.5q0 137 33 221.5t103.5 125t185.5 40.5t185 -40.5t102.5 -125t32.5 -221.5q0 -138 -32.5 -223.5t-102.5 -125.5t-185 -40zM381 635q-67 0 -104.5 -22.5t-54.5 -78t-17 -159.5t17.5 -160t55 -79t104.5 -23t104.5 23
t54.5 79.5t17 159.5q0 104 -17 160t-54.5 78t-105.5 22zM222 946h323v-81h-323v81z" />
    <glyph glyph-name="omacron" unicode="&#x14d;" horiz-adv-x="649" 
d="M326 -14q-141 0 -205.5 73.5t-64.5 239.5q0 165 65 239.5t205 74.5q141 0 204 -74t63 -240q0 -112 -28 -180.5t-86.5 -100.5t-152.5 -32zM326 93q51 0 80 19t42.5 63.5t13.5 123.5t-13.5 123.5t-42.5 63.5t-80 19t-81 -19t-43.5 -63.5t-13.5 -123.5t14 -123.5t43.5 -63.5
t80.5 -19zM169 814h323v-81h-323v81z" />
    <glyph glyph-name="Obreve" unicode="&#x14e;" horiz-adv-x="762" 
d="M382 -14q-114 0 -184.5 41t-104 126.5t-33.5 221.5q0 137 33 221.5t103.5 125t185.5 40.5t185 -40.5t102.5 -125t32.5 -221.5q0 -138 -32.5 -223.5t-102.5 -125.5t-185 -40zM381 635q-67 0 -104.5 -22.5t-54.5 -78t-17 -159.5t17.5 -160t55 -79t104.5 -23t104.5 23
t54.5 79.5t17 159.5q0 104 -17 160t-54.5 78t-105.5 22zM382 834q-96 0 -147 42.5t-51 110.5h99q0 -36 26 -57.5t73 -21.5t73 21t26 58h99q0 -67 -52.5 -110t-145.5 -43z" />
    <glyph glyph-name="obreve" unicode="&#x14f;" horiz-adv-x="649" 
d="M326 -14q-141 0 -205.5 73.5t-64.5 239.5q0 165 65 239.5t205 74.5q141 0 204 -74t63 -240q0 -112 -28 -180.5t-86.5 -100.5t-152.5 -32zM326 93q51 0 80 19t42.5 63.5t13.5 123.5t-13.5 123.5t-42.5 63.5t-80 19t-81 -19t-43.5 -63.5t-13.5 -123.5t14 -123.5t43.5 -63.5
t80.5 -19zM334 711q-105 0 -156.5 48t-51.5 138h99q0 -57 26 -81.5t83 -24.5t83 24.5t26 81.5h99q0 -89 -53 -137.5t-155 -48.5z" />
    <glyph glyph-name="Ohungarumlaut" unicode="&#x150;" horiz-adv-x="762" 
d="M382 -14q-114 0 -184.5 41t-104 126.5t-33.5 221.5q0 137 33 221.5t103.5 125t185.5 40.5t185 -40.5t102.5 -125t32.5 -221.5q0 -138 -32.5 -223.5t-102.5 -125.5t-185 -40zM381 635q-67 0 -104.5 -22.5t-54.5 -78t-17 -159.5t17.5 -160t55 -79t104.5 -23t104.5 23
t54.5 79.5t17 159.5q0 104 -17 160t-54.5 78t-105.5 22zM472 987l-127 -147h-114l93 147h148zM693 987l-127 -147h-114l93 147h148z" />
    <glyph glyph-name="ohungarumlaut" unicode="&#x151;" horiz-adv-x="649" 
d="M326 -14q-141 0 -205.5 73.5t-64.5 239.5q0 165 65 239.5t205 74.5q141 0 204 -74t63 -240q0 -112 -28 -180.5t-86.5 -100.5t-152.5 -32zM326 93q51 0 80 19t42.5 63.5t13.5 123.5t-13.5 123.5t-42.5 63.5t-80 19t-81 -19t-43.5 -63.5t-13.5 -123.5t14 -123.5t43.5 -63.5
t80.5 -19zM187 718l116 195h112l-138 -195h-90zM388 718l124 195h114l-148 -195h-90z" />
    <glyph glyph-name="OE" unicode="&#x152;" horiz-adv-x="1111" 
d="M574 73q-64 -87 -208 -87q-152 0 -224 94t-72 295q0 202 71.5 294.5t225.5 92.5q142 0 208 -78h2v66h468v-125h-344v-181h292v-113h-292v-208h360v-123h-484v72zM391 636q-66 0 -104 -22.5t-55 -78.5t-17 -160t17.5 -160t55 -79t104.5 -23t104 23t53.5 79t16.5 160
q0 105 -16.5 160.5t-53.5 78t-105 22.5z" />
    <glyph glyph-name="oe" unicode="&#x153;" horiz-adv-x="1034" 
d="M64 299q0 165 65 239.5t205 74.5q73 0 122.5 -20.5t79.5 -64.5q66 84 196 84q122 0 181 -68.5t59 -212.5q0 -41 -3 -68h-375q1 -161 158 -161q101 0 184 36l12 -108q-39 -19 -92.5 -30t-112.5 -11q-142 0 -207 80q-30 -42 -79.5 -62.5t-122.5 -20.5q-141 0 -205.5 73.5
t-64.5 239.5zM730 509q-64 0 -98.5 -35t-38.5 -110h255q0 77 -29.5 111t-88.5 34zM470 299q0 79 -13.5 123.5t-42.5 63.5t-80 19t-81 -19t-43.5 -63.5t-13.5 -123.5t14 -123.5t43.5 -63.5t80.5 -19t80 19t42.5 63.5t13.5 123.5z" />
    <glyph glyph-name="Racute" unicode="&#x154;" horiz-adv-x="695" 
d="M484 322l185 -322h-162l-148 295h-128v-295h-138v750h265q133 0 197 -55t64 -170q0 -82 -35 -134.5t-100 -68.5zM359 632h-128v-230h124q65 0 93 26t28 92q0 62 -27 87t-90 25zM541 987l-149 -147h-114l115 147h148z" />
    <glyph glyph-name="racute" unicode="&#x155;" horiz-adv-x="462" 
d="M192 602l9 -111h3q29 60 70.5 90t104.5 30q39 0 65 -8l-8 -129q-32 10 -67 10q-70 0 -112 -48.5t-42 -132.5v-303h-127v602h104zM424 913l-144 -195h-114l124 195h134z" />
    <glyph glyph-name="uni0156" unicode="&#x156;" horiz-adv-x="695" 
d="M484 322l185 -322h-162l-148 295h-128v-295h-138v750h265q133 0 197 -55t64 -170q0 -82 -35 -134.5t-100 -68.5zM359 632h-128v-230h124q65 0 93 26t28 92q0 62 -27 87t-90 25zM422 -129q0 -35 -14 -74t-41 -76h-89q26 61 26 130q0 30 -12 76h121q9 -32 9 -56z" />
    <glyph glyph-name="uni0157" unicode="&#x157;" horiz-adv-x="462" 
d="M192 602l9 -111h3q29 60 70.5 90t104.5 30q39 0 65 -8l-8 -129q-32 10 -67 10q-70 0 -112 -48.5t-42 -132.5v-303h-127v602h104zM224 -129q0 -35 -14 -74t-41 -76h-89q26 61 26 130q0 30 -12 76h121q9 -32 9 -56z" />
    <glyph glyph-name="Rcaron" unicode="&#x158;" horiz-adv-x="695" 
d="M484 322l185 -322h-162l-148 295h-128v-295h-138v750h265q133 0 197 -55t64 -170q0 -82 -35 -134.5t-100 -68.5zM359 632h-128v-230h124q65 0 93 26t28 92q0 62 -27 87t-90 25zM272 987l83 -90l83 90h121l-130 -147h-147l-131 147h121z" />
    <glyph glyph-name="rcaron" unicode="&#x159;" horiz-adv-x="462" 
d="M192 602l9 -111h3q29 60 70.5 90t104.5 30q39 0 65 -8l-8 -129q-32 10 -67 10q-70 0 -112 -48.5t-42 -132.5v-303h-127v602h104zM149 913l94 -134l95 134h108l-138 -195h-128l-140 195h109z" />
    <glyph glyph-name="Sacute" unicode="&#x15a;" horiz-adv-x="600" 
d="M282 -14q-127 0 -226 56l19 123q98 -56 206 -56q136 0 136 102q0 28 -18.5 47.5t-46 32.5t-75.5 30q-69 25 -112 47.5t-74 65t-31 108.5q0 98 65.5 159.5t194.5 61.5q55 0 109 -10.5t96 -29.5l-18 -119q-94 34 -180 34q-71 0 -102.5 -24.5t-31.5 -64.5q0 -27 18 -46
t44.5 -31t75.5 -29q69 -24 112.5 -46.5t75 -65.5t31.5 -111q0 -109 -70.5 -171.5t-197.5 -62.5zM488 987l-149 -147h-114l115 147h148z" />
    <glyph glyph-name="sacute" unicode="&#x15b;" horiz-adv-x="528" 
d="M246 -12q-113 0 -193 37l11 114q37 -21 82.5 -33t94.5 -12q61 0 88.5 20t27.5 53q0 30 -28 47t-91 34t-101 37.5t-59 56t-21 92.5q0 81 58.5 129.5t169.5 48.5q99 0 175 -32l-10 -112q-79 35 -170 35q-46 0 -72 -18t-26 -52q0 -32 24.5 -48.5t80.5 -30.5
q69 -17 108.5 -35.5t60.5 -49.5t21 -84q0 -90 -57 -143.5t-174 -53.5zM450 913l-144 -195h-114l124 195h134z" />
    <glyph glyph-name="Scircumflex" unicode="&#x15c;" horiz-adv-x="600" 
d="M282 -14q-127 0 -226 56l19 123q98 -56 206 -56q136 0 136 102q0 28 -18.5 47.5t-46 32.5t-75.5 30q-69 25 -112 47.5t-74 65t-31 108.5q0 98 65.5 159.5t194.5 61.5q55 0 109 -10.5t96 -29.5l-18 -119q-94 34 -180 34q-71 0 -102.5 -24.5t-31.5 -64.5q0 -27 18 -46
t44.5 -31t75.5 -29q69 -24 112.5 -46.5t75 -65.5t31.5 -111q0 -109 -70.5 -171.5t-197.5 -62.5zM375 987l131 -147h-121l-83 90l-83 -90h-121l130 147h147z" />
    <glyph glyph-name="scircumflex" unicode="&#x15d;" horiz-adv-x="528" 
d="M246 -12q-113 0 -193 37l11 114q37 -21 82.5 -33t94.5 -12q61 0 88.5 20t27.5 53q0 30 -28 47t-91 34t-101 37.5t-59 56t-21 92.5q0 81 58.5 129.5t169.5 48.5q99 0 175 -32l-10 -112q-79 35 -170 35q-46 0 -72 -18t-26 -52q0 -32 24.5 -48.5t80.5 -30.5
q69 -17 108.5 -35.5t60.5 -49.5t21 -84q0 -90 -57 -143.5t-174 -53.5zM333 913l140 -195h-109l-94 134l-95 -134h-108l138 195h128z" />
    <glyph glyph-name="Scedilla" unicode="&#x15e;" horiz-adv-x="600" 
d="M351 -9l-34 -201h-116l61 196q-114 4 -206 56l19 123q98 -56 206 -56q136 0 136 102q0 28 -18.5 47.5t-46 32.5t-75.5 30q-69 25 -112 47.5t-74 65t-31 108.5q0 98 65.5 159.5t194.5 61.5q55 0 109 -10.5t96 -29.5l-18 -119q-94 34 -180 34q-71 0 -102.5 -24.5
t-31.5 -64.5q0 -27 18 -46t44.5 -31t75.5 -29q69 -24 112.5 -46.5t75 -65.5t31.5 -111q0 -93 -52 -153t-147 -76z" />
    <glyph glyph-name="scedilla" unicode="&#x15f;" horiz-adv-x="528" 
d="M315 -6l-34 -204h-116l62 198q-99 3 -174 37l11 114q37 -21 82.5 -33t94.5 -12q61 0 88.5 20t27.5 53q0 30 -28 47t-91 34t-101 37.5t-59 56t-21 92.5q0 81 58.5 129.5t169.5 48.5q99 0 175 -32l-10 -112q-79 35 -170 35q-46 0 -72 -18t-26 -52q0 -32 24.5 -48.5
t80.5 -30.5q69 -17 108.5 -35.5t60.5 -49.5t21 -84q0 -75 -40 -125.5t-122 -65.5z" />
    <glyph glyph-name="Scaron" unicode="&#x160;" horiz-adv-x="600" 
d="M282 -14q-127 0 -226 56l19 123q98 -56 206 -56q136 0 136 102q0 28 -18.5 47.5t-46 32.5t-75.5 30q-69 25 -112 47.5t-74 65t-31 108.5q0 98 65.5 159.5t194.5 61.5q55 0 109 -10.5t96 -29.5l-18 -119q-94 34 -180 34q-71 0 -102.5 -24.5t-31.5 -64.5q0 -27 18 -46
t44.5 -31t75.5 -29q69 -24 112.5 -46.5t75 -65.5t31.5 -111q0 -109 -70.5 -171.5t-197.5 -62.5zM219 987l83 -90l83 90h121l-130 -147h-147l-131 147h121z" />
    <glyph glyph-name="scaron" unicode="&#x161;" horiz-adv-x="528" 
d="M246 -12q-113 0 -193 37l11 114q37 -21 82.5 -33t94.5 -12q61 0 88.5 20t27.5 53q0 30 -28 47t-91 34t-101 37.5t-59 56t-21 92.5q0 81 58.5 129.5t169.5 48.5q99 0 175 -32l-10 -112q-79 35 -170 35q-46 0 -72 -18t-26 -52q0 -32 24.5 -48.5t80.5 -30.5
q69 -17 108.5 -35.5t60.5 -49.5t21 -84q0 -90 -57 -143.5t-174 -53.5zM175 913l94 -134l95 134h108l-138 -195h-128l-140 195h109z" />
    <glyph glyph-name="Tcaron" unicode="&#x164;" horiz-adv-x="602" 
d="M231 0v622h-209v128h559v-128h-210v-622h-140zM217 987l83 -90l83 90h121l-130 -147h-147l-131 147h121z" />
    <glyph glyph-name="tcaron" unicode="&#x165;" horiz-adv-x="439" 
d="M456 904q0 -52 -17 -109t-43 -103h-77q15 35 25 87.5t10 96.5q0 47 -10 91h104q8 -34 8 -63zM109 160v345h-94v97h94l19 180h109v-180h166v-97h-166v-318q0 -52 17 -72t59 -20q25 0 50.5 5t40.5 12v-100q-54 -22 -122 -22q-92 0 -132.5 41.5t-40.5 128.5z" />
    <glyph glyph-name="Tbar" unicode="&#x166;" horiz-adv-x="602" 
d="M371 389h137v-90h-137v-299h-140v299h-149v90h149v233h-209v128h559v-128h-210v-233z" />
    <glyph glyph-name="tbar" unicode="&#x167;" horiz-adv-x="439" 
d="M237 187q0 -52 17 -72t59 -20q25 0 50.5 5t40.5 12v-100q-54 -22 -122 -22q-92 0 -132.5 41.5t-40.5 128.5v107h-86v94h86v144h-94v97h94l19 180h109v-180h166v-97h-166v-144h183v-94h-183v-80z" />
    <glyph glyph-name="Utilde" unicode="&#x168;" horiz-adv-x="765" 
d="M383 -14q-295 0 -295 283v481h137v-480q0 -81 38.5 -118.5t119.5 -37.5t118.5 37.5t37.5 118.5v480h138v-481q0 -283 -294 -283zM303 987q31 0 54.5 -12.5t44.5 -32.5q16 -15 28.5 -22.5t26.5 -7.5q47 0 53 73h68q-3 -74 -34.5 -115t-86.5 -41q-30 0 -53 12t-46 33
q-17 15 -29.5 22.5t-25.5 7.5q-23 0 -36.5 -20t-15.5 -53h-70q2 72 34.5 114t87.5 42z" />
    <glyph glyph-name="utilde" unicode="&#x169;" horiz-adv-x="662" 
d="M479 0l-14 71h-2q-64 -82 -175 -82q-96 0 -149.5 52.5t-53.5 162.5v398h127v-389q0 -57 26.5 -84t81.5 -27q43 0 75.5 18.5t51.5 47.5v434h127v-602h-95zM254 874q31 0 54.5 -12.5t44.5 -32.5q16 -15 28.5 -22.5t26.5 -7.5q47 0 53 73h68q-3 -74 -34.5 -115t-86.5 -41
q-30 0 -53 12t-46 33q-17 15 -29.5 22.5t-25.5 7.5q-23 0 -36.5 -20t-15.5 -53h-70q2 72 34.5 114t87.5 42z" />
    <glyph glyph-name="Umacron" unicode="&#x16a;" horiz-adv-x="765" 
d="M383 -14q-295 0 -295 283v481h137v-480q0 -81 38.5 -118.5t119.5 -37.5t118.5 37.5t37.5 118.5v480h138v-481q0 -283 -294 -283zM221 946h323v-81h-323v81z" />
    <glyph glyph-name="umacron" unicode="&#x16b;" horiz-adv-x="662" 
d="M479 0l-14 71h-2q-64 -82 -175 -82q-96 0 -149.5 52.5t-53.5 162.5v398h127v-389q0 -57 26.5 -84t81.5 -27q43 0 75.5 18.5t51.5 47.5v434h127v-602h-95zM166 814h323v-81h-323v81z" />
    <glyph glyph-name="Ubreve" unicode="&#x16c;" horiz-adv-x="765" 
d="M383 -14q-295 0 -295 283v481h137v-480q0 -81 38.5 -118.5t119.5 -37.5t118.5 37.5t37.5 118.5v480h138v-481q0 -283 -294 -283zM381 834q-96 0 -147 42.5t-51 110.5h99q0 -36 26 -57.5t73 -21.5t73 21t26 58h99q0 -67 -52.5 -110t-145.5 -43z" />
    <glyph glyph-name="ubreve" unicode="&#x16d;" horiz-adv-x="662" 
d="M479 0l-14 71h-2q-64 -82 -175 -82q-96 0 -149.5 52.5t-53.5 162.5v398h127v-389q0 -57 26.5 -84t81.5 -27q43 0 75.5 18.5t51.5 47.5v434h127v-602h-95zM331 711q-105 0 -156.5 48t-51.5 138h99q0 -57 26 -81.5t83 -24.5t83 24.5t26 81.5h99q0 -89 -53 -137.5
t-155 -48.5z" />
    <glyph glyph-name="Uring" unicode="&#x16e;" horiz-adv-x="765" 
d="M383 -14q-295 0 -295 283v481h137v-480q0 -81 38.5 -118.5t119.5 -37.5t118.5 37.5t37.5 118.5v480h138v-481q0 -283 -294 -283zM385 987q75 0 115 -31.5t40 -80.5q0 -52 -39 -80.5t-116 -28.5q-158 0 -158 109q0 52 39.5 82t118.5 30zM385 831q39 0 58 12t19 32
q0 21 -18.5 34t-58.5 13q-80 0 -80 -47q0 -44 80 -44z" />
    <glyph glyph-name="uring" unicode="&#x16f;" horiz-adv-x="662" 
d="M479 0l-14 71h-2q-64 -82 -175 -82q-96 0 -149.5 52.5t-53.5 162.5v398h127v-389q0 -57 26.5 -84t81.5 -27q43 0 75.5 18.5t51.5 47.5v434h127v-602h-95zM331 959q76 0 115.5 -34.5t39.5 -90.5q0 -59 -39 -90.5t-116 -31.5q-79 0 -118.5 30t-39.5 92q0 58 38.5 91.5
t119.5 33.5zM331 777q77 0 77 57q0 60 -77 60q-44 0 -62 -15.5t-18 -44.5q0 -28 18 -42.5t62 -14.5z" />
    <glyph glyph-name="Uhungarumlaut" unicode="&#x170;" horiz-adv-x="765" 
d="M383 -14q-295 0 -295 283v481h137v-480q0 -81 38.5 -118.5t119.5 -37.5t118.5 37.5t37.5 118.5v480h138v-481q0 -283 -294 -283zM471 987l-127 -147h-114l93 147h148zM692 987l-127 -147h-114l93 147h148z" />
    <glyph glyph-name="uhungarumlaut" unicode="&#x171;" horiz-adv-x="662" 
d="M479 0l-14 71h-2q-64 -82 -175 -82q-96 0 -149.5 52.5t-53.5 162.5v398h127v-389q0 -57 26.5 -84t81.5 -27q43 0 75.5 18.5t51.5 47.5v434h127v-602h-95zM184 718l116 195h112l-138 -195h-90zM385 718l124 195h114l-148 -195h-90z" />
    <glyph glyph-name="Uogonek" unicode="&#x172;" horiz-adv-x="765" 
d="M677 269q0 -190 -133 -252q-35 -22 -54.5 -44.5t-19.5 -47.5t15.5 -36t39.5 -11q38 0 68 13v-70q-36 -17 -88 -17q-58 0 -89 25.5t-31 71.5q0 51 37 86q-13 -1 -39 -1q-295 0 -295 283v481h137v-480q0 -81 38.5 -118.5t119.5 -37.5t118.5 37.5t37.5 118.5v480h138v-481z
" />
    <glyph glyph-name="uogonek" unicode="&#x173;" horiz-adv-x="662" 
d="M606 -126v-70q-36 -17 -88 -17q-58 0 -89 25.5t-31 71.5q0 40 21 68t60 50l-14 69h-2q-64 -82 -175 -82q-96 0 -149.5 52.5t-53.5 162.5v398h127v-389q0 -57 26.5 -84t81.5 -27q43 0 75.5 18.5t51.5 47.5v434h127v-602h-16q-36 -22 -55.5 -44t-19.5 -48q0 -25 15.5 -36
t39.5 -11q38 0 68 13z" />
    <glyph glyph-name="Wcircumflex" unicode="&#x174;" horiz-adv-x="1028" 
d="M729 135h3l14 79l107 536h137l-178 -750h-167l-114 535l-15 80h-3l-16 -80l-114 -535h-166l-179 750h143l107 -539l15 -79h3l15 79l121 539h150l120 -536zM584 987l131 -147h-121l-83 90l-83 -90h-121l130 147h147z" />
    <glyph glyph-name="wcircumflex" unicode="&#x175;" horiz-adv-x="882" 
d="M634 99h3l14 83l87 420h124l-146 -602h-158l-93 388l-17 90h-3l-19 -90l-96 -388h-156l-154 602h128l91 -419l15 -82h3l17 82l105 419h132l106 -421zM505 913l140 -195h-109l-94 134l-95 -134h-108l138 195h128z" />
    <glyph glyph-name="Ycircumflex" unicode="&#x176;" horiz-adv-x="665" 
d="M336 371h3l31 74l141 305h151l-257 -504v-246h-141v246l-261 504h156l144 -306zM415 987l131 -147h-121l-83 90l-83 -90h-121l130 147h147z" />
    <glyph glyph-name="ycircumflex" unicode="&#x177;" horiz-adv-x="610" 
d="M230 -26l16 40l-240 588h146l131 -380l23 -77h3l24 79l135 378h136l-244 -627q-23 -59 -49.5 -98.5t-69.5 -63t-108 -23.5q-54 0 -95 15v108q38 -18 85 -18q40 0 66 20t41 59zM386 913l140 -195h-109l-94 134l-95 -134h-108l138 195h128z" />
    <glyph glyph-name="Ydieresis" unicode="&#x178;" horiz-adv-x="665" 
d="M336 371h3l31 74l141 305h151l-257 -504v-246h-141v246l-261 504h156l144 -306zM158 900q0 70 68 70q70 0 70 -70q0 -69 -70 -69q-35 0 -51.5 16t-16.5 53zM391 900q0 70 70 70q68 0 68 -70q0 -35 -16.5 -52t-51.5 -17q-36 0 -53 16t-17 53z" />
    <glyph glyph-name="Zacute" unicode="&#x179;" horiz-adv-x="641" 
d="M371 556l46 64l-1 2h-349v128h517v-104l-309 -453l-46 -63l1 -3h355v-127h-530v92zM494 987l-149 -147h-114l115 147h148z" />
    <glyph glyph-name="zacute" unicode="&#x17a;" horiz-adv-x="540" 
d="M199 108h295l-4 -108h-440v91l242 337l48 63l-1 2h-280l5 109h423v-91l-241 -338l-48 -62zM450 913l-144 -195h-114l124 195h134z" />
    <glyph glyph-name="Zdotaccent" unicode="&#x17b;" horiz-adv-x="641" 
d="M371 556l46 64l-1 2h-349v128h517v-104l-309 -453l-46 -63l1 -3h355v-127h-530v92zM309 837q-43 0 -63.5 14.5t-20.5 50.5q0 66 84 66t84 -66q0 -33 -20.5 -49t-63.5 -16z" />
    <glyph glyph-name="zdotaccent" unicode="&#x17c;" horiz-adv-x="540" 
d="M199 108h295l-4 -108h-440v91l242 337l48 63l-1 2h-280l5 109h423v-91l-241 -338l-48 -62zM270 728q-43 0 -63.5 14.5t-20.5 50.5q0 66 84 66t84 -66q0 -33 -20.5 -49t-63.5 -16z" />
    <glyph glyph-name="Zcaron" unicode="&#x17d;" horiz-adv-x="641" 
d="M371 556l46 64l-1 2h-349v128h517v-104l-309 -453l-46 -63l1 -3h355v-127h-530v92zM225 987l83 -90l83 90h121l-130 -147h-147l-131 147h121z" />
    <glyph glyph-name="zcaron" unicode="&#x17e;" horiz-adv-x="540" 
d="M199 108h295l-4 -108h-440v91l242 337l48 63l-1 2h-280l5 109h423v-91l-241 -338l-48 -62zM175 913l94 -134l95 134h108l-138 -195h-128l-140 195h109z" />
    <glyph glyph-name="longs" unicode="&#x17f;" horiz-adv-x="320" 
d="M347 805l6 -88q-53 0 -83.5 -9.5t-45.5 -36.5t-15 -78v-501q0 -124 -59.5 -181.5t-176.5 -68.5l-8 87q44 7 69.5 23.5t37.5 49.5t12 90v416h-79l4 86h75q1 76 25.5 122t82 67.5t155.5 21.5z" />
    <glyph glyph-name="uni018F" unicode="&#x18f;" horiz-adv-x="745" 
d="M51 361q0 39 3 70h491q-5 81 -27 126.5t-67 65t-121 19.5q-61 0 -117 -9.5t-97 -25.5l-18 115q110 41 252 41q170 0 255.5 -91.5t85.5 -298.5q0 -134 -32.5 -219t-103 -126t-185.5 -41q-107 0 -177 35.5t-106 118t-36 220.5zM546 324h-350v-9q0 -79 17.5 -124t55.5 -65
t102 -20q62 0 98.5 21t54.5 68t22 129z" />
    <glyph glyph-name="florin" unicode="&#x192;" horiz-adv-x="655" 
d="M198 502l21 99h62l9 43q14 65 66 104.5t136 39.5q47 0 88 -13l-26 -85q-26 8 -54 8q-72 0 -83 -56l-8 -41h131l-20 -99h-132l-142 -653h-126l141 653h-63z" />
    <glyph glyph-name="uni01B5" unicode="&#x1b5;" horiz-adv-x="617" 
d="M585 0h-530v92l163 239h-145v96h210l88 129l46 64l-1 2h-349v128h517v-104l-149 -219h108v-96h-174l-94 -138l-46 -63l1 -3h355v-127z" />
    <glyph glyph-name="uni01B6" unicode="&#x1b6;" horiz-adv-x="540" 
d="M490 0h-440v91l118 165h-103v96h172l55 76l48 63l-1 2h-280l5 109h423v-91l-113 -159h111v-96h-180l-59 -83l-48 -62l1 -3h295z" />
    <glyph glyph-name="Aringacute" unicode="&#x1fa;" horiz-adv-x="723" 
d="M287 840l115 147h148l-149 -147h-114zM557 0l-49 135h-300l-50 -135h-147l256 600q-60 26 -60 93q0 51 39 81.5t119 30.5q75 0 115 -31.5t40 -80.5q0 -69 -65 -94l257 -599h-155zM285 693q0 -44 80 -44q39 0 58 12.5t19 31.5q0 21 -18 34t-59 13q-80 0 -80 -47zM382 478
l-21 65h-3l-23 -65l-91 -245h228z" />
    <glyph glyph-name="aringacute" unicode="&#x1fb;" horiz-adv-x="624" 
d="M237 840l115 147h148l-149 -147h-114zM531 379v-379h-97l-11 64l-3 1q-28 -36 -73 -55.5t-102 -19.5q-90 0 -140.5 49t-50.5 147q0 86 57 136t164 50q71 0 130 -19v45q0 56 -30 80.5t-101 24.5q-50 0 -88.5 -9t-83.5 -29l-11 109q56 25 124 34q-65 26 -65 95
q0 51 39 81.5t119 30.5q75 0 115 -31.5t40 -80.5q0 -36 -19 -61t-57 -38q77 -17 110.5 -71t33.5 -154zM228 703q0 -44 80 -44q39 0 58 12.5t19 31.5q0 21 -18 34t-59 13q-80 0 -80 -47zM298 282q-64 0 -94 -23.5t-30 -70.5q0 -95 106 -95q33 0 62 12t46 31t17 41v88
q-14 7 -42 12t-65 5z" />
    <glyph glyph-name="AEacute" unicode="&#x1fc;" horiz-adv-x="1032" 
d="M914 444v-113h-272l17 -208h323l-3 -123h-450l-12 162h-281l-80 -162h-164l410 750h566l3 -125h-352l14 -181h281zM508 278l-22 299l-4 81l-3 1l-34 -74l-152 -307h215zM757 987l-149 -147h-114l115 147h148z" />
    <glyph glyph-name="aeacute" unicode="&#x1fd;" horiz-adv-x="977" 
d="M468 91h-4q-22 -45 -70.5 -73t-122.5 -28q-211 0 -211 196q0 86 57 136t164 50q71 0 130 -19v45q0 56 -30 80.5t-101 24.5q-50 0 -88.5 -9t-83.5 -29l-11 109q88 39 206 39q69 0 115 -17.5t71 -54.5h5q66 71 181 71q122 0 181 -68.5t59 -212.5q0 -41 -3 -68h-375
q1 -161 158 -161q101 0 184 36l12 -108q-39 -19 -92.5 -30t-112.5 -11q-156 0 -218 102zM673 509q-64 0 -98.5 -35t-38.5 -110h257q0 77 -30 111t-90 34zM411 209v56q-14 7 -42 12t-65 5q-64 0 -94 -23.5t-30 -70.5q0 -95 106 -95q57 0 91 33t34 83zM679 913l-144 -195h-114
l124 195h134z" />
    <glyph glyph-name="Oslashacute" unicode="&#x1fe;" horiz-adv-x="762" 
d="M305 840l115 147h148l-149 -147h-114zM702 375q0 -138 -32.5 -223.5t-102.5 -125.5t-185 -40q-138 0 -213 60l-84 -104l-73 56l97 121q-49 92 -49 256q0 137 33 221.5t103.5 125t185.5 40.5q130 0 204 -53l81 100l72 -54l-91 -114q54 -90 54 -266zM214 248l287 355
q-20 17 -49 24.5t-71 7.5q-67 0 -104.5 -22.5t-54.5 -78t-17 -159.5q0 -76 9 -127zM546 515l-291 -361q21 -22 52 -31.5t75 -9.5q67 0 104.5 23t54.5 79.5t17 159.5q0 86 -12 140z" />
    <glyph glyph-name="oslashacute" unicode="&#x1ff;" horiz-adv-x="649" 
d="M593 299q0 -112 -28 -180.5t-86.5 -100.5t-152.5 -32q-107 0 -168 41l-60 -71l-68 58l67 80q-41 72 -41 205q0 165 65 239.5t205 74.5q109 0 171 -44l75 90l69 -58l-85 -101q37 -73 37 -201zM194 209l224 267q-29 29 -92 29q-51 0 -81 -19t-43.5 -63.5t-13.5 -123.5
q0 -52 6 -90zM457 383l-222 -264q30 -26 91 -26q51 0 80 19t42.5 63.5t13.5 123.5q0 44 -5 84zM514 913l-144 -195h-114l124 195h134z" />
    <glyph glyph-name="uni0218" unicode="&#x218;" horiz-adv-x="600" 
d="M282 -14q-127 0 -226 56l19 123q98 -56 206 -56q136 0 136 102q0 28 -18.5 47.5t-46 32.5t-75.5 30q-69 25 -112 47.5t-74 65t-31 108.5q0 98 65.5 159.5t194.5 61.5q55 0 109 -10.5t96 -29.5l-18 -119q-94 34 -180 34q-71 0 -102.5 -24.5t-31.5 -64.5q0 -27 18 -46
t44.5 -31t75.5 -29q69 -24 112.5 -46.5t75 -65.5t31.5 -111q0 -109 -70.5 -171.5t-197.5 -62.5zM358 -129q0 -35 -14 -74t-41 -76h-89q26 61 26 130q0 30 -12 76h121q9 -32 9 -56z" />
    <glyph glyph-name="uni0219" unicode="&#x219;" horiz-adv-x="528" 
d="M246 -12q-113 0 -193 37l11 114q37 -21 82.5 -33t94.5 -12q61 0 88.5 20t27.5 53q0 30 -28 47t-91 34t-101 37.5t-59 56t-21 92.5q0 81 58.5 129.5t169.5 48.5q99 0 175 -32l-10 -112q-79 35 -170 35q-46 0 -72 -18t-26 -52q0 -32 24.5 -48.5t80.5 -30.5
q69 -17 108.5 -35.5t60.5 -49.5t21 -84q0 -90 -57 -143.5t-174 -53.5zM322 -129q0 -35 -14 -74t-41 -76h-89q26 61 26 130q0 30 -12 76h121q9 -32 9 -56z" />
    <glyph glyph-name="uni021A" unicode="&#x21a;" horiz-adv-x="602" 
d="M231 0v622h-209v128h559v-128h-210v-622h-140zM371 -129q0 -35 -14 -74t-41 -76h-89q26 61 26 130q0 30 -12 76h121q9 -32 9 -56z" />
    <glyph glyph-name="uni021B" unicode="&#x21b;" horiz-adv-x="439" 
d="M109 160v345h-94v97h94l19 180h109v-180h166v-97h-166v-318q0 -52 17 -72t59 -20q25 0 50.5 5t40.5 12v-100q-54 -22 -122 -22q-92 0 -132.5 41.5t-40.5 128.5zM326 -129q0 -35 -14 -74t-41 -76h-89q26 61 26 130q0 30 -12 76h121q9 -32 9 -56z" />
    <glyph glyph-name="uni0259" unicode="&#x259;" horiz-adv-x="621" 
d="M565 298q0 -149 -69.5 -228.5t-200.5 -79.5q-122 0 -181 68.5t-59 212.5q0 39 3 72h375q-1 157 -158 157q-101 0 -184 -36l-12 108q39 19 92.5 30t112.5 11q146 0 213.5 -78.5t67.5 -236.5zM297 93q64 0 98.5 35t38.5 110h-255q0 -77 29.5 -111t88.5 -34z" />
    <glyph glyph-name="circumflex" unicode="&#x2c6;" 
d="M265 913l140 -195h-109l-94 134l-95 -134h-108l138 195h128z" />
    <glyph glyph-name="caron" unicode="&#x2c7;" 
d="M108 913l94 -134l95 134h108l-138 -195h-128l-140 195h109z" />
    <glyph glyph-name="breve" unicode="&#x2d8;" 
d="M201 711q-105 0 -156.5 48t-51.5 138h99q0 -57 26 -81.5t83 -24.5t83 24.5t26 81.5h99q0 -89 -53 -137.5t-155 -48.5z" />
    <glyph glyph-name="dotaccent" unicode="&#x2d9;" 
d="M201 728q-43 0 -63.5 14.5t-20.5 50.5q0 66 84 66t84 -66q0 -33 -20.5 -49t-63.5 -16z" />
    <glyph glyph-name="ring" unicode="&#x2da;" 
d="M203 959q76 0 115.5 -34.5t39.5 -90.5q0 -59 -39 -90.5t-116 -31.5q-79 0 -118.5 30t-39.5 92q0 58 38.5 91.5t119.5 33.5zM203 777q77 0 77 57q0 60 -77 60q-44 0 -62 -15.5t-18 -44.5q0 -28 18 -42.5t62 -14.5z" />
    <glyph glyph-name="ogonek" unicode="&#x2db;" 
d="M141 -116q0 46 29.5 78.5t84.5 56.5l51 -16q-38 -22 -59 -45t-21 -50q0 -25 15.5 -36t39.5 -11q38 0 68 13v-70q-36 -17 -88 -17q-58 0 -89 25.5t-31 71.5z" />
    <glyph glyph-name="tilde" unicode="&#x2dc;" 
d="M124 874q31 0 54.5 -12.5t44.5 -32.5q16 -15 28.5 -22.5t26.5 -7.5q47 0 53 73h68q-3 -74 -34.5 -115t-86.5 -41q-30 0 -53 12t-46 33q-17 15 -29.5 22.5t-25.5 7.5q-23 0 -36.5 -20t-15.5 -53h-70q2 72 34.5 114t87.5 42z" />
    <glyph glyph-name="hungarumlaut" unicode="&#x2dd;" 
d="M56 718l116 195h112l-138 -195h-90zM257 718l124 195h114l-148 -195h-90z" />
    <glyph glyph-name="pi" unicode="&#x3c0;" horiz-adv-x="678" 
d="M255 0h-127v488q-56 -3 -80 -20l-31 101q46 33 160 33h459v-112h-84v-330q0 -38 14 -52.5t51 -14.5v-98q-77 0 -118 16t-57 51t-16 98v330h-171v-490z" />
    <glyph glyph-name="Wgrave" unicode="&#x1e80;" horiz-adv-x="1028" 
d="M729 135h3l14 79l107 536h137l-178 -750h-167l-114 535l-15 80h-3l-16 -80l-114 -535h-166l-179 750h143l107 -539l15 -79h3l15 79l121 539h150l120 -536zM471 987l115 -147h-114l-149 147h148z" />
    <glyph glyph-name="wgrave" unicode="&#x1e81;" horiz-adv-x="882" 
d="M634 99h3l14 83l87 420h124l-146 -602h-158l-93 388l-17 90h-3l-19 -90l-96 -388h-156l-154 602h128l91 -419l15 -82h3l17 82l105 419h132l106 -421zM400 913l124 -195h-114l-144 195h134z" />
    <glyph glyph-name="Wacute" unicode="&#x1e82;" horiz-adv-x="1028" 
d="M729 135h3l14 79l107 536h137l-178 -750h-167l-114 535l-15 80h-3l-16 -80l-114 -535h-166l-179 750h143l107 -539l15 -79h3l15 79l121 539h150l120 -536zM697 987l-149 -147h-114l115 147h148z" />
    <glyph glyph-name="wacute" unicode="&#x1e83;" horiz-adv-x="882" 
d="M634 99h3l14 83l87 420h124l-146 -602h-158l-93 388l-17 90h-3l-19 -90l-96 -388h-156l-154 602h128l91 -419l15 -82h3l17 82l105 419h132l106 -421zM622 913l-144 -195h-114l124 195h134z" />
    <glyph glyph-name="Wdieresis" unicode="&#x1e84;" horiz-adv-x="1028" 
d="M729 135h3l14 79l107 536h137l-178 -750h-167l-114 535l-15 80h-3l-16 -80l-114 -535h-166l-179 750h143l107 -539l15 -79h3l15 79l121 539h150l120 -536zM327 900q0 70 68 70q70 0 70 -70q0 -69 -70 -69q-35 0 -51.5 16t-16.5 53zM560 900q0 70 70 70q68 0 68 -70
q0 -35 -16.5 -52t-51.5 -17q-36 0 -53 16t-17 53z" />
    <glyph glyph-name="wdieresis" unicode="&#x1e85;" horiz-adv-x="882" 
d="M634 99h3l14 83l87 420h124l-146 -602h-158l-93 388l-17 90h-3l-19 -90l-96 -388h-156l-154 602h128l91 -419l15 -82h3l17 82l105 419h132l106 -421zM256 783q0 70 68 70q70 0 70 -70q0 -69 -70 -69q-35 0 -51.5 16t-16.5 53zM489 783q0 70 70 70q68 0 68 -70
q0 -35 -16.5 -52t-51.5 -17q-36 0 -53 16t-17 53z" />
    <glyph glyph-name="uni1E8A" unicode="&#x1e8a;" horiz-adv-x="705" 
d="M34 750h165l116 -209l38 -71h3l37 71l115 209h158l-216 -359l228 -391h-158l-130 238l-36 72h-3l-36 -73l-126 -237h-161l223 388zM353 837q-43 0 -63.5 14.5t-20.5 50.5q0 66 84 66t84 -66q0 -33 -20.5 -49t-63.5 -16z" />
    <glyph glyph-name="uni1E8B" unicode="&#x1e8b;" horiz-adv-x="598" 
d="M26 602h149l89 -166l37 -71h3l36 72l88 165h143l-178 -295l183 -307h-149l-95 176l-36 72h-3l-36 -73l-93 -175h-142l188 304zM307 728q-43 0 -63.5 14.5t-20.5 50.5q0 66 84 66t84 -66q0 -33 -20.5 -49t-63.5 -16z" />
    <glyph glyph-name="Ygrave" unicode="&#x1ef2;" horiz-adv-x="665" 
d="M336 371h3l31 74l141 305h151l-257 -504v-246h-141v246l-261 504h156l144 -306zM302 987l115 -147h-114l-149 147h148z" />
    <glyph glyph-name="ygrave" unicode="&#x1ef3;" horiz-adv-x="610" 
d="M230 -26l16 40l-240 588h146l131 -380l23 -77h3l24 79l135 378h136l-244 -627q-23 -59 -49.5 -98.5t-69.5 -63t-108 -23.5q-54 0 -95 15v108q38 -18 85 -18q40 0 66 20t41 59zM281 913l124 -195h-114l-144 195h134z" />
    <glyph glyph-name="uni2007" unicode="&#x2007;" horiz-adv-x="655" 
 />
    <glyph glyph-name="uni2008" unicode="&#x2008;" horiz-adv-x="314" 
 />
    <glyph glyph-name="uni200B" unicode="&#x200b;" horiz-adv-x="0" 
 />
    <glyph glyph-name="endash" unicode="&#x2013;" horiz-adv-x="524" 
d="M60 294v95h403v-95h-403z" />
    <glyph glyph-name="emdash" unicode="&#x2014;" horiz-adv-x="702" 
d="M60 294v95h582v-95h-582z" />
    <glyph glyph-name="quoteleft" unicode="&#x2018;" horiz-adv-x="271" 
d="M50 597q0 50 29 110.5t67 109.5l61 -11l-53 -137q28 -8 46 -28t18 -51q0 -35 -22 -58t-61 -23q-40 0 -62.5 25t-22.5 63z" />
    <glyph glyph-name="quoteright" unicode="&#x2019;" horiz-adv-x="269" 
d="M218 729q0 -50 -29 -110.5t-67 -109.5l-61 11l53 137q-28 8 -46 28t-18 51q0 35 22 58t61 23q40 0 62.5 -25t22.5 -63z" />
    <glyph glyph-name="quotesinglbase" unicode="&#x201a;" horiz-adv-x="269" 
d="M218 75q0 -50 -29 -110.5t-67 -109.5l-61 11l53 137q-28 8 -46 28t-18 51q0 35 22 58t61 23q40 0 62.5 -25t22.5 -63z" />
    <glyph glyph-name="quotedblleft" unicode="&#x201c;" horiz-adv-x="520" 
d="M50 597q0 50 29 110.5t67 109.5l61 -11l-53 -137q28 -8 46 -28t18 -51q0 -35 -22 -58t-61 -23q-40 0 -62.5 25t-22.5 63zM282 597q0 50 29 110.5t67 109.5l61 -11l-53 -137q28 -8 46 -28t18 -51q0 -35 -22 -58t-61 -23q-40 0 -62.5 25t-22.5 63z" />
    <glyph glyph-name="quotedblright" unicode="&#x201d;" horiz-adv-x="520" 
d="M218 729q0 -50 -29 -110.5t-67 -109.5l-61 11l53 137q-28 8 -46 28t-18 51q0 35 22 58t61 23q40 0 62.5 -25t22.5 -63zM450 729q0 -50 -29 -110.5t-67 -109.5l-61 11l53 137q-28 8 -46 28t-18 51q0 35 22 58t61 23q40 0 62.5 -25t22.5 -63z" />
    <glyph glyph-name="quotedblbase" unicode="&#x201e;" horiz-adv-x="520" 
d="M218 75q0 -50 -29 -110.5t-67 -109.5l-61 11l53 137q-28 8 -46 28t-18 51q0 35 22 58t61 23q40 0 62.5 -25t22.5 -63zM450 75q0 -50 -29 -110.5t-67 -109.5l-61 11l53 137q-28 8 -46 28t-18 51q0 35 22 58t61 23q40 0 62.5 -25t22.5 -63z" />
    <glyph glyph-name="dagger" unicode="&#x2020;" horiz-adv-x="496" 
d="M309 789l-9 -189l159 9v-122l-159 8l9 -641h-126l11 641l-158 -8v122l158 -9l-11 189h126z" />
    <glyph glyph-name="daggerdbl" unicode="&#x2021;" horiz-adv-x="496" 
d="M309 -146h-126l11 195l-158 -9v121l159 -8v343l-159 -9v122l158 -9l-11 189h126l-9 -189l159 9v-122l-159 9v-343l159 8v-121l-159 9z" />
    <glyph glyph-name="bullet" unicode="&#x2022;" horiz-adv-x="410" 
d="M202 472q148 0 148 -150q0 -76 -37 -113.5t-111 -37.5t-110 37.5t-36 113.5t36 113t110 37z" />
    <glyph glyph-name="ellipsis" unicode="&#x2026;" horiz-adv-x="942" 
d="M78 62q0 76 79 76t79 -76q0 -74 -79 -74t-79 74zM390 62q0 76 79 76t79 -76q0 -74 -79 -74t-79 74zM706 62q0 76 79 76t79 -76q0 -74 -79 -74t-79 74z" />
    <glyph glyph-name="perthousand" unicode="&#x2030;" horiz-adv-x="1256" 
d="M152 0l500 750h92l-501 -750h-91zM180 321q-84 0 -122.5 48t-38.5 153q0 108 38 156t124 48q85 0 123 -48t38 -156q0 -105 -38.5 -153t-123.5 -48zM181 650q-26 0 -41.5 -10.5t-22.5 -38t-7 -78.5t7 -78.5t22.5 -38t41.5 -10.5q25 0 40 10.5t22.5 38t7.5 78.5t-7.5 78.5
t-22.5 38t-40 10.5zM716 -5q-84 0 -122.5 48t-38.5 153q0 108 38 156t124 48q85 0 123 -48t38 -156q0 -105 -38.5 -153t-123.5 -48zM1076 -5q-84 0 -122.5 48t-38.5 153q0 108 38 156t124 48q85 0 123 -48t38 -156q0 -105 -38.5 -153t-123.5 -48zM717 324q-26 0 -41.5 -10.5
t-22.5 -38t-7 -78.5t7 -78.5t22.5 -38t41.5 -10.5q25 0 40 10.5t22.5 38t7.5 78.5t-7.5 78.5t-22.5 38t-40 10.5zM1077 324q-26 0 -41.5 -10.5t-22.5 -38t-7 -78.5t7 -78.5t22.5 -38t41.5 -10.5q25 0 40 10.5t22.5 38t7.5 78.5t-7.5 78.5t-22.5 38t-40 10.5z" />
    <glyph glyph-name="guilsinglleft" unicode="&#x2039;" horiz-adv-x="399" 
d="M340 112l-302 206v10l302 206v-102l-175 -109l175 -110v-101z" />
    <glyph glyph-name="guilsinglright" unicode="&#x203a;" horiz-adv-x="399" 
d="M59 432v102l303 -206v-10l-303 -206v101l174 110z" />
    <glyph glyph-name="fraction" unicode="&#x2044;" horiz-adv-x="176" 
d="M-208 0l500 750h92l-501 -750h-91z" />
    <glyph glyph-name="uni207A" unicode="&#x207a;" horiz-adv-x="378" 
d="M151 545v108h-109v80h109v109h74v-109h110v-80h-110v-108h-74z" />
    <glyph glyph-name="uni207B" unicode="&#x207b;" horiz-adv-x="378" 
d="M329 735v-76h-283v76h283z" />
    <glyph glyph-name="uni207C" unicode="&#x207c;" horiz-adv-x="378" 
d="M329 791v-67h-279v67h279zM329 666v-68h-279v68h279z" />
    <glyph glyph-name="uni207D" unicode="&#x207d;" horiz-adv-x="215" 
d="M140 675q0 -136 69 -237l-61 -6q-45 45 -68 107.5t-23 135.5q0 151 91 243l61 -6q-69 -101 -69 -237z" />
    <glyph glyph-name="uni207E" unicode="&#x207e;" horiz-adv-x="215" 
d="M158 675q0 -73 -23 -135.5t-67 -107.5l-62 6q69 104 69 237q0 136 -69 237l62 6q90 -91 90 -243z" />
    <glyph glyph-name="uni208A" unicode="&#x208a;" horiz-adv-x="378" 
d="M151 -100v108h-109v80h109v109h74v-109h110v-80h-110v-108h-74z" />
    <glyph glyph-name="uni208B" unicode="&#x208b;" horiz-adv-x="378" 
d="M329 90v-76h-283v76h283z" />
    <glyph glyph-name="uni208C" unicode="&#x208c;" horiz-adv-x="378" 
d="M329 147v-68h-279v68h279zM329 22v-68h-279v68h279z" />
    <glyph glyph-name="uni208D" unicode="&#x208d;" horiz-adv-x="215" 
d="M140 33q0 -136 69 -237l-61 -6q-45 45 -68 107.5t-23 135.5q0 151 91 243l61 -6q-69 -101 -69 -237z" />
    <glyph glyph-name="uni208E" unicode="&#x208e;" horiz-adv-x="215" 
d="M158 33q0 -73 -23 -135.5t-67 -107.5l-62 6q69 104 69 237q0 136 -69 237l62 6q90 -91 90 -243z" />
    <glyph glyph-name="franc" unicode="&#x20a3;" horiz-adv-x="655" 
d="M568 430l-1 -121h-286v-97h141v-95h-141v-117h-138v117h-97v95h97v538h479l3 -128h-344v-192h287z" />
    <glyph glyph-name="lira" unicode="&#x20a4;" horiz-adv-x="655" 
d="M618 117l-7 -124q-128 15 -243 15q-144 0 -291 -17l-6 120q45 11 72 41.5t33 76.5h-110v90h99l-11 38q-10 34 -14 52h-74v90h56q-3 23 -3 44q0 97 66.5 158t212.5 61q100 0 184 -34l-16 -118q-32 13 -72.5 21.5t-80.5 8.5q-82 0 -120 -30.5t-38 -82.5q0 -8 2 -28h268v-90
h-250q15 -57 22 -90h228v-90h-224q-9 -77 -68 -115l1 -2q77 17 195 17q97 0 189 -12z" />
    <glyph glyph-name="peseta" unicode="&#x20a7;" horiz-adv-x="655" 
d="M320 258h-110v-258h-129v467h-53v67h53v216h239q129 0 190 -51.5t69 -164.5h52l-1 -67h-52q-8 -107 -69.5 -158t-188.5 -51zM320 636h-111v-102h237q-5 56 -34.5 79t-91.5 23zM446 467h-237v-100h111q61 0 90.5 21.5t35.5 78.5z" />
    <glyph glyph-name="Euro" unicode="&#x20ac;" horiz-adv-x="655" 
d="M441 -14q-130 0 -206 61t-101 187h-106v90h95q-2 36 -2 57q0 29 1 43h-94v90h105q24 125 101.5 187t213.5 62q46 0 91 -8.5t80 -20.5l-15 -120q-68 26 -149 26q-76 0 -119.5 -29t-61.5 -97h262v-90h-274q-1 -14 -1 -44q0 -22 2 -56h273v-90h-260q19 -69 62.5 -98
t120.5 -29q79 0 147 28l16 -114q-35 -16 -83 -25.5t-98 -9.5z" />
    <glyph glyph-name="trademark" unicode="&#x2122;" horiz-adv-x="679" 
d="M106 480v214h-80v69h238v-69h-80v-214h-78zM574 676l-3 1l-28 -77l-46 -120h-56l-47 119l-28 76l-2 -1l1 -81v-113h-66v283h96l47 -118l28 -75h3l27 76l46 117h92v-283h-66v115z" />
    <glyph glyph-name="uni03A9" unicode="&#x3a9;" horiz-adv-x="744" 
d="M687 437q0 -98 -41.5 -180.5t-122.5 -140.5v-3h169v-113h-286v163q137 107 137 268q0 109 -41 157t-130 48t-130 -48t-41 -157q0 -85 36 -151t101 -117v-163h-286v113h169l1 3q-82 56 -123.5 138t-41.5 183q0 162 81.5 243t233.5 81t233.5 -79.5t81.5 -244.5z" />
    <glyph glyph-name="uni2150" unicode="&#x2150;" horiz-adv-x="801" 
d="M71 0l500 750h92l-501 -750h-91zM117 535l3 79l-3 1l-81 -50l-9 81l125 76h57v-396h-92v209zM514 0l172 310h-218l5 84h311v-78l-163 -316h-107z" />
    <glyph glyph-name="uni2151" unicode="&#x2151;" horiz-adv-x="815" 
d="M71 0l500 750h92l-501 -750h-91zM117 535l3 79l-3 1l-81 -50l-9 81l125 76h57v-396h-92v209zM609 -5q-34 0 -58 4.5t-51 14.5l13 73q23 -9 43.5 -13t47.5 -4q49 0 74.5 25t29.5 80l-2 1q-33 -27 -87 -27q-73 0 -108 32t-35 88q0 60 38 95.5t113 35.5q163 0 163 -187
q0 -112 -45 -165t-136 -53zM626 326q-63 0 -63 -54q0 -28 15.5 -42t51.5 -14q22 0 41 7t28 18q0 47 -17.5 66t-55.5 19z" />
    <glyph glyph-name="uni2152" unicode="&#x2152;" horiz-adv-x="1094" 
d="M71 0l500 750h92l-501 -750h-91zM117 535l3 79l-3 1l-81 -50l-9 81l125 76h57v-396h-92v209zM914 -5q-84 0 -122.5 48t-38.5 153q0 108 38 156t124 48q85 0 123 -48t38 -156q0 -105 -38.5 -153t-123.5 -48zM572 209l3 79l-3 1l-81 -50l-9 81l125 76h57v-396h-92v209z
M915 324q-26 0 -41.5 -10.5t-22.5 -38t-7 -78.5t7 -78.5t22.5 -38t41.5 -10.5q25 0 40 10.5t22.5 38t7.5 78.5t-7.5 78.5t-22.5 38t-40 10.5z" />
    <glyph glyph-name="onethird" unicode="&#x2153;" horiz-adv-x="815" 
d="M71 0l500 750h92l-501 -750h-91zM117 535l3 79l-3 1l-81 -50l-9 81l125 76h57v-396h-92v209zM613 -5q-77 0 -134 33l20 70q50 -29 114 -29q38 0 57 14.5t19 39.5q0 26 -24 38t-91 12v63q62 0 85.5 12t23.5 36q0 41 -69 41q-62 0 -114 -35l-21 68q27 19 63.5 30.5
t75.5 11.5q72 0 111.5 -29t39.5 -80q0 -60 -60 -84v-2q69 -20 69 -87q0 -59 -40.5 -91t-124.5 -32z" />
    <glyph glyph-name="twothirds" unicode="&#x2154;" horiz-adv-x="896" 
d="M152 0l500 750h92l-501 -750h-91zM150 406v-3h170v-77h-288v60q22 20 57 49q73 64 104 98t31 66q0 22 -16.5 35t-51.5 13q-28 0 -53.5 -9t-53.5 -27l-22 73q64 42 146 42q73 0 110 -32t37 -87q0 -53 -40.5 -96t-129.5 -105zM694 -5q-77 0 -134 33l20 70q50 -29 114 -29
q38 0 57 14.5t19 39.5q0 26 -24 38t-91 12v63q62 0 85.5 12t23.5 36q0 41 -69 41q-62 0 -114 -35l-21 68q27 19 63.5 30.5t75.5 11.5q72 0 111.5 -29t39.5 -80q0 -60 -60 -84v-2q69 -20 69 -87q0 -59 -40.5 -91t-124.5 -32z" />
    <glyph glyph-name="uni2155" unicode="&#x2155;" horiz-adv-x="815" 
d="M71 0l500 750h92l-501 -750h-91zM117 535l3 79l-3 1l-81 -50l-9 81l125 76h57v-396h-92v209zM490 23l15 72q28 -14 54 -20t59 -6q40 0 57.5 14t17.5 45q0 26 -17.5 38t-55.5 12q-51 0 -90 -13l-36 32l19 197h249v-79h-177l-5 -70h2q30 6 60 6q69 0 105 -29t36 -86
q0 -141 -158 -141q-80 0 -135 28z" />
    <glyph glyph-name="uni2156" unicode="&#x2156;" horiz-adv-x="896" 
d="M152 0l500 750h92l-501 -750h-91zM150 406v-3h170v-77h-288v60q22 20 57 49q73 64 104 98t31 66q0 22 -16.5 35t-51.5 13q-28 0 -53.5 -9t-53.5 -27l-22 73q64 42 146 42q73 0 110 -32t37 -87q0 -53 -40.5 -96t-129.5 -105zM571 23l15 72q28 -14 54 -20t59 -6
q40 0 57.5 14t17.5 45q0 26 -17.5 38t-55.5 12q-51 0 -90 -13l-36 32l19 197h249v-79h-177l-5 -70h2q30 6 60 6q69 0 105 -29t36 -86q0 -141 -158 -141q-80 0 -135 28z" />
    <glyph glyph-name="uni2157" unicode="&#x2157;" horiz-adv-x="896" 
d="M152 0l500 750h92l-501 -750h-91zM158 321q-77 0 -134 33l20 70q50 -29 114 -29q38 0 57 14.5t19 39.5q0 26 -24 38t-91 12v63q62 0 85.5 12t23.5 36q0 41 -69 41q-62 0 -114 -35l-21 68q27 19 63.5 30.5t75.5 11.5q72 0 111.5 -29t39.5 -80q0 -60 -60 -84v-2
q69 -20 69 -87q0 -59 -40.5 -91t-124.5 -32zM571 23l15 72q28 -14 54 -20t59 -6q40 0 57.5 14t17.5 45q0 26 -17.5 38t-55.5 12q-51 0 -90 -13l-36 32l19 197h249v-79h-177l-5 -70h2q30 6 60 6q69 0 105 -29t36 -86q0 -141 -158 -141q-80 0 -135 28z" />
    <glyph glyph-name="uni2158" unicode="&#x2158;" horiz-adv-x="896" 
d="M152 0l500 750h92l-501 -750h-91zM12 400l-7 53l184 267h111v-246h43v-74h-43v-74h-85v74h-203zM219 559l4 80h-3l-31 -50l-47 -68l-33 -44l1 -3h107zM571 23l15 72q28 -14 54 -20t59 -6q40 0 57.5 14t17.5 45q0 26 -17.5 38t-55.5 12q-51 0 -90 -13l-36 32l19 197h249
v-79h-177l-5 -70h2q30 6 60 6q69 0 105 -29t36 -86q0 -141 -158 -141q-80 0 -135 28z" />
    <glyph glyph-name="uni2159" unicode="&#x2159;" horiz-adv-x="815" 
d="M71 0l500 750h92l-501 -750h-91zM117 535l3 79l-3 1l-81 -50l-9 81l125 76h57v-396h-92v209zM642 -5q-164 0 -164 193q0 103 48.5 157.5t141.5 54.5q59 0 104 -17l-6 -73q-42 13 -86 13q-51 0 -77 -21t-34 -66l2 -2q38 22 87 22q138 0 138 -119q0 -70 -39.5 -106
t-114.5 -36zM642 189q-18 0 -38.5 -7t-30.5 -18q1 -52 16.5 -73t53.5 -21q62 0 62 68q0 26 -15 38.5t-48 12.5z" />
    <glyph glyph-name="uni215A" unicode="&#x215a;" horiz-adv-x="896" 
d="M152 0l500 750h92l-501 -750h-91zM35 349l15 72q28 -14 54 -20t59 -6q40 0 57.5 14t17.5 45q0 26 -17.5 38t-55.5 12q-51 0 -90 -13l-36 32l19 197h249v-79h-177l-5 -70h2q30 6 60 6q69 0 105 -29t36 -86q0 -141 -158 -141q-80 0 -135 28zM723 -5q-164 0 -164 193
q0 103 48.5 157.5t141.5 54.5q59 0 104 -17l-6 -73q-42 13 -86 13q-51 0 -77 -21t-34 -66l2 -2q38 22 87 22q138 0 138 -119q0 -70 -39.5 -106t-114.5 -36zM723 189q-18 0 -38.5 -7t-30.5 -18q1 -52 16.5 -73t53.5 -21q62 0 62 68q0 26 -15 38.5t-48 12.5z" />
    <glyph glyph-name="oneeighth" unicode="&#x215b;" horiz-adv-x="815" 
d="M71 0l500 750h92l-501 -750h-91zM117 535l3 79l-3 1l-81 -50l-9 81l125 76h57v-396h-92v209zM474 116q0 28 15.5 51.5t49.5 36.5v2q-25 16 -36.5 35.5t-11.5 49.5q0 109 145 109q74 0 109 -28t35 -79t-49 -79v-2q34 -14 49.5 -35.5t15.5 -56.5q0 -125 -160 -125
q-162 0 -162 121zM697 285q0 23 -15 34.5t-47 11.5q-58 0 -58 -42q0 -21 20 -31.5t64 -22.5q36 20 36 50zM705 110q0 23 -23 36t-75 27q-43 -23 -43 -58q0 -26 17 -38t57 -12q67 0 67 45z" />
    <glyph glyph-name="threeeighths" unicode="&#x215c;" horiz-adv-x="896" 
d="M152 0l500 750h92l-501 -750h-91zM158 321q-77 0 -134 33l20 70q50 -29 114 -29q38 0 57 14.5t19 39.5q0 26 -24 38t-91 12v63q62 0 85.5 12t23.5 36q0 41 -69 41q-62 0 -114 -35l-21 68q27 19 63.5 30.5t75.5 11.5q72 0 111.5 -29t39.5 -80q0 -60 -60 -84v-2
q69 -20 69 -87q0 -59 -40.5 -91t-124.5 -32zM555 116q0 28 15.5 51.5t49.5 36.5v2q-25 16 -36.5 35.5t-11.5 49.5q0 109 145 109q74 0 109 -28t35 -79t-49 -79v-2q34 -14 49.5 -35.5t15.5 -56.5q0 -125 -160 -125q-162 0 -162 121zM778 285q0 23 -15 34.5t-47 11.5
q-58 0 -58 -42q0 -21 20 -31.5t64 -22.5q36 20 36 50zM786 110q0 23 -23 36t-75 27q-43 -23 -43 -58q0 -26 17 -38t57 -12q67 0 67 45z" />
    <glyph glyph-name="fiveeighths" unicode="&#x215d;" horiz-adv-x="896" 
d="M152 0l500 750h92l-501 -750h-91zM35 349l15 72q28 -14 54 -20t59 -6q40 0 57.5 14t17.5 45q0 26 -17.5 38t-55.5 12q-51 0 -90 -13l-36 32l19 197h249v-79h-177l-5 -70h2q30 6 60 6q69 0 105 -29t36 -86q0 -141 -158 -141q-80 0 -135 28zM555 116q0 28 15.5 51.5
t49.5 36.5v2q-25 16 -36.5 35.5t-11.5 49.5q0 109 145 109q74 0 109 -28t35 -79t-49 -79v-2q34 -14 49.5 -35.5t15.5 -56.5q0 -125 -160 -125q-162 0 -162 121zM778 285q0 23 -15 34.5t-47 11.5q-58 0 -58 -42q0 -21 20 -31.5t64 -22.5q36 20 36 50zM786 110q0 23 -23 36
t-75 27q-43 -23 -43 -58q0 -26 17 -38t57 -12q67 0 67 45z" />
    <glyph glyph-name="seveneighths" unicode="&#x215e;" horiz-adv-x="882" 
d="M138 0l500 750h92l-501 -750h-91zM59 326l172 310h-218l5 84h311v-78l-163 -316h-107zM541 116q0 28 15.5 51.5t49.5 36.5v2q-25 16 -36.5 35.5t-11.5 49.5q0 109 145 109q74 0 109 -28t35 -79t-49 -79v-2q34 -14 49.5 -35.5t15.5 -56.5q0 -125 -160 -125
q-162 0 -162 121zM764 285q0 23 -15 34.5t-47 11.5q-58 0 -58 -42q0 -21 20 -31.5t64 -22.5q36 20 36 50zM772 110q0 23 -23 36t-75 27q-43 -23 -43 -58q0 -26 17 -38t57 -12q67 0 67 45z" />
    <glyph glyph-name="uni215F" unicode="&#x215f;" horiz-adv-x="455" 
d="M71 0l500 750h92l-501 -750h-91zM117 535l3 79l-3 1l-81 -50l-9 81l125 76h57v-396h-92v209z" />
    <glyph glyph-name="uni2189" unicode="&#x2189;" horiz-adv-x="896" 
d="M152 0l500 750h92l-501 -750h-91zM180 321q-84 0 -122.5 48t-38.5 153q0 108 38 156t124 48q85 0 123 -48t38 -156q0 -105 -38.5 -153t-123.5 -48zM181 650q-26 0 -41.5 -10.5t-22.5 -38t-7 -78.5t7 -78.5t22.5 -38t41.5 -10.5q25 0 40 10.5t22.5 38t7.5 78.5t-7.5 78.5
t-22.5 38t-40 10.5zM694 -5q-77 0 -134 33l20 70q50 -29 114 -29q38 0 57 14.5t19 39.5q0 26 -24 38t-91 12v63q62 0 85.5 12t23.5 36q0 41 -69 41q-62 0 -114 -35l-21 68q27 19 63.5 30.5t75.5 11.5q72 0 111.5 -29t39.5 -80q0 -60 -60 -84v-2q69 -20 69 -87
q0 -59 -40.5 -91t-124.5 -32z" />
    <glyph glyph-name="partialdiff" unicode="&#x2202;" horiz-adv-x="636" 
d="M41 229q0 101 34 173.5t96.5 111t148.5 38.5q43 0 80.5 -13t66.5 -37l2 2q-14 73 -58 108t-120 35q-57 0 -100.5 -14t-84.5 -43l-33 91q52 38 107.5 57t132.5 19q75 0 139 -35t103.5 -113t39.5 -199q0 -124 -37.5 -219.5t-110.5 -150t-176 -54.5q-116 0 -173 62.5
t-57 180.5zM460 354q0 40 -32.5 69t-88.5 29q-79 0 -123 -59.5t-44 -173.5q0 -64 30 -96.5t88 -32.5q53 0 91.5 35t58.5 95t20 134z" />
    <glyph glyph-name="uni0394" unicode="&#x394;" horiz-adv-x="748" 
d="M327 753h93l292 -753h-677zM548 114l-147 401l-26 77h-3l-27 -77l-151 -401h354z" />
    <glyph glyph-name="product" unicode="&#x220f;" horiz-adv-x="749" 
d="M54 645v105h644v-105h-90v-801h-120v801h-224v-801h-120v801h-90z" />
    <glyph glyph-name="summation" unicode="&#x2211;" horiz-adv-x="699" 
d="M243 -48h410v-108h-573v73l305 390l-305 362v81h573v-111h-401l-1 -2l53 -59l217 -257v-29l-227 -278l-53 -61z" />
    <glyph glyph-name="minus" unicode="&#x2212;" horiz-adv-x="665" 
d="M573 397v-120h-452v120h452z" />
    <glyph glyph-name="uni2219" unicode="&#x2219;" horiz-adv-x="600" 
d="M299 472q148 0 148 -150q0 -76 -37 -113.5t-111 -37.5t-110 37.5t-36 113.5t36 113t110 37z" />
    <glyph glyph-name="radical" unicode="&#x221a;" horiz-adv-x="601" 
d="M269 215l23 -77h3l19 78l155 572h134l-231 -788h-152l-132 383h-81v118h172z" />
    <glyph glyph-name="infinity" unicode="&#x221e;" horiz-adv-x="754" 
d="M43 347q0 86 46 138t129 52q52 0 90.5 -20t68.5 -58q27 37 65 57.5t93 20.5q50 0 90.5 -22.5t63.5 -65.5t23 -103q0 -85 -46 -137.5t-130 -52.5q-52 0 -90.5 19.5t-69.5 58.5q-55 -78 -156 -78q-77 0 -127 51t-50 140zM331 373q-20 31 -45 47t-60 16q-37 0 -57.5 -24
t-20.5 -63q0 -40 21.5 -62.5t53.5 -22.5q27 0 46 14t31.5 35.5t30.5 59.5zM606 345q0 40 -21 62t-54 22q-37 0 -61 -27t-47 -83q20 -30 45.5 -46t60.5 -16q36 0 56.5 24.5t20.5 63.5z" />
    <glyph glyph-name="integral" unicode="&#x222b;" horiz-adv-x="324" 
d="M8 -163l-3 85q48 2 70.5 28t22.5 84v572q0 96 53.5 144.5t163.5 49.5l3 -86q-44 -1 -67.5 -28t-23.5 -81v-567q0 -105 -53 -153t-166 -48z" />
    <glyph glyph-name="approxequal" unicode="&#x2248;" horiz-adv-x="665" 
d="M337 378q-35 11 -56.5 16.5t-43.5 5.5q-61 0 -114 -32v103q55 31 114 31q27 0 53.5 -6.5t64.5 -19.5q34 -12 57 -17.5t45 -5.5q59 0 115 32v-102q-55 -31 -115 -31q-28 0 -55.5 6.5t-64.5 19.5zM337 186q-35 11 -56.5 16.5t-43.5 5.5q-61 0 -114 -32v102q54 32 114 32
q28 0 54.5 -6.5t63.5 -19.5q34 -12 57 -17.5t45 -5.5q59 0 115 32v-102q-55 -31 -115 -31q-28 0 -55.5 6.5t-64.5 19.5z" />
    <glyph glyph-name="notequal" unicode="&#x2260;" horiz-adv-x="665" 
d="M572 479v-102h-152l-45 -93h197v-102h-247l-61 -124l-82 41l41 83h-100v102h150l46 93h-196v102h246l60 121l81 -41l-40 -80h102z" />
    <glyph glyph-name="lessequal" unicode="&#x2264;" horiz-adv-x="665" 
d="M211 404l78 -20l285 -79v-123l-453 162v126l453 166v-125l-285 -83l-78 -21v-3zM574 146v-105h-449v105h449z" />
    <glyph glyph-name="greaterequal" unicode="&#x2265;" horiz-adv-x="665" 
d="M484 404v3l-79 21l-283 83v125l451 -166v-126l-451 -162v123l283 79zM569 146v-105h-447v105h447z" />
    <glyph glyph-name="dotmath" unicode="&#x22c5;" horiz-adv-x="600" 
d="M223 345q0 76 77 76t77 -76q0 -75 -77 -75q-41 0 -59 17.5t-18 57.5z" />
    <glyph glyph-name="lozenge" unicode="&#x25ca;" horiz-adv-x="620" 
d="M310 669l284 -332l-284 -332l-284 332zM309 511l-148 -174l148 -172l149 172z" />
    <glyph glyph-name="glyph421" horiz-adv-x="316" 
d="M158 682q-39 0 -57.5 13.5t-18.5 45.5q0 30 19 45.5t57 15.5q76 0 76 -61q0 -30 -18.5 -44.5t-57.5 -14.5zM222 605v-605h-129v598z" />
    <glyph glyph-name="glyph422" horiz-adv-x="571" 
d="M83 0v750h139v-623h327l-3 -127h-463zM431 337q-38 0 -55 16t-17 53q0 69 72 69q71 0 71 -69t-71 -69z" />
    <glyph glyph-name="glyph423" horiz-adv-x="381" 
d="M215 790v-790h-128v783zM342 338q-36 0 -52 15.5t-16 50.5q0 66 68 66t68 -66t-68 -66z" />
    <glyph glyph-name="dollar.inferior" horiz-adv-x="327" 
d="M300 217l-11 -73q-56 17 -96 17q-65 0 -65 -35q0 -15 15.5 -23t48.5 -16q38 -10 62 -20.5t41.5 -32.5t17.5 -59q0 -47 -27.5 -77.5t-78.5 -38.5l-4 -70h-70l4 69q-54 5 -95 26l11 76q28 -16 54 -23.5t56 -7.5q33 0 49.5 10.5t16.5 28.5q0 15 -15.5 23t-49.5 18
q-36 10 -60.5 21t-42 33t-17.5 58q0 44 28 75.5t85 38.5l6 74h70l-6 -75q28 -3 73 -17z" />
    <glyph glyph-name="comma.inferior" horiz-adv-x="166" 
d="M133 -111q0 -27 -16.5 -63.5t-37.5 -61.5l-32 7l16 69q-12 5 -22 17t-10 27q0 51 50 51q26 0 39 -12.5t13 -33.5z" />
    <glyph glyph-name="period.inferior" horiz-adv-x="166" 
d="M83 -160q-27 0 -39.5 11t-12.5 37q0 25 12.5 37t39.5 12q28 0 40 -12t12 -37q0 -24 -12 -36t-40 -12z" />
    <glyph glyph-name="cent.inferior" horiz-adv-x="327" 
d="M224 158q-56 0 -78 -24.5t-22 -82.5q0 -59 25 -86t74 -27q40 0 77 16l6 -67q-31 -19 -76 -23l-4 -75h-72l5 78q-64 11 -97 57t-33 127q0 169 147 183l6 75h72l-7 -76q25 -4 55 -15l-5 -73q-34 13 -73 13z" />
    <glyph glyph-name="dollar.superior" horiz-adv-x="327" 
d="M300 861l-11 -73q-56 17 -96 17q-65 0 -65 -35q0 -15 15.5 -23t48.5 -16q37 -10 61 -20.5t42 -32.5t18 -59q0 -48 -27.5 -78.5t-78.5 -38.5l-4 -69h-70l4 68q-59 7 -95 28l11 75q28 -16 54 -23.5t56 -7.5q33 0 49.5 10.5t16.5 28.5q0 15 -15.5 23t-49.5 18
q-36 10 -60.5 21t-42 33t-17.5 58q0 44 28 75.5t85 38.5l6 74h70l-6 -74q32 -4 73 -18z" />
    <glyph glyph-name="comma.superior" horiz-adv-x="166" 
d="M133 533q0 -27 -16.5 -63.5t-37.5 -61.5l-32 7l16 69q-12 5 -22 17t-10 27q0 51 50 51q26 0 39 -12.5t13 -33.5z" />
    <glyph glyph-name="period.superior" horiz-adv-x="166" 
d="M83 484q-27 0 -39.5 11t-12.5 37q0 25 12.5 37t39.5 12q28 0 40 -12t12 -37q0 -48 -52 -48z" />
    <glyph glyph-name="cent.superior" horiz-adv-x="327" 
d="M224 802q-56 0 -78 -24.5t-22 -82.5q0 -59 25 -86t74 -27q40 0 77 16l6 -66q-27 -18 -76 -24l-4 -75h-72l5 77q-130 23 -130 185q0 169 147 183l6 75h72l-7 -76q25 -4 55 -15l-5 -72q-36 12 -73 12z" />
    <glyph glyph-name="dollar.numr" horiz-adv-x="327" 
d="M300 723l-11 -72q-52 16 -96 16q-65 0 -65 -34q0 -15 15.5 -23t48.5 -16q38 -11 62 -21.5t41.5 -32.5t17.5 -59q0 -47 -27.5 -78t-78.5 -39l-4 -68h-70l4 67q-56 6 -95 28l11 75q29 -16 54.5 -23t55.5 -7q66 0 66 39q0 15 -15.5 23t-49.5 18q-36 10 -60.5 21t-42 33
t-17.5 58q0 44 28 75t85 38l6 75h70l-6 -75q32 -4 73 -18z" />
    <glyph glyph-name="parenleft.numr" horiz-adv-x="215" 
d="M140 537q0 -135 69 -236l-61 -7q-45 45 -68 107.5t-23 135.5q0 151 91 243l61 -6q-69 -101 -69 -237z" />
    <glyph glyph-name="parenright.numr" horiz-adv-x="215" 
d="M158 537q0 -73 -23 -135.5t-67 -107.5l-62 7q69 104 69 236q0 136 -69 237l62 6q90 -91 90 -243z" />
    <glyph glyph-name="plus.numr" horiz-adv-x="378" 
d="M151 407v108h-109v80h109v109h74v-109h110v-80h-110v-108h-74z" />
    <glyph glyph-name="comma.numr" horiz-adv-x="166" 
d="M133 395q0 -27 -16.5 -63.5t-37.5 -61.5l-32 7l16 69q-12 5 -22 17t-10 27q0 51 50 51q26 0 39 -12.5t13 -33.5z" />
    <glyph glyph-name="period.numr" horiz-adv-x="166" 
d="M83 347q-28 0 -40 11t-12 37q0 49 52 49q28 0 40 -12t12 -37q0 -24 -12 -36t-40 -12z" />
    <glyph glyph-name="zero.numr" horiz-adv-x="360" 
d="M180 321q-84 0 -122.5 48t-38.5 153q0 108 38 156t124 48q85 0 123 -48t38 -156q0 -105 -38.5 -153t-123.5 -48zM181 650q-26 0 -41.5 -10.5t-22.5 -38t-7 -78.5t7 -78.5t22.5 -38t41.5 -10.5q25 0 40 10.5t22.5 38t7.5 78.5t-7.5 78.5t-22.5 38t-40 10.5z" />
    <glyph glyph-name="one.numr" horiz-adv-x="279" 
d="M117 535l3 79l-3 1l-81 -50l-9 81l125 76h57v-396h-92v209z" />
    <glyph glyph-name="two.numr" horiz-adv-x="360" 
d="M150 406v-3h170v-77h-288v60q22 20 57 49q73 62 104 97.5t31 66.5q0 22 -16.5 35t-51.5 13q-28 0 -53.5 -9t-53.5 -27l-22 73q64 42 146 42q73 0 110 -32t37 -87q0 -52 -40.5 -96.5t-129.5 -104.5z" />
    <glyph glyph-name="three.numr" horiz-adv-x="360" 
d="M158 321q-77 0 -134 33l20 70q50 -29 114 -29q38 0 57 14.5t19 39.5q0 26 -24 38t-91 12v63q61 0 85 11t24 37q0 41 -69 41q-62 0 -114 -35l-21 68q27 19 63.5 30.5t75.5 11.5q72 0 111.5 -29t39.5 -80q0 -60 -60 -84v-2q69 -20 69 -87q0 -59 -40.5 -91t-124.5 -32z" />
    <glyph glyph-name="four.numr" horiz-adv-x="360" 
d="M12 400l-7 53l184 267h111v-246h43v-74h-43v-74h-85v74h-203zM219 559l4 80h-3l-31 -50l-47 -68l-33 -44l1 -3h107z" />
    <glyph glyph-name="five.numr" horiz-adv-x="360" 
d="M35 349l15 72q28 -14 54 -20t59 -6q40 0 57.5 14t17.5 45q0 26 -17.5 38t-55.5 12q-51 0 -90 -13l-36 32l19 197h249v-79h-177l-5 -70h2q30 6 60 6q69 0 105 -29t36 -86q0 -141 -158 -141q-80 0 -135 28z" />
    <glyph glyph-name="six.numr" horiz-adv-x="360" 
d="M187 321q-164 0 -164 193q0 103 48.5 157.5t141.5 54.5q59 0 104 -17l-6 -73q-42 13 -86 13q-51 0 -77 -21t-34 -66l2 -2q38 22 87 22q138 0 138 -119q0 -70 -39.5 -106t-114.5 -36zM187 515q-18 0 -38.5 -7t-30.5 -18q1 -52 16.5 -73t53.5 -21q62 0 62 68q0 26 -15 38.5
t-48 12.5z" />
    <glyph glyph-name="seven.numr" horiz-adv-x="346" 
d="M59 326l172 310h-218l5 84h311v-78l-163 -316h-107z" />
    <glyph glyph-name="eight.numr" horiz-adv-x="360" 
d="M19 442q0 28 15.5 51.5t49.5 36.5v2q-25 16 -36.5 35.5t-11.5 49.5q0 109 145 109q74 0 109 -28t35 -79t-49 -79v-2q34 -14 49.5 -35.5t15.5 -56.5q0 -125 -160 -125q-162 0 -162 121zM242 611q0 23 -15 34.5t-47 11.5q-58 0 -58 -42q0 -20 20 -31.5t64 -22.5
q36 20 36 50zM250 436q0 23 -23 36t-75 27q-43 -23 -43 -58q0 -26 17 -38t57 -12q67 0 67 45z" />
    <glyph glyph-name="nine.numr" horiz-adv-x="360" 
d="M154 321q-34 0 -58 4.5t-51 14.5l13 73q23 -9 43.5 -13t47.5 -4q49 0 74.5 25t29.5 80l-2 1q-33 -27 -87 -27q-73 0 -108 32t-35 88q0 60 39 95.5t112 35.5q163 0 163 -187q0 -112 -45 -165t-136 -53zM171 652q-63 0 -63 -54q0 -28 15.5 -42t51.5 -14q22 0 41 6.5
t28 18.5q0 47 -17.5 66t-55.5 19z" />
    <glyph glyph-name="equal.numr" horiz-adv-x="378" 
d="M329 653v-67h-279v67h279zM329 529v-68h-279v68h279z" />
    <glyph glyph-name="cent.numr" horiz-adv-x="327" 
d="M225 664q-57 0 -79 -24t-22 -83t25 -86t74 -27q38 0 77 16l6 -66q-27 -18 -76 -24l-4 -74h-72l5 76q-130 23 -130 185q0 169 147 183l6 76h72l-7 -77q29 -4 55 -14l-5 -73q-36 12 -72 12z" />
    <glyph glyph-name="minus.numr" horiz-adv-x="378" 
d="M329 597v-76h-283v76h283z" />
    <glyph glyph-name="dollar.dnom" horiz-adv-x="327" 
d="M300 368l-11 -73q-56 17 -96 17q-65 0 -65 -35q0 -15 15.5 -23t48.5 -16q37 -10 61 -20.5t42 -32.5t18 -59q0 -48 -27.5 -78.5t-78.5 -38.5l-4 -69h-70l4 68q-59 7 -95 28l11 75q28 -16 53.5 -23t56.5 -7q66 0 66 38q0 15 -15.5 23t-49.5 18q-36 10 -60.5 21t-42 33
t-17.5 58q0 45 28 76t85 38l6 74h70l-6 -74q32 -4 73 -18z" />
    <glyph glyph-name="parenleft.dnom" horiz-adv-x="215" 
d="M140 182q0 -136 69 -237l-61 -6q-45 45 -68 107.5t-23 135.5q0 149 91 243l61 -6q-69 -103 -69 -237z" />
    <glyph glyph-name="parenright.dnom" horiz-adv-x="215" 
d="M158 182q0 -73 -23 -135.5t-67 -107.5l-62 6q69 104 69 237q0 134 -69 237l62 6q90 -93 90 -243z" />
    <glyph glyph-name="plus.dnom" horiz-adv-x="378" 
d="M151 51v109h-109v79h109v110h74v-110h110v-79h-110v-109h-74z" />
    <glyph glyph-name="comma.dnom" horiz-adv-x="166" 
d="M133 40q0 -27 -16.5 -63.5t-37.5 -61.5l-32 7l16 69q-12 5 -22 17t-10 27q0 51 50 51q26 0 39 -12.5t13 -33.5z" />
    <glyph glyph-name="period.dnom" horiz-adv-x="166" 
d="M83 -9q-27 0 -39.5 11t-12.5 37q0 25 12.5 37t39.5 12q28 0 40 -12t12 -37q0 -24 -12 -36t-40 -12z" />
    <glyph glyph-name="zero.dnom" horiz-adv-x="360" 
d="M180 -5q-84 0 -122.5 48t-38.5 153q0 108 38 156t124 48q85 0 123 -48t38 -156q0 -105 -38.5 -153t-123.5 -48zM181 324q-26 0 -41.5 -10.5t-22.5 -38t-7 -78.5t7 -78.5t22.5 -38t41.5 -10.5q25 0 40 10.5t22.5 38t7.5 78.5t-7.5 78.5t-22.5 38t-40 10.5z" />
    <glyph glyph-name="one.dnom" horiz-adv-x="279" 
d="M117 209l3 79l-3 1l-81 -50l-9 81l125 76h57v-396h-92v209z" />
    <glyph glyph-name="two.dnom" horiz-adv-x="360" 
d="M150 80v-3h170v-77h-288v60q22 20 57 49q73 62 104 97.5t31 66.5q0 22 -16.5 35t-51.5 13q-28 0 -53.5 -9t-53.5 -27l-22 73q64 42 146 42q73 0 110 -32t37 -87q0 -52 -40.5 -96.5t-129.5 -104.5z" />
    <glyph glyph-name="three.dnom" horiz-adv-x="360" 
d="M158 -5q-77 0 -134 33l20 70q50 -29 114 -29q38 0 57 14.5t19 39.5q0 26 -24 38t-91 12v63q61 0 85 11t24 37q0 41 -69 41q-62 0 -114 -35l-21 68q27 19 63.5 30.5t75.5 11.5q72 0 111.5 -29t39.5 -80q0 -60 -60 -84v-2q69 -20 69 -87q0 -59 -40.5 -91t-124.5 -32z" />
    <glyph glyph-name="four.dnom" horiz-adv-x="360" 
d="M12 74l-7 53l184 267h111v-246h43v-74h-43v-74h-85v74h-203zM219 233l4 80h-3l-31 -50l-47 -68l-33 -44l1 -3h107z" />
    <glyph glyph-name="five.dnom" horiz-adv-x="360" 
d="M35 23l15 72q28 -14 54 -20t59 -6q40 0 57.5 14t17.5 45q0 26 -17.5 38t-55.5 12q-51 0 -90 -13l-36 32l19 197h249v-79h-177l-5 -70h2q30 6 60 6q69 0 105 -29t36 -86q0 -141 -158 -141q-80 0 -135 28z" />
    <glyph glyph-name="six.dnom" horiz-adv-x="360" 
d="M187 -5q-164 0 -164 193q0 103 48.5 157.5t141.5 54.5q59 0 104 -17l-6 -73q-42 13 -86 13q-51 0 -77 -21t-34 -66l2 -2q38 22 87 22q138 0 138 -119q0 -70 -39.5 -106t-114.5 -36zM187 189q-18 0 -38.5 -7t-30.5 -18q1 -52 16.5 -73t53.5 -21q62 0 62 68q0 26 -15 38.5
t-48 12.5z" />
    <glyph glyph-name="seven.dnom" horiz-adv-x="346" 
d="M59 0l172 310h-218l5 84h311v-78l-163 -316h-107z" />
    <glyph glyph-name="eight.dnom" horiz-adv-x="360" 
d="M19 116q0 28 15.5 51.5t49.5 36.5v2q-25 16 -36.5 35.5t-11.5 49.5q0 109 145 109q74 0 109 -28t35 -79t-49 -79v-2q34 -14 49.5 -35.5t15.5 -56.5q0 -125 -160 -125q-162 0 -162 121zM242 285q0 23 -15 34.5t-47 11.5q-58 0 -58 -42q0 -20 20 -31.5t64 -22.5
q36 20 36 50zM250 110q0 23 -23 36t-75 27q-43 -23 -43 -58q0 -26 17 -38t57 -12q67 0 67 45z" />
    <glyph glyph-name="nine.dnom" horiz-adv-x="360" 
d="M154 -5q-34 0 -58 4.5t-51 14.5l13 73q23 -9 43.5 -13t47.5 -4q49 0 74.5 25t29.5 80l-2 1q-33 -27 -87 -27q-73 0 -108 32t-35 88q0 60 39 95.5t112 35.5q163 0 163 -187q0 -112 -45 -165t-136 -53zM171 326q-63 0 -63 -54q0 -28 15.5 -42t51.5 -14q22 0 41 6.5t28 18.5
q0 47 -17.5 66t-55.5 19z" />
    <glyph glyph-name="equal.dnom" horiz-adv-x="378" 
d="M329 298v-68h-279v68h279zM329 173v-68h-279v68h279z" />
    <glyph glyph-name="cent.dnom" horiz-adv-x="327" 
d="M225 309q-56 0 -78.5 -24.5t-22.5 -83.5t25 -85.5t74 -26.5q42 0 77 16l6 -67q-28 -18 -76 -23l-4 -75h-72l5 77q-130 23 -130 185q0 169 147 183l6 75h72l-7 -76q25 -4 55 -15l-5 -73q-34 13 -72 13z" />
    <glyph glyph-name="minus.dnom" horiz-adv-x="378" 
d="M329 242v-77h-283v77h283z" />
    <glyph glyph-name="glyph470" horiz-adv-x="56" 
 />
    <glyph glyph-name="numbersign.pnum.oldstyle" horiz-adv-x="600" 
d="M40 389v92h126l25 168h99l-25 -168h115l25 168h97l-25 -168h83v-92h-96l-20 -127h116v-92h-129l-25 -170h-97l25 170h-115l-26 -170h-98l25 170h-81v92h93l22 127h-114zM367 389h-115l-20 -127h114z" />
    <glyph glyph-name="dollar.pnum.oldstyle" horiz-adv-x="494" 
d="M294 -8l-8 -127h-100l8 125q-86 8 -145 43l15 108q34 -22 81.5 -34.5t90.5 -12.5q52 0 78 21t26 56q0 32 -28 49.5t-86 35.5q-57 19 -92.5 36.5t-61 51.5t-25.5 90q0 73 45.5 119.5t132.5 56.5l9 120h100l-9 -122q58 -8 109 -30l-11 -106q-36 15 -78.5 23t-79.5 8
q-45 0 -70.5 -17t-25.5 -47t26 -45.5t82 -32.5t92.5 -34.5t62.5 -52t26 -91.5q0 -79 -40.5 -129t-123.5 -62z" />
    <glyph glyph-name="zero.pnum.oldstyle" horiz-adv-x="645" 
d="M322 -10q-139 0 -201.5 78.5t-62.5 247.5q0 118 27.5 190.5t85.5 106.5t152 34q93 0 151 -34t85.5 -106.5t27.5 -190.5q0 -169 -63.5 -247.5t-201.5 -78.5zM323 532q-49 0 -79 -18.5t-44.5 -65t-14.5 -130.5q0 -86 14.5 -132.5t44 -64.5t79.5 -18q49 0 78 18t43.5 64.5
t14.5 131.5t-14.5 131.5t-44 65t-77.5 18.5z" />
    <glyph glyph-name="one.pnum.oldstyle" horiz-adv-x="476" 
d="M207 399l1 74l-2 2l-38 -25l-108 -64l-33 114l233 138h78v-638h-131v399z" />
    <glyph glyph-name="two.pnum.oldstyle" horiz-adv-x="589" 
d="M210 116v-5h326l-3 -111h-479v124q148 98 211 144t95.5 85t32.5 79q0 99 -119 99q-99 0 -187 -60l-36 107q45 32 106.5 50t128.5 18q118 0 178.5 -51t60.5 -143q0 -66 -36 -119.5t-99.5 -100t-179.5 -116.5z" />
    <glyph glyph-name="three.pnum.oldstyle" horiz-adv-x="574" 
d="M79 -110l-11 106q175 4 249.5 45t74.5 112q0 50 -31.5 74t-101.5 24q-56 0 -99 -7l-7 95q118 6 168 33.5t50 75.5q0 86 -115 86q-50 0 -92.5 -12.5t-87.5 -35.5l-31 104q41 24 100 40.5t120 16.5q113 0 169 -49t56 -136q0 -111 -115 -152v-2q67 -7 103.5 -47t36.5 -105
q0 -259 -436 -266z" />
    <glyph glyph-name="four.pnum.oldstyle" horiz-adv-x="637" 
d="M382 -110v174h-350l-10 85l320 489h158v-469h100l-4 -105h-96v-167zM391 546l-45 -81l-144 -229l-46 -64l1 -3h225l6 283l5 93z" />
    <glyph glyph-name="five.pnum.oldstyle" horiz-adv-x="620" 
d="M107 -110l-12 111q170 2 249 42t79 117q0 52 -31 78t-102 26q-43 0 -86.5 -9t-74.5 -23l-45 52l30 354h400l5 -123h-304l-8 -106l-5 -53h2q62 17 129 17q104 0 160.5 -51t56.5 -144q0 -284 -443 -288z" />
    <glyph glyph-name="six.pnum.oldstyle" horiz-adv-x="625" 
d="M320 -9q-128 0 -194 81.5t-66 258.5q0 211 112.5 314t310.5 104l19 -111q-153 0 -225.5 -60t-82.5 -171l2 -2q30 24 69.5 38.5t97.5 14.5q101 0 154.5 -54.5t53.5 -154.5q0 -123 -66 -190.5t-185 -67.5zM334 355q-44 0 -81.5 -15.5t-60.5 -39.5q1 -109 32.5 -154.5
t95.5 -45.5q59 0 92 34.5t33 97.5q0 59 -28 91t-83 32z" />
    <glyph glyph-name="seven.pnum.oldstyle" horiz-adv-x="577" 
d="M106 -98l289 610h-355l8 125h485v-110l-284 -625h-143z" />
    <glyph glyph-name="eight.pnum.oldstyle" horiz-adv-x="643" 
d="M183 331v2q-49 25 -72 58t-23 84q0 82 57.5 126.5t176.5 44.5t176 -44.5t57 -126.5q0 -95 -99 -135v-2q64 -23 95.5 -59t31.5 -96q0 -96 -66 -145t-195 -49q-262 0 -262 194q0 45 32 85t91 63zM366 371q38 18 56.5 40t18.5 51q0 42 -28 62.5t-92 20.5q-59 0 -85.5 -19
t-26.5 -56q0 -29 20.5 -46.5t50 -27.5t86.5 -25zM307 279l-33 9q-89 -42 -89 -103q0 -48 33 -70.5t107 -22.5q61 0 95.5 20.5t34.5 63.5q0 29 -19.5 47.5t-47.5 29t-81 26.5z" />
    <glyph glyph-name="nine.pnum.oldstyle" horiz-adv-x="617" 
d="M133 -108l-12 109q125 4 205 62.5t96 167.5l-2 2q-61 -49 -155 -49q-97 0 -153.5 57t-56.5 168q0 110 64.5 173.5t181.5 63.5q126 0 191 -78t65 -242q0 -145 -55 -241.5t-150 -143.5t-219 -49zM298 537q-55 0 -85.5 -31.5t-30.5 -90.5q0 -60 28.5 -91.5t89.5 -31.5
q41 0 74.5 14.5t54.5 33.5q-1 108 -31.5 152.5t-99.5 44.5z" />
    <glyph glyph-name="cent.pnum.oldstyle" horiz-adv-x="498" 
d="M351 -9v-140h-111v140q-207 32 -207 311q0 136 50.5 212.5t156.5 92.5v143h111v-142q57 -8 96 -24l-8 -112q-54 23 -111 23q-61 0 -96.5 -19.5t-51 -61t-15.5 -112.5q0 -107 40 -155t120 -48q67 0 118 28l9 -102q-42 -27 -101 -34z" />
    <glyph glyph-name="sterling.pnum.oldstyle" horiz-adv-x="600" 
d="M95 463q0 86 60.5 140.5t198.5 54.5q92 0 170 -29l-16 -106q-30 11 -67.5 18.5t-74.5 7.5q-142 0 -142 -97q0 -35 13 -85h237v-91h-214q4 -23 4 -53q0 -41 -15 -72t-43 -49l2 -3q72 16 176 16q88 0 171 -11l-6 -110q-117 12 -226 12q-134 0 -259 -10l-4 107q40 9 61 40.5
t21 72.5q0 28 -5 60h-96v91h71q-17 57 -17 96z" />
    <glyph glyph-name="currency.pnum.oldstyle" horiz-adv-x="600" 
d="M141 422l-65 67l65 71l68 -71q43 24 90 24t90 -24l70 71l65 -71l-67 -69q25 -45 25 -93q0 -45 -21 -87l62 -65l-65 -70l-62 64q-44 -28 -97 -28t-97 27l-62 -63l-64 70l61 63q-21 39 -21 89q0 51 25 95zM299 234q41 0 69.5 27.5t28.5 67.5q0 39 -28.5 66.5t-69.5 27.5
t-69.5 -27.5t-28.5 -66.5q0 -40 28.5 -67.5t69.5 -27.5z" />
    <glyph glyph-name="yen.pnum.oldstyle" horiz-adv-x="600" 
d="M157 649l111 -219l33 -74h3l34 74l108 219h134l-179 -312h133v-84h-164v-87h164v-84h-164v-82h-135v82h-162v84h162v87h-162v84h131l-184 312h137z" />
    <glyph glyph-name="franc.pnum.oldstyle" horiz-adv-x="600" 
d="M575 649l3 -114h-327v-154h249l-1 -108h-248v-104h97v-85h-97v-84h-126v84h-91v85h91v480h450z" />
    <glyph glyph-name="lira.pnum.oldstyle" horiz-adv-x="600" 
d="M555 104l-6 -110q-117 12 -226 12q-134 0 -259 -10l-4 107q33 8 54.5 32t27.5 57h-107v86h101q-5 24 -24 80h-77v86h61q-1 6 -1 19q0 86 60.5 140.5t198.5 54.5q92 0 170 -29l-16 -106q-30 11 -67.5 18.5t-74.5 7.5q-142 0 -142 -97v-8h235v-86h-222l6 -22q11 -45 14 -58
h202v-86h-198q-11 -62 -55 -90l2 -3q72 16 176 16q88 0 171 -11z" />
    <glyph glyph-name="peseta.pnum.oldstyle" horiz-adv-x="600" 
d="M143 649q50 0 77 -16.5t39.5 -58.5t12.5 -121q0 -78 -11.5 -119.5t-39 -58.5t-77.5 -17h-37v-258h-73v649h109zM198 453q0 48 -5 70.5t-16 30.5t-33 8h-37v-222h37q21 0 32 8t16.5 32t5.5 73zM308 90v246h-21v65h23l12 89l49 9v-98h44v-65h-43v-244q0 -29 23 -29
q8 0 14 3l1 -65q-4 -4 -14 -6t-20 -2q-68 0 -68 97zM434 7l2 71q18 -14 45 -14q18 0 26 12.5t8 38.5q0 19 -8 31t-26 28q-25 24 -38 47t-13 68q0 48 22.5 82.5t63.5 34.5q29 0 51 -15l-4 -72q-20 11 -41 11q-31 0 -31 -40q0 -19 8 -31t24 -26q25 -22 38.5 -46t13.5 -71
q0 -64 -21.5 -94t-65.5 -30q-32 0 -54 15z" />
    <glyph glyph-name="Euro.pnum.oldstyle" horiz-adv-x="600" 
d="M400 547q-75 0 -111 -25t-55 -75h277l-22 -77h-266q-2 -28 -2 -44q0 -12 2 -42h248l-22 -77h-215q17 -57 58 -82.5t115 -25.5q41 0 81.5 9.5t70.5 26.5l10 -107q-33 -19 -81.5 -30t-104.5 -11q-249 0 -294 220h-74v77h63q-2 34 -2 45q0 15 2 41h-63v77h75
q22 97 97.5 154.5t199.5 57.5q53 0 103 -8.5t85 -23.5l-32 -106q-26 11 -66.5 18.5t-76.5 7.5z" />
    <glyph glyph-name="numbersign.pnum" horiz-adv-x="637" 
d="M46 451v100h147l30 199h101l-30 -199h99l30 199h99l-30 -199h99v-100h-112l-25 -152h136l1 -101h-150l-30 -198h-99l29 198h-99l-30 -198h-101l30 198h-96v101h109l25 152h-133zM380 451h-99l-25 -152h100z" />
    <glyph glyph-name="dollar.pnum" horiz-adv-x="596" 
d="M25 49l31 111q51 -29 96.5 -43.5t92.5 -17.5v234q-81 19 -127.5 46t-68 68t-21.5 103q0 86 56 140t161 67v135h107v-133q104 -6 182 -43l-26 -106q-76 31 -156 38v-215q81 -22 126.5 -48.5t65.5 -66.5t20 -104q0 -91 -54 -148t-158 -73v-135h-107v130q-113 6 -220 61z
M154 553q0 -38 21 -60.5t70 -35.5v187q-47 -9 -69 -31.5t-22 -59.5zM439 207q0 83 -87 103v-204q47 10 67 34t20 67z" />
    <glyph glyph-name="zero.pnum" horiz-adv-x="670" 
d="M332 -11q-98 0 -157.5 39.5t-87.5 123.5t-28 221q0 142 28 226t87.5 122t158.5 38q97 0 156.5 -38t88 -122t28.5 -226q0 -136 -28.5 -220.5t-89 -124t-156.5 -39.5zM333 638q-52 0 -82.5 -21.5t-45.5 -78.5t-15 -164q0 -110 15 -167t45 -78t83 -21q52 0 82 21.5t44.5 79
t14.5 166.5q0 108 -14.5 164.5t-44.5 77.5t-82 21z" />
    <glyph glyph-name="one.pnum" horiz-adv-x="472" 
d="M208 499l2 80l-2 2l-68 -44l-77 -48l-14 115l216 147h81v-751h-138v499z" />
    <glyph glyph-name="two.pnum" horiz-adv-x="655" 
d="M440 537q0 61 -32.5 89t-102.5 28q-49 0 -99 -18.5t-91 -51.5l-45 107q52 38 115.5 58.5t129.5 20.5q122 0 189.5 -58.5t67.5 -164.5q0 -71 -38.5 -136.5t-114 -134t-205.5 -165.5v-7h365v-116h-515v138q171 141 246.5 210t102.5 112t27 89z" />
    <glyph glyph-name="three.pnum" horiz-adv-x="655" 
d="M46 48l39 109q46 -27 91 -39.5t98 -12.5q72 0 112 34t40 95q0 54 -44 79q-37 21 -134 21h-75v112h72q40 0 73 7t50 19q23 16 33 35.5t10 47.5q0 43 -33 65.5t-98 22.5q-54 0 -98.5 -15.5t-87.5 -47.5l-46 105q42 34 108.5 54.5t133.5 20.5q119 0 183.5 -51.5t64.5 -146.5
q0 -66 -35.5 -105.5t-95.5 -60.5v-2q67 -11 109 -53t42 -111q0 -119 -75.5 -178.5t-206.5 -59.5q-136 0 -230 56z" />
    <glyph glyph-name="four.pnum" horiz-adv-x="655" 
d="M371 0v151h-338l-12 87l312 512h162v-483h113v-116h-113v-151h-124zM382 629l-41 -71l-132 -222l-42 -66l1 -3h207l5 280l4 81z" />
    <glyph glyph-name="five.pnum" horiz-adv-x="655" 
d="M85 49l25 110q48 -27 91 -40t97 -13q80 0 115.5 34.5t35.5 105.5q0 61 -35 88.5t-111 27.5q-43 0 -86.5 -8.5t-75.5 -22.5l-49 53l31 366h419l5 -122h-319l-9 -121l-4 -46l2 -2q62 16 124 16q118 0 179.5 -54.5t61.5 -163.5q0 -129 -67 -197.5t-204 -68.5q-130 0 -226 58
z" />
    <glyph glyph-name="six.pnum" horiz-adv-x="670" 
d="M338 -9q-138 0 -206.5 85t-68.5 279q0 200 81.5 302t240.5 102q49 0 89.5 -7t80.5 -22l-10 -117q-36 13 -69.5 18.5t-74.5 5.5q-100 0 -149.5 -49t-59.5 -155l2 -2q75 53 168 53q119 0 177.5 -55.5t58.5 -167.5q0 -135 -66.5 -202.5t-193.5 -67.5zM337 379
q-36 0 -76.5 -16t-62.5 -42q1 -81 15.5 -127.5t44.5 -66.5t79 -20q130 0 130 156q0 60 -31 88t-99 28z" />
    <glyph glyph-name="seven.pnum" horiz-adv-x="577" 
d="M99 -1l317 620h-403l6 130h529v-116l-297 -634h-152z" />
    <glyph glyph-name="eight.pnum" horiz-adv-x="670" 
d="M58 215q0 122 120 179v2q-46 25 -69.5 63t-23.5 99q0 94 61.5 147.5t182.5 53.5q123 0 182.5 -51t59.5 -146q0 -53 -26 -96.5t-75 -68.5v-2q128 -44 128 -181q0 -111 -68 -167t-201 -56q-139 0 -205 56t-66 168zM452 551q0 50 -30 74.5t-94 24.5q-59 0 -89 -25.5
t-30 -72.5q0 -43 25 -66t74 -37l56 -16q44 24 66 52t22 66zM468 207q0 50 -32 76.5t-91 43.5l-60 18q-99 -52 -99 -131q0 -60 34.5 -87.5t111.5 -27.5q64 0 100 26.5t36 81.5z" />
    <glyph glyph-name="nine.pnum" horiz-adv-x="670" 
d="M282 -9q-57 0 -99 8t-84 27l19 112q38 -15 73.5 -22.5t77.5 -7.5q96 0 141 53t52 173l-2 2q-64 -48 -165 -48q-119 0 -179 60.5t-60 166.5q0 116 64.5 180t194.5 64q133 0 204.5 -88t71.5 -263q0 -219 -76 -318t-233 -99zM313 643q-129 0 -129 -123q0 -61 33 -92.5
t103 -31.5q45 0 80.5 14t58.5 43q-1 101 -38.5 145.5t-107.5 44.5z" />
    <glyph glyph-name="cent.pnum" horiz-adv-x="578" 
d="M392 -9v-140h-111v140q-207 32 -207 311q0 136 50.5 212.5t156.5 92.5v143h111v-142q57 -8 96 -24l-8 -112q-54 23 -111 23q-61 0 -96.5 -19.5t-51 -61t-15.5 -112.5q0 -107 40 -155t120 -48q67 0 118 28l9 -102q-42 -27 -101 -34z" />
    <glyph glyph-name="sterling.pnum" horiz-adv-x="631" 
d="M98 543q0 97 66.5 158t212.5 61q100 0 184 -34l-16 -118q-32 13 -72.5 21.5t-80.5 8.5q-82 0 -120 -30.5t-38 -82.5q0 -42 18 -103h252v-103h-227q5 -33 5 -63q0 -49 -18.5 -86t-51.5 -58l1 -2q77 17 195 17q98 0 189 -12l-7 -124q-127 15 -243 15q-144 0 -291 -17
l-6 120q51 13 78.5 49.5t27.5 91.5q0 38 -6 69h-105v103h77q-12 34 -18 61.5t-6 57.5z" />
    <glyph glyph-name="currency.pnum" horiz-adv-x="594" 
d="M135 460l-68 70l67 72l71 -73q42 25 92 25t92 -25l72 74l67 -73l-69 -72q25 -44 25 -95q0 -46 -21 -90l65 -66l-67 -73l-65 66q-45 -28 -99 -28t-99 28l-65 -67l-67 73l65 67q-22 42 -22 90q0 53 26 97zM296 266q44 0 73.5 28.5t29.5 70.5q0 41 -30 70t-73 29t-73 -29
t-30 -70q0 -42 30 -70.5t73 -28.5z" />
    <glyph glyph-name="yen.pnum" horiz-adv-x="719" 
d="M107 116v90h179v100h-179v90h144l-190 354h152l115 -263l28 -79h3l27 76l116 266h148l-185 -354h146v-90h-179v-100h180v-90h-180v-116h-146v116h-179z" />
    <glyph glyph-name="franc.pnum" horiz-adv-x="617" 
d="M535 430l-1 -121h-286v-97h141v-95h-141v-117h-138v117h-97v95h97v538h479l3 -128h-344v-192h287z" />
    <glyph glyph-name="lira.pnum" horiz-adv-x="651" 
d="M607 117l-7 -124q-127 15 -243 15q-144 0 -291 -17l-6 120q45 11 72 41.5t33 76.5h-110v90h99l-11 38q-10 34 -14 52h-74v90h56q-3 23 -3 44q0 97 66.5 158t212.5 61q100 0 184 -34l-16 -118q-32 13 -72.5 21.5t-80.5 8.5q-82 0 -120 -30.5t-38 -82.5q0 -8 2 -28h268v-90
h-250q15 -57 22 -90h228v-90h-224q-9 -77 -68 -115l1 -2q77 17 195 17q97 0 189 -12z" />
    <glyph glyph-name="peseta.pnum" horiz-adv-x="817" 
d="M202 750q65 0 104.5 -21.5t58.5 -71.5t19 -137q0 -83 -18.5 -133t-58 -73t-105.5 -23h-48v-291h-95v750h143zM283 519q0 52 -7.5 79t-24.5 37.5t-49 10.5h-48v-256h48q31 0 48 10t25 37.5t8 81.5zM429 110v271h-26v78h30l14 102l67 8v-110h54v-78h-54v-270q0 -35 29 -35
q6 0 18 4l2 -79q-5 -4 -17.5 -7t-25.5 -3q-45 0 -68 30t-23 89zM598 11l3 86q28 -20 65 -20q43 0 43 53q0 23 -11 36.5t-35 29.5q-23 16 -37 30t-24.5 39.5t-10.5 63.5q0 58 29.5 97t82.5 39q40 0 70 -20l-6 -85q-27 15 -59 15q-38 0 -38 -44q0 -20 10.5 -32.5t32.5 -27.5
q23 -16 37.5 -30.5t25 -40.5t10.5 -67q0 -145 -115 -145q-21 0 -40.5 6t-32.5 17z" />
    <glyph glyph-name="Euro.pnum" horiz-adv-x="665" 
d="M437 -14q-130 0 -206 61t-101 187h-106v90h95q-2 36 -2 57q0 29 1 43h-94v90h105q24 125 101.5 187t213.5 62q46 0 91 -8.5t80 -20.5l-15 -120q-68 26 -149 26q-76 0 -119.5 -29t-61.5 -97h262v-90h-274q-1 -14 -1 -44q0 -22 2 -56h273v-90h-260q19 -69 62.5 -98
t120.5 -29q79 0 147 28l16 -114q-35 -16 -83 -25.5t-98 -9.5z" />
    <glyph glyph-name="numbersign.oldstyle" horiz-adv-x="618" 
d="M40 389v92h126l25 168h99l-25 -168h115l25 168h97l-25 -168h83v-92h-96l-20 -127h116v-92h-129l-25 -170h-97l25 170h-115l-26 -170h-98l25 170h-81v92h93l22 127h-114zM367 389h-115l-20 -127h114z" />
    <glyph glyph-name="dollar.oldstyle" horiz-adv-x="618" 
d="M339 -9l-9 -130h-107l9 130q-97 8 -163 46l18 114q41 -26 96.5 -39.5t105.5 -13.5q57 0 84.5 20.5t27.5 54.5q0 30 -30 45t-95 33q-65 17 -106.5 33.5t-71.5 52t-30 93.5q0 75 50 122t147 57l10 128h107l-11 -128q66 -7 138 -33l-12 -113q-87 34 -181 34q-54 0 -82.5 -16
t-28.5 -45t28.5 -42.5t92.5 -29.5q65 -16 106.5 -32.5t71.5 -51.5t30 -93q0 -81 -48 -133t-147 -63z" />
    <glyph glyph-name="zero.oldstyle" horiz-adv-x="618" 
d="M308 -10q-139 0 -201.5 78.5t-62.5 247.5q0 118 27.5 190.5t85.5 106.5t152 34q93 0 151 -34t85.5 -106.5t27.5 -190.5q0 -169 -63.5 -247.5t-201.5 -78.5zM309 532q-49 0 -79 -18.5t-44.5 -65t-14.5 -130.5q0 -86 14.5 -132.5t44 -64.5t79.5 -18q49 0 78 18t43.5 64.5
t14.5 131.5t-14.5 131.5t-44 65t-77.5 18.5z" />
    <glyph glyph-name="one.oldstyle" horiz-adv-x="618" 
d="M253 405l2 72l-2 2l-58 -37l-113 -61v130l228 127h81v-523h158v-115h-465v115h169v290z" />
    <glyph glyph-name="two.oldstyle" horiz-adv-x="618" 
d="M220 116v-5h326l-3 -111h-479v124q148 98 211 144t95.5 85t32.5 79q0 99 -119 99q-99 0 -187 -60l-36 107q45 32 106.5 50t128.5 18q118 0 178.5 -51t60.5 -143q0 -66 -36 -119.5t-99.5 -100t-179.5 -116.5z" />
    <glyph glyph-name="three.oldstyle" horiz-adv-x="618" 
d="M89 -110l-11 106q175 4 249.5 45t74.5 112q0 50 -31.5 74t-101.5 24q-56 0 -99 -7l-7 95q118 6 168 33.5t50 75.5q0 86 -115 86q-50 0 -92.5 -12.5t-87.5 -35.5l-31 104q41 24 100 40.5t120 16.5q113 0 169 -49t56 -136q0 -111 -115 -152v-2q67 -7 103.5 -47t36.5 -105
q0 -259 -436 -266z" />
    <glyph glyph-name="four.oldstyle" horiz-adv-x="618" 
d="M367 -110v174h-350l-10 85l320 489h158v-469h100l-4 -105h-96v-167zM376 546l-45 -81l-144 -229l-46 -64l1 -3h225l6 283l5 93z" />
    <glyph glyph-name="five.oldstyle" horiz-adv-x="618" 
d="M132 -110l-12 111q170 2 249 42t79 117q0 52 -31 78t-102 26q-43 0 -86.5 -9t-74.5 -23l-45 52l30 354h400l5 -123h-304l-8 -106l-5 -53h2q62 17 129 17q104 0 160.5 -51t56.5 -144q0 -284 -443 -288z" />
    <glyph glyph-name="six.oldstyle" horiz-adv-x="618" 
d="M336 -9q-128 0 -194 81.5t-66 258.5q0 211 112.5 314t310.5 104l19 -111q-153 0 -225.5 -60t-82.5 -171l2 -2q30 24 69.5 38.5t97.5 14.5q101 0 154.5 -54.5t53.5 -154.5q0 -123 -66 -190.5t-185 -67.5zM350 355q-44 0 -81.5 -15.5t-60.5 -39.5q1 -109 32.5 -154.5
t95.5 -45.5q59 0 92 34.5t33 97.5q0 59 -28 91t-83 32z" />
    <glyph glyph-name="seven.oldstyle" horiz-adv-x="618" 
d="M113 -98l289 610h-355l8 125h485v-110l-284 -625h-143z" />
    <glyph glyph-name="eight.oldstyle" horiz-adv-x="618" 
d="M189 331v2q-49 25 -72 58t-23 84q0 82 57.5 126.5t176.5 44.5t176 -44.5t57 -126.5q0 -95 -99 -135v-2q64 -23 95.5 -59t31.5 -96q0 -96 -66 -145t-195 -49q-262 0 -262 194q0 45 32 85t91 63zM372 371q38 18 56.5 40t18.5 51q0 42 -28 62.5t-92 20.5q-59 0 -85.5 -19
t-26.5 -56q0 -29 20.5 -46.5t50 -27.5t86.5 -25zM313 279l-33 9q-89 -42 -89 -103q0 -48 33 -70.5t107 -22.5q61 0 95.5 20.5t34.5 63.5q0 29 -19.5 47.5t-47.5 29t-81 26.5z" />
    <glyph glyph-name="nine.oldstyle" horiz-adv-x="618" 
d="M139 -108l-12 109q125 4 205 62.5t96 167.5l-2 2q-61 -49 -155 -49q-97 0 -153.5 57t-56.5 168q0 110 64.5 173.5t181.5 63.5q126 0 191 -78t65 -242q0 -145 -55 -241.5t-150 -143.5t-219 -49zM304 537q-55 0 -85.5 -31.5t-30.5 -90.5q0 -60 28.5 -91.5t89.5 -31.5
q41 0 74.5 14.5t54.5 33.5q-1 108 -31.5 152.5t-99.5 44.5z" />
    <glyph glyph-name="cent.oldstyle" horiz-adv-x="618" 
d="M383 490q-94 0 -136.5 -47.5t-42.5 -145.5q0 -102 43.5 -147.5t131.5 -45.5q41 0 82.5 9.5t72.5 24.5l11 -109q-25 -16 -60 -26.5t-71 -13.5v-130h-105v131q-122 14 -182.5 92.5t-60.5 215.5q0 136 63.5 214t179.5 91v134h105v-131q73 -7 124 -26l-8 -115q-31 11 -71 18
t-76 7z" />
    <glyph glyph-name="sterling.oldstyle" horiz-adv-x="618" 
d="M107 463q0 86 60.5 140.5t198.5 54.5q92 0 170 -29l-16 -106q-30 11 -67.5 18.5t-74.5 7.5q-142 0 -142 -97q0 -35 13 -85h237v-91h-214q4 -23 4 -53q0 -41 -15 -72t-43 -49l2 -3q72 16 176 16q88 0 171 -11l-6 -110q-117 12 -226 12q-134 0 -259 -10l-4 107
q40 9 61 40.5t21 72.5q0 28 -5 60h-96v91h71q-17 57 -17 96z" />
    <glyph glyph-name="currency.oldstyle" horiz-adv-x="618" 
d="M141 422l-65 67l65 71l68 -71q43 24 90 24t90 -24l70 71l65 -71l-67 -69q25 -45 25 -93q0 -45 -21 -87l62 -65l-65 -70l-62 64q-44 -28 -97 -28t-97 27l-62 -63l-64 70l61 63q-21 39 -21 89q0 51 25 95zM299 234q41 0 69.5 27.5t28.5 67.5q0 39 -28.5 66.5t-69.5 27.5
t-69.5 -27.5t-28.5 -66.5q0 -40 28.5 -67.5t69.5 -27.5z" />
    <glyph glyph-name="yen.oldstyle" horiz-adv-x="618" 
d="M154 649l111 -219l33 -74h3l34 74l108 219h134l-179 -312h133v-84h-164v-87h164v-84h-164v-82h-135v82h-162v84h162v87h-162v84h131l-184 312h137z" />
    <glyph glyph-name="uni2007.aalt" horiz-adv-x="618" 
 />
    <glyph glyph-name="franc.oldstyle" horiz-adv-x="618" 
d="M574 649l3 -114h-327v-154h249l-1 -108h-248v-104h97v-85h-97v-84h-126v84h-91v85h91v480h450z" />
    <glyph glyph-name="lira.oldstyle" horiz-adv-x="618" 
d="M576 104l-6 -110q-117 12 -226 12q-134 0 -259 -10l-4 107q33 8 54.5 32t27.5 57h-107v86h101q-5 24 -24 80h-77v86h61q-1 6 -1 19q0 86 60.5 140.5t198.5 54.5q92 0 170 -29l-16 -106q-30 11 -67.5 18.5t-74.5 7.5q-142 0 -142 -97v-8h235v-86h-222l6 -22q11 -45 14 -58
h202v-86h-198q-11 -62 -55 -90l2 -3q72 16 176 16q88 0 171 -11z" />
    <glyph glyph-name="peseta.oldstyle" horiz-adv-x="618" 
d="M294 224h-102v-224h-121v402h-48v60h48v187h223q118 0 174.5 -45t63.5 -142h53v-59h-53q-8 -90 -65 -134.5t-173 -44.5zM294 544h-103v-82h216q-5 45 -31 63.5t-82 18.5zM407 402h-216v-77h103q54 0 80.5 16t32.5 61z" />
    <glyph glyph-name="Euro.oldstyle" horiz-adv-x="618" 
d="M405 547q-75 0 -111 -25t-55 -75h277l-22 -77h-266q-2 -28 -2 -44q0 -12 2 -42h248l-22 -77h-215q17 -57 58 -82.5t115 -25.5q41 0 81.5 9.5t70.5 26.5l10 -107q-33 -19 -81.5 -30t-104.5 -11q-249 0 -294 220h-74v77h63q-2 34 -2 45q0 15 2 41h-63v77h75
q22 97 97.5 154.5t199.5 57.5q53 0 103 -8.5t85 -23.5l-32 -106q-26 11 -66.5 18.5t-76.5 7.5z" />
    <glyph glyph-name="glyph532" horiz-adv-x="875" 
d="M493 374l-1 -111h-273v-263h-129v649h443l3 -117h-317v-158h274zM785 0h-131v649h131v-649z" />
    <glyph glyph-name="glyph533" horiz-adv-x="1106" 
d="M493 374l-1 -111h-273v-263h-129v649h443l3 -117h-317v-158h274zM654 0v649h129v-533h301l-3 -116h-427z" />
    <glyph glyph-name="exclam.aalt" horiz-adv-x="314" 
d="M221 649l-18 -411h-92l-19 411h129zM78 62q0 76 79 76t79 -76q0 -74 -79 -74t-79 74z" />
    <glyph glyph-name="ampersand.aalt" horiz-adv-x="704" 
d="M55 178q0 67 34.5 111t113.5 74q-63 68 -63 139q0 73 49.5 113.5t140.5 40.5q85 0 132 -39t47 -108q0 -57 -30.5 -96t-91.5 -68l-19 -9q48 -48 118 -110q15 28 25.5 69.5t11.5 74.5l113 -2q-3 -50 -21 -106t-47 -102q90 -67 131 -87l-67 -90q-56 33 -131 91
q-43 -41 -96 -62.5t-123 -21.5q-110 0 -168.5 49t-58.5 139zM396 500q0 33 -18.5 50t-52.5 17q-37 0 -55 -16t-18 -51q0 -52 51 -99q93 35 93 99zM419 141l-30 28q-97 89 -128 124q-47 -19 -66.5 -44t-19.5 -65q0 -91 113 -91q43 0 74 11t57 37z" />
    <glyph glyph-name="question.aalt" horiz-adv-x="484" 
d="M283 284l-5 -98h-93l-8 145q73 36 108 68.5t35 75.5q0 36 -25.5 54t-73.5 18q-83 0 -147 -53l-44 95q35 31 90.5 50t117.5 19q101 0 153.5 -43.5t52.5 -120.5q0 -70 -41.5 -121t-119.5 -89zM232 -10q-36 0 -52.5 14t-16.5 47q0 63 69 63q68 0 68 -63q0 -61 -68 -61z" />
    <glyph glyph-name="grave.c2sc" 
d="M214 819l72 -129h-95l-121 129h144z" />
    <glyph glyph-name="A.c2sc" horiz-adv-x="670" 
d="M148 0h-137l247 649h151l250 -649h-145l-45 136h-275zM433 243l-75 229l-23 78h-3l-25 -78l-77 -229h203z" />
    <glyph glyph-name="B.aalt" horiz-adv-x="662" 
d="M368 0h-278v649h270q106 0 160 -43t54 -122q0 -55 -24 -89.5t-66 -50.5v-2q57 -15 86.5 -54t29.5 -100q0 -188 -232 -188zM356 540h-142v-161h148q46 0 67.5 19.5t21.5 61.5q0 43 -22.5 61.5t-72.5 18.5zM366 286h-153v-180h156q54 0 78.5 20.5t24.5 71.5
q0 45 -25.5 66.5t-80.5 21.5z" />
    <glyph glyph-name="C.aalt" horiz-adv-x="567" 
d="M376 545q-69 0 -108.5 -20.5t-57.5 -67.5t-18 -129q0 -86 18.5 -135t58.5 -70t109 -21q73 0 141 29l14 -105q-36 -17 -82 -27.5t-90 -10.5q-154 0 -228.5 84t-74.5 257q0 165 76 248t236 83q41 0 85.5 -8.5t75.5 -20.5l-15 -112q-62 26 -140 26z" />
    <glyph glyph-name="D.aalt" horiz-adv-x="701" 
d="M329 0h-239v649h238q159 0 237 -80t78 -243q0 -165 -80.5 -245.5t-233.5 -80.5zM326 533h-108v-418h108q62 0 102 19t60.5 66t20.5 128q0 77 -20 122t-59.5 64t-103.5 19z" />
    <glyph glyph-name="E.aalt" horiz-adv-x="601" 
d="M90 0v649h444l2 -115h-318v-149h270v-101h-270v-171h333l-4 -113h-457z" />
    <glyph glyph-name="F.aalt" horiz-adv-x="564" 
d="M493 374l-1 -111h-273v-263h-129v649h443l3 -117h-317v-158h274z" />
    <glyph glyph-name="G.aalt" horiz-adv-x="659" 
d="M58 323q0 172 77.5 255t245.5 83q48 0 98.5 -9t88.5 -23l-13 -112q-77 29 -167 29q-74 0 -116 -20.5t-61 -68t-19 -132.5t17.5 -133t55.5 -68.5t103 -20.5q57 0 97 12v133h-103v100h219v-320q-39 -18 -96.5 -29t-112.5 -11q-167 0 -240.5 82t-73.5 253z" />
    <glyph glyph-name="H.aalt" horiz-adv-x="715" 
d="M219 274v-274h-129v649h129v-258h277v258h129v-649h-129v274h-277z" />
    <glyph glyph-name="I.aalt" horiz-adv-x="311" 
d="M221 0h-131v649h131v-649z" />
    <glyph glyph-name="J.aalt" horiz-adv-x="481" 
d="M170 -12q-40 0 -75.5 8.5t-60.5 23.5l8 109q21 -13 49 -21t54 -8q62 0 89 29.5t27 94.5v425h130v-425q0 -236 -221 -236z" />
    <glyph glyph-name="K.aalt" horiz-adv-x="672" 
d="M218 281v-281h-128v649h128v-262h90l184 262h149l-220 -308l232 -341h-159l-190 281h-86z" />
    <glyph glyph-name="L.aalt" horiz-adv-x="542" 
d="M90 0v649h129v-533h301l-3 -116h-427z" />
    <glyph glyph-name="M.aalt" horiz-adv-x="873" 
d="M435 173h3l30 74l175 402h140v-649h-117v374l2 81l-3 1l-30 -76l-158 -380h-84l-157 372l-30 76l-2 -1l1 -81v-366h-115v649h142l172 -401z" />
    <glyph glyph-name="N.aalt" horiz-adv-x="720" 
d="M206 459l-2 -1l1 -81v-377h-115v649h110l270 -378l46 -66l2 1l-2 80v363h114v-649h-102l-277 392z" />
    <glyph glyph-name="O.c2sc" horiz-adv-x="708" 
d="M354 -12q-156 0 -226 81.5t-70 254.5q0 174 69.5 254.5t226.5 80.5t226.5 -80.5t69.5 -254.5q0 -175 -69.5 -255.5t-226.5 -80.5zM354 544q-61 0 -96 -19.5t-50.5 -67t-15.5 -133.5t16 -133.5t51 -67.5t96 -20t95 20t49.5 67.5t15.5 133.5q0 87 -15 134t-49.5 66.5
t-96.5 19.5z" />
    <glyph glyph-name="P.aalt" horiz-adv-x="622" 
d="M331 219h-112v-219h-129v649h241q133 0 193.5 -53t60.5 -165q0 -104 -61 -158t-193 -54zM330 541h-112v-218h113q67 0 94.5 22.5t27.5 86.5q0 61 -28 85t-95 24z" />
    <glyph glyph-name="Q.aalt" horiz-adv-x="708" 
d="M437 -5l96 -188h-135l-78 182q-137 9 -199.5 90.5t-62.5 244.5q0 174 69.5 254.5t226.5 80.5t226.5 -80.5t69.5 -254.5q0 -150 -50.5 -230t-162.5 -99zM515 324q0 87 -15 134t-49.5 66.5t-96.5 19.5q-61 0 -96 -19.5t-50.5 -67t-15.5 -133.5t16 -133.5t51 -67.5t96 -20
t95 20t49.5 67.5t15.5 133.5z" />
    <glyph glyph-name="R.aalt" horiz-adv-x="647" 
d="M454 275l167 -275h-153l-132 249h-117v-249h-129v649h246q121 0 180.5 -48.5t59.5 -148.5q0 -70 -31.5 -116t-90.5 -61zM336 542h-117v-195h115q59 0 83.5 22t24.5 78q0 52 -23.5 73.5t-82.5 21.5z" />
    <glyph glyph-name="S.aalt" horiz-adv-x="561" 
d="M266 -12q-119 0 -210 50l18 112q93 -51 192 -51q61 0 91.5 22t30.5 63q0 33 -30.5 51t-94.5 38q-63 20 -103.5 39t-69.5 56.5t-29 97.5q0 85 59.5 139.5t178.5 54.5q50 0 100 -9t90 -26l-17 -109q-92 30 -168 30q-64 0 -92 -20.5t-28 -53.5q0 -22 15.5 -37t39 -24.5
t67.5 -23.5q64 -19 105 -38t70.5 -57t29.5 -100q0 -94 -65 -149t-180 -55z" />
    <glyph glyph-name="T.aalt" horiz-adv-x="560" 
d="M215 0v534h-193l2 115h513l2 -115h-193v-534h-131z" />
    <glyph glyph-name="U.aalt" horiz-adv-x="719" 
d="M361 -12q-273 0 -273 253v408h129v-407q0 -71 35 -104t109 -33t108 33t34 104v407h128v-408q0 -253 -270 -253z" />
    <glyph glyph-name="V.aalt" horiz-adv-x="639" 
d="M248 0l-241 649h143l147 -455l24 -77h3l23 77l150 455h135l-241 -649h-143z" />
    <glyph glyph-name="W.aalt" horiz-adv-x="955" 
d="M677 116h3l14 79l95 454h128l-164 -649h-155l-102 446l-16 80h-3l-17 -80l-102 -446h-154l-166 649h135l94 -459l15 -79h3l16 79l109 459h141l108 -454z" />
    <glyph glyph-name="X.aalt" horiz-adv-x="656" 
d="M480 0l-112 192l-39 71h-2l-38 -72l-109 -191h-152l204 336l-198 313h156l103 -174l35 -61h2l37 63l102 172h150l-199 -310l209 -339h-149z" />
    <glyph glyph-name="Y.aalt" horiz-adv-x="616" 
d="M311 318h3l33 73l124 258h142l-236 -436v-213h-133v213l-241 436h147l127 -258z" />
    <glyph glyph-name="Z.aalt" horiz-adv-x="602" 
d="M335 467l48 63l-1 2h-318l5 117h474v-95l-276 -374l-48 -61l1 -3h326l-2 -116h-489v84z" />
    <glyph glyph-name="exclamdown.aalt" horiz-adv-x="302" 
d="M230 577q0 -76 -79 -76t-79 76q0 74 79 74t79 -74zM87 -10l18 411h92l19 -411h-129z" />
    <glyph glyph-name="dieresis.c2sc" 
d="M115 709q-28 0 -41 12t-13 39q0 50 54 50t54 -50q0 -51 -54 -51zM290 709q-28 0 -41 12t-13 39q0 50 54 50q55 0 55 -50q0 -51 -55 -51z" />
    <glyph glyph-name="glyph566" 
d="M52 783h302v-72h-302v72z" />
    <glyph glyph-name="acute.c2sc" 
d="M133 690l92 129h155l-142 -129h-105z" />
    <glyph glyph-name="cedilla.aalt" 
d="M231 -190h-116l68 199l84 2z" />
    <glyph glyph-name="questiondown.aalt" horiz-adv-x="484" 
d="M252 663q36 0 52.5 -14t16.5 -47q0 -63 -69 -63q-68 0 -68 63q0 61 68 61zM201 369l5 98h93l8 -145q-73 -36 -108 -68.5t-35 -75.5q0 -36 25.5 -54t73.5 -18q83 0 147 53l44 -95q-35 -31 -90.5 -50t-117.5 -19q-101 0 -153.5 43.5t-52.5 120.5q0 70 41.5 121t119.5 89z
" />
    <glyph glyph-name="germandbls.aalt" horiz-adv-x="1122" 
d="M266 -12q-119 0 -210 50l18 112q93 -51 192 -51q61 0 91.5 22t30.5 63q0 33 -30.5 51t-94.5 38q-63 20 -103.5 39t-69.5 56.5t-29 97.5q0 85 59.5 139.5t178.5 54.5q50 0 100 -9t90 -26l-17 -109q-92 30 -168 30q-64 0 -92 -20.5t-28 -53.5q0 -22 15.5 -37t39 -24.5
t67.5 -23.5q64 -19 105 -38t70.5 -57t29.5 -100q0 -94 -65 -149t-180 -55zM827 -12q-119 0 -210 50l18 112q93 -51 192 -51q61 0 91.5 22t30.5 63q0 33 -30.5 51t-94.5 38q-63 20 -103.5 39t-69.5 56.5t-29 97.5q0 85 59.5 139.5t178.5 54.5q50 0 100 -9t90 -26l-17 -109
q-92 30 -168 30q-64 0 -92 -20.5t-28 -53.5q0 -22 15.5 -37t39 -24.5t67.5 -23.5q64 -19 105 -38t70.5 -57t29.5 -100q0 -94 -65 -149t-180 -55z" />
    <glyph glyph-name="Agrave.aalt" horiz-adv-x="670" 
d="M148 0h-137l247 649h151l250 -649h-145l-45 136h-275zM433 243l-75 229l-23 78h-3l-25 -78l-77 -229h203zM294 960l124 -195h-114l-144 195h134z" />
    <glyph glyph-name="Aacute.aalt" horiz-adv-x="670" 
d="M148 0h-137l247 649h151l250 -649h-145l-45 136h-275zM433 243l-75 229l-23 78h-3l-25 -78l-77 -229h203zM516 960l-144 -195h-114l124 195h134z" />
    <glyph glyph-name="Acircumflex.aalt" horiz-adv-x="670" 
d="M148 0h-137l247 649h151l250 -649h-145l-45 136h-275zM433 243l-75 229l-23 78h-3l-25 -78l-77 -229h203zM399 960l140 -195h-109l-94 134l-95 -134h-108l138 195h128z" />
    <glyph glyph-name="Atilde.aalt" horiz-adv-x="670" 
d="M148 0h-137l247 649h151l250 -649h-145l-45 136h-275zM433 243l-75 229l-23 78h-3l-25 -78l-77 -229h203zM259 921q31 0 54.5 -12.5t44.5 -32.5q16 -15 28.5 -22.5t26.5 -7.5q47 0 53 73h68q-3 -74 -34.5 -115t-86.5 -41q-30 0 -53 12t-46 33q-17 15 -29.5 22.5
t-25.5 7.5q-23 0 -36.5 -20t-15.5 -53h-70q2 72 34.5 114t87.5 42z" />
    <glyph glyph-name="Adieresis.aalt" horiz-adv-x="670" 
d="M148 0h-137l247 649h151l250 -649h-145l-45 136h-275zM433 243l-75 229l-23 78h-3l-25 -78l-77 -229h203zM150 830q0 70 68 70q70 0 70 -70q0 -69 -70 -69q-35 0 -51.5 16t-16.5 53zM383 830q0 70 70 70q68 0 68 -70q0 -35 -16.5 -52t-51.5 -17q-36 0 -53 16t-17 53z" />
    <glyph glyph-name="Aring.aalt" horiz-adv-x="670" 
d="M148 0h-137l247 649h151l250 -649h-145l-45 136h-275zM433 243l-75 229l-23 78h-3l-25 -78l-77 -229h203zM336 986q76 0 115.5 -34.5t39.5 -90.5q0 -59 -39 -90.5t-116 -31.5q-79 0 -118.5 30t-39.5 92q0 58 38.5 91.5t119.5 33.5zM336 804q77 0 77 57q0 60 -77 60
q-44 0 -62 -15.5t-18 -44.5q0 -28 18 -42.5t62 -14.5z" />
    <glyph glyph-name="AE.aalt" horiz-adv-x="972" 
d="M860 385v-101h-248l14 -171h296l-3 -113h-415l-12 137h-257l-73 -137h-154l379 649h522l3 -114h-321l13 -150h256zM484 243l-19 232l-5 81l-3 1l-37 -73l-129 -241h193z" />
    <glyph glyph-name="Ccedilla.aalt" horiz-adv-x="567" 
d="M387 -11l-33 -199h-116l63 202q-123 15 -183 98.5t-60 238.5q0 165 76 248t236 83q41 0 85.5 -8.5t75.5 -20.5l-15 -112q-62 26 -140 26q-69 0 -108.5 -20.5t-57.5 -67.5t-18 -129q0 -86 18.5 -135t58.5 -70t109 -21q73 0 141 29l14 -105q-29 -14 -68 -24t-78 -13z" />
    <glyph glyph-name="Egrave.aalt" horiz-adv-x="601" 
d="M90 0v649h444l2 -115h-318v-149h270v-101h-270v-171h333l-4 -113h-457zM280 960l124 -195h-114l-144 195h134z" />
    <glyph glyph-name="Eacute.aalt" horiz-adv-x="601" 
d="M90 0v649h444l2 -115h-318v-149h270v-101h-270v-171h333l-4 -113h-457zM502 960l-144 -195h-114l124 195h134z" />
    <glyph glyph-name="Ecircumflex.aalt" horiz-adv-x="601" 
d="M90 0v649h444l2 -115h-318v-149h270v-101h-270v-171h333l-4 -113h-457zM385 960l140 -195h-109l-94 134l-95 -134h-108l138 195h128z" />
    <glyph glyph-name="Edieresis.aalt" horiz-adv-x="601" 
d="M90 0v649h444l2 -115h-318v-149h270v-101h-270v-171h333l-4 -113h-457zM136 830q0 70 68 70q70 0 70 -70q0 -69 -70 -69q-35 0 -51.5 16t-16.5 53zM369 830q0 70 70 70q68 0 68 -70q0 -35 -16.5 -52t-51.5 -17q-36 0 -53 16t-17 53z" />
    <glyph glyph-name="Igrave.aalt" horiz-adv-x="311" 
d="M221 0h-131v649h131v-649zM114 960l124 -195h-114l-144 195h134z" />
    <glyph glyph-name="Iacute.aalt" horiz-adv-x="311" 
d="M221 0h-131v649h131v-649zM336 960l-144 -195h-114l124 195h134z" />
    <glyph glyph-name="Icircumflex.aalt" horiz-adv-x="311" 
d="M221 0h-131v649h131v-649zM219 960l140 -195h-109l-94 134l-95 -134h-108l138 195h128z" />
    <glyph glyph-name="Idieresis.aalt" horiz-adv-x="311" 
d="M221 0h-131v649h131v-649zM-30 830q0 70 68 70q70 0 70 -70q0 -69 -70 -69q-35 0 -51.5 16t-16.5 53zM203 830q0 70 70 70q68 0 68 -70q0 -35 -16.5 -52t-51.5 -17q-36 0 -53 16t-17 53z" />
    <glyph glyph-name="Eth.aalt" horiz-adv-x="701" 
d="M643 326q0 -165 -80.5 -245.5t-233.5 -80.5h-239v282h-78v91h78v276h238q159 0 237 -80t78 -243zM509 328q0 77 -20 122t-59.5 64t-103.5 19h-108v-160h137v-91h-137v-167h108q62 0 102 19t60.5 66t20.5 128z" />
    <glyph glyph-name="Ntilde.aalt" horiz-adv-x="720" 
d="M206 459l-2 -1l1 -81v-377h-115v649h110l270 -378l46 -66l2 1l-2 80v363h114v-649h-102l-277 392zM284 921q31 0 54.5 -12.5t44.5 -32.5q16 -15 28.5 -22.5t26.5 -7.5q47 0 53 73h68q-3 -74 -34.5 -115t-86.5 -41q-30 0 -53 12t-46 33q-17 15 -29.5 22.5t-25.5 7.5
q-23 0 -36.5 -20t-15.5 -53h-70q2 72 34.5 114t87.5 42z" />
    <glyph glyph-name="Ograve.aalt" horiz-adv-x="708" 
d="M354 -12q-156 0 -226 81.5t-70 254.5q0 174 69.5 254.5t226.5 80.5t226.5 -80.5t69.5 -254.5q0 -175 -69.5 -255.5t-226.5 -80.5zM354 544q-61 0 -96 -19.5t-50.5 -67t-15.5 -133.5t16 -133.5t51 -67.5t96 -20t95 20t49.5 67.5t15.5 133.5q0 87 -15 134t-49.5 66.5
t-96.5 19.5zM312 960l124 -195h-114l-144 195h134z" />
    <glyph glyph-name="Oacute.aalt" horiz-adv-x="708" 
d="M354 -12q-156 0 -226 81.5t-70 254.5q0 174 69.5 254.5t226.5 80.5t226.5 -80.5t69.5 -254.5q0 -175 -69.5 -255.5t-226.5 -80.5zM354 544q-61 0 -96 -19.5t-50.5 -67t-15.5 -133.5t16 -133.5t51 -67.5t96 -20t95 20t49.5 67.5t15.5 133.5q0 87 -15 134t-49.5 66.5
t-96.5 19.5zM534 960l-144 -195h-114l124 195h134z" />
    <glyph glyph-name="Ocircumflex.aalt" horiz-adv-x="708" 
d="M354 -12q-156 0 -226 81.5t-70 254.5q0 174 69.5 254.5t226.5 80.5t226.5 -80.5t69.5 -254.5q0 -175 -69.5 -255.5t-226.5 -80.5zM354 544q-61 0 -96 -19.5t-50.5 -67t-15.5 -133.5t16 -133.5t51 -67.5t96 -20t95 20t49.5 67.5t15.5 133.5q0 87 -15 134t-49.5 66.5
t-96.5 19.5zM417 960l140 -195h-109l-94 134l-95 -134h-108l138 195h128z" />
    <glyph glyph-name="Otilde.aalt" horiz-adv-x="708" 
d="M354 -12q-156 0 -226 81.5t-70 254.5q0 174 69.5 254.5t226.5 80.5t226.5 -80.5t69.5 -254.5q0 -175 -69.5 -255.5t-226.5 -80.5zM354 544q-61 0 -96 -19.5t-50.5 -67t-15.5 -133.5t16 -133.5t51 -67.5t96 -20t95 20t49.5 67.5t15.5 133.5q0 87 -15 134t-49.5 66.5
t-96.5 19.5zM277 921q31 0 54.5 -12.5t44.5 -32.5q16 -15 28.5 -22.5t26.5 -7.5q47 0 53 73h68q-3 -74 -34.5 -115t-86.5 -41q-30 0 -53 12t-46 33q-17 15 -29.5 22.5t-25.5 7.5q-23 0 -36.5 -20t-15.5 -53h-70q2 72 34.5 114t87.5 42z" />
    <glyph glyph-name="Odieresis.aalt" horiz-adv-x="708" 
d="M354 -12q-156 0 -226 81.5t-70 254.5q0 174 69.5 254.5t226.5 80.5t226.5 -80.5t69.5 -254.5q0 -175 -69.5 -255.5t-226.5 -80.5zM354 544q-61 0 -96 -19.5t-50.5 -67t-15.5 -133.5t16 -133.5t51 -67.5t96 -20t95 20t49.5 67.5t15.5 133.5q0 87 -15 134t-49.5 66.5
t-96.5 19.5zM168 830q0 70 68 70q70 0 70 -70q0 -69 -70 -69q-35 0 -51.5 16t-16.5 53zM401 830q0 70 70 70q68 0 68 -70q0 -35 -16.5 -52t-51.5 -17q-36 0 -53 16t-17 53z" />
    <glyph glyph-name="Oslash.aalt" horiz-adv-x="708" 
d="M650 324q0 -175 -69.5 -255.5t-226.5 -80.5q-130 0 -199 56l-70 -77l-58 54l76 84q-45 77 -45 219q0 174 69.5 254.5t226.5 80.5q131 0 202 -57l69 75l58 -56l-75 -82q42 -77 42 -215zM202 213l269 295q-18 19 -46.5 27.5t-70.5 8.5q-61 0 -96 -19.5t-50.5 -67
t-15.5 -133.5q0 -70 10 -111zM507 429l-267 -292q19 -18 47 -26t68 -8q61 0 95 20t49.5 67.5t15.5 133.5q0 66 -8 105z" />
    <glyph glyph-name="Ugrave.aalt" horiz-adv-x="719" 
d="M361 -12q-273 0 -273 253v408h129v-407q0 -71 35 -104t109 -33t108 33t34 104v407h128v-408q0 -253 -270 -253zM318 960l124 -195h-114l-144 195h134z" />
    <glyph glyph-name="Uacute.aalt" horiz-adv-x="719" 
d="M361 -12q-273 0 -273 253v408h129v-407q0 -71 35 -104t109 -33t108 33t34 104v407h128v-408q0 -253 -270 -253zM540 960l-144 -195h-114l124 195h134z" />
    <glyph glyph-name="Ucircumflex.aalt" horiz-adv-x="719" 
d="M361 -12q-273 0 -273 253v408h129v-407q0 -71 35 -104t109 -33t108 33t34 104v407h128v-408q0 -253 -270 -253zM423 960l140 -195h-109l-94 134l-95 -134h-108l138 195h128z" />
    <glyph glyph-name="Udieresis.aalt" horiz-adv-x="719" 
d="M361 -12q-273 0 -273 253v408h129v-407q0 -71 35 -104t109 -33t108 33t34 104v407h128v-408q0 -253 -270 -253zM174 830q0 70 68 70q70 0 70 -70q0 -69 -70 -69q-35 0 -51.5 16t-16.5 53zM407 830q0 70 70 70q68 0 68 -70q0 -35 -16.5 -52t-51.5 -17q-36 0 -53 16t-17 53
z" />
    <glyph glyph-name="Yacute.aalt" horiz-adv-x="616" 
d="M311 318h3l33 73l124 258h142l-236 -436v-213h-133v213l-241 436h147l127 -258zM488 960l-144 -195h-114l124 195h134z" />
    <glyph glyph-name="Thorn.aalt" horiz-adv-x="622" 
d="M317 116h-98v-116h-129v649h129v-103h98q142 0 205 -52.5t63 -164.5q0 -105 -63.5 -159t-204.5 -54zM317 438h-99v-219h99q75 0 105.5 23.5t30.5 86.5q0 62 -30.5 85.5t-105.5 23.5z" />
    <glyph glyph-name="ydieresis.aalt" horiz-adv-x="616" 
d="M311 318h3l33 73l124 258h142l-236 -436v-213h-133v213l-241 436h147l127 -258zM122 830q0 70 68 70q70 0 70 -70q0 -69 -70 -69q-35 0 -51.5 16t-16.5 53zM355 830q0 70 70 70q68 0 68 -70q0 -35 -16.5 -52t-51.5 -17q-36 0 -53 16t-17 53z" />
    <glyph glyph-name="Amacron.aalt" horiz-adv-x="670" 
d="M148 0h-137l247 649h151l250 -649h-145l-45 136h-275zM433 243l-75 229l-23 78h-3l-25 -78l-77 -229h203zM171 861h323v-81h-323v81z" />
    <glyph glyph-name="Abreve.aalt" horiz-adv-x="670" 
d="M148 0h-137l247 649h151l250 -649h-145l-45 136h-275zM433 243l-75 229l-23 78h-3l-25 -78l-77 -229h203zM336 758q-105 0 -156.5 48t-51.5 138h99q0 -57 26 -81.5t83 -24.5t83 24.5t26 81.5h99q0 -89 -53 -137.5t-155 -48.5z" />
    <glyph glyph-name="Aogonek.aalt" horiz-adv-x="670" 
d="M565 -139q38 0 68 13v-70q-36 -17 -88 -17q-58 0 -89 25.5t-31 71.5q0 41 22.5 70t64.5 52l-43 130h-275l-46 -136h-137l247 649h151l250 -649h-74q-36 -22 -55.5 -44t-19.5 -48q0 -25 15.5 -36t39.5 -11zM358 472l-23 78h-3l-25 -78l-77 -229h203z" />
    <glyph glyph-name="Cacute.aalt" horiz-adv-x="567" 
d="M376 545q-69 0 -108.5 -20.5t-57.5 -67.5t-18 -129q0 -86 18.5 -135t58.5 -70t109 -21q73 0 141 29l14 -105q-36 -17 -82 -27.5t-90 -10.5q-154 0 -228.5 84t-74.5 257q0 165 76 248t236 83q41 0 85.5 -8.5t75.5 -20.5l-15 -112q-62 26 -140 26zM515 960l-144 -195h-114
l124 195h134z" />
    <glyph glyph-name="Ccircumflex.aalt" horiz-adv-x="567" 
d="M376 545q-69 0 -108.5 -20.5t-57.5 -67.5t-18 -129q0 -86 18.5 -135t58.5 -70t109 -21q73 0 141 29l14 -105q-36 -17 -82 -27.5t-90 -10.5q-154 0 -228.5 84t-74.5 257q0 165 76 248t236 83q41 0 85.5 -8.5t75.5 -20.5l-15 -112q-62 26 -140 26zM398 960l140 -195h-109
l-94 134l-95 -134h-108l138 195h128z" />
    <glyph glyph-name="Cdotaccent.aalt" horiz-adv-x="567" 
d="M376 545q-69 0 -108.5 -20.5t-57.5 -67.5t-18 -129q0 -86 18.5 -135t58.5 -70t109 -21q73 0 141 29l14 -105q-36 -17 -82 -27.5t-90 -10.5q-154 0 -228.5 84t-74.5 257q0 165 76 248t236 83q41 0 85.5 -8.5t75.5 -20.5l-15 -112q-62 26 -140 26zM335 775
q-43 0 -63.5 14.5t-20.5 50.5q0 66 84 66t84 -66q0 -33 -20.5 -49t-63.5 -16z" />
    <glyph glyph-name="Ccaron.aalt" horiz-adv-x="567" 
d="M376 545q-69 0 -108.5 -20.5t-57.5 -67.5t-18 -129q0 -86 18.5 -135t58.5 -70t109 -21q73 0 141 29l14 -105q-36 -17 -82 -27.5t-90 -10.5q-154 0 -228.5 84t-74.5 257q0 165 76 248t236 83q41 0 85.5 -8.5t75.5 -20.5l-15 -112q-62 26 -140 26zM240 960l94 -134l95 134
h108l-138 -195h-128l-140 195h109z" />
    <glyph glyph-name="Dcaron.aalt" horiz-adv-x="701" 
d="M329 0h-239v649h238q159 0 237 -80t78 -243q0 -165 -80.5 -245.5t-233.5 -80.5zM326 533h-108v-418h108q62 0 102 19t60.5 66t20.5 128q0 77 -20 122t-59.5 64t-103.5 19zM250 960l94 -134l95 134h108l-138 -195h-128l-140 195h109z" />
    <glyph glyph-name="Dcroat.aalt" horiz-adv-x="701" 
d="M643 326q0 -165 -80.5 -245.5t-233.5 -80.5h-239v282h-78v91h78v276h238q159 0 237 -80t78 -243zM509 328q0 77 -20 122t-59.5 64t-103.5 19h-108v-160h137v-91h-137v-167h108q62 0 102 19t60.5 66t20.5 128z" />
    <glyph glyph-name="Emacron.aalt" horiz-adv-x="601" 
d="M90 0v649h444l2 -115h-318v-149h270v-101h-270v-171h333l-4 -113h-457zM157 861h323v-81h-323v81z" />
    <glyph glyph-name="Ebreve.aalt" horiz-adv-x="601" 
d="M90 0v649h444l2 -115h-318v-149h270v-101h-270v-171h333l-4 -113h-457zM322 758q-105 0 -156.5 48t-51.5 138h99q0 -57 26 -81.5t83 -24.5t83 24.5t26 81.5h99q0 -89 -53 -137.5t-155 -48.5z" />
    <glyph glyph-name="Edotaccent.aalt" horiz-adv-x="601" 
d="M90 0v649h444l2 -115h-318v-149h270v-101h-270v-171h333l-4 -113h-457zM322 775q-43 0 -63.5 14.5t-20.5 50.5q0 66 84 66t84 -66q0 -33 -20.5 -49t-63.5 -16z" />
    <glyph glyph-name="Eogonek.aalt" horiz-adv-x="601" 
d="M567 -126v-70q-36 -17 -88 -17q-58 0 -89 25.5t-31 71.5q0 38 20 66t57 50h-346v649h444l2 -115h-318v-149h270v-101h-270v-171h333l-4 -113h-28q-36 -22 -55.5 -44t-19.5 -48q0 -25 15.5 -36t39.5 -11q38 0 68 13z" />
    <glyph glyph-name="Ecaron.aalt" horiz-adv-x="601" 
d="M90 0v649h444l2 -115h-318v-149h270v-101h-270v-171h333l-4 -113h-457zM227 960l94 -134l95 134h108l-138 -195h-128l-140 195h109z" />
    <glyph glyph-name="Gcircumflex.aalt" horiz-adv-x="659" 
d="M58 323q0 172 77.5 255t245.5 83q48 0 98.5 -9t88.5 -23l-13 -112q-77 29 -167 29q-74 0 -116 -20.5t-61 -68t-19 -132.5t17.5 -133t55.5 -68.5t103 -20.5q57 0 97 12v133h-103v100h219v-320q-39 -18 -96.5 -29t-112.5 -11q-167 0 -240.5 82t-73.5 253zM410 960l140 -195
h-109l-94 134l-95 -134h-108l138 195h128z" />
    <glyph glyph-name="Gbreve.aalt" horiz-adv-x="659" 
d="M58 323q0 172 77.5 255t245.5 83q48 0 98.5 -9t88.5 -23l-13 -112q-77 29 -167 29q-74 0 -116 -20.5t-61 -68t-19 -132.5t17.5 -133t55.5 -68.5t103 -20.5q57 0 97 12v133h-103v100h219v-320q-39 -18 -96.5 -29t-112.5 -11q-167 0 -240.5 82t-73.5 253zM347 758
q-105 0 -156.5 48t-51.5 138h99q0 -57 26 -81.5t83 -24.5t83 24.5t26 81.5h99q0 -89 -53 -137.5t-155 -48.5z" />
    <glyph glyph-name="Gdotaccent.aalt" horiz-adv-x="659" 
d="M58 323q0 172 77.5 255t245.5 83q48 0 98.5 -9t88.5 -23l-13 -112q-77 29 -167 29q-74 0 -116 -20.5t-61 -68t-19 -132.5t17.5 -133t55.5 -68.5t103 -20.5q57 0 97 12v133h-103v100h219v-320q-39 -18 -96.5 -29t-112.5 -11q-167 0 -240.5 82t-73.5 253zM347 775
q-43 0 -63.5 14.5t-20.5 50.5q0 66 84 66t84 -66q0 -33 -20.5 -49t-63.5 -16z" />
    <glyph glyph-name="uni0122.aalt" horiz-adv-x="659" 
d="M58 323q0 172 77.5 255t245.5 83q48 0 98.5 -9t88.5 -23l-13 -112q-77 29 -167 29q-74 0 -116 -20.5t-61 -68t-19 -132.5t17.5 -133t55.5 -68.5t103 -20.5q57 0 97 12v133h-103v100h219v-320q-39 -18 -96.5 -29t-112.5 -11q-167 0 -240.5 82t-73.5 253zM408 -129
q0 -35 -14 -74t-41 -76h-89q26 61 26 130q0 30 -12 76h121q9 -32 9 -56z" />
    <glyph glyph-name="Hcircumflex.aalt" horiz-adv-x="715" 
d="M219 274v-274h-129v649h129v-258h277v258h129v-649h-129v274h-277zM421 960l140 -195h-109l-94 134l-95 -134h-108l138 195h128z" />
    <glyph glyph-name="Hbar.aalt" horiz-adv-x="715" 
d="M625 484v-484h-129v274h-277v-274h-129v484h-80v75h80v90h129v-90h277v90h129v-90h80v-75h-80zM219 484v-93h277v93h-277z" />
    <glyph glyph-name="Itilde.aalt" horiz-adv-x="311" 
d="M221 0h-131v649h131v-649zM79 921q31 0 54.5 -12.5t44.5 -32.5q16 -15 28.5 -22.5t26.5 -7.5q47 0 53 73h68q-3 -74 -34.5 -115t-86.5 -41q-30 0 -53 12t-46 33q-17 15 -29.5 22.5t-25.5 7.5q-23 0 -36.5 -20t-15.5 -53h-70q2 72 34.5 114t87.5 42z" />
    <glyph glyph-name="Imacron.aalt" horiz-adv-x="311" 
d="M221 0h-131v649h131v-649zM-9 861h323v-81h-323v81z" />
    <glyph glyph-name="Ibreve.aalt" horiz-adv-x="311" 
d="M221 0h-131v649h131v-649zM156 758q-105 0 -156.5 48t-51.5 138h99q0 -57 26 -81.5t83 -24.5t83 24.5t26 81.5h99q0 -89 -53 -137.5t-155 -48.5z" />
    <glyph glyph-name="Iogonek.aalt" horiz-adv-x="311" 
d="M238 -126v-70q-36 -17 -88 -17q-58 0 -89 25.5t-31 71.5q0 38 20 66t57 50h-17v649h131v-649h-31q-36 -22 -55.5 -44t-19.5 -48q0 -25 15.5 -36t39.5 -11q38 0 68 13z" />
    <glyph glyph-name="Idotaccent.aalt" horiz-adv-x="311" 
d="M156 775q-43 0 -63.5 14.5t-20.5 50.5q0 66 84 66t84 -66q0 -33 -20.5 -49t-63.5 -16zM221 0h-131v649h131v-649z" />
    <glyph glyph-name="glyph627" horiz-adv-x="303" 
d="M217 0h-131v649h131v-649z" />
    <glyph glyph-name="IJ.aalt" horiz-adv-x="792" 
d="M221 0h-131v649h131v-649zM481 -12q-40 0 -75.5 8.5t-60.5 23.5l8 109q21 -13 49 -21t54 -8q62 0 89 29.5t27 94.5v425h130v-425q0 -236 -221 -236z" />
    <glyph glyph-name="Jcircumflex.aalt" horiz-adv-x="481" 
d="M170 -12q-40 0 -75.5 8.5t-60.5 23.5l8 109q21 -13 49 -21t54 -8q62 0 89 29.5t27 94.5v425h130v-425q0 -236 -221 -236zM387 960l140 -195h-109l-94 134l-95 -134h-108l138 195h128z" />
    <glyph glyph-name="uni0136.aalt" horiz-adv-x="672" 
d="M218 281v-281h-128v649h128v-262h90l184 262h149l-220 -308l232 -341h-159l-190 281h-86zM412 -129q0 -35 -14 -74t-41 -76h-89q26 61 26 130q0 30 -12 76h121q9 -32 9 -56z" />
    <glyph glyph-name="kgreenlandic.aalt" horiz-adv-x="672" 
d="M218 281v-281h-128v649h128v-262h90l184 262h149l-220 -308l232 -341h-159l-190 281h-86z" />
    <glyph glyph-name="Lacute.aalt" horiz-adv-x="542" 
d="M90 0v649h129v-533h301l-3 -116h-427zM334 960l-144 -195h-114l124 195h134z" />
    <glyph glyph-name="uni013B.aalt" horiz-adv-x="542" 
d="M90 0v649h129v-533h301l-3 -116h-427zM363 -129q0 -35 -14 -74t-41 -76h-89q26 61 26 130q0 30 -12 76h121q9 -32 9 -56z" />
    <glyph glyph-name="lcaron.aalt" horiz-adv-x="542" 
d="M471 655q0 -52 -17 -109t-43 -103h-77q15 35 25 87.5t10 96.5q0 47 -10 91h104q8 -34 8 -63zM90 0v649h129v-533h301l-3 -116h-427z" />
    <glyph glyph-name="Ldot.aalt" horiz-adv-x="542" 
d="M90 0v649h129v-533h301l-3 -116h-427zM408 315q-41 0 -59 17.5t-18 57.5q0 76 77 76t77 -76q0 -75 -77 -75z" />
    <glyph glyph-name="Lslash.aalt" horiz-adv-x="542" 
d="M517 0h-427v256l-82 -35l-6 106l88 38v284h129v-227l177 77l8 -110l-185 -78v-195h301z" />
    <glyph glyph-name="Nacute.aalt" horiz-adv-x="720" 
d="M206 459l-2 -1l1 -81v-377h-115v649h110l270 -378l46 -66l2 1l-2 80v363h114v-649h-102l-277 392zM541 960l-144 -195h-114l124 195h134z" />
    <glyph glyph-name="uni0145.aalt" horiz-adv-x="720" 
d="M206 459l-2 -1l1 -81v-377h-115v649h110l270 -378l46 -66l2 1l-2 80v363h114v-649h-102l-277 392zM431 -129q0 -35 -14 -74t-41 -76h-89q26 61 26 130q0 30 -12 76h121q9 -32 9 -56z" />
    <glyph glyph-name="Ncaron.aalt" horiz-adv-x="720" 
d="M206 459l-2 -1l1 -81v-377h-115v649h110l270 -378l46 -66l2 1l-2 80v363h114v-649h-102l-277 392zM266 960l94 -134l95 134h108l-138 -195h-128l-140 195h109z" />
    <glyph glyph-name="napostrophe.aalt" horiz-adv-x="784" 
d="M118 814q0 -52 -17 -109t-43 -103h-77q15 35 25 87.5t10 96.5q0 47 -10 91h104q8 -34 8 -63zM270 459l-2 -1l1 -81v-377h-115v649h110l270 -378l46 -66l2 1l-2 80v363h114v-649h-102l-277 392z" />
    <glyph glyph-name="Eng.aalt" horiz-adv-x="720" 
d="M471 -128q-57 0 -97 25l7 79q13 -10 30.5 -15.5t33.5 -5.5q30 0 47.5 14.5t22.5 45.5l-264 376l-45 67l-2 -1l1 -81v-376h-115v649h110l270 -378l46 -66l2 1l-2 80v363h114v-588q0 -97 -42 -143t-117 -46z" />
    <glyph glyph-name="Omacron.aalt" horiz-adv-x="708" 
d="M354 -12q-156 0 -226 81.5t-70 254.5q0 174 69.5 254.5t226.5 80.5t226.5 -80.5t69.5 -254.5q0 -175 -69.5 -255.5t-226.5 -80.5zM354 544q-61 0 -96 -19.5t-50.5 -67t-15.5 -133.5t16 -133.5t51 -67.5t96 -20t95 20t49.5 67.5t15.5 133.5q0 87 -15 134t-49.5 66.5
t-96.5 19.5zM189 861h323v-81h-323v81z" />
    <glyph glyph-name="Obreve.aalt" horiz-adv-x="708" 
d="M354 -12q-156 0 -226 81.5t-70 254.5q0 174 69.5 254.5t226.5 80.5t226.5 -80.5t69.5 -254.5q0 -175 -69.5 -255.5t-226.5 -80.5zM354 544q-61 0 -96 -19.5t-50.5 -67t-15.5 -133.5t16 -133.5t51 -67.5t96 -20t95 20t49.5 67.5t15.5 133.5q0 87 -15 134t-49.5 66.5
t-96.5 19.5zM354 758q-105 0 -156.5 48t-51.5 138h99q0 -57 26 -81.5t83 -24.5t83 24.5t26 81.5h99q0 -89 -53 -137.5t-155 -48.5z" />
    <glyph glyph-name="Ohungarumlaut.aalt" horiz-adv-x="708" 
d="M354 -12q-156 0 -226 81.5t-70 254.5q0 174 69.5 254.5t226.5 80.5t226.5 -80.5t69.5 -254.5q0 -175 -69.5 -255.5t-226.5 -80.5zM354 544q-61 0 -96 -19.5t-50.5 -67t-15.5 -133.5t16 -133.5t51 -67.5t96 -20t95 20t49.5 67.5t15.5 133.5q0 87 -15 134t-49.5 66.5
t-96.5 19.5zM207 765l116 195h112l-138 -195h-90zM408 765l124 195h114l-148 -195h-90z" />
    <glyph glyph-name="OE.aalt" horiz-adv-x="1010" 
d="M519 73l-2 1q-59 -86 -190 -86q-137 0 -203 82t-66 254q0 173 65 254t205 81q131 0 189 -76h2l-1 29v37h425l3 -116h-312v-147h264v-103h-264v-169h326l-2 -114h-440v35zM351 543q-60 0 -94.5 -19t-50 -66.5t-15.5 -133.5t15.5 -133.5t50 -67t94.5 -19.5t93.5 20t49 67
t15.5 133q0 87 -15 134t-48.5 66t-94.5 19z" />
    <glyph glyph-name="Racute.aalt" horiz-adv-x="647" 
d="M454 275l167 -275h-153l-132 249h-117v-249h-129v649h246q121 0 180.5 -48.5t59.5 -148.5q0 -70 -31.5 -116t-90.5 -61zM336 542h-117v-195h115q59 0 83.5 22t24.5 78q0 52 -23.5 73.5t-82.5 21.5zM519 960l-144 -195h-114l124 195h134z" />
    <glyph glyph-name="uni0156.aalt" horiz-adv-x="647" 
d="M454 275l167 -275h-153l-132 249h-117v-249h-129v649h246q121 0 180.5 -48.5t59.5 -148.5q0 -70 -31.5 -116t-90.5 -61zM336 542h-117v-195h115q59 0 83.5 22t24.5 78q0 52 -23.5 73.5t-82.5 21.5zM398 -129q0 -35 -14 -74t-41 -76h-89q26 61 26 130q0 30 -12 76h121
q9 -32 9 -56z" />
    <glyph glyph-name="Rcaron.aalt" horiz-adv-x="647" 
d="M454 275l167 -275h-153l-132 249h-117v-249h-129v649h246q121 0 180.5 -48.5t59.5 -148.5q0 -70 -31.5 -116t-90.5 -61zM336 542h-117v-195h115q59 0 83.5 22t24.5 78q0 52 -23.5 73.5t-82.5 21.5zM244 960l94 -134l95 134h108l-138 -195h-128l-140 195h109z" />
    <glyph glyph-name="Sacute.aalt" horiz-adv-x="561" 
d="M266 -12q-119 0 -210 50l18 112q93 -51 192 -51q61 0 91.5 22t30.5 63q0 33 -30.5 51t-94.5 38q-63 20 -103.5 39t-69.5 56.5t-29 97.5q0 85 59.5 139.5t178.5 54.5q50 0 100 -9t90 -26l-17 -109q-92 30 -168 30q-64 0 -92 -20.5t-28 -53.5q0 -22 15.5 -37t39 -24.5
t67.5 -23.5q64 -19 105 -38t70.5 -57t29.5 -100q0 -94 -65 -149t-180 -55zM468 960l-144 -195h-114l124 195h134z" />
    <glyph glyph-name="Scircumflex.aalt" horiz-adv-x="561" 
d="M266 -12q-119 0 -210 50l18 112q93 -51 192 -51q61 0 91.5 22t30.5 63q0 33 -30.5 51t-94.5 38q-63 20 -103.5 39t-69.5 56.5t-29 97.5q0 85 59.5 139.5t178.5 54.5q50 0 100 -9t90 -26l-17 -109q-92 30 -168 30q-64 0 -92 -20.5t-28 -53.5q0 -22 15.5 -37t39 -24.5
t67.5 -23.5q64 -19 105 -38t70.5 -57t29.5 -100q0 -94 -65 -149t-180 -55zM351 960l140 -195h-109l-94 134l-95 -134h-108l138 195h128z" />
    <glyph glyph-name="Scedilla.c2sc" horiz-adv-x="561" 
d="M333 -6l-34 -204h-116l62 198q-106 4 -189 50l18 112q93 -51 192 -51q61 0 91.5 22t30.5 63q0 33 -30.5 51t-94.5 38q-63 20 -103.5 39t-69.5 56.5t-29 97.5q0 85 59.5 139.5t178.5 54.5q50 0 100 -9t90 -26l-17 -109q-92 30 -168 30q-64 0 -92 -20.5t-28 -53.5
q0 -22 15.5 -37t39 -24.5t67.5 -23.5q64 -19 105 -38t70.5 -57t29.5 -100q0 -79 -46.5 -131t-131.5 -67z" />
    <glyph glyph-name="Scaron.aalt" horiz-adv-x="561" 
d="M266 -12q-119 0 -210 50l18 112q93 -51 192 -51q61 0 91.5 22t30.5 63q0 33 -30.5 51t-94.5 38q-63 20 -103.5 39t-69.5 56.5t-29 97.5q0 85 59.5 139.5t178.5 54.5q50 0 100 -9t90 -26l-17 -109q-92 30 -168 30q-64 0 -92 -20.5t-28 -53.5q0 -22 15.5 -37t39 -24.5
t67.5 -23.5q64 -19 105 -38t70.5 -57t29.5 -100q0 -94 -65 -149t-180 -55zM193 960l94 -134l95 134h108l-138 -195h-128l-140 195h109z" />
    <glyph glyph-name="Tcaron.aalt" horiz-adv-x="560" 
d="M215 0v534h-193l2 115h513l2 -115h-193v-534h-131zM186 960l94 -134l95 134h108l-138 -195h-128l-140 195h109z" />
    <glyph glyph-name="Tbar.aalt" horiz-adv-x="560" 
d="M474 339v-91h-128v-248h-131v248h-125v91h125v195h-193l2 115h513l2 -115h-193v-195h128z" />
    <glyph glyph-name="Utilde.aalt" horiz-adv-x="719" 
d="M361 -12q-273 0 -273 253v408h129v-407q0 -71 35 -104t109 -33t108 33t34 104v407h128v-408q0 -253 -270 -253zM283 921q31 0 54.5 -12.5t44.5 -32.5q16 -15 28.5 -22.5t26.5 -7.5q47 0 53 73h68q-3 -74 -34.5 -115t-86.5 -41q-30 0 -53 12t-46 33q-17 15 -29.5 22.5
t-25.5 7.5q-23 0 -36.5 -20t-15.5 -53h-70q2 72 34.5 114t87.5 42z" />
    <glyph glyph-name="Umacron.aalt" horiz-adv-x="719" 
d="M361 -12q-273 0 -273 253v408h129v-407q0 -71 35 -104t109 -33t108 33t34 104v407h128v-408q0 -253 -270 -253zM195 861h323v-81h-323v81z" />
    <glyph glyph-name="Ubreve.aalt" horiz-adv-x="719" 
d="M361 -12q-273 0 -273 253v408h129v-407q0 -71 35 -104t109 -33t108 33t34 104v407h128v-408q0 -253 -270 -253zM360 758q-105 0 -156.5 48t-51.5 138h99q0 -57 26 -81.5t83 -24.5t83 24.5t26 81.5h99q0 -89 -53 -137.5t-155 -48.5z" />
    <glyph glyph-name="Uring.aalt" horiz-adv-x="719" 
d="M361 -12q-273 0 -273 253v408h129v-407q0 -71 35 -104t109 -33t108 33t34 104v407h128v-408q0 -253 -270 -253zM360 986q76 0 115.5 -34.5t39.5 -90.5q0 -59 -39 -90.5t-116 -31.5q-79 0 -118.5 30t-39.5 92q0 58 38.5 91.5t119.5 33.5zM360 804q77 0 77 57q0 60 -77 60
q-44 0 -62 -15.5t-18 -44.5q0 -28 18 -42.5t62 -14.5z" />
    <glyph glyph-name="Uhungarumlaut.aalt" horiz-adv-x="719" 
d="M361 -12q-273 0 -273 253v408h129v-407q0 -71 35 -104t109 -33t108 33t34 104v407h128v-408q0 -253 -270 -253zM213 765l116 195h112l-138 -195h-90zM414 765l124 195h114l-148 -195h-90z" />
    <glyph glyph-name="Uogonek.aalt" horiz-adv-x="719" 
d="M631 241q0 -188 -150 -237q-66 -41 -66 -86q0 -25 15.5 -36t39.5 -11q38 0 68 13v-70q-36 -17 -88 -17q-58 0 -89 25.5t-31 71.5q0 57 45 94h-14q-273 0 -273 253v408h129v-407q0 -71 35 -104t109 -33t108 33t34 104v407h128v-408z" />
    <glyph glyph-name="Wcircumflex.aalt" horiz-adv-x="955" 
d="M677 116h3l14 79l95 454h128l-164 -649h-155l-102 446l-16 80h-3l-17 -80l-102 -446h-154l-166 649h135l94 -459l15 -79h3l16 79l109 459h141l108 -454zM541 960l140 -195h-109l-94 134l-95 -134h-108l138 195h128z" />
    <glyph glyph-name="Ycircumflex.aalt" horiz-adv-x="616" 
d="M311 318h3l33 73l124 258h142l-236 -436v-213h-133v213l-241 436h147l127 -258zM371 960l140 -195h-109l-94 134l-95 -134h-108l138 195h128z" />
    <glyph glyph-name="Zacute.aalt" horiz-adv-x="602" 
d="M335 467l48 63l-1 2h-318l5 117h474v-95l-276 -374l-48 -61l1 -3h326l-2 -116h-489v84zM492 960l-144 -195h-114l124 195h134z" />
    <glyph glyph-name="Zdotaccent.aalt" horiz-adv-x="602" 
d="M335 467l48 63l-1 2h-318l5 117h474v-95l-276 -374l-48 -61l1 -3h326l-2 -116h-489v84zM312 775q-43 0 -63.5 14.5t-20.5 50.5q0 66 84 66t84 -66q0 -33 -20.5 -49t-63.5 -16z" />
    <glyph glyph-name="Zcaron.aalt" horiz-adv-x="602" 
d="M335 467l48 63l-1 2h-318l5 117h474v-95l-276 -374l-48 -61l1 -3h326l-2 -116h-489v84zM217 960l94 -134l95 134h108l-138 -195h-128l-140 195h109z" />
    <glyph glyph-name="longs.aalt" horiz-adv-x="534" 
d="M254 -12q-119 0 -210 50l18 112q93 -51 192 -51q61 0 91.5 22t30.5 63q0 33 -30.5 51t-94.5 38q-63 20 -103.5 39t-69.5 56.5t-29 97.5q0 85 60 139.5t178 54.5q50 0 100 -9t90 -26l-17 -109q-92 30 -168 30q-64 0 -92 -20.5t-28 -53.5q0 -22 15.5 -37t39 -24.5
t67.5 -23.5q64 -19 105 -38t70.5 -57t29.5 -100q0 -94 -65 -149t-180 -55z" />
    <glyph glyph-name="uni01B6.aalt" horiz-adv-x="602" 
d="M544 0h-489v84l149 204h-123v81h182l72 98l48 63l-1 2h-318l5 117h474v-95l-137 -185h112v-81h-171l-80 -108l-48 -61l1 -3h326z" />
    <glyph glyph-name="Aringacute.aalt" horiz-adv-x="670" 
d="M256 840l115 147h148l-149 -147h-114zM514 0l-45 128h-275l-46 -128h-137l241 594q-76 24 -76 99q0 51 39 81.5t119 30.5q75 0 115 -31.5t40 -80.5q0 -73 -74 -98l244 -595h-145zM254 693q0 -44 80 -44q39 0 58 12.5t19 31.5q0 21 -18 34t-59 13q-80 0 -80 -47zM358 444
l-23 73h-3l-25 -73l-77 -216h203z" />
    <glyph glyph-name="AEacute.aalt" horiz-adv-x="972" 
d="M860 385v-101h-248l14 -171h296l-3 -113h-415l-12 137h-257l-73 -137h-154l379 649h522l3 -114h-321l13 -150h256zM484 243l-19 232l-5 81l-3 1l-37 -73l-129 -241h193zM740 960l-144 -195h-114l124 195h134z" />
    <glyph glyph-name="Oslashacute.aalt" horiz-adv-x="708" 
d="M650 324q0 -175 -69.5 -255.5t-226.5 -80.5q-130 0 -199 56l-70 -77l-58 54l76 84q-45 77 -45 219q0 174 69.5 254.5t226.5 80.5q131 0 202 -57l69 75l58 -56l-75 -82q42 -77 42 -215zM202 213l269 295q-18 19 -46.5 27.5t-70.5 8.5q-61 0 -96 -19.5t-50.5 -67
t-15.5 -133.5q0 -70 10 -111zM507 429l-267 -292q19 -18 47 -26t68 -8q61 0 95 20t49.5 67.5t15.5 133.5q0 66 -8 105zM534 960l-144 -195h-114l124 195h134z" />
    <glyph glyph-name="uni0218.aalt" horiz-adv-x="561" 
d="M266 -12q-119 0 -210 50l18 112q93 -51 192 -51q61 0 91.5 22t30.5 63q0 33 -30.5 51t-94.5 38q-63 20 -103.5 39t-69.5 56.5t-29 97.5q0 85 59.5 139.5t178.5 54.5q50 0 100 -9t90 -26l-17 -109q-92 30 -168 30q-64 0 -92 -20.5t-28 -53.5q0 -22 15.5 -37t39 -24.5
t67.5 -23.5q64 -19 105 -38t70.5 -57t29.5 -100q0 -94 -65 -149t-180 -55zM340 -129q0 -35 -14 -74t-41 -76h-89q26 61 26 130q0 30 -12 76h121q9 -32 9 -56z" />
    <glyph glyph-name="uni021B.aalt" horiz-adv-x="560" 
d="M215 0v534h-193l2 115h513l2 -115h-193v-534h-131zM351 -129q0 -35 -14 -74t-41 -76h-89q26 61 26 130q0 30 -12 76h121q9 -32 9 -56z" />
    <glyph glyph-name="glyph673" horiz-adv-x="455" 
d="M167 -12q-40 0 -75.5 8.5t-60.5 23.5l8 109q21 -13 49 -21t54 -8q62 0 89 29.5t27 94.5v425h130v-425q0 -236 -221 -236z" />
    <glyph glyph-name="uni0259.aalt" horiz-adv-x="682" 
d="M49 377h439q-9 98 -55 135.5t-137 37.5q-107 0 -191 -30l-14 103q44 17 102 27t120 10q147 0 229 -77.5t82 -259.5q0 -175 -68 -255t-222 -80q-140 0 -214 71.5t-74 245.5q0 41 3 72zM489 276h-307v-3q0 -97 36.5 -135t115.5 -38q53 0 85 16.5t49 55t21 104.5z" />
    <glyph glyph-name="circumflex.c2sc" 
d="M260 690l-59 83l-59 -83h-97l100 129h111l102 -129h-98z" />
    <glyph glyph-name="caron.c2sc" 
d="M143 819l59 -85l59 85h99l-102 -129h-112l-100 129h97z" />
    <glyph glyph-name="breve.c2sc" 
d="M200 685q-78 0 -114 34t-36 100h86q2 -73 65 -73q28 0 45 18t17 55h88q0 -134 -151 -134z" />
    <glyph glyph-name="dotaccent.c2sc" 
d="M202 703q-35 0 -52 12t-17 41q0 53 69 53t69 -53t-69 -53z" />
    <glyph glyph-name="ring.c2sc" 
d="M202 834q59 0 89.5 -25t30.5 -66q0 -91 -120 -91q-59 0 -89 22t-30 69q0 43 29 67t90 24zM204 706q54 0 54 37q0 17 -13.5 27t-40.5 10q-55 0 -55 -37t55 -37z" />
    <glyph glyph-name="ogonek.c2sc" 
d="M236 -62q0 -43 55 -44q28 0 53 12l11 -69q-45 -24 -100 -24q-57 0 -87 24t-30 64q0 46 31.5 76.5t83.5 42.5l48 -20q-27 0 -46 -19t-19 -43z" />
    <glyph glyph-name="tilde.c2sc" 
d="M140 826q21 0 39.5 -7t37.5 -20q18 -12 29 -16.5t22 -4.5q28 0 37 36l59 -1q-3 -46 -28.5 -74.5t-66.5 -28.5q-19 0 -36.5 6t-40.5 21q-17 10 -27.5 15t-22.5 5q-14 0 -24 -10.5t-14 -25.5h-59q4 47 29.5 76t65.5 29z" />
    <glyph glyph-name="hungarumlaut.c2sc" 
d="M83 690l64 129h128l-111 -129h-81zM242 690l82 129h130l-120 -129h-92z" />
    <glyph glyph-name="Wgrave.aalt" horiz-adv-x="955" 
d="M677 116h3l14 79l95 454h128l-164 -649h-155l-102 446l-16 80h-3l-17 -80l-102 -446h-154l-166 649h135l94 -459l15 -79h3l16 79l109 459h141l108 -454zM436 960l124 -195h-114l-144 195h134z" />
    <glyph glyph-name="Wacute.aalt" horiz-adv-x="955" 
d="M677 116h3l14 79l95 454h128l-164 -649h-155l-102 446l-16 80h-3l-17 -80l-102 -446h-154l-166 649h135l94 -459l15 -79h3l16 79l109 459h141l108 -454zM658 960l-144 -195h-114l124 195h134z" />
    <glyph glyph-name="Wdieresis.aalt" horiz-adv-x="955" 
d="M677 116h3l14 79l95 454h128l-164 -649h-155l-102 446l-16 80h-3l-17 -80l-102 -446h-154l-166 649h135l94 -459l15 -79h3l16 79l109 459h141l108 -454zM292 830q0 70 68 70q70 0 70 -70q0 -69 -70 -69q-35 0 -51.5 16t-16.5 53zM525 830q0 70 70 70q68 0 68 -70
q0 -35 -16.5 -52t-51.5 -17q-36 0 -53 16t-17 53z" />
    <glyph glyph-name="uni1E8B.aalt" horiz-adv-x="656" 
d="M329 775q-43 0 -63.5 14.5t-20.5 50.5q0 66 84 66t84 -66q0 -33 -20.5 -49t-63.5 -16zM480 0l-112 192l-39 71h-2l-38 -72l-109 -191h-152l204 336l-198 313h156l103 -174l35 -61h2l37 63l102 172h150l-199 -310l209 -339h-149z" />
    <glyph glyph-name="Ygrave.aalt" horiz-adv-x="616" 
d="M311 318h3l33 73l124 258h142l-236 -436v-213h-133v213l-241 436h147l127 -258zM266 960l124 -195h-114l-144 195h134z" />
    <glyph glyph-name="uniFB01.aalt" horiz-adv-x="875" 
d="M493 374l-1 -111h-273v-263h-129v649h443l3 -117h-317v-158h274zM785 0h-131v649h131v-649z" />
    <glyph glyph-name="uniFB02.aalt" horiz-adv-x="1106" 
d="M493 374l-1 -111h-273v-263h-129v649h443l3 -117h-317v-158h274zM654 0v649h129v-533h301l-3 -116h-427z" />
    <glyph glyph-name="glyph690" horiz-adv-x="303" 
d="M151 703q-35 0 -52 12t-17 41q0 53 69 53t69 -53t-69 -53zM217 0h-131v649h131v-649z" />
    <glyph glyph-name="glyph691" horiz-adv-x="528" 
d="M76 0v649h129v-533h301l-3 -116h-427zM395 338q-36 0 -52 15.5t-16 50.5q0 66 68 66t68 -66t-68 -66z" />
    <glyph glyph-name="parenleft.case" horiz-adv-x="375" 
d="M203 379q0 -123 44.5 -238t121.5 -217l-98 -8q-87 88 -138.5 209t-51.5 254q0 134 50.5 250.5t139.5 212.5l99 -8q-78 -102 -122.5 -217.5t-44.5 -237.5z" />
    <glyph glyph-name="parenright.case" horiz-adv-x="375" 
d="M172 379q0 123 -44.5 238t-121.5 217l98 8q87 -88 138.5 -209t51.5 -254q0 -134 -50.5 -250.5t-139.5 -212.5l-99 8q78 102 122.5 217.5t44.5 237.5z" />
    <glyph glyph-name="hyphen.aalt" horiz-adv-x="397" 
d="M60 327v95h277v-95h-277z" />
    <glyph glyph-name="bracketleft.aalt" horiz-adv-x="340" 
d="M337 741h-136v-735h136v-91h-252v919h252v-93z" />
    <glyph glyph-name="bracketright.aalt" horiz-adv-x="340" 
d="M3 5h137v736h-137v93h252v-919h-252v90z" />
    <glyph glyph-name="grave.case" 
d="M215 915l74 -119h-104l-124 119h154z" />
    <glyph glyph-name="braceleft.aalt" horiz-adv-x="379" 
d="M206 376v-3q28 -15 43.5 -42.5t15.5 -62.5q0 -44 -7 -93q-6 -54 -6 -85q0 -37 22.5 -59t69.5 -22h32v-97h-26q-114 0 -163.5 40.5t-49.5 120.5q0 43 9 101q8 64 8 96q0 30 -19 51t-50 26v55q31 5 50 26t19 51q0 32 -8 96q-9 58 -9 101q0 80 49.5 120.5t163.5 40.5h26v-97
h-32q-47 0 -69.5 -22t-22.5 -59q0 -31 6 -85q7 -49 7 -92q0 -36 -15.5 -64t-43.5 -42z" />
    <glyph glyph-name="braceright.aalt" horiz-adv-x="379" 
d="M174 373v3q-29 14 -44.5 41.5t-15.5 64.5q0 43 7 92q6 54 6 85q0 37 -22.5 59t-69.5 22h-32v97h26q114 0 163 -40.5t49 -120.5q0 -37 -8 -101t-8 -96q0 -30 19 -51t50 -26v-55q-31 -5 -50 -26t-19 -51q0 -32 8 -96t8 -101q0 -80 -49 -120.5t-163 -40.5h-26v97h32
q47 0 69.5 22t22.5 59q0 31 -6 85q-7 49 -7 93q0 35 15.5 62.5t44.5 42.5z" />
    <glyph glyph-name="dieresis.case" 
d="M105 797q-29 0 -43 12.5t-14 41.5q0 55 57 55q56 0 56 -55q0 -54 -56 -54zM300 797q-29 0 -42.5 12.5t-13.5 41.5q0 55 56 55t56 -55q0 -27 -13.5 -40.5t-42.5 -13.5z" />
    <glyph glyph-name="guillemotleft.aalt" horiz-adv-x="639" 
d="M326 164l-302 206v10l302 206v-102l-175 -109l175 -110v-101zM563 164l-302 206v10l302 206v-102l-175 -109l175 -110v-101z" />
    <glyph glyph-name="uni00AD.aalt" horiz-adv-x="397" 
d="M60 327v95h277v-95h-277z" />
    <glyph glyph-name="glyph703" 
d="M49 875h304v-67h-304v67z" />
    <glyph glyph-name="acute.case" 
d="M120 795l72 118h166l-135 -118h-103z" />
    <glyph glyph-name="guillemotright.aalt" horiz-adv-x="639" 
d="M64 484v102l303 -206v-10l-303 -206v101l174 110zM300 484v102l303 -206v-10l-303 -206v101l174 110z" />
    <glyph glyph-name="circumflex.case" 
d="M263 794l-63 74l-63 -74h-113l107 120h136l111 -120h-115z" />
    <glyph glyph-name="caron.case" 
d="M138 914l63 -78l63 78h113l-109 -120h-136l-108 120h114z" />
    <glyph glyph-name="breve.case" 
d="M202 789q-85 0 -124.5 31.5t-39.5 93.5h94q0 -29 19 -43t51 -14q69 0 69 57h95q0 -125 -164 -125z" />
    <glyph glyph-name="dotaccent.case" 
d="M201 794q-42 0 -60 12t-18 42q0 29 19 42.5t59 13.5q41 0 59.5 -13.5t18.5 -42.5q0 -28 -18 -41t-60 -13z" />
    <glyph glyph-name="ring.case" 
d="M198 906q59 0 88 -24.5t29 -67.5q0 -47 -28 -70t-89 -23q-60 0 -87.5 22t-27.5 71q0 92 115 92zM200 775q27 0 38 8.5t11 26.5t-11 27.5t-38 9.5t-38.5 -9.5t-11.5 -27.5t11 -26.5t39 -8.5z" />
    <glyph glyph-name="ogonek.case" 
d="M236 -62q0 -43 55 -44q28 0 53 12l11 -69q-45 -24 -100 -24q-57 0 -87 25t-30 67q0 44 28.5 75t78.5 42l56 -22q-27 0 -46 -19t-19 -43z" />
    <glyph glyph-name="tilde.case" 
d="M137 914q22 0 42.5 -7.5t44.5 -22.5q17 -10 28.5 -15t21.5 -5q14 0 22.5 8.5t12.5 28.5l56 -1q-3 -52 -29 -83t-68 -31q-20 0 -39.5 7t-44.5 23q-16 10 -27 15t-21 5q-13 0 -23 -10t-13 -27h-59q3 51 28.5 83t67.5 32z" />
    <glyph glyph-name="hungarumlaut.case" 
d="M47 794l46 119h133l-96 -119h-83zM198 794l76 119h135l-117 -119h-94z" />
    <glyph glyph-name="endash.aalt" horiz-adv-x="524" 
d="M60 327v95h403v-95h-403z" />
    <glyph glyph-name="emdash.aalt" horiz-adv-x="702" 
d="M60 327v95h582v-95h-582z" />
    <glyph glyph-name="guilsinglleft.aalt" horiz-adv-x="399" 
d="M340 164l-302 206v10l302 206v-102l-175 -109l175 -110v-101z" />
    <glyph glyph-name="guilsinglright.aalt" horiz-adv-x="399" 
d="M59 484v102l303 -206v-10l-303 -206v101l174 110z" />
    <glyph glyph-name="zero.zero" horiz-adv-x="655" 
d="M327 -11q-98 0 -157.5 39.5t-87.5 123.5t-28 221q0 142 28 226t87.5 122t158.5 38q97 0 156.5 -38t88 -122t28.5 -226q0 -136 -28.5 -220.5t-89 -124t-156.5 -39.5zM328 638q-52 0 -82.5 -21.5t-45.5 -78.5t-15 -164q0 -110 15 -167t45 -78t83 -21q52 0 82 21.5t44.5 79
t14.5 166.5q0 108 -14.5 164.5t-44.5 77.5t-82 21zM327 319q-25 0 -36.5 13t-11.5 45q0 59 48 59q24 0 36 -14t12 -45t-11.5 -44.5t-36.5 -13.5z" />
    <glyph glyph-name="zero.pnum.oldstyle.zero" horiz-adv-x="621" 
d="M310 -10q-139 0 -201.5 78.5t-62.5 247.5q0 118 27.5 190.5t85.5 106.5t152 34q93 0 151 -34t85.5 -106.5t27.5 -190.5q0 -169 -63.5 -247.5t-201.5 -78.5zM310 526q-50 0 -81 -18t-46 -63.5t-15 -126.5q0 -83 15 -128t45.5 -63t81.5 -18t81.5 18t45.5 63t15 128
q0 82 -15 127.5t-45.5 63t-81.5 17.5zM310 260q-25 0 -36.5 13t-11.5 45q0 59 48 59q24 0 36 -14t12 -45t-11.5 -44.5t-36.5 -13.5z" />
    <glyph glyph-name="zero.pnum.zero" horiz-adv-x="629" 
d="M314 -11q-97 0 -157 39.5t-88 123.5t-28 221q0 142 28 226t87.5 122t158.5 38q97 0 156.5 -38t88 -122t28.5 -226q0 -136 -28.5 -220.5t-89 -124t-156.5 -39.5zM315 638q-52 0 -82.5 -21.5t-45.5 -78.5t-15 -164q0 -110 15 -167t45 -78t83 -21q52 0 82 21.5t44.5 79
t14.5 166.5q0 108 -14.5 164.5t-44.5 77.5t-82 21zM313 319q-25 0 -36.5 13t-11.5 45q0 59 48 59q24 0 36 -14t12 -45t-11.5 -44.5t-36.5 -13.5z" />
    <glyph glyph-name="zero.oldstyle.zero" horiz-adv-x="618" 
d="M299 -10q-139 0 -201.5 78.5t-62.5 247.5q0 118 27.5 190.5t85.5 106.5t152 34q93 0 151 -34t85.5 -106.5t27.5 -190.5q0 -169 -63.5 -247.5t-201.5 -78.5zM300 532q-49 0 -78.5 -18.5t-44 -65t-14.5 -130.5q0 -86 14.5 -132.5t44 -64.5t78.5 -18t78 18t43.5 64.5
t14.5 131.5t-14.5 131.5t-44 65t-77.5 18.5zM300 260q-25 0 -36.5 13t-11.5 45q0 59 48 59q24 0 36 -14t12 -45t-11.5 -44.5t-36.5 -13.5z" />
    <glyph glyph-name="Lcaron.ss01" horiz-adv-x="581" 
d="M93 0v750h139v-623h327l-3 -127h-463zM78 987l83 -90l83 90h121l-130 -147h-147l-131 147h121z" />
    <glyph glyph-name="lcaron.aalt.aalt" horiz-adv-x="542" 
d="M90 0v649h129v-533h301l-3 -116h-427zM59 960l94 -134l95 134h108l-138 -195h-128l-140 195h109z" />
    <glyph glyph-name="glyph724" horiz-adv-x="712" 
d="M202 110q-5 6 -13.5 17.5t-14.5 17.5q-49 54 -87 151t-38 194q0 125 72.5 200.5t234.5 75.5q161 0 234 -75.5t73 -200.5q0 -97 -38 -194t-87 -151q-4 -4 -30 -37q-44 -57 -79 -89.5t-73 -32.5q-39 0 -75.5 34.5t-78.5 89.5zM466 135q18 23 29 34q24 23 47.5 66.5
t39.5 97.5t16 106q0 43 -21 66.5t-72.5 33.5t-147.5 10q-98 0 -149.5 -10t-72 -33.5t-20.5 -66.5q0 -52 16 -106t39.5 -97.5t47.5 -66.5q12 -12 27 -33q34 -43 60 -67.5t52 -24.5t51.5 24.5t57.5 66.5zM177 370q0 31 7.5 57.5t22.5 38.5q45 -51 133 -91l-26 -43
q-35 5 -72.5 15t-64.5 23zM509 466q15 -12 22.5 -38.5t7.5 -57.5q-27 -13 -64.5 -23t-73.5 -15l-26 43q88 39 134 91zM360 204q-56 0 -102 -10q-17 19 -30 46t-19 56q72 -23 147 -23q77 0 148 23q-10 -64 -45 -102q-44 10 -99 10z" />
    <glyph glyph-name="f_i.dlig" horiz-adv-x="689" 
d="M10 505v97h96v73q0 81 44 128t140 47q42 0 76 -8v-94q-28 7 -57 7q-40 0 -57.5 -19t-17.5 -62v-72h130v-97h-130v-505h-127v505h-97zM540 716q-41 0 -60 14.5t-19 50.5q0 33 20 50.5t59 17.5q78 0 78 -68q0 -65 -78 -65zM603 605v-605h-127v598z" />
    <glyph glyph-name="f_j.dlig" horiz-adv-x="690" 
d="M10 505v97h96v73q0 81 44 128t140 47q42 0 76 -8v-94q-28 7 -57 7q-40 0 -57.5 -19t-17.5 -62v-72h130v-97h-130v-505h-127v505h-97zM540 716q-41 0 -60 14.5t-19 50.5q0 33 20 50.5t59 17.5q78 0 78 -68q0 -65 -78 -65zM415 -206q-54 0 -88 13l7 107q29 -9 58 -9
q38 0 61 23.5t23 70.5v599l127 7v-610q0 -96 -50 -148.5t-138 -52.5z" />
    <glyph glyph-name="f_l.dlig" horiz-adv-x="725" 
d="M10 505v97h96v65q0 85 47.5 134t144.5 49q45 0 82 -10v-96q-37 11 -71 11q-41 0 -58 -23t-17 -73v-57h136v-97h-136v-505h-127v505h-97zM476 127v712l129 6v-698q0 -26 12 -38.5t39 -12.5q26 0 61 5v-98q-42 -10 -101 -10q-75 0 -107.5 31.5t-32.5 102.5z" />
    <glyph glyph-name="uni0162" unicode="&#x162;" horiz-adv-x="602" 
d="M581 622h-210v-622h-28l-35 -210h-116l66 210h-27v622h-209v128h559v-128z" />
    <glyph glyph-name="dotlessi" unicode="&#x131;" horiz-adv-x="303" 
d="M215 605v-605h-127v598z" />
    <glyph glyph-name="uni0237" unicode="&#x237;" horiz-adv-x="299" 
d="M24 -206q-54 0 -88 13l7 107q29 -9 58 -9q38 0 61 23.5t23 70.5v599l127 7v-610q0 -96 -50 -148.5t-138 -52.5z" />
    <glyph glyph-name="uni0163" unicode="&#x163;" horiz-adv-x="439" 
d="M297 -10l-34 -200h-116l65 208q-54 14 -78.5 53.5t-24.5 108.5v345h-94v97h94l19 180h109v-180h166v-97h-166v-318q0 -52 17 -72t59 -20q25 0 50.5 5t40.5 12v-100q-49 -20 -107 -22z" />
    <glyph glyph-name="uni0162.aalt" horiz-adv-x="560" 
d="M346 534v-534h-23l-35 -210h-116l66 210h-23v534h-193l2 115h513l2 -115h-193z" />
    <glyph glyph-name="uni2080" unicode="&#x2080;" horiz-adv-x="360" 
d="M180 -172q-84 0 -122.5 48t-38.5 153q0 108 38 156t124 48q85 0 123 -48t38 -156q0 -105 -38.5 -153t-123.5 -48zM181 157q-26 0 -41.5 -10.5t-22.5 -38t-7 -78.5t7 -78.5t22.5 -38t41.5 -10.5q25 0 40 10.5t22.5 38t7.5 78.5t-7.5 78.5t-22.5 38t-40 10.5z" />
    <glyph glyph-name="uni2081" unicode="&#x2081;" horiz-adv-x="279" 
d="M117 42l3 79l-3 1l-81 -50l-9 81l125 76h57v-396h-92v209z" />
    <glyph glyph-name="uni2082" unicode="&#x2082;" horiz-adv-x="360" 
d="M150 -87v-3h170v-77h-288v60q22 20 57 49q73 62 104 97.5t31 66.5q0 22 -16.5 35t-51.5 13q-28 0 -53.5 -9t-53.5 -27l-22 73q64 42 146 42q73 0 110 -32t37 -87q0 -52 -40.5 -96.5t-129.5 -104.5z" />
    <glyph glyph-name="uni2083" unicode="&#x2083;" horiz-adv-x="360" 
d="M158 -172q-77 0 -134 33l20 70q50 -29 114 -29q38 0 57 14.5t19 39.5q0 26 -24 38t-91 12v63q61 0 85 11t24 37q0 41 -69 41q-62 0 -114 -35l-21 68q27 19 63.5 30.5t75.5 11.5q72 0 111.5 -29t39.5 -80q0 -60 -60 -84v-2q69 -20 69 -87q0 -59 -40.5 -91t-124.5 -32z" />
    <glyph glyph-name="uni2084" unicode="&#x2084;" horiz-adv-x="360" 
d="M12 -93l-7 53l184 267h111v-246h43v-74h-43v-74h-85v74h-203zM219 66l4 80h-3l-31 -50l-47 -68l-33 -44l1 -3h107z" />
    <glyph glyph-name="uni2085" unicode="&#x2085;" horiz-adv-x="360" 
d="M35 -144l15 72q28 -14 54 -20t59 -6q40 0 57.5 14t17.5 45q0 26 -17.5 38t-55.5 12q-51 0 -90 -13l-36 32l19 197h249v-79h-177l-5 -70h2q30 6 60 6q69 0 105 -29t36 -86q0 -141 -158 -141q-80 0 -135 28z" />
    </font>
</defs>
</svg>
